%TF.GenerationSoftware,KiCad,Pcbnew,6.0.10*%
%TF.CreationDate,2022-12-29T00:17:53-05:00*%
%TF.ProjectId,piridium-bus,70697269-6469-4756-9d2d-6275732e6b69,rev?*%
%TF.SameCoordinates,Original*%
%TF.FileFunction,Legend,Bot*%
%TF.FilePolarity,Positive*%
%FSLAX46Y46*%
G04 Gerber Fmt 4.6, Leading zero omitted, Abs format (unit mm)*
G04 Created by KiCad (PCBNEW 6.0.10) date 2022-12-29 00:17:53*
%MOMM*%
%LPD*%
G01*
G04 APERTURE LIST*
%ADD10C,0.150000*%
%ADD11C,0.100000*%
%ADD12C,0.120000*%
G04 APERTURE END LIST*
D10*
X109982000Y-77216000D02*
X122682000Y-77216000D01*
X109982000Y-82296000D02*
X122682000Y-82296000D01*
X109982000Y-72136000D02*
X122682000Y-72136000D01*
X109982000Y-87376000D02*
X122682000Y-87376000D01*
X109982000Y-67056000D02*
X122682000Y-67056000D01*
X119799904Y-64417380D02*
X119799904Y-63417380D01*
X119323714Y-63750714D02*
X119323714Y-64417380D01*
X119323714Y-63845952D02*
X119276095Y-63798333D01*
X119180857Y-63750714D01*
X119038000Y-63750714D01*
X118942761Y-63798333D01*
X118895142Y-63893571D01*
X118895142Y-64417380D01*
X118418952Y-64417380D02*
X118418952Y-63417380D01*
X117990380Y-64417380D02*
X117990380Y-63893571D01*
X118038000Y-63798333D01*
X118133238Y-63750714D01*
X118276095Y-63750714D01*
X118371333Y-63798333D01*
X118418952Y-63845952D01*
X117514190Y-64417380D02*
X117514190Y-63750714D01*
X117514190Y-63417380D02*
X117561809Y-63465000D01*
X117514190Y-63512619D01*
X117466571Y-63465000D01*
X117514190Y-63417380D01*
X117514190Y-63512619D01*
X117038000Y-64417380D02*
X117038000Y-63417380D01*
X117038000Y-63798333D02*
X116942761Y-63750714D01*
X116752285Y-63750714D01*
X116657047Y-63798333D01*
X116609428Y-63845952D01*
X116561809Y-63941190D01*
X116561809Y-64226904D01*
X116609428Y-64322142D01*
X116657047Y-64369761D01*
X116752285Y-64417380D01*
X116942761Y-64417380D01*
X117038000Y-64369761D01*
X116133238Y-64417380D02*
X116133238Y-63750714D01*
X116133238Y-63417380D02*
X116180857Y-63465000D01*
X116133238Y-63512619D01*
X116085619Y-63465000D01*
X116133238Y-63417380D01*
X116133238Y-63512619D01*
X115799904Y-63750714D02*
X115418952Y-63750714D01*
X115657047Y-63417380D02*
X115657047Y-64274523D01*
X115609428Y-64369761D01*
X115514190Y-64417380D01*
X115418952Y-64417380D01*
X113752285Y-64322142D02*
X113799904Y-64369761D01*
X113942761Y-64417380D01*
X114038000Y-64417380D01*
X114180857Y-64369761D01*
X114276095Y-64274523D01*
X114323714Y-64179285D01*
X114371333Y-63988809D01*
X114371333Y-63845952D01*
X114323714Y-63655476D01*
X114276095Y-63560238D01*
X114180857Y-63465000D01*
X114038000Y-63417380D01*
X113942761Y-63417380D01*
X113799904Y-63465000D01*
X113752285Y-63512619D01*
X113180857Y-64417380D02*
X113276095Y-64369761D01*
X113323714Y-64322142D01*
X113371333Y-64226904D01*
X113371333Y-63941190D01*
X113323714Y-63845952D01*
X113276095Y-63798333D01*
X113180857Y-63750714D01*
X113038000Y-63750714D01*
X112942761Y-63798333D01*
X112895142Y-63845952D01*
X112847523Y-63941190D01*
X112847523Y-64226904D01*
X112895142Y-64322142D01*
X112942761Y-64369761D01*
X113038000Y-64417380D01*
X113180857Y-64417380D01*
X112418952Y-63750714D02*
X112418952Y-64417380D01*
X112418952Y-63845952D02*
X112371333Y-63798333D01*
X112276095Y-63750714D01*
X112133238Y-63750714D01*
X112038000Y-63798333D01*
X111990380Y-63893571D01*
X111990380Y-64417380D01*
X111514190Y-63750714D02*
X111514190Y-64417380D01*
X111514190Y-63845952D02*
X111466571Y-63798333D01*
X111371333Y-63750714D01*
X111228476Y-63750714D01*
X111133238Y-63798333D01*
X111085619Y-63893571D01*
X111085619Y-64417380D01*
X110228476Y-64369761D02*
X110323714Y-64417380D01*
X110514190Y-64417380D01*
X110609428Y-64369761D01*
X110657047Y-64274523D01*
X110657047Y-63893571D01*
X110609428Y-63798333D01*
X110514190Y-63750714D01*
X110323714Y-63750714D01*
X110228476Y-63798333D01*
X110180857Y-63893571D01*
X110180857Y-63988809D01*
X110657047Y-64084047D01*
X109323714Y-64369761D02*
X109418952Y-64417380D01*
X109609428Y-64417380D01*
X109704666Y-64369761D01*
X109752285Y-64322142D01*
X109799904Y-64226904D01*
X109799904Y-63941190D01*
X109752285Y-63845952D01*
X109704666Y-63798333D01*
X109609428Y-63750714D01*
X109418952Y-63750714D01*
X109323714Y-63798333D01*
X109038000Y-63750714D02*
X108657047Y-63750714D01*
X108895142Y-63417380D02*
X108895142Y-64274523D01*
X108847523Y-64369761D01*
X108752285Y-64417380D01*
X108657047Y-64417380D01*
X108180857Y-64417380D02*
X108276095Y-64369761D01*
X108323714Y-64322142D01*
X108371333Y-64226904D01*
X108371333Y-63941190D01*
X108323714Y-63845952D01*
X108276095Y-63798333D01*
X108180857Y-63750714D01*
X108038000Y-63750714D01*
X107942761Y-63798333D01*
X107895142Y-63845952D01*
X107847523Y-63941190D01*
X107847523Y-64226904D01*
X107895142Y-64322142D01*
X107942761Y-64369761D01*
X108038000Y-64417380D01*
X108180857Y-64417380D01*
X107418952Y-64417380D02*
X107418952Y-63750714D01*
X107418952Y-63941190D02*
X107371333Y-63845952D01*
X107323714Y-63798333D01*
X107228476Y-63750714D01*
X107133238Y-63750714D01*
X123847523Y-65503571D02*
X123704666Y-65551190D01*
X123657047Y-65598809D01*
X123609428Y-65694047D01*
X123609428Y-65836904D01*
X123657047Y-65932142D01*
X123704666Y-65979761D01*
X123799904Y-66027380D01*
X124180857Y-66027380D01*
X124180857Y-65027380D01*
X123847523Y-65027380D01*
X123752285Y-65075000D01*
X123704666Y-65122619D01*
X123657047Y-65217857D01*
X123657047Y-65313095D01*
X123704666Y-65408333D01*
X123752285Y-65455952D01*
X123847523Y-65503571D01*
X124180857Y-65503571D01*
X123180857Y-66027380D02*
X123180857Y-65360714D01*
X123180857Y-65551190D02*
X123133238Y-65455952D01*
X123085619Y-65408333D01*
X122990380Y-65360714D01*
X122895142Y-65360714D01*
X122561809Y-66027380D02*
X122561809Y-65360714D01*
X122561809Y-65027380D02*
X122609428Y-65075000D01*
X122561809Y-65122619D01*
X122514190Y-65075000D01*
X122561809Y-65027380D01*
X122561809Y-65122619D01*
X121657047Y-66027380D02*
X121657047Y-65027380D01*
X121657047Y-65979761D02*
X121752285Y-66027380D01*
X121942761Y-66027380D01*
X122037999Y-65979761D01*
X122085619Y-65932142D01*
X122133238Y-65836904D01*
X122133238Y-65551190D01*
X122085619Y-65455952D01*
X122037999Y-65408333D01*
X121942761Y-65360714D01*
X121752285Y-65360714D01*
X121657047Y-65408333D01*
X120752285Y-65360714D02*
X120752285Y-66170238D01*
X120799904Y-66265476D01*
X120847523Y-66313095D01*
X120942761Y-66360714D01*
X121085619Y-66360714D01*
X121180857Y-66313095D01*
X120752285Y-65979761D02*
X120847523Y-66027380D01*
X121038000Y-66027380D01*
X121133238Y-65979761D01*
X121180857Y-65932142D01*
X121228476Y-65836904D01*
X121228476Y-65551190D01*
X121180857Y-65455952D01*
X121133238Y-65408333D01*
X121038000Y-65360714D01*
X120847523Y-65360714D01*
X120752285Y-65408333D01*
X119895142Y-65979761D02*
X119990380Y-66027380D01*
X120180857Y-66027380D01*
X120276095Y-65979761D01*
X120323714Y-65884523D01*
X120323714Y-65503571D01*
X120276095Y-65408333D01*
X120180857Y-65360714D01*
X119990380Y-65360714D01*
X119895142Y-65408333D01*
X119847523Y-65503571D01*
X119847523Y-65598809D01*
X120323714Y-65694047D01*
X118990380Y-66027380D02*
X118990380Y-65027380D01*
X118990380Y-65979761D02*
X119085619Y-66027380D01*
X119276095Y-66027380D01*
X119371333Y-65979761D01*
X119418952Y-65932142D01*
X119466571Y-65836904D01*
X119466571Y-65551190D01*
X119418952Y-65455952D01*
X119371333Y-65408333D01*
X119276095Y-65360714D01*
X119085619Y-65360714D01*
X118990380Y-65408333D01*
X117752285Y-65646428D02*
X116990380Y-65646428D01*
X115752285Y-66027380D02*
X115752285Y-65027380D01*
X115371333Y-65027380D01*
X115276095Y-65075000D01*
X115228476Y-65122619D01*
X115180857Y-65217857D01*
X115180857Y-65360714D01*
X115228476Y-65455952D01*
X115276095Y-65503571D01*
X115371333Y-65551190D01*
X115752285Y-65551190D01*
X114609428Y-66027380D02*
X114704666Y-65979761D01*
X114752285Y-65932142D01*
X114799904Y-65836904D01*
X114799904Y-65551190D01*
X114752285Y-65455952D01*
X114704666Y-65408333D01*
X114609428Y-65360714D01*
X114466571Y-65360714D01*
X114371333Y-65408333D01*
X114323714Y-65455952D01*
X114276095Y-65551190D01*
X114276095Y-65836904D01*
X114323714Y-65932142D01*
X114371333Y-65979761D01*
X114466571Y-66027380D01*
X114609428Y-66027380D01*
X113942761Y-65360714D02*
X113752285Y-66027380D01*
X113561809Y-65551190D01*
X113371333Y-66027380D01*
X113180857Y-65360714D01*
X112418952Y-65979761D02*
X112514190Y-66027380D01*
X112704666Y-66027380D01*
X112799904Y-65979761D01*
X112847523Y-65884523D01*
X112847523Y-65503571D01*
X112799904Y-65408333D01*
X112704666Y-65360714D01*
X112514190Y-65360714D01*
X112418952Y-65408333D01*
X112371333Y-65503571D01*
X112371333Y-65598809D01*
X112847523Y-65694047D01*
X111942761Y-66027380D02*
X111942761Y-65360714D01*
X111942761Y-65551190D02*
X111895142Y-65455952D01*
X111847523Y-65408333D01*
X111752285Y-65360714D01*
X111657047Y-65360714D01*
X110561809Y-66027380D02*
X110561809Y-65027380D01*
X110323714Y-65027380D01*
X110180857Y-65075000D01*
X110085619Y-65170238D01*
X110038000Y-65265476D01*
X109990380Y-65455952D01*
X109990380Y-65598809D01*
X110038000Y-65789285D01*
X110085619Y-65884523D01*
X110180857Y-65979761D01*
X110323714Y-66027380D01*
X110561809Y-66027380D01*
X109561809Y-66027380D02*
X109561809Y-65360714D01*
X109561809Y-65027380D02*
X109609428Y-65075000D01*
X109561809Y-65122619D01*
X109514190Y-65075000D01*
X109561809Y-65027380D01*
X109561809Y-65122619D01*
X109133238Y-65979761D02*
X109038000Y-66027380D01*
X108847523Y-66027380D01*
X108752285Y-65979761D01*
X108704666Y-65884523D01*
X108704666Y-65836904D01*
X108752285Y-65741666D01*
X108847523Y-65694047D01*
X108990380Y-65694047D01*
X109085619Y-65646428D01*
X109133238Y-65551190D01*
X109133238Y-65503571D01*
X109085619Y-65408333D01*
X108990380Y-65360714D01*
X108847523Y-65360714D01*
X108752285Y-65408333D01*
X107847523Y-65979761D02*
X107942761Y-66027380D01*
X108133238Y-66027380D01*
X108228476Y-65979761D01*
X108276095Y-65932142D01*
X108323714Y-65836904D01*
X108323714Y-65551190D01*
X108276095Y-65455952D01*
X108228476Y-65408333D01*
X108133238Y-65360714D01*
X107942761Y-65360714D01*
X107847523Y-65408333D01*
X107276095Y-66027380D02*
X107371333Y-65979761D01*
X107418952Y-65932142D01*
X107466571Y-65836904D01*
X107466571Y-65551190D01*
X107418952Y-65455952D01*
X107371333Y-65408333D01*
X107276095Y-65360714D01*
X107133238Y-65360714D01*
X107038000Y-65408333D01*
X106990380Y-65455952D01*
X106942761Y-65551190D01*
X106942761Y-65836904D01*
X106990380Y-65932142D01*
X107038000Y-65979761D01*
X107133238Y-66027380D01*
X107276095Y-66027380D01*
X106514190Y-65360714D02*
X106514190Y-66027380D01*
X106514190Y-65455952D02*
X106466571Y-65408333D01*
X106371333Y-65360714D01*
X106228476Y-65360714D01*
X106133238Y-65408333D01*
X106085619Y-65503571D01*
X106085619Y-66027380D01*
X105609428Y-65360714D02*
X105609428Y-66027380D01*
X105609428Y-65455952D02*
X105561809Y-65408333D01*
X105466571Y-65360714D01*
X105323714Y-65360714D01*
X105228476Y-65408333D01*
X105180857Y-65503571D01*
X105180857Y-66027380D01*
X104323714Y-65979761D02*
X104418952Y-66027380D01*
X104609428Y-66027380D01*
X104704666Y-65979761D01*
X104752285Y-65884523D01*
X104752285Y-65503571D01*
X104704666Y-65408333D01*
X104609428Y-65360714D01*
X104418952Y-65360714D01*
X104323714Y-65408333D01*
X104276095Y-65503571D01*
X104276095Y-65598809D01*
X104752285Y-65694047D01*
X103418952Y-65979761D02*
X103514190Y-66027380D01*
X103704666Y-66027380D01*
X103799904Y-65979761D01*
X103847523Y-65932142D01*
X103895142Y-65836904D01*
X103895142Y-65551190D01*
X103847523Y-65455952D01*
X103799904Y-65408333D01*
X103704666Y-65360714D01*
X103514190Y-65360714D01*
X103418952Y-65408333D01*
X103133238Y-65360714D02*
X102752285Y-65360714D01*
X102990380Y-65027380D02*
X102990380Y-65884523D01*
X102942761Y-65979761D01*
X102847523Y-66027380D01*
X102752285Y-66027380D01*
D11*
X122513285Y-77934571D02*
X121763285Y-77934571D01*
X122120428Y-77934571D02*
X122120428Y-78363142D01*
X122513285Y-78363142D02*
X121763285Y-78363142D01*
X122477571Y-78684571D02*
X122513285Y-78791714D01*
X122513285Y-78970285D01*
X122477571Y-79041714D01*
X122441857Y-79077428D01*
X122370428Y-79113142D01*
X122299000Y-79113142D01*
X122227571Y-79077428D01*
X122191857Y-79041714D01*
X122156142Y-78970285D01*
X122120428Y-78827428D01*
X122084714Y-78756000D01*
X122049000Y-78720285D01*
X121977571Y-78684571D01*
X121906142Y-78684571D01*
X121834714Y-78720285D01*
X121799000Y-78756000D01*
X121763285Y-78827428D01*
X121763285Y-79006000D01*
X121799000Y-79113142D01*
X122513285Y-80006000D02*
X121763285Y-80006000D01*
X122513285Y-80363142D02*
X121763285Y-80363142D01*
X122513285Y-80791714D01*
X121763285Y-80791714D01*
X122513285Y-81148857D02*
X121763285Y-81148857D01*
X122120428Y-81148857D02*
X122120428Y-81577428D01*
X122513285Y-81577428D02*
X121763285Y-81577428D01*
X122513285Y-72747428D02*
X121763285Y-72747428D01*
X122120428Y-72747428D02*
X122120428Y-73176000D01*
X122513285Y-73176000D02*
X121763285Y-73176000D01*
X122477571Y-73497428D02*
X122513285Y-73604571D01*
X122513285Y-73783142D01*
X122477571Y-73854571D01*
X122441857Y-73890285D01*
X122370428Y-73926000D01*
X122299000Y-73926000D01*
X122227571Y-73890285D01*
X122191857Y-73854571D01*
X122156142Y-73783142D01*
X122120428Y-73640285D01*
X122084714Y-73568857D01*
X122049000Y-73533142D01*
X121977571Y-73497428D01*
X121906142Y-73497428D01*
X121834714Y-73533142D01*
X121799000Y-73568857D01*
X121763285Y-73640285D01*
X121763285Y-73818857D01*
X121799000Y-73926000D01*
X122513285Y-75247428D02*
X122156142Y-74997428D01*
X122513285Y-74818857D02*
X121763285Y-74818857D01*
X121763285Y-75104571D01*
X121799000Y-75176000D01*
X121834714Y-75211714D01*
X121906142Y-75247428D01*
X122013285Y-75247428D01*
X122084714Y-75211714D01*
X122120428Y-75176000D01*
X122156142Y-75104571D01*
X122156142Y-74818857D01*
X122120428Y-75818857D02*
X122156142Y-75926000D01*
X122191857Y-75961714D01*
X122263285Y-75997428D01*
X122370428Y-75997428D01*
X122441857Y-75961714D01*
X122477571Y-75926000D01*
X122513285Y-75854571D01*
X122513285Y-75568857D01*
X121763285Y-75568857D01*
X121763285Y-75818857D01*
X121799000Y-75890285D01*
X121834714Y-75926000D01*
X121906142Y-75961714D01*
X121977571Y-75961714D01*
X122049000Y-75926000D01*
X122084714Y-75890285D01*
X122120428Y-75818857D01*
X122120428Y-75568857D01*
X122120428Y-76568857D02*
X122120428Y-76318857D01*
X122513285Y-76318857D02*
X121763285Y-76318857D01*
X121763285Y-76676000D01*
X122513285Y-83014571D02*
X121763285Y-83014571D01*
X122120428Y-83014571D02*
X122120428Y-83443142D01*
X122513285Y-83443142D02*
X121763285Y-83443142D01*
X122477571Y-83764571D02*
X122513285Y-83871714D01*
X122513285Y-84050285D01*
X122477571Y-84121714D01*
X122441857Y-84157428D01*
X122370428Y-84193142D01*
X122299000Y-84193142D01*
X122227571Y-84157428D01*
X122191857Y-84121714D01*
X122156142Y-84050285D01*
X122120428Y-83907428D01*
X122084714Y-83836000D01*
X122049000Y-83800285D01*
X121977571Y-83764571D01*
X121906142Y-83764571D01*
X121834714Y-83800285D01*
X121799000Y-83836000D01*
X121763285Y-83907428D01*
X121763285Y-84086000D01*
X121799000Y-84193142D01*
X122513285Y-85086000D02*
X121763285Y-85086000D01*
X122513285Y-85443142D02*
X121763285Y-85443142D01*
X122513285Y-85871714D01*
X121763285Y-85871714D01*
X122513285Y-86228857D02*
X121763285Y-86228857D01*
X122120428Y-86228857D02*
X122120428Y-86657428D01*
X122513285Y-86657428D02*
X121763285Y-86657428D01*
D10*
X184474571Y-131167142D02*
X184522190Y-131214761D01*
X184665047Y-131262380D01*
X184760285Y-131262380D01*
X184903142Y-131214761D01*
X184998380Y-131119523D01*
X185046000Y-131024285D01*
X185093619Y-130833809D01*
X185093619Y-130690952D01*
X185046000Y-130500476D01*
X184998380Y-130405238D01*
X184903142Y-130310000D01*
X184760285Y-130262380D01*
X184665047Y-130262380D01*
X184522190Y-130310000D01*
X184474571Y-130357619D01*
X183474571Y-131262380D02*
X183807904Y-130786190D01*
X184046000Y-131262380D02*
X184046000Y-130262380D01*
X183665047Y-130262380D01*
X183569809Y-130310000D01*
X183522190Y-130357619D01*
X183474571Y-130452857D01*
X183474571Y-130595714D01*
X183522190Y-130690952D01*
X183569809Y-130738571D01*
X183665047Y-130786190D01*
X184046000Y-130786190D01*
X183093619Y-130357619D02*
X183046000Y-130310000D01*
X182950761Y-130262380D01*
X182712666Y-130262380D01*
X182617428Y-130310000D01*
X182569809Y-130357619D01*
X182522190Y-130452857D01*
X182522190Y-130548095D01*
X182569809Y-130690952D01*
X183141238Y-131262380D01*
X182522190Y-131262380D01*
X181903142Y-130262380D02*
X181807904Y-130262380D01*
X181712666Y-130310000D01*
X181665047Y-130357619D01*
X181617428Y-130452857D01*
X181569809Y-130643333D01*
X181569809Y-130881428D01*
X181617428Y-131071904D01*
X181665047Y-131167142D01*
X181712666Y-131214761D01*
X181807904Y-131262380D01*
X181903142Y-131262380D01*
X181998380Y-131214761D01*
X182046000Y-131167142D01*
X182093619Y-131071904D01*
X182141238Y-130881428D01*
X182141238Y-130643333D01*
X182093619Y-130452857D01*
X182046000Y-130357619D01*
X181998380Y-130310000D01*
X181903142Y-130262380D01*
X181236476Y-130262380D02*
X180617428Y-130262380D01*
X180950761Y-130643333D01*
X180807904Y-130643333D01*
X180712666Y-130690952D01*
X180665047Y-130738571D01*
X180617428Y-130833809D01*
X180617428Y-131071904D01*
X180665047Y-131167142D01*
X180712666Y-131214761D01*
X180807904Y-131262380D01*
X181093619Y-131262380D01*
X181188857Y-131214761D01*
X181236476Y-131167142D01*
X180236476Y-130357619D02*
X180188857Y-130310000D01*
X180093619Y-130262380D01*
X179855523Y-130262380D01*
X179760285Y-130310000D01*
X179712666Y-130357619D01*
X179665047Y-130452857D01*
X179665047Y-130548095D01*
X179712666Y-130690952D01*
X180284095Y-131262380D01*
X179665047Y-131262380D01*
X177903142Y-131262380D02*
X178236476Y-130786190D01*
X178474571Y-131262380D02*
X178474571Y-130262380D01*
X178093619Y-130262380D01*
X177998380Y-130310000D01*
X177950761Y-130357619D01*
X177903142Y-130452857D01*
X177903142Y-130595714D01*
X177950761Y-130690952D01*
X177998380Y-130738571D01*
X178093619Y-130786190D01*
X178474571Y-130786190D01*
X177617428Y-130262380D02*
X177046000Y-130262380D01*
X177331714Y-131262380D02*
X177331714Y-130262380D01*
X176141238Y-131167142D02*
X176188857Y-131214761D01*
X176331714Y-131262380D01*
X176426952Y-131262380D01*
X176569809Y-131214761D01*
X176665047Y-131119523D01*
X176712666Y-131024285D01*
X176760285Y-130833809D01*
X176760285Y-130690952D01*
X176712666Y-130500476D01*
X176665047Y-130405238D01*
X176569809Y-130310000D01*
X176426952Y-130262380D01*
X176331714Y-130262380D01*
X176188857Y-130310000D01*
X176141238Y-130357619D01*
X174617428Y-130738571D02*
X174474571Y-130786190D01*
X174426952Y-130833809D01*
X174379333Y-130929047D01*
X174379333Y-131071904D01*
X174426952Y-131167142D01*
X174474571Y-131214761D01*
X174569809Y-131262380D01*
X174950761Y-131262380D01*
X174950761Y-130262380D01*
X174617428Y-130262380D01*
X174522190Y-130310000D01*
X174474571Y-130357619D01*
X174426952Y-130452857D01*
X174426952Y-130548095D01*
X174474571Y-130643333D01*
X174522190Y-130690952D01*
X174617428Y-130738571D01*
X174950761Y-130738571D01*
X173522190Y-131262380D02*
X173522190Y-130738571D01*
X173569809Y-130643333D01*
X173665047Y-130595714D01*
X173855523Y-130595714D01*
X173950761Y-130643333D01*
X173522190Y-131214761D02*
X173617428Y-131262380D01*
X173855523Y-131262380D01*
X173950761Y-131214761D01*
X173998380Y-131119523D01*
X173998380Y-131024285D01*
X173950761Y-130929047D01*
X173855523Y-130881428D01*
X173617428Y-130881428D01*
X173522190Y-130833809D01*
X172617428Y-131214761D02*
X172712666Y-131262380D01*
X172903142Y-131262380D01*
X172998380Y-131214761D01*
X173046000Y-131167142D01*
X173093619Y-131071904D01*
X173093619Y-130786190D01*
X173046000Y-130690952D01*
X172998380Y-130643333D01*
X172903142Y-130595714D01*
X172712666Y-130595714D01*
X172617428Y-130643333D01*
X172188857Y-131262380D02*
X172188857Y-130262380D01*
X172093619Y-130881428D02*
X171807904Y-131262380D01*
X171807904Y-130595714D02*
X172188857Y-130976666D01*
X170950761Y-130595714D02*
X170950761Y-131262380D01*
X171379333Y-130595714D02*
X171379333Y-131119523D01*
X171331714Y-131214761D01*
X171236476Y-131262380D01*
X171093619Y-131262380D01*
X170998380Y-131214761D01*
X170950761Y-131167142D01*
X170474571Y-130595714D02*
X170474571Y-131595714D01*
X170474571Y-130643333D02*
X170379333Y-130595714D01*
X170188857Y-130595714D01*
X170093619Y-130643333D01*
X170046000Y-130690952D01*
X169998380Y-130786190D01*
X169998380Y-131071904D01*
X170046000Y-131167142D01*
X170093619Y-131214761D01*
X170188857Y-131262380D01*
X170379333Y-131262380D01*
X170474571Y-131214761D01*
D11*
X122513285Y-68113857D02*
X122513285Y-67756714D01*
X121763285Y-67756714D01*
X122477571Y-68328142D02*
X122513285Y-68435285D01*
X122513285Y-68613857D01*
X122477571Y-68685285D01*
X122441857Y-68721000D01*
X122370428Y-68756714D01*
X122299000Y-68756714D01*
X122227571Y-68721000D01*
X122191857Y-68685285D01*
X122156142Y-68613857D01*
X122120428Y-68471000D01*
X122084714Y-68399571D01*
X122049000Y-68363857D01*
X121977571Y-68328142D01*
X121906142Y-68328142D01*
X121834714Y-68363857D01*
X121799000Y-68399571D01*
X121763285Y-68471000D01*
X121763285Y-68649571D01*
X121799000Y-68756714D01*
X122513285Y-70078142D02*
X122156142Y-69828142D01*
X122513285Y-69649571D02*
X121763285Y-69649571D01*
X121763285Y-69935285D01*
X121799000Y-70006714D01*
X121834714Y-70042428D01*
X121906142Y-70078142D01*
X122013285Y-70078142D01*
X122084714Y-70042428D01*
X122120428Y-70006714D01*
X122156142Y-69935285D01*
X122156142Y-69649571D01*
X122120428Y-70649571D02*
X122156142Y-70756714D01*
X122191857Y-70792428D01*
X122263285Y-70828142D01*
X122370428Y-70828142D01*
X122441857Y-70792428D01*
X122477571Y-70756714D01*
X122513285Y-70685285D01*
X122513285Y-70399571D01*
X121763285Y-70399571D01*
X121763285Y-70649571D01*
X121799000Y-70721000D01*
X121834714Y-70756714D01*
X121906142Y-70792428D01*
X121977571Y-70792428D01*
X122049000Y-70756714D01*
X122084714Y-70721000D01*
X122120428Y-70649571D01*
X122120428Y-70399571D01*
X122120428Y-71399571D02*
X122120428Y-71149571D01*
X122513285Y-71149571D02*
X121763285Y-71149571D01*
X121763285Y-71506714D01*
D10*
X175607071Y-58348571D02*
X175464214Y-58396190D01*
X175416595Y-58443809D01*
X175368976Y-58539047D01*
X175368976Y-58681904D01*
X175416595Y-58777142D01*
X175464214Y-58824761D01*
X175559452Y-58872380D01*
X175940404Y-58872380D01*
X175940404Y-57872380D01*
X175607071Y-57872380D01*
X175511833Y-57920000D01*
X175464214Y-57967619D01*
X175416595Y-58062857D01*
X175416595Y-58158095D01*
X175464214Y-58253333D01*
X175511833Y-58300952D01*
X175607071Y-58348571D01*
X175940404Y-58348571D01*
X174797547Y-58872380D02*
X174892785Y-58824761D01*
X174940404Y-58777142D01*
X174988023Y-58681904D01*
X174988023Y-58396190D01*
X174940404Y-58300952D01*
X174892785Y-58253333D01*
X174797547Y-58205714D01*
X174654690Y-58205714D01*
X174559452Y-58253333D01*
X174511833Y-58300952D01*
X174464214Y-58396190D01*
X174464214Y-58681904D01*
X174511833Y-58777142D01*
X174559452Y-58824761D01*
X174654690Y-58872380D01*
X174797547Y-58872380D01*
X173607071Y-58872380D02*
X173607071Y-58348571D01*
X173654690Y-58253333D01*
X173749928Y-58205714D01*
X173940404Y-58205714D01*
X174035642Y-58253333D01*
X173607071Y-58824761D02*
X173702309Y-58872380D01*
X173940404Y-58872380D01*
X174035642Y-58824761D01*
X174083261Y-58729523D01*
X174083261Y-58634285D01*
X174035642Y-58539047D01*
X173940404Y-58491428D01*
X173702309Y-58491428D01*
X173607071Y-58443809D01*
X173130880Y-58872380D02*
X173130880Y-58205714D01*
X173130880Y-58396190D02*
X173083261Y-58300952D01*
X173035642Y-58253333D01*
X172940404Y-58205714D01*
X172845166Y-58205714D01*
X172083261Y-58872380D02*
X172083261Y-57872380D01*
X172083261Y-58824761D02*
X172178500Y-58872380D01*
X172368976Y-58872380D01*
X172464214Y-58824761D01*
X172511833Y-58777142D01*
X172559452Y-58681904D01*
X172559452Y-58396190D01*
X172511833Y-58300952D01*
X172464214Y-58253333D01*
X172368976Y-58205714D01*
X172178500Y-58205714D01*
X172083261Y-58253333D01*
X170273738Y-58777142D02*
X170321357Y-58824761D01*
X170464214Y-58872380D01*
X170559452Y-58872380D01*
X170702309Y-58824761D01*
X170797547Y-58729523D01*
X170845166Y-58634285D01*
X170892785Y-58443809D01*
X170892785Y-58300952D01*
X170845166Y-58110476D01*
X170797547Y-58015238D01*
X170702309Y-57920000D01*
X170559452Y-57872380D01*
X170464214Y-57872380D01*
X170321357Y-57920000D01*
X170273738Y-57967619D01*
X169702309Y-58872380D02*
X169797547Y-58824761D01*
X169845166Y-58777142D01*
X169892785Y-58681904D01*
X169892785Y-58396190D01*
X169845166Y-58300952D01*
X169797547Y-58253333D01*
X169702309Y-58205714D01*
X169559452Y-58205714D01*
X169464214Y-58253333D01*
X169416595Y-58300952D01*
X169368976Y-58396190D01*
X169368976Y-58681904D01*
X169416595Y-58777142D01*
X169464214Y-58824761D01*
X169559452Y-58872380D01*
X169702309Y-58872380D01*
X168940404Y-58872380D02*
X168940404Y-58205714D01*
X168940404Y-58300952D02*
X168892785Y-58253333D01*
X168797547Y-58205714D01*
X168654690Y-58205714D01*
X168559452Y-58253333D01*
X168511833Y-58348571D01*
X168511833Y-58872380D01*
X168511833Y-58348571D02*
X168464214Y-58253333D01*
X168368976Y-58205714D01*
X168226119Y-58205714D01*
X168130880Y-58253333D01*
X168083261Y-58348571D01*
X168083261Y-58872380D01*
X167607071Y-58872380D02*
X167607071Y-58205714D01*
X167607071Y-58300952D02*
X167559452Y-58253333D01*
X167464214Y-58205714D01*
X167321357Y-58205714D01*
X167226119Y-58253333D01*
X167178500Y-58348571D01*
X167178500Y-58872380D01*
X167178500Y-58348571D02*
X167130880Y-58253333D01*
X167035642Y-58205714D01*
X166892785Y-58205714D01*
X166797547Y-58253333D01*
X166749928Y-58348571D01*
X166749928Y-58872380D01*
X165892785Y-58824761D02*
X165988023Y-58872380D01*
X166178500Y-58872380D01*
X166273738Y-58824761D01*
X166321357Y-58729523D01*
X166321357Y-58348571D01*
X166273738Y-58253333D01*
X166178500Y-58205714D01*
X165988023Y-58205714D01*
X165892785Y-58253333D01*
X165845166Y-58348571D01*
X165845166Y-58443809D01*
X166321357Y-58539047D01*
X165416595Y-58205714D02*
X165416595Y-58872380D01*
X165416595Y-58300952D02*
X165368976Y-58253333D01*
X165273738Y-58205714D01*
X165130880Y-58205714D01*
X165035642Y-58253333D01*
X164988023Y-58348571D01*
X164988023Y-58872380D01*
X164654690Y-58205714D02*
X164273738Y-58205714D01*
X164511833Y-57872380D02*
X164511833Y-58729523D01*
X164464214Y-58824761D01*
X164368976Y-58872380D01*
X164273738Y-58872380D01*
X163988023Y-58824761D02*
X163892785Y-58872380D01*
X163702309Y-58872380D01*
X163607071Y-58824761D01*
X163559452Y-58729523D01*
X163559452Y-58681904D01*
X163607071Y-58586666D01*
X163702309Y-58539047D01*
X163845166Y-58539047D01*
X163940404Y-58491428D01*
X163988023Y-58396190D01*
X163988023Y-58348571D01*
X163940404Y-58253333D01*
X163845166Y-58205714D01*
X163702309Y-58205714D01*
X163607071Y-58253333D01*
%TO.C,R26*%
X137104380Y-108323142D02*
X136628190Y-107989809D01*
X137104380Y-107751714D02*
X136104380Y-107751714D01*
X136104380Y-108132666D01*
X136152000Y-108227904D01*
X136199619Y-108275523D01*
X136294857Y-108323142D01*
X136437714Y-108323142D01*
X136532952Y-108275523D01*
X136580571Y-108227904D01*
X136628190Y-108132666D01*
X136628190Y-107751714D01*
X136199619Y-108704095D02*
X136152000Y-108751714D01*
X136104380Y-108846952D01*
X136104380Y-109085047D01*
X136152000Y-109180285D01*
X136199619Y-109227904D01*
X136294857Y-109275523D01*
X136390095Y-109275523D01*
X136532952Y-109227904D01*
X137104380Y-108656476D01*
X137104380Y-109275523D01*
X136104380Y-110132666D02*
X136104380Y-109942190D01*
X136152000Y-109846952D01*
X136199619Y-109799333D01*
X136342476Y-109704095D01*
X136532952Y-109656476D01*
X136913904Y-109656476D01*
X137009142Y-109704095D01*
X137056761Y-109751714D01*
X137104380Y-109846952D01*
X137104380Y-110037428D01*
X137056761Y-110132666D01*
X137009142Y-110180285D01*
X136913904Y-110227904D01*
X136675809Y-110227904D01*
X136580571Y-110180285D01*
X136532952Y-110132666D01*
X136485333Y-110037428D01*
X136485333Y-109846952D01*
X136532952Y-109751714D01*
X136580571Y-109704095D01*
X136675809Y-109656476D01*
%TO.C,U17*%
X152622095Y-119848380D02*
X152622095Y-120657904D01*
X152574476Y-120753142D01*
X152526857Y-120800761D01*
X152431619Y-120848380D01*
X152241142Y-120848380D01*
X152145904Y-120800761D01*
X152098285Y-120753142D01*
X152050666Y-120657904D01*
X152050666Y-119848380D01*
X151050666Y-120848380D02*
X151622095Y-120848380D01*
X151336380Y-120848380D02*
X151336380Y-119848380D01*
X151431619Y-119991238D01*
X151526857Y-120086476D01*
X151622095Y-120134095D01*
X150717333Y-119848380D02*
X150050666Y-119848380D01*
X150479238Y-120848380D01*
%TO.C,R30*%
X107640380Y-97655142D02*
X107164190Y-97321809D01*
X107640380Y-97083714D02*
X106640380Y-97083714D01*
X106640380Y-97464666D01*
X106688000Y-97559904D01*
X106735619Y-97607523D01*
X106830857Y-97655142D01*
X106973714Y-97655142D01*
X107068952Y-97607523D01*
X107116571Y-97559904D01*
X107164190Y-97464666D01*
X107164190Y-97083714D01*
X106640380Y-97988476D02*
X106640380Y-98607523D01*
X107021333Y-98274190D01*
X107021333Y-98417047D01*
X107068952Y-98512285D01*
X107116571Y-98559904D01*
X107211809Y-98607523D01*
X107449904Y-98607523D01*
X107545142Y-98559904D01*
X107592761Y-98512285D01*
X107640380Y-98417047D01*
X107640380Y-98131333D01*
X107592761Y-98036095D01*
X107545142Y-97988476D01*
X106640380Y-99226571D02*
X106640380Y-99321809D01*
X106688000Y-99417047D01*
X106735619Y-99464666D01*
X106830857Y-99512285D01*
X107021333Y-99559904D01*
X107259428Y-99559904D01*
X107449904Y-99512285D01*
X107545142Y-99464666D01*
X107592761Y-99417047D01*
X107640380Y-99321809D01*
X107640380Y-99226571D01*
X107592761Y-99131333D01*
X107545142Y-99083714D01*
X107449904Y-99036095D01*
X107259428Y-98988476D01*
X107021333Y-98988476D01*
X106830857Y-99036095D01*
X106735619Y-99083714D01*
X106688000Y-99131333D01*
X106640380Y-99226571D01*
%TO.C,D9*%
X122338095Y-108976380D02*
X122338095Y-107976380D01*
X122100000Y-107976380D01*
X121957142Y-108024000D01*
X121861904Y-108119238D01*
X121814285Y-108214476D01*
X121766666Y-108404952D01*
X121766666Y-108547809D01*
X121814285Y-108738285D01*
X121861904Y-108833523D01*
X121957142Y-108928761D01*
X122100000Y-108976380D01*
X122338095Y-108976380D01*
X121290476Y-108976380D02*
X121100000Y-108976380D01*
X121004761Y-108928761D01*
X120957142Y-108881142D01*
X120861904Y-108738285D01*
X120814285Y-108547809D01*
X120814285Y-108166857D01*
X120861904Y-108071619D01*
X120909523Y-108024000D01*
X121004761Y-107976380D01*
X121195238Y-107976380D01*
X121290476Y-108024000D01*
X121338095Y-108071619D01*
X121385714Y-108166857D01*
X121385714Y-108404952D01*
X121338095Y-108500190D01*
X121290476Y-108547809D01*
X121195238Y-108595428D01*
X121004761Y-108595428D01*
X120909523Y-108547809D01*
X120861904Y-108500190D01*
X120814285Y-108404952D01*
%TO.C,R15*%
X137479380Y-124278142D02*
X137003190Y-123944809D01*
X137479380Y-123706714D02*
X136479380Y-123706714D01*
X136479380Y-124087666D01*
X136527000Y-124182904D01*
X136574619Y-124230523D01*
X136669857Y-124278142D01*
X136812714Y-124278142D01*
X136907952Y-124230523D01*
X136955571Y-124182904D01*
X137003190Y-124087666D01*
X137003190Y-123706714D01*
X137479380Y-125230523D02*
X137479380Y-124659095D01*
X137479380Y-124944809D02*
X136479380Y-124944809D01*
X136622238Y-124849571D01*
X136717476Y-124754333D01*
X136765095Y-124659095D01*
X136479380Y-126135285D02*
X136479380Y-125659095D01*
X136955571Y-125611476D01*
X136907952Y-125659095D01*
X136860333Y-125754333D01*
X136860333Y-125992428D01*
X136907952Y-126087666D01*
X136955571Y-126135285D01*
X137050809Y-126182904D01*
X137288904Y-126182904D01*
X137384142Y-126135285D01*
X137431761Y-126087666D01*
X137479380Y-125992428D01*
X137479380Y-125754333D01*
X137431761Y-125659095D01*
X137384142Y-125611476D01*
%TO.C,R51*%
X158440380Y-128897142D02*
X157964190Y-128563809D01*
X158440380Y-128325714D02*
X157440380Y-128325714D01*
X157440380Y-128706666D01*
X157488000Y-128801904D01*
X157535619Y-128849523D01*
X157630857Y-128897142D01*
X157773714Y-128897142D01*
X157868952Y-128849523D01*
X157916571Y-128801904D01*
X157964190Y-128706666D01*
X157964190Y-128325714D01*
X157440380Y-129801904D02*
X157440380Y-129325714D01*
X157916571Y-129278095D01*
X157868952Y-129325714D01*
X157821333Y-129420952D01*
X157821333Y-129659047D01*
X157868952Y-129754285D01*
X157916571Y-129801904D01*
X158011809Y-129849523D01*
X158249904Y-129849523D01*
X158345142Y-129801904D01*
X158392761Y-129754285D01*
X158440380Y-129659047D01*
X158440380Y-129420952D01*
X158392761Y-129325714D01*
X158345142Y-129278095D01*
X158440380Y-130801904D02*
X158440380Y-130230476D01*
X158440380Y-130516190D02*
X157440380Y-130516190D01*
X157583238Y-130420952D01*
X157678476Y-130325714D01*
X157726095Y-130230476D01*
%TO.C,R48*%
X147329380Y-131564142D02*
X146853190Y-131230809D01*
X147329380Y-130992714D02*
X146329380Y-130992714D01*
X146329380Y-131373666D01*
X146377000Y-131468904D01*
X146424619Y-131516523D01*
X146519857Y-131564142D01*
X146662714Y-131564142D01*
X146757952Y-131516523D01*
X146805571Y-131468904D01*
X146853190Y-131373666D01*
X146853190Y-130992714D01*
X146662714Y-132421285D02*
X147329380Y-132421285D01*
X146281761Y-132183190D02*
X146996047Y-131945095D01*
X146996047Y-132564142D01*
X146757952Y-133087952D02*
X146710333Y-132992714D01*
X146662714Y-132945095D01*
X146567476Y-132897476D01*
X146519857Y-132897476D01*
X146424619Y-132945095D01*
X146377000Y-132992714D01*
X146329380Y-133087952D01*
X146329380Y-133278428D01*
X146377000Y-133373666D01*
X146424619Y-133421285D01*
X146519857Y-133468904D01*
X146567476Y-133468904D01*
X146662714Y-133421285D01*
X146710333Y-133373666D01*
X146757952Y-133278428D01*
X146757952Y-133087952D01*
X146805571Y-132992714D01*
X146853190Y-132945095D01*
X146948428Y-132897476D01*
X147138904Y-132897476D01*
X147234142Y-132945095D01*
X147281761Y-132992714D01*
X147329380Y-133087952D01*
X147329380Y-133278428D01*
X147281761Y-133373666D01*
X147234142Y-133421285D01*
X147138904Y-133468904D01*
X146948428Y-133468904D01*
X146853190Y-133421285D01*
X146805571Y-133373666D01*
X146757952Y-133278428D01*
%TO.C,U3*%
X133603904Y-122134380D02*
X133603904Y-122943904D01*
X133556285Y-123039142D01*
X133508666Y-123086761D01*
X133413428Y-123134380D01*
X133222952Y-123134380D01*
X133127714Y-123086761D01*
X133080095Y-123039142D01*
X133032476Y-122943904D01*
X133032476Y-122134380D01*
X132651523Y-122134380D02*
X132032476Y-122134380D01*
X132365809Y-122515333D01*
X132222952Y-122515333D01*
X132127714Y-122562952D01*
X132080095Y-122610571D01*
X132032476Y-122705809D01*
X132032476Y-122943904D01*
X132080095Y-123039142D01*
X132127714Y-123086761D01*
X132222952Y-123134380D01*
X132508666Y-123134380D01*
X132603904Y-123086761D01*
X132651523Y-123039142D01*
%TO.C,R34*%
X123962380Y-82282642D02*
X123486190Y-81949309D01*
X123962380Y-81711214D02*
X122962380Y-81711214D01*
X122962380Y-82092166D01*
X123010000Y-82187404D01*
X123057619Y-82235023D01*
X123152857Y-82282642D01*
X123295714Y-82282642D01*
X123390952Y-82235023D01*
X123438571Y-82187404D01*
X123486190Y-82092166D01*
X123486190Y-81711214D01*
X122962380Y-82615976D02*
X122962380Y-83235023D01*
X123343333Y-82901690D01*
X123343333Y-83044547D01*
X123390952Y-83139785D01*
X123438571Y-83187404D01*
X123533809Y-83235023D01*
X123771904Y-83235023D01*
X123867142Y-83187404D01*
X123914761Y-83139785D01*
X123962380Y-83044547D01*
X123962380Y-82758833D01*
X123914761Y-82663595D01*
X123867142Y-82615976D01*
X123295714Y-84092166D02*
X123962380Y-84092166D01*
X122914761Y-83854071D02*
X123629047Y-83615976D01*
X123629047Y-84235023D01*
%TO.C,C2*%
X141331142Y-90339583D02*
X141378761Y-90291964D01*
X141426380Y-90149107D01*
X141426380Y-90053869D01*
X141378761Y-89911011D01*
X141283523Y-89815773D01*
X141188285Y-89768154D01*
X140997809Y-89720535D01*
X140854952Y-89720535D01*
X140664476Y-89768154D01*
X140569238Y-89815773D01*
X140474000Y-89911011D01*
X140426380Y-90053869D01*
X140426380Y-90149107D01*
X140474000Y-90291964D01*
X140521619Y-90339583D01*
X140521619Y-90720535D02*
X140474000Y-90768154D01*
X140426380Y-90863392D01*
X140426380Y-91101488D01*
X140474000Y-91196726D01*
X140521619Y-91244345D01*
X140616857Y-91291964D01*
X140712095Y-91291964D01*
X140854952Y-91244345D01*
X141426380Y-90672916D01*
X141426380Y-91291964D01*
%TO.C,L2*%
X125379880Y-130897333D02*
X125379880Y-130421142D01*
X124379880Y-130421142D01*
X124475119Y-131183047D02*
X124427500Y-131230666D01*
X124379880Y-131325904D01*
X124379880Y-131564000D01*
X124427500Y-131659238D01*
X124475119Y-131706857D01*
X124570357Y-131754476D01*
X124665595Y-131754476D01*
X124808452Y-131706857D01*
X125379880Y-131135428D01*
X125379880Y-131754476D01*
%TO.C,R38*%
X109986380Y-113215142D02*
X109510190Y-112881809D01*
X109986380Y-112643714D02*
X108986380Y-112643714D01*
X108986380Y-113024666D01*
X109034000Y-113119904D01*
X109081619Y-113167523D01*
X109176857Y-113215142D01*
X109319714Y-113215142D01*
X109414952Y-113167523D01*
X109462571Y-113119904D01*
X109510190Y-113024666D01*
X109510190Y-112643714D01*
X108986380Y-113548476D02*
X108986380Y-114167523D01*
X109367333Y-113834190D01*
X109367333Y-113977047D01*
X109414952Y-114072285D01*
X109462571Y-114119904D01*
X109557809Y-114167523D01*
X109795904Y-114167523D01*
X109891142Y-114119904D01*
X109938761Y-114072285D01*
X109986380Y-113977047D01*
X109986380Y-113691333D01*
X109938761Y-113596095D01*
X109891142Y-113548476D01*
X109414952Y-114738952D02*
X109367333Y-114643714D01*
X109319714Y-114596095D01*
X109224476Y-114548476D01*
X109176857Y-114548476D01*
X109081619Y-114596095D01*
X109034000Y-114643714D01*
X108986380Y-114738952D01*
X108986380Y-114929428D01*
X109034000Y-115024666D01*
X109081619Y-115072285D01*
X109176857Y-115119904D01*
X109224476Y-115119904D01*
X109319714Y-115072285D01*
X109367333Y-115024666D01*
X109414952Y-114929428D01*
X109414952Y-114738952D01*
X109462571Y-114643714D01*
X109510190Y-114596095D01*
X109605428Y-114548476D01*
X109795904Y-114548476D01*
X109891142Y-114596095D01*
X109938761Y-114643714D01*
X109986380Y-114738952D01*
X109986380Y-114929428D01*
X109938761Y-115024666D01*
X109891142Y-115072285D01*
X109795904Y-115119904D01*
X109605428Y-115119904D01*
X109510190Y-115072285D01*
X109462571Y-115024666D01*
X109414952Y-114929428D01*
%TO.C,C35*%
X158696857Y-107897142D02*
X158744476Y-107944761D01*
X158887333Y-107992380D01*
X158982571Y-107992380D01*
X159125428Y-107944761D01*
X159220666Y-107849523D01*
X159268285Y-107754285D01*
X159315904Y-107563809D01*
X159315904Y-107420952D01*
X159268285Y-107230476D01*
X159220666Y-107135238D01*
X159125428Y-107040000D01*
X158982571Y-106992380D01*
X158887333Y-106992380D01*
X158744476Y-107040000D01*
X158696857Y-107087619D01*
X158363523Y-106992380D02*
X157744476Y-106992380D01*
X158077809Y-107373333D01*
X157934952Y-107373333D01*
X157839714Y-107420952D01*
X157792095Y-107468571D01*
X157744476Y-107563809D01*
X157744476Y-107801904D01*
X157792095Y-107897142D01*
X157839714Y-107944761D01*
X157934952Y-107992380D01*
X158220666Y-107992380D01*
X158315904Y-107944761D01*
X158363523Y-107897142D01*
X156839714Y-106992380D02*
X157315904Y-106992380D01*
X157363523Y-107468571D01*
X157315904Y-107420952D01*
X157220666Y-107373333D01*
X156982571Y-107373333D01*
X156887333Y-107420952D01*
X156839714Y-107468571D01*
X156792095Y-107563809D01*
X156792095Y-107801904D01*
X156839714Y-107897142D01*
X156887333Y-107944761D01*
X156982571Y-107992380D01*
X157220666Y-107992380D01*
X157315904Y-107944761D01*
X157363523Y-107897142D01*
%TO.C,C23*%
X117122642Y-105825642D02*
X117170261Y-105778023D01*
X117217880Y-105635166D01*
X117217880Y-105539928D01*
X117170261Y-105397071D01*
X117075023Y-105301833D01*
X116979785Y-105254214D01*
X116789309Y-105206595D01*
X116646452Y-105206595D01*
X116455976Y-105254214D01*
X116360738Y-105301833D01*
X116265500Y-105397071D01*
X116217880Y-105539928D01*
X116217880Y-105635166D01*
X116265500Y-105778023D01*
X116313119Y-105825642D01*
X116313119Y-106206595D02*
X116265500Y-106254214D01*
X116217880Y-106349452D01*
X116217880Y-106587547D01*
X116265500Y-106682785D01*
X116313119Y-106730404D01*
X116408357Y-106778023D01*
X116503595Y-106778023D01*
X116646452Y-106730404D01*
X117217880Y-106158976D01*
X117217880Y-106778023D01*
X116217880Y-107111357D02*
X116217880Y-107730404D01*
X116598833Y-107397071D01*
X116598833Y-107539928D01*
X116646452Y-107635166D01*
X116694071Y-107682785D01*
X116789309Y-107730404D01*
X117027404Y-107730404D01*
X117122642Y-107682785D01*
X117170261Y-107635166D01*
X117217880Y-107539928D01*
X117217880Y-107254214D01*
X117170261Y-107158976D01*
X117122642Y-107111357D01*
%TO.C,R41*%
X120086380Y-99687142D02*
X119610190Y-99353809D01*
X120086380Y-99115714D02*
X119086380Y-99115714D01*
X119086380Y-99496666D01*
X119134000Y-99591904D01*
X119181619Y-99639523D01*
X119276857Y-99687142D01*
X119419714Y-99687142D01*
X119514952Y-99639523D01*
X119562571Y-99591904D01*
X119610190Y-99496666D01*
X119610190Y-99115714D01*
X119419714Y-100544285D02*
X120086380Y-100544285D01*
X119038761Y-100306190D02*
X119753047Y-100068095D01*
X119753047Y-100687142D01*
X120086380Y-101591904D02*
X120086380Y-101020476D01*
X120086380Y-101306190D02*
X119086380Y-101306190D01*
X119229238Y-101210952D01*
X119324476Y-101115714D01*
X119372095Y-101020476D01*
%TO.C,TP6*%
X107433904Y-103118380D02*
X106862476Y-103118380D01*
X107148190Y-104118380D02*
X107148190Y-103118380D01*
X106529142Y-104118380D02*
X106529142Y-103118380D01*
X106148190Y-103118380D01*
X106052952Y-103166000D01*
X106005333Y-103213619D01*
X105957714Y-103308857D01*
X105957714Y-103451714D01*
X106005333Y-103546952D01*
X106052952Y-103594571D01*
X106148190Y-103642190D01*
X106529142Y-103642190D01*
X105100571Y-103118380D02*
X105291047Y-103118380D01*
X105386285Y-103166000D01*
X105433904Y-103213619D01*
X105529142Y-103356476D01*
X105576761Y-103546952D01*
X105576761Y-103927904D01*
X105529142Y-104023142D01*
X105481523Y-104070761D01*
X105386285Y-104118380D01*
X105195809Y-104118380D01*
X105100571Y-104070761D01*
X105052952Y-104023142D01*
X105005333Y-103927904D01*
X105005333Y-103689809D01*
X105052952Y-103594571D01*
X105100571Y-103546952D01*
X105195809Y-103499333D01*
X105386285Y-103499333D01*
X105481523Y-103546952D01*
X105529142Y-103594571D01*
X105576761Y-103689809D01*
%TO.C,R50*%
X154566857Y-119578380D02*
X154900190Y-119102190D01*
X155138285Y-119578380D02*
X155138285Y-118578380D01*
X154757333Y-118578380D01*
X154662095Y-118626000D01*
X154614476Y-118673619D01*
X154566857Y-118768857D01*
X154566857Y-118911714D01*
X154614476Y-119006952D01*
X154662095Y-119054571D01*
X154757333Y-119102190D01*
X155138285Y-119102190D01*
X153662095Y-118578380D02*
X154138285Y-118578380D01*
X154185904Y-119054571D01*
X154138285Y-119006952D01*
X154043047Y-118959333D01*
X153804952Y-118959333D01*
X153709714Y-119006952D01*
X153662095Y-119054571D01*
X153614476Y-119149809D01*
X153614476Y-119387904D01*
X153662095Y-119483142D01*
X153709714Y-119530761D01*
X153804952Y-119578380D01*
X154043047Y-119578380D01*
X154138285Y-119530761D01*
X154185904Y-119483142D01*
X152995428Y-118578380D02*
X152900190Y-118578380D01*
X152804952Y-118626000D01*
X152757333Y-118673619D01*
X152709714Y-118768857D01*
X152662095Y-118959333D01*
X152662095Y-119197428D01*
X152709714Y-119387904D01*
X152757333Y-119483142D01*
X152804952Y-119530761D01*
X152900190Y-119578380D01*
X152995428Y-119578380D01*
X153090666Y-119530761D01*
X153138285Y-119483142D01*
X153185904Y-119387904D01*
X153233523Y-119197428D01*
X153233523Y-118959333D01*
X153185904Y-118768857D01*
X153138285Y-118673619D01*
X153090666Y-118626000D01*
X152995428Y-118578380D01*
%TO.C,R39*%
X105288380Y-116009142D02*
X104812190Y-115675809D01*
X105288380Y-115437714D02*
X104288380Y-115437714D01*
X104288380Y-115818666D01*
X104336000Y-115913904D01*
X104383619Y-115961523D01*
X104478857Y-116009142D01*
X104621714Y-116009142D01*
X104716952Y-115961523D01*
X104764571Y-115913904D01*
X104812190Y-115818666D01*
X104812190Y-115437714D01*
X104288380Y-116342476D02*
X104288380Y-116961523D01*
X104669333Y-116628190D01*
X104669333Y-116771047D01*
X104716952Y-116866285D01*
X104764571Y-116913904D01*
X104859809Y-116961523D01*
X105097904Y-116961523D01*
X105193142Y-116913904D01*
X105240761Y-116866285D01*
X105288380Y-116771047D01*
X105288380Y-116485333D01*
X105240761Y-116390095D01*
X105193142Y-116342476D01*
X105288380Y-117437714D02*
X105288380Y-117628190D01*
X105240761Y-117723428D01*
X105193142Y-117771047D01*
X105050285Y-117866285D01*
X104859809Y-117913904D01*
X104478857Y-117913904D01*
X104383619Y-117866285D01*
X104336000Y-117818666D01*
X104288380Y-117723428D01*
X104288380Y-117532952D01*
X104336000Y-117437714D01*
X104383619Y-117390095D01*
X104478857Y-117342476D01*
X104716952Y-117342476D01*
X104812190Y-117390095D01*
X104859809Y-117437714D01*
X104907428Y-117532952D01*
X104907428Y-117723428D01*
X104859809Y-117818666D01*
X104812190Y-117866285D01*
X104716952Y-117913904D01*
%TO.C,U12*%
X112572380Y-123541904D02*
X113381904Y-123541904D01*
X113477142Y-123589523D01*
X113524761Y-123637142D01*
X113572380Y-123732380D01*
X113572380Y-123922857D01*
X113524761Y-124018095D01*
X113477142Y-124065714D01*
X113381904Y-124113333D01*
X112572380Y-124113333D01*
X113572380Y-125113333D02*
X113572380Y-124541904D01*
X113572380Y-124827619D02*
X112572380Y-124827619D01*
X112715238Y-124732380D01*
X112810476Y-124637142D01*
X112858095Y-124541904D01*
X112667619Y-125494285D02*
X112620000Y-125541904D01*
X112572380Y-125637142D01*
X112572380Y-125875238D01*
X112620000Y-125970476D01*
X112667619Y-126018095D01*
X112762857Y-126065714D01*
X112858095Y-126065714D01*
X113000952Y-126018095D01*
X113572380Y-125446666D01*
X113572380Y-126065714D01*
%TO.C,U16*%
X155154380Y-108997904D02*
X155963904Y-108997904D01*
X156059142Y-109045523D01*
X156106761Y-109093142D01*
X156154380Y-109188380D01*
X156154380Y-109378857D01*
X156106761Y-109474095D01*
X156059142Y-109521714D01*
X155963904Y-109569333D01*
X155154380Y-109569333D01*
X156154380Y-110569333D02*
X156154380Y-109997904D01*
X156154380Y-110283619D02*
X155154380Y-110283619D01*
X155297238Y-110188380D01*
X155392476Y-110093142D01*
X155440095Y-109997904D01*
X155154380Y-111426476D02*
X155154380Y-111236000D01*
X155202000Y-111140761D01*
X155249619Y-111093142D01*
X155392476Y-110997904D01*
X155582952Y-110950285D01*
X155963904Y-110950285D01*
X156059142Y-110997904D01*
X156106761Y-111045523D01*
X156154380Y-111140761D01*
X156154380Y-111331238D01*
X156106761Y-111426476D01*
X156059142Y-111474095D01*
X155963904Y-111521714D01*
X155725809Y-111521714D01*
X155630571Y-111474095D01*
X155582952Y-111426476D01*
X155535333Y-111331238D01*
X155535333Y-111140761D01*
X155582952Y-111045523D01*
X155630571Y-110997904D01*
X155725809Y-110950285D01*
%TO.C,C9*%
X125574142Y-121198333D02*
X125621761Y-121150714D01*
X125669380Y-121007857D01*
X125669380Y-120912619D01*
X125621761Y-120769761D01*
X125526523Y-120674523D01*
X125431285Y-120626904D01*
X125240809Y-120579285D01*
X125097952Y-120579285D01*
X124907476Y-120626904D01*
X124812238Y-120674523D01*
X124717000Y-120769761D01*
X124669380Y-120912619D01*
X124669380Y-121007857D01*
X124717000Y-121150714D01*
X124764619Y-121198333D01*
X125669380Y-121674523D02*
X125669380Y-121865000D01*
X125621761Y-121960238D01*
X125574142Y-122007857D01*
X125431285Y-122103095D01*
X125240809Y-122150714D01*
X124859857Y-122150714D01*
X124764619Y-122103095D01*
X124717000Y-122055476D01*
X124669380Y-121960238D01*
X124669380Y-121769761D01*
X124717000Y-121674523D01*
X124764619Y-121626904D01*
X124859857Y-121579285D01*
X125097952Y-121579285D01*
X125193190Y-121626904D01*
X125240809Y-121674523D01*
X125288428Y-121769761D01*
X125288428Y-121960238D01*
X125240809Y-122055476D01*
X125193190Y-122103095D01*
X125097952Y-122150714D01*
%TO.C,C5*%
X133707142Y-101386333D02*
X133754761Y-101338714D01*
X133802380Y-101195857D01*
X133802380Y-101100619D01*
X133754761Y-100957761D01*
X133659523Y-100862523D01*
X133564285Y-100814904D01*
X133373809Y-100767285D01*
X133230952Y-100767285D01*
X133040476Y-100814904D01*
X132945238Y-100862523D01*
X132850000Y-100957761D01*
X132802380Y-101100619D01*
X132802380Y-101195857D01*
X132850000Y-101338714D01*
X132897619Y-101386333D01*
X132802380Y-102291095D02*
X132802380Y-101814904D01*
X133278571Y-101767285D01*
X133230952Y-101814904D01*
X133183333Y-101910142D01*
X133183333Y-102148238D01*
X133230952Y-102243476D01*
X133278571Y-102291095D01*
X133373809Y-102338714D01*
X133611904Y-102338714D01*
X133707142Y-102291095D01*
X133754761Y-102243476D01*
X133802380Y-102148238D01*
X133802380Y-101910142D01*
X133754761Y-101814904D01*
X133707142Y-101767285D01*
%TO.C,Q14*%
X160313619Y-124142571D02*
X160266000Y-124047333D01*
X160170761Y-123952095D01*
X160027904Y-123809238D01*
X159980285Y-123714000D01*
X159980285Y-123618761D01*
X160218380Y-123666380D02*
X160170761Y-123571142D01*
X160075523Y-123475904D01*
X159885047Y-123428285D01*
X159551714Y-123428285D01*
X159361238Y-123475904D01*
X159266000Y-123571142D01*
X159218380Y-123666380D01*
X159218380Y-123856857D01*
X159266000Y-123952095D01*
X159361238Y-124047333D01*
X159551714Y-124094952D01*
X159885047Y-124094952D01*
X160075523Y-124047333D01*
X160170761Y-123952095D01*
X160218380Y-123856857D01*
X160218380Y-123666380D01*
X160218380Y-125047333D02*
X160218380Y-124475904D01*
X160218380Y-124761619D02*
X159218380Y-124761619D01*
X159361238Y-124666380D01*
X159456476Y-124571142D01*
X159504095Y-124475904D01*
X159551714Y-125904476D02*
X160218380Y-125904476D01*
X159170761Y-125666380D02*
X159885047Y-125428285D01*
X159885047Y-126047333D01*
%TO.C,TP4*%
X123658380Y-137422095D02*
X123658380Y-137993523D01*
X124658380Y-137707809D02*
X123658380Y-137707809D01*
X124658380Y-138326857D02*
X123658380Y-138326857D01*
X123658380Y-138707809D01*
X123706000Y-138803047D01*
X123753619Y-138850666D01*
X123848857Y-138898285D01*
X123991714Y-138898285D01*
X124086952Y-138850666D01*
X124134571Y-138803047D01*
X124182190Y-138707809D01*
X124182190Y-138326857D01*
X123991714Y-139755428D02*
X124658380Y-139755428D01*
X123610761Y-139517333D02*
X124325047Y-139279238D01*
X124325047Y-139898285D01*
%TO.C,U10*%
X112863880Y-102788404D02*
X113673404Y-102788404D01*
X113768642Y-102836023D01*
X113816261Y-102883642D01*
X113863880Y-102978880D01*
X113863880Y-103169357D01*
X113816261Y-103264595D01*
X113768642Y-103312214D01*
X113673404Y-103359833D01*
X112863880Y-103359833D01*
X113863880Y-104359833D02*
X113863880Y-103788404D01*
X113863880Y-104074119D02*
X112863880Y-104074119D01*
X113006738Y-103978880D01*
X113101976Y-103883642D01*
X113149595Y-103788404D01*
X112863880Y-104978880D02*
X112863880Y-105074119D01*
X112911500Y-105169357D01*
X112959119Y-105216976D01*
X113054357Y-105264595D01*
X113244833Y-105312214D01*
X113482928Y-105312214D01*
X113673404Y-105264595D01*
X113768642Y-105216976D01*
X113816261Y-105169357D01*
X113863880Y-105074119D01*
X113863880Y-104978880D01*
X113816261Y-104883642D01*
X113768642Y-104836023D01*
X113673404Y-104788404D01*
X113482928Y-104740785D01*
X113244833Y-104740785D01*
X113054357Y-104788404D01*
X112959119Y-104836023D01*
X112911500Y-104883642D01*
X112863880Y-104978880D01*
%TO.C,C28*%
X116779142Y-126931142D02*
X116826761Y-126883523D01*
X116874380Y-126740666D01*
X116874380Y-126645428D01*
X116826761Y-126502571D01*
X116731523Y-126407333D01*
X116636285Y-126359714D01*
X116445809Y-126312095D01*
X116302952Y-126312095D01*
X116112476Y-126359714D01*
X116017238Y-126407333D01*
X115922000Y-126502571D01*
X115874380Y-126645428D01*
X115874380Y-126740666D01*
X115922000Y-126883523D01*
X115969619Y-126931142D01*
X115969619Y-127312095D02*
X115922000Y-127359714D01*
X115874380Y-127454952D01*
X115874380Y-127693047D01*
X115922000Y-127788285D01*
X115969619Y-127835904D01*
X116064857Y-127883523D01*
X116160095Y-127883523D01*
X116302952Y-127835904D01*
X116874380Y-127264476D01*
X116874380Y-127883523D01*
X116302952Y-128454952D02*
X116255333Y-128359714D01*
X116207714Y-128312095D01*
X116112476Y-128264476D01*
X116064857Y-128264476D01*
X115969619Y-128312095D01*
X115922000Y-128359714D01*
X115874380Y-128454952D01*
X115874380Y-128645428D01*
X115922000Y-128740666D01*
X115969619Y-128788285D01*
X116064857Y-128835904D01*
X116112476Y-128835904D01*
X116207714Y-128788285D01*
X116255333Y-128740666D01*
X116302952Y-128645428D01*
X116302952Y-128454952D01*
X116350571Y-128359714D01*
X116398190Y-128312095D01*
X116493428Y-128264476D01*
X116683904Y-128264476D01*
X116779142Y-128312095D01*
X116826761Y-128359714D01*
X116874380Y-128454952D01*
X116874380Y-128645428D01*
X116826761Y-128740666D01*
X116779142Y-128788285D01*
X116683904Y-128835904D01*
X116493428Y-128835904D01*
X116398190Y-128788285D01*
X116350571Y-128740666D01*
X116302952Y-128645428D01*
%TO.C,D11*%
X160547785Y-119542380D02*
X160547785Y-118542380D01*
X160309690Y-118542380D01*
X160166833Y-118590000D01*
X160071595Y-118685238D01*
X160023976Y-118780476D01*
X159976357Y-118970952D01*
X159976357Y-119113809D01*
X160023976Y-119304285D01*
X160071595Y-119399523D01*
X160166833Y-119494761D01*
X160309690Y-119542380D01*
X160547785Y-119542380D01*
X159023976Y-119542380D02*
X159595404Y-119542380D01*
X159309690Y-119542380D02*
X159309690Y-118542380D01*
X159404928Y-118685238D01*
X159500166Y-118780476D01*
X159595404Y-118828095D01*
X158071595Y-119542380D02*
X158643023Y-119542380D01*
X158357309Y-119542380D02*
X158357309Y-118542380D01*
X158452547Y-118685238D01*
X158547785Y-118780476D01*
X158643023Y-118828095D01*
%TO.C,C13*%
X133707142Y-139819142D02*
X133754761Y-139771523D01*
X133802380Y-139628666D01*
X133802380Y-139533428D01*
X133754761Y-139390571D01*
X133659523Y-139295333D01*
X133564285Y-139247714D01*
X133373809Y-139200095D01*
X133230952Y-139200095D01*
X133040476Y-139247714D01*
X132945238Y-139295333D01*
X132850000Y-139390571D01*
X132802380Y-139533428D01*
X132802380Y-139628666D01*
X132850000Y-139771523D01*
X132897619Y-139819142D01*
X133802380Y-140771523D02*
X133802380Y-140200095D01*
X133802380Y-140485809D02*
X132802380Y-140485809D01*
X132945238Y-140390571D01*
X133040476Y-140295333D01*
X133088095Y-140200095D01*
X132802380Y-141104857D02*
X132802380Y-141723904D01*
X133183333Y-141390571D01*
X133183333Y-141533428D01*
X133230952Y-141628666D01*
X133278571Y-141676285D01*
X133373809Y-141723904D01*
X133611904Y-141723904D01*
X133707142Y-141676285D01*
X133754761Y-141628666D01*
X133802380Y-141533428D01*
X133802380Y-141247714D01*
X133754761Y-141152476D01*
X133707142Y-141104857D01*
%TO.C,C8*%
X125574142Y-117134333D02*
X125621761Y-117086714D01*
X125669380Y-116943857D01*
X125669380Y-116848619D01*
X125621761Y-116705761D01*
X125526523Y-116610523D01*
X125431285Y-116562904D01*
X125240809Y-116515285D01*
X125097952Y-116515285D01*
X124907476Y-116562904D01*
X124812238Y-116610523D01*
X124717000Y-116705761D01*
X124669380Y-116848619D01*
X124669380Y-116943857D01*
X124717000Y-117086714D01*
X124764619Y-117134333D01*
X125097952Y-117705761D02*
X125050333Y-117610523D01*
X125002714Y-117562904D01*
X124907476Y-117515285D01*
X124859857Y-117515285D01*
X124764619Y-117562904D01*
X124717000Y-117610523D01*
X124669380Y-117705761D01*
X124669380Y-117896238D01*
X124717000Y-117991476D01*
X124764619Y-118039095D01*
X124859857Y-118086714D01*
X124907476Y-118086714D01*
X125002714Y-118039095D01*
X125050333Y-117991476D01*
X125097952Y-117896238D01*
X125097952Y-117705761D01*
X125145571Y-117610523D01*
X125193190Y-117562904D01*
X125288428Y-117515285D01*
X125478904Y-117515285D01*
X125574142Y-117562904D01*
X125621761Y-117610523D01*
X125669380Y-117705761D01*
X125669380Y-117896238D01*
X125621761Y-117991476D01*
X125574142Y-118039095D01*
X125478904Y-118086714D01*
X125288428Y-118086714D01*
X125193190Y-118039095D01*
X125145571Y-117991476D01*
X125097952Y-117896238D01*
%TO.C,RV1*%
X109021619Y-110323238D02*
X109497809Y-110656571D01*
X109021619Y-110894666D02*
X110021619Y-110894666D01*
X110021619Y-110513714D01*
X109974000Y-110418476D01*
X109926380Y-110370857D01*
X109831142Y-110323238D01*
X109688285Y-110323238D01*
X109593047Y-110370857D01*
X109545428Y-110418476D01*
X109497809Y-110513714D01*
X109497809Y-110894666D01*
X110021619Y-110037523D02*
X109021619Y-109704190D01*
X110021619Y-109370857D01*
X109021619Y-108513714D02*
X109021619Y-109085142D01*
X109021619Y-108799428D02*
X110021619Y-108799428D01*
X109878761Y-108894666D01*
X109783523Y-108989904D01*
X109735904Y-109085142D01*
%TO.C,C37*%
X153773142Y-115181142D02*
X153820761Y-115133523D01*
X153868380Y-114990666D01*
X153868380Y-114895428D01*
X153820761Y-114752571D01*
X153725523Y-114657333D01*
X153630285Y-114609714D01*
X153439809Y-114562095D01*
X153296952Y-114562095D01*
X153106476Y-114609714D01*
X153011238Y-114657333D01*
X152916000Y-114752571D01*
X152868380Y-114895428D01*
X152868380Y-114990666D01*
X152916000Y-115133523D01*
X152963619Y-115181142D01*
X152868380Y-115514476D02*
X152868380Y-116133523D01*
X153249333Y-115800190D01*
X153249333Y-115943047D01*
X153296952Y-116038285D01*
X153344571Y-116085904D01*
X153439809Y-116133523D01*
X153677904Y-116133523D01*
X153773142Y-116085904D01*
X153820761Y-116038285D01*
X153868380Y-115943047D01*
X153868380Y-115657333D01*
X153820761Y-115562095D01*
X153773142Y-115514476D01*
X152868380Y-116466857D02*
X152868380Y-117133523D01*
X153868380Y-116704952D01*
%TO.C,C11*%
X126844142Y-124024142D02*
X126891761Y-123976523D01*
X126939380Y-123833666D01*
X126939380Y-123738428D01*
X126891761Y-123595571D01*
X126796523Y-123500333D01*
X126701285Y-123452714D01*
X126510809Y-123405095D01*
X126367952Y-123405095D01*
X126177476Y-123452714D01*
X126082238Y-123500333D01*
X125987000Y-123595571D01*
X125939380Y-123738428D01*
X125939380Y-123833666D01*
X125987000Y-123976523D01*
X126034619Y-124024142D01*
X126939380Y-124976523D02*
X126939380Y-124405095D01*
X126939380Y-124690809D02*
X125939380Y-124690809D01*
X126082238Y-124595571D01*
X126177476Y-124500333D01*
X126225095Y-124405095D01*
X126939380Y-125928904D02*
X126939380Y-125357476D01*
X126939380Y-125643190D02*
X125939380Y-125643190D01*
X126082238Y-125547952D01*
X126177476Y-125452714D01*
X126225095Y-125357476D01*
%TO.C,R33*%
X122586357Y-92146880D02*
X122919690Y-91670690D01*
X123157785Y-92146880D02*
X123157785Y-91146880D01*
X122776833Y-91146880D01*
X122681595Y-91194500D01*
X122633976Y-91242119D01*
X122586357Y-91337357D01*
X122586357Y-91480214D01*
X122633976Y-91575452D01*
X122681595Y-91623071D01*
X122776833Y-91670690D01*
X123157785Y-91670690D01*
X122253023Y-91146880D02*
X121633976Y-91146880D01*
X121967309Y-91527833D01*
X121824452Y-91527833D01*
X121729214Y-91575452D01*
X121681595Y-91623071D01*
X121633976Y-91718309D01*
X121633976Y-91956404D01*
X121681595Y-92051642D01*
X121729214Y-92099261D01*
X121824452Y-92146880D01*
X122110166Y-92146880D01*
X122205404Y-92099261D01*
X122253023Y-92051642D01*
X121300642Y-91146880D02*
X120681595Y-91146880D01*
X121014928Y-91527833D01*
X120872071Y-91527833D01*
X120776833Y-91575452D01*
X120729214Y-91623071D01*
X120681595Y-91718309D01*
X120681595Y-91956404D01*
X120729214Y-92051642D01*
X120776833Y-92099261D01*
X120872071Y-92146880D01*
X121157785Y-92146880D01*
X121253023Y-92099261D01*
X121300642Y-92051642D01*
%TO.C,L1*%
X125379880Y-107529333D02*
X125379880Y-107053142D01*
X124379880Y-107053142D01*
X125379880Y-108386476D02*
X125379880Y-107815047D01*
X125379880Y-108100761D02*
X124379880Y-108100761D01*
X124522738Y-108005523D01*
X124617976Y-107910285D01*
X124665595Y-107815047D01*
%TO.C,C1*%
X126947142Y-92289333D02*
X126994761Y-92241714D01*
X127042380Y-92098857D01*
X127042380Y-92003619D01*
X126994761Y-91860761D01*
X126899523Y-91765523D01*
X126804285Y-91717904D01*
X126613809Y-91670285D01*
X126470952Y-91670285D01*
X126280476Y-91717904D01*
X126185238Y-91765523D01*
X126090000Y-91860761D01*
X126042380Y-92003619D01*
X126042380Y-92098857D01*
X126090000Y-92241714D01*
X126137619Y-92289333D01*
X127042380Y-93241714D02*
X127042380Y-92670285D01*
X127042380Y-92956000D02*
X126042380Y-92956000D01*
X126185238Y-92860761D01*
X126280476Y-92765523D01*
X126328095Y-92670285D01*
%TO.C,D5*%
X125420380Y-88415904D02*
X124420380Y-88415904D01*
X124420380Y-88654000D01*
X124468000Y-88796857D01*
X124563238Y-88892095D01*
X124658476Y-88939714D01*
X124848952Y-88987333D01*
X124991809Y-88987333D01*
X125182285Y-88939714D01*
X125277523Y-88892095D01*
X125372761Y-88796857D01*
X125420380Y-88654000D01*
X125420380Y-88415904D01*
X124420380Y-89892095D02*
X124420380Y-89415904D01*
X124896571Y-89368285D01*
X124848952Y-89415904D01*
X124801333Y-89511142D01*
X124801333Y-89749238D01*
X124848952Y-89844476D01*
X124896571Y-89892095D01*
X124991809Y-89939714D01*
X125229904Y-89939714D01*
X125325142Y-89892095D01*
X125372761Y-89844476D01*
X125420380Y-89749238D01*
X125420380Y-89511142D01*
X125372761Y-89415904D01*
X125325142Y-89368285D01*
%TO.C,C31*%
X123136857Y-99408332D02*
X123184476Y-99455951D01*
X123327333Y-99503570D01*
X123422571Y-99503570D01*
X123565428Y-99455951D01*
X123660666Y-99360713D01*
X123708285Y-99265475D01*
X123755904Y-99074999D01*
X123755904Y-98932142D01*
X123708285Y-98741666D01*
X123660666Y-98646428D01*
X123565428Y-98551190D01*
X123422571Y-98503570D01*
X123327333Y-98503570D01*
X123184476Y-98551190D01*
X123136857Y-98598809D01*
X122803523Y-98503570D02*
X122184476Y-98503570D01*
X122517809Y-98884523D01*
X122374952Y-98884523D01*
X122279714Y-98932142D01*
X122232095Y-98979761D01*
X122184476Y-99074999D01*
X122184476Y-99313094D01*
X122232095Y-99408332D01*
X122279714Y-99455951D01*
X122374952Y-99503570D01*
X122660666Y-99503570D01*
X122755904Y-99455951D01*
X122803523Y-99408332D01*
X121232095Y-99503570D02*
X121803523Y-99503570D01*
X121517809Y-99503570D02*
X121517809Y-98503570D01*
X121613047Y-98646428D01*
X121708285Y-98741666D01*
X121803523Y-98789285D01*
%TO.C,U13*%
X124232380Y-102795094D02*
X125041904Y-102795094D01*
X125137142Y-102842713D01*
X125184761Y-102890332D01*
X125232380Y-102985570D01*
X125232380Y-103176047D01*
X125184761Y-103271285D01*
X125137142Y-103318904D01*
X125041904Y-103366523D01*
X124232380Y-103366523D01*
X125232380Y-104366523D02*
X125232380Y-103795094D01*
X125232380Y-104080809D02*
X124232380Y-104080809D01*
X124375238Y-103985570D01*
X124470476Y-103890332D01*
X124518095Y-103795094D01*
X124232380Y-104699856D02*
X124232380Y-105318904D01*
X124613333Y-104985570D01*
X124613333Y-105128428D01*
X124660952Y-105223666D01*
X124708571Y-105271285D01*
X124803809Y-105318904D01*
X125041904Y-105318904D01*
X125137142Y-105271285D01*
X125184761Y-105223666D01*
X125232380Y-105128428D01*
X125232380Y-104842713D01*
X125184761Y-104747475D01*
X125137142Y-104699856D01*
%TO.C,R2*%
X131770380Y-86804833D02*
X131294190Y-86471500D01*
X131770380Y-86233404D02*
X130770380Y-86233404D01*
X130770380Y-86614357D01*
X130818000Y-86709595D01*
X130865619Y-86757214D01*
X130960857Y-86804833D01*
X131103714Y-86804833D01*
X131198952Y-86757214D01*
X131246571Y-86709595D01*
X131294190Y-86614357D01*
X131294190Y-86233404D01*
X130865619Y-87185785D02*
X130818000Y-87233404D01*
X130770380Y-87328642D01*
X130770380Y-87566738D01*
X130818000Y-87661976D01*
X130865619Y-87709595D01*
X130960857Y-87757214D01*
X131056095Y-87757214D01*
X131198952Y-87709595D01*
X131770380Y-87138166D01*
X131770380Y-87757214D01*
%TO.C,C24*%
X110362642Y-97951642D02*
X110410261Y-97904023D01*
X110457880Y-97761166D01*
X110457880Y-97665928D01*
X110410261Y-97523071D01*
X110315023Y-97427833D01*
X110219785Y-97380214D01*
X110029309Y-97332595D01*
X109886452Y-97332595D01*
X109695976Y-97380214D01*
X109600738Y-97427833D01*
X109505500Y-97523071D01*
X109457880Y-97665928D01*
X109457880Y-97761166D01*
X109505500Y-97904023D01*
X109553119Y-97951642D01*
X109553119Y-98332595D02*
X109505500Y-98380214D01*
X109457880Y-98475452D01*
X109457880Y-98713547D01*
X109505500Y-98808785D01*
X109553119Y-98856404D01*
X109648357Y-98904023D01*
X109743595Y-98904023D01*
X109886452Y-98856404D01*
X110457880Y-98284976D01*
X110457880Y-98904023D01*
X109791214Y-99761166D02*
X110457880Y-99761166D01*
X109410261Y-99523071D02*
X110124547Y-99284976D01*
X110124547Y-99904023D01*
%TO.C,L4*%
X115416666Y-110754380D02*
X115892857Y-110754380D01*
X115892857Y-109754380D01*
X114654761Y-110087714D02*
X114654761Y-110754380D01*
X114892857Y-109706761D02*
X115130952Y-110421047D01*
X114511904Y-110421047D01*
%TO.C,R18*%
X146756380Y-125214142D02*
X146280190Y-124880809D01*
X146756380Y-124642714D02*
X145756380Y-124642714D01*
X145756380Y-125023666D01*
X145804000Y-125118904D01*
X145851619Y-125166523D01*
X145946857Y-125214142D01*
X146089714Y-125214142D01*
X146184952Y-125166523D01*
X146232571Y-125118904D01*
X146280190Y-125023666D01*
X146280190Y-124642714D01*
X146756380Y-126166523D02*
X146756380Y-125595095D01*
X146756380Y-125880809D02*
X145756380Y-125880809D01*
X145899238Y-125785571D01*
X145994476Y-125690333D01*
X146042095Y-125595095D01*
X146184952Y-126737952D02*
X146137333Y-126642714D01*
X146089714Y-126595095D01*
X145994476Y-126547476D01*
X145946857Y-126547476D01*
X145851619Y-126595095D01*
X145804000Y-126642714D01*
X145756380Y-126737952D01*
X145756380Y-126928428D01*
X145804000Y-127023666D01*
X145851619Y-127071285D01*
X145946857Y-127118904D01*
X145994476Y-127118904D01*
X146089714Y-127071285D01*
X146137333Y-127023666D01*
X146184952Y-126928428D01*
X146184952Y-126737952D01*
X146232571Y-126642714D01*
X146280190Y-126595095D01*
X146375428Y-126547476D01*
X146565904Y-126547476D01*
X146661142Y-126595095D01*
X146708761Y-126642714D01*
X146756380Y-126737952D01*
X146756380Y-126928428D01*
X146708761Y-127023666D01*
X146661142Y-127071285D01*
X146565904Y-127118904D01*
X146375428Y-127118904D01*
X146280190Y-127071285D01*
X146232571Y-127023666D01*
X146184952Y-126928428D01*
%TO.C,D4*%
X118816380Y-98575904D02*
X117816380Y-98575904D01*
X117816380Y-98814000D01*
X117864000Y-98956857D01*
X117959238Y-99052095D01*
X118054476Y-99099714D01*
X118244952Y-99147333D01*
X118387809Y-99147333D01*
X118578285Y-99099714D01*
X118673523Y-99052095D01*
X118768761Y-98956857D01*
X118816380Y-98814000D01*
X118816380Y-98575904D01*
X118149714Y-100004476D02*
X118816380Y-100004476D01*
X117768761Y-99766380D02*
X118483047Y-99528285D01*
X118483047Y-100147333D01*
%TO.C,R40*%
X122242857Y-113252380D02*
X122576190Y-112776190D01*
X122814285Y-113252380D02*
X122814285Y-112252380D01*
X122433333Y-112252380D01*
X122338095Y-112300000D01*
X122290476Y-112347619D01*
X122242857Y-112442857D01*
X122242857Y-112585714D01*
X122290476Y-112680952D01*
X122338095Y-112728571D01*
X122433333Y-112776190D01*
X122814285Y-112776190D01*
X121385714Y-112585714D02*
X121385714Y-113252380D01*
X121623809Y-112204761D02*
X121861904Y-112919047D01*
X121242857Y-112919047D01*
X120671428Y-112252380D02*
X120576190Y-112252380D01*
X120480952Y-112300000D01*
X120433333Y-112347619D01*
X120385714Y-112442857D01*
X120338095Y-112633333D01*
X120338095Y-112871428D01*
X120385714Y-113061904D01*
X120433333Y-113157142D01*
X120480952Y-113204761D01*
X120576190Y-113252380D01*
X120671428Y-113252380D01*
X120766666Y-113204761D01*
X120814285Y-113157142D01*
X120861904Y-113061904D01*
X120909523Y-112871428D01*
X120909523Y-112633333D01*
X120861904Y-112442857D01*
X120814285Y-112347619D01*
X120766666Y-112300000D01*
X120671428Y-112252380D01*
%TO.C,U1*%
X137921904Y-96226380D02*
X137921904Y-97035904D01*
X137874285Y-97131142D01*
X137826666Y-97178761D01*
X137731428Y-97226380D01*
X137540952Y-97226380D01*
X137445714Y-97178761D01*
X137398095Y-97131142D01*
X137350476Y-97035904D01*
X137350476Y-96226380D01*
X136350476Y-97226380D02*
X136921904Y-97226380D01*
X136636190Y-97226380D02*
X136636190Y-96226380D01*
X136731428Y-96369238D01*
X136826666Y-96464476D01*
X136921904Y-96512095D01*
%TO.C,C30*%
X121547142Y-117025142D02*
X121594761Y-116977523D01*
X121642380Y-116834666D01*
X121642380Y-116739428D01*
X121594761Y-116596571D01*
X121499523Y-116501333D01*
X121404285Y-116453714D01*
X121213809Y-116406095D01*
X121070952Y-116406095D01*
X120880476Y-116453714D01*
X120785238Y-116501333D01*
X120690000Y-116596571D01*
X120642380Y-116739428D01*
X120642380Y-116834666D01*
X120690000Y-116977523D01*
X120737619Y-117025142D01*
X120642380Y-117358476D02*
X120642380Y-117977523D01*
X121023333Y-117644190D01*
X121023333Y-117787047D01*
X121070952Y-117882285D01*
X121118571Y-117929904D01*
X121213809Y-117977523D01*
X121451904Y-117977523D01*
X121547142Y-117929904D01*
X121594761Y-117882285D01*
X121642380Y-117787047D01*
X121642380Y-117501333D01*
X121594761Y-117406095D01*
X121547142Y-117358476D01*
X120642380Y-118596571D02*
X120642380Y-118691809D01*
X120690000Y-118787047D01*
X120737619Y-118834666D01*
X120832857Y-118882285D01*
X121023333Y-118929904D01*
X121261428Y-118929904D01*
X121451904Y-118882285D01*
X121547142Y-118834666D01*
X121594761Y-118787047D01*
X121642380Y-118691809D01*
X121642380Y-118596571D01*
X121594761Y-118501333D01*
X121547142Y-118453714D01*
X121451904Y-118406095D01*
X121261428Y-118358476D01*
X121023333Y-118358476D01*
X120832857Y-118406095D01*
X120737619Y-118453714D01*
X120690000Y-118501333D01*
X120642380Y-118596571D01*
%TO.C,C27*%
X147962857Y-86873142D02*
X148010476Y-86920761D01*
X148153333Y-86968380D01*
X148248571Y-86968380D01*
X148391428Y-86920761D01*
X148486666Y-86825523D01*
X148534285Y-86730285D01*
X148581904Y-86539809D01*
X148581904Y-86396952D01*
X148534285Y-86206476D01*
X148486666Y-86111238D01*
X148391428Y-86016000D01*
X148248571Y-85968380D01*
X148153333Y-85968380D01*
X148010476Y-86016000D01*
X147962857Y-86063619D01*
X147581904Y-86063619D02*
X147534285Y-86016000D01*
X147439047Y-85968380D01*
X147200952Y-85968380D01*
X147105714Y-86016000D01*
X147058095Y-86063619D01*
X147010476Y-86158857D01*
X147010476Y-86254095D01*
X147058095Y-86396952D01*
X147629523Y-86968380D01*
X147010476Y-86968380D01*
X146677142Y-85968380D02*
X146010476Y-85968380D01*
X146439047Y-86968380D01*
%TO.C,R32*%
X105631880Y-95157642D02*
X105155690Y-94824309D01*
X105631880Y-94586214D02*
X104631880Y-94586214D01*
X104631880Y-94967166D01*
X104679500Y-95062404D01*
X104727119Y-95110023D01*
X104822357Y-95157642D01*
X104965214Y-95157642D01*
X105060452Y-95110023D01*
X105108071Y-95062404D01*
X105155690Y-94967166D01*
X105155690Y-94586214D01*
X104631880Y-95490976D02*
X104631880Y-96110023D01*
X105012833Y-95776690D01*
X105012833Y-95919547D01*
X105060452Y-96014785D01*
X105108071Y-96062404D01*
X105203309Y-96110023D01*
X105441404Y-96110023D01*
X105536642Y-96062404D01*
X105584261Y-96014785D01*
X105631880Y-95919547D01*
X105631880Y-95633833D01*
X105584261Y-95538595D01*
X105536642Y-95490976D01*
X104727119Y-96490976D02*
X104679500Y-96538595D01*
X104631880Y-96633833D01*
X104631880Y-96871928D01*
X104679500Y-96967166D01*
X104727119Y-97014785D01*
X104822357Y-97062404D01*
X104917595Y-97062404D01*
X105060452Y-97014785D01*
X105631880Y-96443357D01*
X105631880Y-97062404D01*
%TO.C,C29*%
X110019142Y-119057142D02*
X110066761Y-119009523D01*
X110114380Y-118866666D01*
X110114380Y-118771428D01*
X110066761Y-118628571D01*
X109971523Y-118533333D01*
X109876285Y-118485714D01*
X109685809Y-118438095D01*
X109542952Y-118438095D01*
X109352476Y-118485714D01*
X109257238Y-118533333D01*
X109162000Y-118628571D01*
X109114380Y-118771428D01*
X109114380Y-118866666D01*
X109162000Y-119009523D01*
X109209619Y-119057142D01*
X109209619Y-119438095D02*
X109162000Y-119485714D01*
X109114380Y-119580952D01*
X109114380Y-119819047D01*
X109162000Y-119914285D01*
X109209619Y-119961904D01*
X109304857Y-120009523D01*
X109400095Y-120009523D01*
X109542952Y-119961904D01*
X110114380Y-119390476D01*
X110114380Y-120009523D01*
X110114380Y-120485714D02*
X110114380Y-120676190D01*
X110066761Y-120771428D01*
X110019142Y-120819047D01*
X109876285Y-120914285D01*
X109685809Y-120961904D01*
X109304857Y-120961904D01*
X109209619Y-120914285D01*
X109162000Y-120866666D01*
X109114380Y-120771428D01*
X109114380Y-120580952D01*
X109162000Y-120485714D01*
X109209619Y-120438095D01*
X109304857Y-120390476D01*
X109542952Y-120390476D01*
X109638190Y-120438095D01*
X109685809Y-120485714D01*
X109733428Y-120580952D01*
X109733428Y-120771428D01*
X109685809Y-120866666D01*
X109638190Y-120914285D01*
X109542952Y-120961904D01*
%TO.C,TP8*%
X115242380Y-135136095D02*
X115242380Y-135707523D01*
X116242380Y-135421809D02*
X115242380Y-135421809D01*
X116242380Y-136040857D02*
X115242380Y-136040857D01*
X115242380Y-136421809D01*
X115290000Y-136517047D01*
X115337619Y-136564666D01*
X115432857Y-136612285D01*
X115575714Y-136612285D01*
X115670952Y-136564666D01*
X115718571Y-136517047D01*
X115766190Y-136421809D01*
X115766190Y-136040857D01*
X115670952Y-137183714D02*
X115623333Y-137088476D01*
X115575714Y-137040857D01*
X115480476Y-136993238D01*
X115432857Y-136993238D01*
X115337619Y-137040857D01*
X115290000Y-137088476D01*
X115242380Y-137183714D01*
X115242380Y-137374190D01*
X115290000Y-137469428D01*
X115337619Y-137517047D01*
X115432857Y-137564666D01*
X115480476Y-137564666D01*
X115575714Y-137517047D01*
X115623333Y-137469428D01*
X115670952Y-137374190D01*
X115670952Y-137183714D01*
X115718571Y-137088476D01*
X115766190Y-137040857D01*
X115861428Y-136993238D01*
X116051904Y-136993238D01*
X116147142Y-137040857D01*
X116194761Y-137088476D01*
X116242380Y-137183714D01*
X116242380Y-137374190D01*
X116194761Y-137469428D01*
X116147142Y-137517047D01*
X116051904Y-137564666D01*
X115861428Y-137564666D01*
X115766190Y-137517047D01*
X115718571Y-137469428D01*
X115670952Y-137374190D01*
%TO.C,R31*%
X110583880Y-92363642D02*
X110107690Y-92030309D01*
X110583880Y-91792214D02*
X109583880Y-91792214D01*
X109583880Y-92173166D01*
X109631500Y-92268404D01*
X109679119Y-92316023D01*
X109774357Y-92363642D01*
X109917214Y-92363642D01*
X110012452Y-92316023D01*
X110060071Y-92268404D01*
X110107690Y-92173166D01*
X110107690Y-91792214D01*
X109583880Y-92696976D02*
X109583880Y-93316023D01*
X109964833Y-92982690D01*
X109964833Y-93125547D01*
X110012452Y-93220785D01*
X110060071Y-93268404D01*
X110155309Y-93316023D01*
X110393404Y-93316023D01*
X110488642Y-93268404D01*
X110536261Y-93220785D01*
X110583880Y-93125547D01*
X110583880Y-92839833D01*
X110536261Y-92744595D01*
X110488642Y-92696976D01*
X110583880Y-94268404D02*
X110583880Y-93696976D01*
X110583880Y-93982690D02*
X109583880Y-93982690D01*
X109726738Y-93887452D01*
X109821976Y-93792214D01*
X109869595Y-93696976D01*
%TO.C,BT1*%
X188650571Y-116816285D02*
X188698190Y-116959142D01*
X188745809Y-117006761D01*
X188841047Y-117054380D01*
X188983904Y-117054380D01*
X189079142Y-117006761D01*
X189126761Y-116959142D01*
X189174380Y-116863904D01*
X189174380Y-116482952D01*
X188174380Y-116482952D01*
X188174380Y-116816285D01*
X188222000Y-116911523D01*
X188269619Y-116959142D01*
X188364857Y-117006761D01*
X188460095Y-117006761D01*
X188555333Y-116959142D01*
X188602952Y-116911523D01*
X188650571Y-116816285D01*
X188650571Y-116482952D01*
X188174380Y-117340095D02*
X188174380Y-117911523D01*
X189174380Y-117625809D02*
X188174380Y-117625809D01*
X189174380Y-118768666D02*
X189174380Y-118197238D01*
X189174380Y-118482952D02*
X188174380Y-118482952D01*
X188317238Y-118387714D01*
X188412476Y-118292476D01*
X188460095Y-118197238D01*
%TO.C,TP5*%
X106640380Y-100338095D02*
X106640380Y-100909523D01*
X107640380Y-100623809D02*
X106640380Y-100623809D01*
X107640380Y-101242857D02*
X106640380Y-101242857D01*
X106640380Y-101623809D01*
X106688000Y-101719047D01*
X106735619Y-101766666D01*
X106830857Y-101814285D01*
X106973714Y-101814285D01*
X107068952Y-101766666D01*
X107116571Y-101719047D01*
X107164190Y-101623809D01*
X107164190Y-101242857D01*
X106640380Y-102719047D02*
X106640380Y-102242857D01*
X107116571Y-102195238D01*
X107068952Y-102242857D01*
X107021333Y-102338095D01*
X107021333Y-102576190D01*
X107068952Y-102671428D01*
X107116571Y-102719047D01*
X107211809Y-102766666D01*
X107449904Y-102766666D01*
X107545142Y-102719047D01*
X107592761Y-102671428D01*
X107640380Y-102576190D01*
X107640380Y-102338095D01*
X107592761Y-102242857D01*
X107545142Y-102195238D01*
%TO.C,R19*%
X148724857Y-120467380D02*
X149058190Y-119991190D01*
X149296285Y-120467380D02*
X149296285Y-119467380D01*
X148915333Y-119467380D01*
X148820095Y-119515000D01*
X148772476Y-119562619D01*
X148724857Y-119657857D01*
X148724857Y-119800714D01*
X148772476Y-119895952D01*
X148820095Y-119943571D01*
X148915333Y-119991190D01*
X149296285Y-119991190D01*
X147772476Y-120467380D02*
X148343904Y-120467380D01*
X148058190Y-120467380D02*
X148058190Y-119467380D01*
X148153428Y-119610238D01*
X148248666Y-119705476D01*
X148343904Y-119753095D01*
X147296285Y-120467380D02*
X147105809Y-120467380D01*
X147010571Y-120419761D01*
X146962952Y-120372142D01*
X146867714Y-120229285D01*
X146820095Y-120038809D01*
X146820095Y-119657857D01*
X146867714Y-119562619D01*
X146915333Y-119515000D01*
X147010571Y-119467380D01*
X147201047Y-119467380D01*
X147296285Y-119515000D01*
X147343904Y-119562619D01*
X147391523Y-119657857D01*
X147391523Y-119895952D01*
X147343904Y-119991190D01*
X147296285Y-120038809D01*
X147201047Y-120086428D01*
X147010571Y-120086428D01*
X146915333Y-120038809D01*
X146867714Y-119991190D01*
X146820095Y-119895952D01*
%TO.C,Q13*%
X153987428Y-137199619D02*
X154082666Y-137152000D01*
X154177904Y-137056761D01*
X154320761Y-136913904D01*
X154416000Y-136866285D01*
X154511238Y-136866285D01*
X154463619Y-137104380D02*
X154558857Y-137056761D01*
X154654095Y-136961523D01*
X154701714Y-136771047D01*
X154701714Y-136437714D01*
X154654095Y-136247238D01*
X154558857Y-136152000D01*
X154463619Y-136104380D01*
X154273142Y-136104380D01*
X154177904Y-136152000D01*
X154082666Y-136247238D01*
X154035047Y-136437714D01*
X154035047Y-136771047D01*
X154082666Y-136961523D01*
X154177904Y-137056761D01*
X154273142Y-137104380D01*
X154463619Y-137104380D01*
X153082666Y-137104380D02*
X153654095Y-137104380D01*
X153368380Y-137104380D02*
X153368380Y-136104380D01*
X153463619Y-136247238D01*
X153558857Y-136342476D01*
X153654095Y-136390095D01*
X152749333Y-136104380D02*
X152130285Y-136104380D01*
X152463619Y-136485333D01*
X152320761Y-136485333D01*
X152225523Y-136532952D01*
X152177904Y-136580571D01*
X152130285Y-136675809D01*
X152130285Y-136913904D01*
X152177904Y-137009142D01*
X152225523Y-137056761D01*
X152320761Y-137104380D01*
X152606476Y-137104380D01*
X152701714Y-137056761D01*
X152749333Y-137009142D01*
%TO.C,R49*%
X157360857Y-118816380D02*
X157694190Y-118340190D01*
X157932285Y-118816380D02*
X157932285Y-117816380D01*
X157551333Y-117816380D01*
X157456095Y-117864000D01*
X157408476Y-117911619D01*
X157360857Y-118006857D01*
X157360857Y-118149714D01*
X157408476Y-118244952D01*
X157456095Y-118292571D01*
X157551333Y-118340190D01*
X157932285Y-118340190D01*
X156503714Y-118149714D02*
X156503714Y-118816380D01*
X156741809Y-117768761D02*
X156979904Y-118483047D01*
X156360857Y-118483047D01*
X155932285Y-118816380D02*
X155741809Y-118816380D01*
X155646571Y-118768761D01*
X155598952Y-118721142D01*
X155503714Y-118578285D01*
X155456095Y-118387809D01*
X155456095Y-118006857D01*
X155503714Y-117911619D01*
X155551333Y-117864000D01*
X155646571Y-117816380D01*
X155837047Y-117816380D01*
X155932285Y-117864000D01*
X155979904Y-117911619D01*
X156027523Y-118006857D01*
X156027523Y-118244952D01*
X155979904Y-118340190D01*
X155932285Y-118387809D01*
X155837047Y-118435428D01*
X155646571Y-118435428D01*
X155551333Y-118387809D01*
X155503714Y-118340190D01*
X155456095Y-118244952D01*
%TO.C,TP2*%
X138858380Y-98814095D02*
X138858380Y-99385523D01*
X139858380Y-99099809D02*
X138858380Y-99099809D01*
X139858380Y-99718857D02*
X138858380Y-99718857D01*
X138858380Y-100099809D01*
X138906000Y-100195047D01*
X138953619Y-100242666D01*
X139048857Y-100290285D01*
X139191714Y-100290285D01*
X139286952Y-100242666D01*
X139334571Y-100195047D01*
X139382190Y-100099809D01*
X139382190Y-99718857D01*
X138953619Y-100671238D02*
X138906000Y-100718857D01*
X138858380Y-100814095D01*
X138858380Y-101052190D01*
X138906000Y-101147428D01*
X138953619Y-101195047D01*
X139048857Y-101242666D01*
X139144095Y-101242666D01*
X139286952Y-101195047D01*
X139858380Y-100623619D01*
X139858380Y-101242666D01*
%TO.C,U7*%
X154812904Y-78560380D02*
X154812904Y-79369904D01*
X154765285Y-79465142D01*
X154717666Y-79512761D01*
X154622428Y-79560380D01*
X154431952Y-79560380D01*
X154336714Y-79512761D01*
X154289095Y-79465142D01*
X154241476Y-79369904D01*
X154241476Y-78560380D01*
X153860523Y-78560380D02*
X153193857Y-78560380D01*
X153622428Y-79560380D01*
%TO.C,C10*%
X138787142Y-118737142D02*
X138834761Y-118689523D01*
X138882380Y-118546666D01*
X138882380Y-118451428D01*
X138834761Y-118308571D01*
X138739523Y-118213333D01*
X138644285Y-118165714D01*
X138453809Y-118118095D01*
X138310952Y-118118095D01*
X138120476Y-118165714D01*
X138025238Y-118213333D01*
X137930000Y-118308571D01*
X137882380Y-118451428D01*
X137882380Y-118546666D01*
X137930000Y-118689523D01*
X137977619Y-118737142D01*
X138882380Y-119689523D02*
X138882380Y-119118095D01*
X138882380Y-119403809D02*
X137882380Y-119403809D01*
X138025238Y-119308571D01*
X138120476Y-119213333D01*
X138168095Y-119118095D01*
X137882380Y-120308571D02*
X137882380Y-120403809D01*
X137930000Y-120499047D01*
X137977619Y-120546666D01*
X138072857Y-120594285D01*
X138263333Y-120641904D01*
X138501428Y-120641904D01*
X138691904Y-120594285D01*
X138787142Y-120546666D01*
X138834761Y-120499047D01*
X138882380Y-120403809D01*
X138882380Y-120308571D01*
X138834761Y-120213333D01*
X138787142Y-120165714D01*
X138691904Y-120118095D01*
X138501428Y-120070476D01*
X138263333Y-120070476D01*
X138072857Y-120118095D01*
X137977619Y-120165714D01*
X137930000Y-120213333D01*
X137882380Y-120308571D01*
%TO.C,TP1*%
X126198380Y-95766095D02*
X126198380Y-96337523D01*
X127198380Y-96051809D02*
X126198380Y-96051809D01*
X127198380Y-96670857D02*
X126198380Y-96670857D01*
X126198380Y-97051809D01*
X126246000Y-97147047D01*
X126293619Y-97194666D01*
X126388857Y-97242285D01*
X126531714Y-97242285D01*
X126626952Y-97194666D01*
X126674571Y-97147047D01*
X126722190Y-97051809D01*
X126722190Y-96670857D01*
X127198380Y-98194666D02*
X127198380Y-97623238D01*
X127198380Y-97908952D02*
X126198380Y-97908952D01*
X126341238Y-97813714D01*
X126436476Y-97718476D01*
X126484095Y-97623238D01*
%TO.C,U2*%
X137159904Y-84034380D02*
X137159904Y-84843904D01*
X137112285Y-84939142D01*
X137064666Y-84986761D01*
X136969428Y-85034380D01*
X136778952Y-85034380D01*
X136683714Y-84986761D01*
X136636095Y-84939142D01*
X136588476Y-84843904D01*
X136588476Y-84034380D01*
X136159904Y-84129619D02*
X136112285Y-84082000D01*
X136017047Y-84034380D01*
X135778952Y-84034380D01*
X135683714Y-84082000D01*
X135636095Y-84129619D01*
X135588476Y-84224857D01*
X135588476Y-84320095D01*
X135636095Y-84462952D01*
X136207523Y-85034380D01*
X135588476Y-85034380D01*
%TO.C,R5*%
X138773880Y-116673333D02*
X138297690Y-116340000D01*
X138773880Y-116101904D02*
X137773880Y-116101904D01*
X137773880Y-116482857D01*
X137821500Y-116578095D01*
X137869119Y-116625714D01*
X137964357Y-116673333D01*
X138107214Y-116673333D01*
X138202452Y-116625714D01*
X138250071Y-116578095D01*
X138297690Y-116482857D01*
X138297690Y-116101904D01*
X137773880Y-117578095D02*
X137773880Y-117101904D01*
X138250071Y-117054285D01*
X138202452Y-117101904D01*
X138154833Y-117197142D01*
X138154833Y-117435238D01*
X138202452Y-117530476D01*
X138250071Y-117578095D01*
X138345309Y-117625714D01*
X138583404Y-117625714D01*
X138678642Y-117578095D01*
X138726261Y-117530476D01*
X138773880Y-117435238D01*
X138773880Y-117197142D01*
X138726261Y-117101904D01*
X138678642Y-117054285D01*
%TO.C,C36*%
X147169142Y-128135142D02*
X147216761Y-128087523D01*
X147264380Y-127944666D01*
X147264380Y-127849428D01*
X147216761Y-127706571D01*
X147121523Y-127611333D01*
X147026285Y-127563714D01*
X146835809Y-127516095D01*
X146692952Y-127516095D01*
X146502476Y-127563714D01*
X146407238Y-127611333D01*
X146312000Y-127706571D01*
X146264380Y-127849428D01*
X146264380Y-127944666D01*
X146312000Y-128087523D01*
X146359619Y-128135142D01*
X146264380Y-128468476D02*
X146264380Y-129087523D01*
X146645333Y-128754190D01*
X146645333Y-128897047D01*
X146692952Y-128992285D01*
X146740571Y-129039904D01*
X146835809Y-129087523D01*
X147073904Y-129087523D01*
X147169142Y-129039904D01*
X147216761Y-128992285D01*
X147264380Y-128897047D01*
X147264380Y-128611333D01*
X147216761Y-128516095D01*
X147169142Y-128468476D01*
X146264380Y-129944666D02*
X146264380Y-129754190D01*
X146312000Y-129658952D01*
X146359619Y-129611333D01*
X146502476Y-129516095D01*
X146692952Y-129468476D01*
X147073904Y-129468476D01*
X147169142Y-129516095D01*
X147216761Y-129563714D01*
X147264380Y-129658952D01*
X147264380Y-129849428D01*
X147216761Y-129944666D01*
X147169142Y-129992285D01*
X147073904Y-130039904D01*
X146835809Y-130039904D01*
X146740571Y-129992285D01*
X146692952Y-129944666D01*
X146645333Y-129849428D01*
X146645333Y-129658952D01*
X146692952Y-129563714D01*
X146740571Y-129516095D01*
X146835809Y-129468476D01*
%TO.C,C16*%
X141933142Y-82161142D02*
X141980761Y-82113523D01*
X142028380Y-81970666D01*
X142028380Y-81875428D01*
X141980761Y-81732571D01*
X141885523Y-81637333D01*
X141790285Y-81589714D01*
X141599809Y-81542095D01*
X141456952Y-81542095D01*
X141266476Y-81589714D01*
X141171238Y-81637333D01*
X141076000Y-81732571D01*
X141028380Y-81875428D01*
X141028380Y-81970666D01*
X141076000Y-82113523D01*
X141123619Y-82161142D01*
X142028380Y-83113523D02*
X142028380Y-82542095D01*
X142028380Y-82827809D02*
X141028380Y-82827809D01*
X141171238Y-82732571D01*
X141266476Y-82637333D01*
X141314095Y-82542095D01*
X141028380Y-83970666D02*
X141028380Y-83780190D01*
X141076000Y-83684952D01*
X141123619Y-83637333D01*
X141266476Y-83542095D01*
X141456952Y-83494476D01*
X141837904Y-83494476D01*
X141933142Y-83542095D01*
X141980761Y-83589714D01*
X142028380Y-83684952D01*
X142028380Y-83875428D01*
X141980761Y-83970666D01*
X141933142Y-84018285D01*
X141837904Y-84065904D01*
X141599809Y-84065904D01*
X141504571Y-84018285D01*
X141456952Y-83970666D01*
X141409333Y-83875428D01*
X141409333Y-83684952D01*
X141456952Y-83589714D01*
X141504571Y-83542095D01*
X141599809Y-83494476D01*
%TO.C,C6*%
X133707142Y-98131333D02*
X133754761Y-98083714D01*
X133802380Y-97940857D01*
X133802380Y-97845619D01*
X133754761Y-97702761D01*
X133659523Y-97607523D01*
X133564285Y-97559904D01*
X133373809Y-97512285D01*
X133230952Y-97512285D01*
X133040476Y-97559904D01*
X132945238Y-97607523D01*
X132850000Y-97702761D01*
X132802380Y-97845619D01*
X132802380Y-97940857D01*
X132850000Y-98083714D01*
X132897619Y-98131333D01*
X132802380Y-98988476D02*
X132802380Y-98798000D01*
X132850000Y-98702761D01*
X132897619Y-98655142D01*
X133040476Y-98559904D01*
X133230952Y-98512285D01*
X133611904Y-98512285D01*
X133707142Y-98559904D01*
X133754761Y-98607523D01*
X133802380Y-98702761D01*
X133802380Y-98893238D01*
X133754761Y-98988476D01*
X133707142Y-99036095D01*
X133611904Y-99083714D01*
X133373809Y-99083714D01*
X133278571Y-99036095D01*
X133230952Y-98988476D01*
X133183333Y-98893238D01*
X133183333Y-98702761D01*
X133230952Y-98607523D01*
X133278571Y-98559904D01*
X133373809Y-98512285D01*
%TO.C,U11*%
X130328380Y-81687404D02*
X131137904Y-81687404D01*
X131233142Y-81735023D01*
X131280761Y-81782642D01*
X131328380Y-81877880D01*
X131328380Y-82068357D01*
X131280761Y-82163595D01*
X131233142Y-82211214D01*
X131137904Y-82258833D01*
X130328380Y-82258833D01*
X131328380Y-83258833D02*
X131328380Y-82687404D01*
X131328380Y-82973119D02*
X130328380Y-82973119D01*
X130471238Y-82877880D01*
X130566476Y-82782642D01*
X130614095Y-82687404D01*
X131328380Y-84211214D02*
X131328380Y-83639785D01*
X131328380Y-83925500D02*
X130328380Y-83925500D01*
X130471238Y-83830261D01*
X130566476Y-83735023D01*
X130614095Y-83639785D01*
%TO.C,C12*%
X133707142Y-136517142D02*
X133754761Y-136469523D01*
X133802380Y-136326666D01*
X133802380Y-136231428D01*
X133754761Y-136088571D01*
X133659523Y-135993333D01*
X133564285Y-135945714D01*
X133373809Y-135898095D01*
X133230952Y-135898095D01*
X133040476Y-135945714D01*
X132945238Y-135993333D01*
X132850000Y-136088571D01*
X132802380Y-136231428D01*
X132802380Y-136326666D01*
X132850000Y-136469523D01*
X132897619Y-136517142D01*
X133802380Y-137469523D02*
X133802380Y-136898095D01*
X133802380Y-137183809D02*
X132802380Y-137183809D01*
X132945238Y-137088571D01*
X133040476Y-136993333D01*
X133088095Y-136898095D01*
X132897619Y-137850476D02*
X132850000Y-137898095D01*
X132802380Y-137993333D01*
X132802380Y-138231428D01*
X132850000Y-138326666D01*
X132897619Y-138374285D01*
X132992857Y-138421904D01*
X133088095Y-138421904D01*
X133230952Y-138374285D01*
X133802380Y-137802857D01*
X133802380Y-138421904D01*
%TO.C,C25*%
X120851142Y-95919642D02*
X120898761Y-95872023D01*
X120946380Y-95729166D01*
X120946380Y-95633928D01*
X120898761Y-95491071D01*
X120803523Y-95395833D01*
X120708285Y-95348214D01*
X120517809Y-95300595D01*
X120374952Y-95300595D01*
X120184476Y-95348214D01*
X120089238Y-95395833D01*
X119994000Y-95491071D01*
X119946380Y-95633928D01*
X119946380Y-95729166D01*
X119994000Y-95872023D01*
X120041619Y-95919642D01*
X120041619Y-96300595D02*
X119994000Y-96348214D01*
X119946380Y-96443452D01*
X119946380Y-96681547D01*
X119994000Y-96776785D01*
X120041619Y-96824404D01*
X120136857Y-96872023D01*
X120232095Y-96872023D01*
X120374952Y-96824404D01*
X120946380Y-96252976D01*
X120946380Y-96872023D01*
X119946380Y-97776785D02*
X119946380Y-97300595D01*
X120422571Y-97252976D01*
X120374952Y-97300595D01*
X120327333Y-97395833D01*
X120327333Y-97633928D01*
X120374952Y-97729166D01*
X120422571Y-97776785D01*
X120517809Y-97824404D01*
X120755904Y-97824404D01*
X120851142Y-97776785D01*
X120898761Y-97729166D01*
X120946380Y-97633928D01*
X120946380Y-97395833D01*
X120898761Y-97300595D01*
X120851142Y-97252976D01*
%TO.C,TP3*%
X138858380Y-137422095D02*
X138858380Y-137993523D01*
X139858380Y-137707809D02*
X138858380Y-137707809D01*
X139858380Y-138326857D02*
X138858380Y-138326857D01*
X138858380Y-138707809D01*
X138906000Y-138803047D01*
X138953619Y-138850666D01*
X139048857Y-138898285D01*
X139191714Y-138898285D01*
X139286952Y-138850666D01*
X139334571Y-138803047D01*
X139382190Y-138707809D01*
X139382190Y-138326857D01*
X138858380Y-139231619D02*
X138858380Y-139850666D01*
X139239333Y-139517333D01*
X139239333Y-139660190D01*
X139286952Y-139755428D01*
X139334571Y-139803047D01*
X139429809Y-139850666D01*
X139667904Y-139850666D01*
X139763142Y-139803047D01*
X139810761Y-139755428D01*
X139858380Y-139660190D01*
X139858380Y-139374476D01*
X139810761Y-139279238D01*
X139763142Y-139231619D01*
%TO.C,R10*%
X141422380Y-93503892D02*
X140946190Y-93170559D01*
X141422380Y-92932464D02*
X140422380Y-92932464D01*
X140422380Y-93313416D01*
X140470000Y-93408654D01*
X140517619Y-93456273D01*
X140612857Y-93503892D01*
X140755714Y-93503892D01*
X140850952Y-93456273D01*
X140898571Y-93408654D01*
X140946190Y-93313416D01*
X140946190Y-92932464D01*
X141422380Y-94456273D02*
X141422380Y-93884845D01*
X141422380Y-94170559D02*
X140422380Y-94170559D01*
X140565238Y-94075321D01*
X140660476Y-93980083D01*
X140708095Y-93884845D01*
X140422380Y-95075321D02*
X140422380Y-95170559D01*
X140470000Y-95265797D01*
X140517619Y-95313416D01*
X140612857Y-95361035D01*
X140803333Y-95408654D01*
X141041428Y-95408654D01*
X141231904Y-95361035D01*
X141327142Y-95313416D01*
X141374761Y-95265797D01*
X141422380Y-95170559D01*
X141422380Y-95075321D01*
X141374761Y-94980083D01*
X141327142Y-94932464D01*
X141231904Y-94884845D01*
X141041428Y-94837226D01*
X140803333Y-94837226D01*
X140612857Y-94884845D01*
X140517619Y-94932464D01*
X140470000Y-94980083D01*
X140422380Y-95075321D01*
%TO.C,C22*%
X150373142Y-74795142D02*
X150420761Y-74747523D01*
X150468380Y-74604666D01*
X150468380Y-74509428D01*
X150420761Y-74366571D01*
X150325523Y-74271333D01*
X150230285Y-74223714D01*
X150039809Y-74176095D01*
X149896952Y-74176095D01*
X149706476Y-74223714D01*
X149611238Y-74271333D01*
X149516000Y-74366571D01*
X149468380Y-74509428D01*
X149468380Y-74604666D01*
X149516000Y-74747523D01*
X149563619Y-74795142D01*
X149563619Y-75176095D02*
X149516000Y-75223714D01*
X149468380Y-75318952D01*
X149468380Y-75557047D01*
X149516000Y-75652285D01*
X149563619Y-75699904D01*
X149658857Y-75747523D01*
X149754095Y-75747523D01*
X149896952Y-75699904D01*
X150468380Y-75128476D01*
X150468380Y-75747523D01*
X149563619Y-76128476D02*
X149516000Y-76176095D01*
X149468380Y-76271333D01*
X149468380Y-76509428D01*
X149516000Y-76604666D01*
X149563619Y-76652285D01*
X149658857Y-76699904D01*
X149754095Y-76699904D01*
X149896952Y-76652285D01*
X150468380Y-76080857D01*
X150468380Y-76699904D01*
%TO.C,TP7*%
X115244380Y-139658095D02*
X115244380Y-140229523D01*
X116244380Y-139943809D02*
X115244380Y-139943809D01*
X116244380Y-140562857D02*
X115244380Y-140562857D01*
X115244380Y-140943809D01*
X115292000Y-141039047D01*
X115339619Y-141086666D01*
X115434857Y-141134285D01*
X115577714Y-141134285D01*
X115672952Y-141086666D01*
X115720571Y-141039047D01*
X115768190Y-140943809D01*
X115768190Y-140562857D01*
X115244380Y-141467619D02*
X115244380Y-142134285D01*
X116244380Y-141705714D01*
%TO.C,C26*%
X131167142Y-79113142D02*
X131214761Y-79065523D01*
X131262380Y-78922666D01*
X131262380Y-78827428D01*
X131214761Y-78684571D01*
X131119523Y-78589333D01*
X131024285Y-78541714D01*
X130833809Y-78494095D01*
X130690952Y-78494095D01*
X130500476Y-78541714D01*
X130405238Y-78589333D01*
X130310000Y-78684571D01*
X130262380Y-78827428D01*
X130262380Y-78922666D01*
X130310000Y-79065523D01*
X130357619Y-79113142D01*
X130357619Y-79494095D02*
X130310000Y-79541714D01*
X130262380Y-79636952D01*
X130262380Y-79875047D01*
X130310000Y-79970285D01*
X130357619Y-80017904D01*
X130452857Y-80065523D01*
X130548095Y-80065523D01*
X130690952Y-80017904D01*
X131262380Y-79446476D01*
X131262380Y-80065523D01*
X130262380Y-80922666D02*
X130262380Y-80732190D01*
X130310000Y-80636952D01*
X130357619Y-80589333D01*
X130500476Y-80494095D01*
X130690952Y-80446476D01*
X131071904Y-80446476D01*
X131167142Y-80494095D01*
X131214761Y-80541714D01*
X131262380Y-80636952D01*
X131262380Y-80827428D01*
X131214761Y-80922666D01*
X131167142Y-80970285D01*
X131071904Y-81017904D01*
X130833809Y-81017904D01*
X130738571Y-80970285D01*
X130690952Y-80922666D01*
X130643333Y-80827428D01*
X130643333Y-80636952D01*
X130690952Y-80541714D01*
X130738571Y-80494095D01*
X130833809Y-80446476D01*
%TO.C,J2*%
X113119333Y-87813380D02*
X113119333Y-88527666D01*
X113166952Y-88670523D01*
X113262190Y-88765761D01*
X113405047Y-88813380D01*
X113500285Y-88813380D01*
X112690761Y-87908619D02*
X112643142Y-87861000D01*
X112547904Y-87813380D01*
X112309809Y-87813380D01*
X112214571Y-87861000D01*
X112166952Y-87908619D01*
X112119333Y-88003857D01*
X112119333Y-88099095D01*
X112166952Y-88241952D01*
X112738380Y-88813380D01*
X112119333Y-88813380D01*
%TO.C,R37*%
X106686380Y-118803142D02*
X106210190Y-118469809D01*
X106686380Y-118231714D02*
X105686380Y-118231714D01*
X105686380Y-118612666D01*
X105734000Y-118707904D01*
X105781619Y-118755523D01*
X105876857Y-118803142D01*
X106019714Y-118803142D01*
X106114952Y-118755523D01*
X106162571Y-118707904D01*
X106210190Y-118612666D01*
X106210190Y-118231714D01*
X105686380Y-119136476D02*
X105686380Y-119755523D01*
X106067333Y-119422190D01*
X106067333Y-119565047D01*
X106114952Y-119660285D01*
X106162571Y-119707904D01*
X106257809Y-119755523D01*
X106495904Y-119755523D01*
X106591142Y-119707904D01*
X106638761Y-119660285D01*
X106686380Y-119565047D01*
X106686380Y-119279333D01*
X106638761Y-119184095D01*
X106591142Y-119136476D01*
X105686380Y-120088857D02*
X105686380Y-120755523D01*
X106686380Y-120326952D01*
%TO.C,R16*%
X138882380Y-121785142D02*
X138406190Y-121451809D01*
X138882380Y-121213714D02*
X137882380Y-121213714D01*
X137882380Y-121594666D01*
X137930000Y-121689904D01*
X137977619Y-121737523D01*
X138072857Y-121785142D01*
X138215714Y-121785142D01*
X138310952Y-121737523D01*
X138358571Y-121689904D01*
X138406190Y-121594666D01*
X138406190Y-121213714D01*
X138882380Y-122737523D02*
X138882380Y-122166095D01*
X138882380Y-122451809D02*
X137882380Y-122451809D01*
X138025238Y-122356571D01*
X138120476Y-122261333D01*
X138168095Y-122166095D01*
X137882380Y-123594666D02*
X137882380Y-123404190D01*
X137930000Y-123308952D01*
X137977619Y-123261333D01*
X138120476Y-123166095D01*
X138310952Y-123118476D01*
X138691904Y-123118476D01*
X138787142Y-123166095D01*
X138834761Y-123213714D01*
X138882380Y-123308952D01*
X138882380Y-123499428D01*
X138834761Y-123594666D01*
X138787142Y-123642285D01*
X138691904Y-123689904D01*
X138453809Y-123689904D01*
X138358571Y-123642285D01*
X138310952Y-123594666D01*
X138263333Y-123499428D01*
X138263333Y-123308952D01*
X138310952Y-123213714D01*
X138358571Y-123166095D01*
X138453809Y-123118476D01*
%TO.C,C7*%
X126420642Y-114133333D02*
X126468261Y-114085714D01*
X126515880Y-113942857D01*
X126515880Y-113847619D01*
X126468261Y-113704761D01*
X126373023Y-113609523D01*
X126277785Y-113561904D01*
X126087309Y-113514285D01*
X125944452Y-113514285D01*
X125753976Y-113561904D01*
X125658738Y-113609523D01*
X125563500Y-113704761D01*
X125515880Y-113847619D01*
X125515880Y-113942857D01*
X125563500Y-114085714D01*
X125611119Y-114133333D01*
X125515880Y-114466666D02*
X125515880Y-115133333D01*
X126515880Y-114704761D01*
%TO.C,RV2*%
X120594380Y-131738761D02*
X120118190Y-131405428D01*
X120594380Y-131167333D02*
X119594380Y-131167333D01*
X119594380Y-131548285D01*
X119642000Y-131643523D01*
X119689619Y-131691142D01*
X119784857Y-131738761D01*
X119927714Y-131738761D01*
X120022952Y-131691142D01*
X120070571Y-131643523D01*
X120118190Y-131548285D01*
X120118190Y-131167333D01*
X119594380Y-132024476D02*
X120594380Y-132357809D01*
X119594380Y-132691142D01*
X119689619Y-132976857D02*
X119642000Y-133024476D01*
X119594380Y-133119714D01*
X119594380Y-133357809D01*
X119642000Y-133453047D01*
X119689619Y-133500666D01*
X119784857Y-133548285D01*
X119880095Y-133548285D01*
X120022952Y-133500666D01*
X120594380Y-132929238D01*
X120594380Y-133548285D01*
%TO.C,L3*%
X115760166Y-89648880D02*
X116236357Y-89648880D01*
X116236357Y-88648880D01*
X115522071Y-88648880D02*
X114903023Y-88648880D01*
X115236357Y-89029833D01*
X115093500Y-89029833D01*
X114998261Y-89077452D01*
X114950642Y-89125071D01*
X114903023Y-89220309D01*
X114903023Y-89458404D01*
X114950642Y-89553642D01*
X114998261Y-89601261D01*
X115093500Y-89648880D01*
X115379214Y-89648880D01*
X115474452Y-89601261D01*
X115522071Y-89553642D01*
%TO.C,R4*%
X137353380Y-113625333D02*
X136877190Y-113292000D01*
X137353380Y-113053904D02*
X136353380Y-113053904D01*
X136353380Y-113434857D01*
X136401000Y-113530095D01*
X136448619Y-113577714D01*
X136543857Y-113625333D01*
X136686714Y-113625333D01*
X136781952Y-113577714D01*
X136829571Y-113530095D01*
X136877190Y-113434857D01*
X136877190Y-113053904D01*
X136686714Y-114482476D02*
X137353380Y-114482476D01*
X136305761Y-114244380D02*
X137020047Y-114006285D01*
X137020047Y-114625333D01*
%TO.C,D8*%
X118562380Y-121501904D02*
X117562380Y-121501904D01*
X117562380Y-121740000D01*
X117610000Y-121882857D01*
X117705238Y-121978095D01*
X117800476Y-122025714D01*
X117990952Y-122073333D01*
X118133809Y-122073333D01*
X118324285Y-122025714D01*
X118419523Y-121978095D01*
X118514761Y-121882857D01*
X118562380Y-121740000D01*
X118562380Y-121501904D01*
X117990952Y-122644761D02*
X117943333Y-122549523D01*
X117895714Y-122501904D01*
X117800476Y-122454285D01*
X117752857Y-122454285D01*
X117657619Y-122501904D01*
X117610000Y-122549523D01*
X117562380Y-122644761D01*
X117562380Y-122835238D01*
X117610000Y-122930476D01*
X117657619Y-122978095D01*
X117752857Y-123025714D01*
X117800476Y-123025714D01*
X117895714Y-122978095D01*
X117943333Y-122930476D01*
X117990952Y-122835238D01*
X117990952Y-122644761D01*
X118038571Y-122549523D01*
X118086190Y-122501904D01*
X118181428Y-122454285D01*
X118371904Y-122454285D01*
X118467142Y-122501904D01*
X118514761Y-122549523D01*
X118562380Y-122644761D01*
X118562380Y-122835238D01*
X118514761Y-122930476D01*
X118467142Y-122978095D01*
X118371904Y-123025714D01*
X118181428Y-123025714D01*
X118086190Y-122978095D01*
X118038571Y-122930476D01*
X117990952Y-122835238D01*
D12*
%TO.C,R26*%
X138911000Y-109193064D02*
X138911000Y-108738936D01*
X137441000Y-109193064D02*
X137441000Y-108738936D01*
%TO.C,U17*%
X152654000Y-122027000D02*
X154604000Y-122027000D01*
X152654000Y-127147000D02*
X149204000Y-127147000D01*
X152654000Y-127147000D02*
X154604000Y-127147000D01*
X152654000Y-122027000D02*
X150704000Y-122027000D01*
%TO.C,R30*%
X107746500Y-98367436D02*
X107746500Y-98821564D01*
X109216500Y-98367436D02*
X109216500Y-98821564D01*
%TO.C,D9*%
X119400000Y-109302000D02*
X123250000Y-109302000D01*
X119400000Y-111302000D02*
X123250000Y-111302000D01*
X119400000Y-111302000D02*
X119400000Y-109302000D01*
%TO.C,R15*%
X136112000Y-125148064D02*
X136112000Y-124693936D01*
X134642000Y-125148064D02*
X134642000Y-124693936D01*
%TO.C,R51*%
X158390000Y-125256936D02*
X158390000Y-126711064D01*
X156570000Y-125256936D02*
X156570000Y-126711064D01*
%TO.C,R48*%
X147920000Y-132434064D02*
X147920000Y-131979936D01*
X149390000Y-132434064D02*
X149390000Y-131979936D01*
%TO.C,U3*%
X132111500Y-117270000D02*
X132811500Y-117270000D01*
X129291500Y-121490000D02*
X128591500Y-121490000D01*
X132811500Y-117270000D02*
X132811500Y-117970000D01*
X129291500Y-117270000D02*
X128591500Y-117270000D01*
X132811500Y-121490000D02*
X132811500Y-120790000D01*
X128591500Y-117270000D02*
X128591500Y-117970000D01*
X132111500Y-121490000D02*
X132811500Y-121490000D01*
%TO.C,R34*%
X124378000Y-82198436D02*
X124378000Y-83652564D01*
X126198000Y-82198436D02*
X126198000Y-83652564D01*
%TO.C,C2*%
X140029000Y-90767502D02*
X140029000Y-90244998D01*
X138559000Y-90767502D02*
X138559000Y-90244998D01*
%TO.C,L2*%
X125777500Y-134764000D02*
X127277500Y-134764000D01*
X132577500Y-127364000D02*
X131077500Y-127364000D01*
X132577500Y-134764000D02*
X131077500Y-134764000D01*
X125777500Y-127364000D02*
X127277500Y-127364000D01*
X132577500Y-127364000D02*
X132577500Y-134764000D01*
X125777500Y-134764000D02*
X125777500Y-127364000D01*
%TO.C,R38*%
X108619000Y-114085064D02*
X108619000Y-113630936D01*
X107149000Y-114085064D02*
X107149000Y-113630936D01*
%TO.C,C35*%
X158315252Y-108485000D02*
X157792748Y-108485000D01*
X158315252Y-109955000D02*
X157792748Y-109955000D01*
%TO.C,C23*%
X115820500Y-106729752D02*
X115820500Y-106207248D01*
X114350500Y-106729752D02*
X114350500Y-106207248D01*
%TO.C,R41*%
X120356000Y-103306126D02*
X120356000Y-104760254D01*
X118536000Y-103306126D02*
X118536000Y-104760254D01*
%TO.C,TP6*%
X107372000Y-106864000D02*
X107372000Y-104464000D01*
X107372000Y-104464000D02*
X104972000Y-104464000D01*
X104972000Y-106864000D02*
X107372000Y-106864000D01*
X104972000Y-104464000D02*
X104972000Y-106864000D01*
%TO.C,R50*%
X154458936Y-121385000D02*
X154913064Y-121385000D01*
X154458936Y-119915000D02*
X154913064Y-119915000D01*
%TO.C,R39*%
X106894936Y-115917000D02*
X107349064Y-115917000D01*
X106894936Y-117387000D02*
X107349064Y-117387000D01*
%TO.C,U12*%
X112280000Y-124780000D02*
X112280000Y-127655000D01*
X108060000Y-124780000D02*
X108060000Y-123280000D01*
X112280000Y-124780000D02*
X112280000Y-123280000D01*
X108060000Y-124780000D02*
X108060000Y-126280000D01*
%TO.C,U16*%
X158496000Y-110708000D02*
X160296000Y-110708000D01*
X158496000Y-110708000D02*
X157696000Y-110708000D01*
X158496000Y-113828000D02*
X159296000Y-113828000D01*
X158496000Y-113828000D02*
X157696000Y-113828000D01*
%TO.C,C9*%
X125977000Y-121224420D02*
X125977000Y-121505580D01*
X126997000Y-121224420D02*
X126997000Y-121505580D01*
%TO.C,C5*%
X129888748Y-102913000D02*
X131311252Y-102913000D01*
X129888748Y-100193000D02*
X131311252Y-100193000D01*
%TO.C,Q14*%
X158496000Y-119852000D02*
X157846000Y-119852000D01*
X158496000Y-122972000D02*
X159146000Y-122972000D01*
X158496000Y-122972000D02*
X157846000Y-122972000D01*
X158496000Y-119852000D02*
X160171000Y-119852000D01*
%TO.C,TP4*%
X128246000Y-138684000D02*
G75*
G03*
X128246000Y-138684000I-1500000J0D01*
G01*
%TO.C,U10*%
X108351500Y-104026500D02*
X108351500Y-105526500D01*
X112571500Y-104026500D02*
X112571500Y-102526500D01*
X108351500Y-104026500D02*
X108351500Y-102526500D01*
X112571500Y-104026500D02*
X112571500Y-106901500D01*
%TO.C,C28*%
X115477000Y-127835252D02*
X115477000Y-127312748D01*
X114007000Y-127835252D02*
X114007000Y-127312748D01*
%TO.C,D11*%
X158258000Y-114132000D02*
X160258000Y-114132000D01*
X160258000Y-114132000D02*
X160258000Y-117982000D01*
X158258000Y-114132000D02*
X158258000Y-117982000D01*
%TO.C,C13*%
X129888748Y-141775000D02*
X131311252Y-141775000D01*
X129888748Y-139055000D02*
X131311252Y-139055000D01*
%TO.C,C8*%
X126997000Y-117441580D02*
X126997000Y-117160420D01*
X125977000Y-117441580D02*
X125977000Y-117160420D01*
%TO.C,RV1*%
X104902000Y-111506000D02*
X104902000Y-108712000D01*
X107442000Y-111506000D02*
X108458000Y-111506000D01*
X105918000Y-111506000D02*
X104902000Y-111506000D01*
X108458000Y-111506000D02*
X108458000Y-108712000D01*
%TO.C,C37*%
X155675000Y-116117062D02*
X155675000Y-115594558D01*
X154205000Y-116117062D02*
X154205000Y-115594558D01*
%TO.C,C11*%
X128511748Y-125148000D02*
X129034252Y-125148000D01*
X128511748Y-123678000D02*
X129034252Y-123678000D01*
%TO.C,R33*%
X122670564Y-94424500D02*
X121216436Y-94424500D01*
X122670564Y-92604500D02*
X121216436Y-92604500D01*
%TO.C,L1*%
X125777500Y-103996000D02*
X127277500Y-103996000D01*
X132577500Y-103996000D02*
X132577500Y-111396000D01*
X132577500Y-111396000D02*
X131077500Y-111396000D01*
X125777500Y-111396000D02*
X127277500Y-111396000D01*
X125777500Y-111396000D02*
X125777500Y-103996000D01*
X132577500Y-103996000D02*
X131077500Y-103996000D01*
%TO.C,C1*%
X127535000Y-92194748D02*
X127535000Y-92717252D01*
X129005000Y-92194748D02*
X129005000Y-92717252D01*
%TO.C,D5*%
X119743500Y-90196500D02*
X123593500Y-90196500D01*
X119743500Y-88196500D02*
X123593500Y-88196500D01*
X119743500Y-90196500D02*
X119743500Y-88196500D01*
%TO.C,C31*%
X122755252Y-101466190D02*
X122232748Y-101466190D01*
X122755252Y-99996190D02*
X122232748Y-99996190D01*
%TO.C,U13*%
X120934000Y-104033190D02*
X120934000Y-103233190D01*
X124054000Y-104033190D02*
X124054000Y-105833190D01*
X124054000Y-104033190D02*
X124054000Y-103233190D01*
X120934000Y-104033190D02*
X120934000Y-104833190D01*
%TO.C,R2*%
X133831000Y-87198564D02*
X133831000Y-86744436D01*
X132361000Y-87198564D02*
X132361000Y-86744436D01*
%TO.C,C24*%
X112552752Y-97859500D02*
X112030248Y-97859500D01*
X112552752Y-99329500D02*
X112030248Y-99329500D01*
%TO.C,L4*%
X111480000Y-111200000D02*
X119020000Y-111200000D01*
X119020000Y-118040000D02*
X119020000Y-111200000D01*
X111100000Y-118420000D02*
X113300000Y-118420000D01*
X111480000Y-118040000D02*
X119020000Y-118040000D01*
X111100000Y-116220000D02*
X111100000Y-118420000D01*
X111480000Y-118040000D02*
X111480000Y-111200000D01*
%TO.C,R18*%
X148631500Y-125950064D02*
X148631500Y-125495936D01*
X147161500Y-125950064D02*
X147161500Y-125495936D01*
%TO.C,D4*%
X117497500Y-97734500D02*
X117497500Y-103134500D01*
X114197500Y-97734500D02*
X114197500Y-103134500D01*
X114197500Y-97734500D02*
X117497500Y-97734500D01*
%TO.C,R40*%
X122327064Y-115530000D02*
X120872936Y-115530000D01*
X122327064Y-113710000D02*
X120872936Y-113710000D01*
%TO.C,U1*%
X132008000Y-89046000D02*
X135768000Y-89046000D01*
X135768000Y-95866000D02*
X135768000Y-94606000D01*
X129758000Y-95866000D02*
X135768000Y-95866000D01*
X135768000Y-89046000D02*
X135768000Y-90306000D01*
%TO.C,C30*%
X122135000Y-117406748D02*
X122135000Y-117929252D01*
X123605000Y-117406748D02*
X123605000Y-117929252D01*
%TO.C,C27*%
X147058748Y-84101000D02*
X147581252Y-84101000D01*
X147058748Y-85571000D02*
X147581252Y-85571000D01*
%TO.C,R32*%
X107492436Y-96535500D02*
X107946564Y-96535500D01*
X107492436Y-95065500D02*
X107946564Y-95065500D01*
%TO.C,C29*%
X112209252Y-120435000D02*
X111686748Y-120435000D01*
X112209252Y-118965000D02*
X111686748Y-118965000D01*
%TO.C,TP8*%
X114992000Y-135198000D02*
X112592000Y-135198000D01*
X114992000Y-137598000D02*
X114992000Y-135198000D01*
X112592000Y-137598000D02*
X114992000Y-137598000D01*
X112592000Y-135198000D02*
X112592000Y-137598000D01*
%TO.C,R31*%
X107746500Y-93233564D02*
X107746500Y-92779436D01*
X109216500Y-93233564D02*
X109216500Y-92779436D01*
D10*
%TO.C,TP5*%
X105010000Y-98050000D02*
X104510000Y-98550000D01*
X104510000Y-102150000D02*
X105010000Y-102650000D01*
X106310000Y-98550000D02*
X105810000Y-98050000D01*
X105810000Y-102650000D02*
X106310000Y-102150000D01*
X106310000Y-102150000D02*
X106310000Y-98550000D01*
X105810000Y-98050000D02*
X105010000Y-98050000D01*
X105010000Y-102650000D02*
X105810000Y-102650000D01*
X104510000Y-98550000D02*
X104510000Y-102150000D01*
D12*
%TO.C,R19*%
X148631500Y-122528064D02*
X148631500Y-122073936D01*
X147161500Y-122528064D02*
X147161500Y-122073936D01*
%TO.C,Q13*%
X153481000Y-130663000D02*
X155431000Y-130663000D01*
X153481000Y-135783000D02*
X155431000Y-135783000D01*
X153481000Y-135783000D02*
X150031000Y-135783000D01*
X153481000Y-130663000D02*
X151531000Y-130663000D01*
%TO.C,R49*%
X157707000Y-115628746D02*
X157707000Y-116082874D01*
X156237000Y-115628746D02*
X156237000Y-116082874D01*
%TO.C,TP2*%
X138406000Y-100076000D02*
G75*
G03*
X138406000Y-100076000I-1500000J0D01*
G01*
%TO.C,U7*%
X154051000Y-75148000D02*
X153401000Y-75148000D01*
X154051000Y-78268000D02*
X154701000Y-78268000D01*
X154051000Y-75148000D02*
X154701000Y-75148000D01*
X154051000Y-78268000D02*
X152376000Y-78268000D01*
%TO.C,C10*%
X135557748Y-119106000D02*
X136080252Y-119106000D01*
X135557748Y-120576000D02*
X136080252Y-120576000D01*
%TO.C,TP1*%
X128246000Y-100076000D02*
G75*
G03*
X128246000Y-100076000I-1500000J0D01*
G01*
%TO.C,U2*%
X136398000Y-88469000D02*
X134598000Y-88469000D01*
X136398000Y-85349000D02*
X137198000Y-85349000D01*
X136398000Y-88469000D02*
X137198000Y-88469000D01*
X136398000Y-85349000D02*
X135598000Y-85349000D01*
%TO.C,R5*%
X135554436Y-116105000D02*
X136008564Y-116105000D01*
X135554436Y-117575000D02*
X136008564Y-117575000D01*
%TO.C,C36*%
X149292680Y-127662000D02*
X148770176Y-127662000D01*
X149292680Y-129132000D02*
X148770176Y-129132000D01*
%TO.C,C16*%
X142521000Y-82542748D02*
X142521000Y-83065252D01*
X143991000Y-82542748D02*
X143991000Y-83065252D01*
%TO.C,C6*%
X129888748Y-96891000D02*
X131311252Y-96891000D01*
X129888748Y-99611000D02*
X131311252Y-99611000D01*
%TO.C,U11*%
X129896000Y-82925500D02*
X129896000Y-84725500D01*
X126776000Y-82925500D02*
X126776000Y-83725500D01*
X129896000Y-82925500D02*
X129896000Y-82125500D01*
X126776000Y-82925500D02*
X126776000Y-82125500D01*
%TO.C,C12*%
X129888748Y-135800000D02*
X131311252Y-135800000D01*
X129888748Y-138520000D02*
X131311252Y-138520000D01*
%TO.C,C25*%
X122909000Y-96301248D02*
X122909000Y-96823752D01*
X121439000Y-96301248D02*
X121439000Y-96823752D01*
%TO.C,TP3*%
X138406000Y-138684000D02*
G75*
G03*
X138406000Y-138684000I-1500000J0D01*
G01*
%TO.C,R10*%
X138559000Y-93919686D02*
X138559000Y-94373814D01*
X140029000Y-93919686D02*
X140029000Y-94373814D01*
%TO.C,C22*%
X149071000Y-75699252D02*
X149071000Y-75176748D01*
X147601000Y-75699252D02*
X147601000Y-75176748D01*
D10*
%TO.C,TP7*%
X112892000Y-142750000D02*
X113392000Y-143250000D01*
X114692000Y-139150000D02*
X114192000Y-138650000D01*
X114692000Y-142750000D02*
X114692000Y-139150000D01*
X114192000Y-138650000D02*
X113392000Y-138650000D01*
X114192000Y-143250000D02*
X114692000Y-142750000D01*
X112892000Y-139150000D02*
X112892000Y-142750000D01*
X113392000Y-143250000D02*
X114192000Y-143250000D01*
X113392000Y-138650000D02*
X112892000Y-139150000D01*
D12*
%TO.C,C26*%
X128597252Y-80358500D02*
X128074748Y-80358500D01*
X128597252Y-78888500D02*
X128074748Y-78888500D01*
%TO.C,J2*%
X112501000Y-85931000D02*
X118501000Y-85931000D01*
X112501000Y-78851000D02*
X118501000Y-78851000D01*
X109443929Y-73011000D02*
X109841000Y-73011000D01*
X109443929Y-73771000D02*
X109841000Y-73771000D01*
X112501000Y-73771000D02*
X118501000Y-73771000D01*
X118501000Y-86471000D02*
X118501000Y-85711000D01*
X112501000Y-81391000D02*
X118501000Y-81391000D01*
X109841000Y-87421000D02*
X109841000Y-66981000D01*
X118501000Y-81391000D02*
X118501000Y-80631000D01*
X118501000Y-80631000D02*
X112501000Y-80631000D01*
X118501000Y-70471000D02*
X112501000Y-70471000D01*
X118501000Y-71231000D02*
X118501000Y-70471000D01*
X109511000Y-86471000D02*
X109841000Y-86471000D01*
X112501000Y-87421000D02*
X109841000Y-87421000D01*
X118501000Y-76311000D02*
X118501000Y-75551000D01*
X118501000Y-85711000D02*
X112501000Y-85711000D01*
X107131000Y-86091000D02*
X107131000Y-87361000D01*
X112501000Y-68691000D02*
X118501000Y-68691000D01*
X112501000Y-76311000D02*
X118501000Y-76311000D01*
X118501000Y-75551000D02*
X112501000Y-75551000D01*
X109841000Y-82281000D02*
X112501000Y-82281000D01*
X112501000Y-71231000D02*
X118501000Y-71231000D01*
X109841000Y-69581000D02*
X112501000Y-69581000D01*
X109841000Y-66981000D02*
X112501000Y-66981000D01*
X109443929Y-83171000D02*
X109841000Y-83171000D01*
X118501000Y-78091000D02*
X112501000Y-78091000D01*
X109841000Y-79741000D02*
X112501000Y-79741000D01*
X109841000Y-84821000D02*
X112501000Y-84821000D01*
X112501000Y-86051000D02*
X118501000Y-86051000D01*
X109443929Y-78851000D02*
X109841000Y-78851000D01*
X112501000Y-86471000D02*
X118501000Y-86471000D01*
X118501000Y-67931000D02*
X112501000Y-67931000D01*
X107131000Y-87361000D02*
X108401000Y-87361000D01*
X118501000Y-78851000D02*
X118501000Y-78091000D01*
X118501000Y-83931000D02*
X118501000Y-83171000D01*
X109841000Y-77201000D02*
X112501000Y-77201000D01*
X109443929Y-75551000D02*
X109841000Y-75551000D01*
X109443929Y-83931000D02*
X109841000Y-83931000D01*
X112501000Y-66981000D02*
X112501000Y-87421000D01*
X109443929Y-70471000D02*
X109841000Y-70471000D01*
X109443929Y-68691000D02*
X109841000Y-68691000D01*
X118501000Y-73011000D02*
X112501000Y-73011000D01*
X109443929Y-76311000D02*
X109841000Y-76311000D01*
X118501000Y-73771000D02*
X118501000Y-73011000D01*
X109511000Y-85711000D02*
X109841000Y-85711000D01*
X118501000Y-68691000D02*
X118501000Y-67931000D01*
X112501000Y-86171000D02*
X118501000Y-86171000D01*
X112501000Y-86411000D02*
X118501000Y-86411000D01*
X109841000Y-74661000D02*
X112501000Y-74661000D01*
X109443929Y-80631000D02*
X109841000Y-80631000D01*
X112501000Y-83931000D02*
X118501000Y-83931000D01*
X118501000Y-83171000D02*
X112501000Y-83171000D01*
X109841000Y-72121000D02*
X112501000Y-72121000D01*
X109443929Y-67931000D02*
X109841000Y-67931000D01*
X112501000Y-85811000D02*
X118501000Y-85811000D01*
X109443929Y-71231000D02*
X109841000Y-71231000D01*
X112501000Y-86291000D02*
X118501000Y-86291000D01*
X109443929Y-81391000D02*
X109841000Y-81391000D01*
X109443929Y-78091000D02*
X109841000Y-78091000D01*
%TO.C,R37*%
X108619000Y-119218936D02*
X108619000Y-119673064D01*
X107149000Y-119218936D02*
X107149000Y-119673064D01*
%TO.C,R16*%
X135554436Y-121138000D02*
X136008564Y-121138000D01*
X135554436Y-122608000D02*
X136008564Y-122608000D01*
%TO.C,C7*%
X128408248Y-115035000D02*
X128930752Y-115035000D01*
X128408248Y-113565000D02*
X128930752Y-113565000D01*
%TO.C,RV2*%
X115062000Y-131572000D02*
X115062000Y-130556000D01*
X115062000Y-133096000D02*
X115062000Y-134112000D01*
X115062000Y-130556000D02*
X117856000Y-130556000D01*
X115062000Y-134112000D02*
X117856000Y-134112000D01*
%TO.C,L3*%
X119363500Y-96934500D02*
X119363500Y-90094500D01*
X111443500Y-95114500D02*
X111443500Y-97314500D01*
X111823500Y-90094500D02*
X119363500Y-90094500D01*
X111823500Y-96934500D02*
X111823500Y-90094500D01*
X111823500Y-96934500D02*
X119363500Y-96934500D01*
X111443500Y-97314500D02*
X113643500Y-97314500D01*
%TO.C,R4*%
X136112000Y-113564936D02*
X136112000Y-114019064D01*
X134642000Y-113564936D02*
X134642000Y-114019064D01*
%TO.C,D8*%
X113854000Y-118840000D02*
X113854000Y-124240000D01*
X117154000Y-118840000D02*
X117154000Y-124240000D01*
X113854000Y-118840000D02*
X117154000Y-118840000D01*
%TD*%
G36*
X175037931Y-59202002D02*
G01*
X175058905Y-59218905D01*
X175985095Y-60145095D01*
X176019121Y-60207407D01*
X176022000Y-60234190D01*
X176022000Y-66511810D01*
X176001998Y-66579931D01*
X175985095Y-66600905D01*
X175058905Y-67527095D01*
X174996593Y-67561121D01*
X174969810Y-67564000D01*
X157008190Y-67564000D01*
X156940069Y-67543998D01*
X156919095Y-67527095D01*
X155992905Y-66600905D01*
X155958879Y-66538593D01*
X155956000Y-66511810D01*
X155956000Y-60234190D01*
X155976002Y-60166069D01*
X155992905Y-60145095D01*
X156919095Y-59218905D01*
X156981407Y-59184879D01*
X157008190Y-59182000D01*
X174969810Y-59182000D01*
X175037931Y-59202002D01*
G37*
M02*
