%TF.GenerationSoftware,KiCad,Pcbnew,(6.0.10-dirty)*%
%TF.CreationDate,2022-12-22T22:26:15-05:00*%
%TF.ProjectId,piridium-bus,70697269-6469-4756-9d2d-6275732e6b69,rev?*%
%TF.SameCoordinates,Original*%
%TF.FileFunction,Paste,Top*%
%TF.FilePolarity,Positive*%
%FSLAX46Y46*%
G04 Gerber Fmt 4.6, Leading zero omitted, Abs format (unit mm)*
G04 Created by KiCad (PCBNEW (6.0.10-dirty)) date 2022-12-22 22:26:15*
%MOMM*%
%LPD*%
G01*
G04 APERTURE LIST*
G04 Aperture macros list*
%AMRoundRect*
0 Rectangle with rounded corners*
0 $1 Rounding radius*
0 $2 $3 $4 $5 $6 $7 $8 $9 X,Y pos of 4 corners*
0 Add a 4 corners polygon primitive as box body*
4,1,4,$2,$3,$4,$5,$6,$7,$8,$9,$2,$3,0*
0 Add four circle primitives for the rounded corners*
1,1,$1+$1,$2,$3*
1,1,$1+$1,$4,$5*
1,1,$1+$1,$6,$7*
1,1,$1+$1,$8,$9*
0 Add four rect primitives between the rounded corners*
20,1,$1+$1,$2,$3,$4,$5,0*
20,1,$1+$1,$4,$5,$6,$7,0*
20,1,$1+$1,$6,$7,$8,$9,0*
20,1,$1+$1,$8,$9,$2,$3,0*%
G04 Aperture macros list end*
%ADD10RoundRect,0.250000X-0.262500X-0.450000X0.262500X-0.450000X0.262500X0.450000X-0.262500X0.450000X0*%
%ADD11RoundRect,0.250000X0.250000X0.475000X-0.250000X0.475000X-0.250000X-0.475000X0.250000X-0.475000X0*%
%ADD12RoundRect,0.250000X0.450000X-0.262500X0.450000X0.262500X-0.450000X0.262500X-0.450000X-0.262500X0*%
%ADD13RoundRect,0.250000X0.262500X0.450000X-0.262500X0.450000X-0.262500X-0.450000X0.262500X-0.450000X0*%
%ADD14RoundRect,0.150000X-0.825000X-0.150000X0.825000X-0.150000X0.825000X0.150000X-0.825000X0.150000X0*%
%ADD15RoundRect,0.150000X-0.725000X-0.150000X0.725000X-0.150000X0.725000X0.150000X-0.725000X0.150000X0*%
%ADD16RoundRect,0.250000X-0.450000X0.262500X-0.450000X-0.262500X0.450000X-0.262500X0.450000X0.262500X0*%
%ADD17RoundRect,0.243750X0.456250X-0.243750X0.456250X0.243750X-0.456250X0.243750X-0.456250X-0.243750X0*%
%ADD18RoundRect,0.250000X0.475000X-0.250000X0.475000X0.250000X-0.475000X0.250000X-0.475000X-0.250000X0*%
%ADD19RoundRect,0.250000X0.625000X-0.312500X0.625000X0.312500X-0.625000X0.312500X-0.625000X-0.312500X0*%
%ADD20R,1.200000X0.900000*%
%ADD21RoundRect,0.250000X-0.475000X0.250000X-0.475000X-0.250000X0.475000X-0.250000X0.475000X0.250000X0*%
%ADD22RoundRect,0.150000X0.825000X0.150000X-0.825000X0.150000X-0.825000X-0.150000X0.825000X-0.150000X0*%
%ADD23RoundRect,0.150000X0.150000X-0.512500X0.150000X0.512500X-0.150000X0.512500X-0.150000X-0.512500X0*%
%ADD24R,0.900000X1.200000*%
%ADD25RoundRect,0.250000X-0.312500X-0.625000X0.312500X-0.625000X0.312500X0.625000X-0.312500X0.625000X0*%
%ADD26RoundRect,0.150000X-0.150000X0.587500X-0.150000X-0.587500X0.150000X-0.587500X0.150000X0.587500X0*%
%ADD27RoundRect,0.150000X0.150000X-0.825000X0.150000X0.825000X-0.150000X0.825000X-0.150000X-0.825000X0*%
%ADD28RoundRect,0.250000X-0.503814X-0.132583X-0.132583X-0.503814X0.503814X0.132583X0.132583X0.503814X0*%
%ADD29RoundRect,0.150000X0.150000X-0.587500X0.150000X0.587500X-0.150000X0.587500X-0.150000X-0.587500X0*%
%ADD30RoundRect,0.150000X-0.512500X-0.150000X0.512500X-0.150000X0.512500X0.150000X-0.512500X0.150000X0*%
%ADD31RoundRect,0.250000X0.312500X0.625000X-0.312500X0.625000X-0.312500X-0.625000X0.312500X-0.625000X0*%
%ADD32RoundRect,0.250000X-0.250000X-0.475000X0.250000X-0.475000X0.250000X0.475000X-0.250000X0.475000X0*%
%ADD33RoundRect,0.150000X0.587500X0.150000X-0.587500X0.150000X-0.587500X-0.150000X0.587500X-0.150000X0*%
%ADD34RoundRect,0.250000X0.503814X0.132583X0.132583X0.503814X-0.503814X-0.132583X-0.132583X-0.503814X0*%
%ADD35RoundRect,0.150000X-0.150000X0.825000X-0.150000X-0.825000X0.150000X-0.825000X0.150000X0.825000X0*%
%ADD36R,1.100000X1.100000*%
%ADD37R,1.270000X0.508000*%
%ADD38RoundRect,0.250000X-0.625000X0.312500X-0.625000X-0.312500X0.625000X-0.312500X0.625000X0.312500X0*%
G04 APERTURE END LIST*
D10*
%TO.C,R46*%
X178054000Y-103378000D03*
X179879000Y-103378000D03*
%TD*%
D11*
%TO.C,C32*%
X174686000Y-95758000D03*
X172786000Y-95758000D03*
%TD*%
D12*
%TO.C,R24*%
X144526000Y-73556500D03*
X144526000Y-71731500D03*
%TD*%
D13*
%TO.C,R23*%
X142390500Y-65786000D03*
X140565500Y-65786000D03*
%TD*%
D14*
%TO.C,U7*%
X146623000Y-76835000D03*
X146623000Y-78105000D03*
X146623000Y-79375000D03*
X146623000Y-80645000D03*
X146623000Y-81915000D03*
X146623000Y-83185000D03*
X146623000Y-84455000D03*
X146623000Y-85725000D03*
X151573000Y-85725000D03*
X151573000Y-84455000D03*
X151573000Y-83185000D03*
X151573000Y-81915000D03*
X151573000Y-80645000D03*
X151573000Y-79375000D03*
X151573000Y-78105000D03*
X151573000Y-76835000D03*
%TD*%
D15*
%TO.C,U14*%
X174717000Y-97663000D03*
X174717000Y-98933000D03*
X174717000Y-100203000D03*
X174717000Y-101473000D03*
X179867000Y-101473000D03*
X179867000Y-100203000D03*
X179867000Y-98933000D03*
X179867000Y-97663000D03*
%TD*%
D14*
%TO.C,Q3*%
X123641000Y-71247000D03*
X123641000Y-72517000D03*
X123641000Y-73787000D03*
X123641000Y-75057000D03*
X128591000Y-75057000D03*
X128591000Y-73787000D03*
X128591000Y-72517000D03*
X128591000Y-71247000D03*
%TD*%
D16*
%TO.C,R44*%
X185420000Y-107225500D03*
X185420000Y-109050500D03*
%TD*%
D17*
%TO.C,D1*%
X152908000Y-100451000D03*
X152908000Y-98576000D03*
%TD*%
D18*
%TO.C,C18*%
X172212000Y-119568000D03*
X172212000Y-117668000D03*
%TD*%
D19*
%TO.C,R47*%
X182118000Y-99760500D03*
X182118000Y-96835500D03*
%TD*%
D20*
%TO.C,D7*%
X117094000Y-138304000D03*
X117094000Y-141604000D03*
%TD*%
D16*
%TO.C,R8*%
X172466000Y-101449500D03*
X172466000Y-103274500D03*
%TD*%
D14*
%TO.C,Q2*%
X113927000Y-65009000D03*
X113927000Y-66279000D03*
X113927000Y-67549000D03*
X113927000Y-68819000D03*
X118877000Y-68819000D03*
X118877000Y-67549000D03*
X118877000Y-66279000D03*
X118877000Y-65009000D03*
%TD*%
D21*
%TO.C,C19*%
X154024000Y-77126000D03*
X154024000Y-79026000D03*
%TD*%
D18*
%TO.C,C33*%
X183388000Y-109088000D03*
X183388000Y-107188000D03*
%TD*%
D22*
%TO.C,Q8*%
X142175000Y-75565000D03*
X142175000Y-74295000D03*
X142175000Y-73025000D03*
X142175000Y-71755000D03*
X137225000Y-71755000D03*
X137225000Y-73025000D03*
X137225000Y-74295000D03*
X137225000Y-75565000D03*
%TD*%
D13*
%TO.C,R6*%
X113434500Y-76708000D03*
X111609500Y-76708000D03*
%TD*%
D23*
%TO.C,U13*%
X183454000Y-91053500D03*
X184404000Y-91053500D03*
X185354000Y-91053500D03*
X185354000Y-88778500D03*
X183454000Y-88778500D03*
%TD*%
D24*
%TO.C,D6*%
X114680000Y-136144000D03*
X111380000Y-136144000D03*
%TD*%
D10*
%TO.C,R45*%
X184126500Y-93218000D03*
X185951500Y-93218000D03*
%TD*%
D25*
%TO.C,R26*%
X149413500Y-116840000D03*
X152338500Y-116840000D03*
%TD*%
D12*
%TO.C,R36*%
X120650000Y-138326500D03*
X120650000Y-136501500D03*
%TD*%
D26*
%TO.C,Q7*%
X142428000Y-67896500D03*
X140528000Y-67896500D03*
X141478000Y-69771500D03*
%TD*%
D16*
%TO.C,R7*%
X172466000Y-97893500D03*
X172466000Y-99718500D03*
%TD*%
D13*
%TO.C,R13*%
X117244500Y-78740000D03*
X115419500Y-78740000D03*
%TD*%
D25*
%TO.C,R27*%
X149413500Y-114300000D03*
X152338500Y-114300000D03*
%TD*%
D21*
%TO.C,C15*%
X182626000Y-118176000D03*
X182626000Y-120076000D03*
%TD*%
D27*
%TO.C,Q5*%
X121285000Y-86041000D03*
X122555000Y-86041000D03*
X123825000Y-86041000D03*
X125095000Y-86041000D03*
X125095000Y-81091000D03*
X123825000Y-81091000D03*
X122555000Y-81091000D03*
X121285000Y-81091000D03*
%TD*%
D28*
%TO.C,R20*%
X141711530Y-80243530D03*
X143002000Y-81534000D03*
%TD*%
D10*
%TO.C,R30*%
X178919500Y-78232000D03*
X180744500Y-78232000D03*
%TD*%
D19*
%TO.C,R28*%
X150368000Y-100976000D03*
X150368000Y-98051000D03*
%TD*%
D10*
%TO.C,R12*%
X110339500Y-83566000D03*
X112164500Y-83566000D03*
%TD*%
D14*
%TO.C,Q4*%
X113927000Y-70597000D03*
X113927000Y-71867000D03*
X113927000Y-73137000D03*
X113927000Y-74407000D03*
X118877000Y-74407000D03*
X118877000Y-73137000D03*
X118877000Y-71867000D03*
X118877000Y-70597000D03*
%TD*%
D29*
%TO.C,Q10*%
X184089000Y-97203500D03*
X185989000Y-97203500D03*
X185039000Y-95328500D03*
%TD*%
D10*
%TO.C,R3*%
X109774500Y-65009000D03*
X111599500Y-65009000D03*
%TD*%
D30*
%TO.C,U4*%
X131704500Y-77856000D03*
X131704500Y-78806000D03*
X131704500Y-79756000D03*
X133979500Y-79756000D03*
X133979500Y-77856000D03*
%TD*%
D10*
%TO.C,R50*%
X152249500Y-128524000D03*
X154074500Y-128524000D03*
%TD*%
D16*
%TO.C,R22*%
X145542000Y-67921500D03*
X145542000Y-69746500D03*
%TD*%
D20*
%TO.C,D2*%
X173751000Y-138304000D03*
X173751000Y-141604000D03*
%TD*%
D16*
%TO.C,R14*%
X105918000Y-78081500D03*
X105918000Y-79906500D03*
%TD*%
D22*
%TO.C,Q9*%
X178243000Y-91059000D03*
X178243000Y-89789000D03*
X178243000Y-88519000D03*
X178243000Y-87249000D03*
X173293000Y-87249000D03*
X173293000Y-88519000D03*
X173293000Y-89789000D03*
X173293000Y-91059000D03*
%TD*%
D14*
%TO.C,Q1*%
X123641000Y-65009000D03*
X123641000Y-66279000D03*
X123641000Y-67549000D03*
X123641000Y-68819000D03*
X128591000Y-68819000D03*
X128591000Y-67549000D03*
X128591000Y-66279000D03*
X128591000Y-65009000D03*
%TD*%
D31*
%TO.C,R17*%
X134304500Y-81854000D03*
X131379500Y-81854000D03*
%TD*%
D32*
%TO.C,C21*%
X133162000Y-71628000D03*
X135062000Y-71628000D03*
%TD*%
D13*
%TO.C,R1*%
X123594500Y-77358000D03*
X121769500Y-77358000D03*
%TD*%
D14*
%TO.C,U5*%
X150628040Y-103297260D03*
X150628040Y-104567260D03*
X150628040Y-105837260D03*
X150628040Y-107107260D03*
X150628040Y-108377260D03*
X150628040Y-109647260D03*
X150628040Y-110917260D03*
X155578040Y-110917260D03*
X155578040Y-109647260D03*
X155578040Y-108377260D03*
X155578040Y-107107260D03*
X155578040Y-105837260D03*
X155578040Y-104567260D03*
X155578040Y-103297260D03*
%TD*%
D21*
%TO.C,C14*%
X136144000Y-77856000D03*
X136144000Y-79756000D03*
%TD*%
D16*
%TO.C,R37*%
X122682000Y-136501500D03*
X122682000Y-138326500D03*
%TD*%
D33*
%TO.C,Q11*%
X183563500Y-105598000D03*
X183563500Y-103698000D03*
X181688500Y-104648000D03*
%TD*%
D13*
%TO.C,R29*%
X180744500Y-80264000D03*
X178919500Y-80264000D03*
%TD*%
D12*
%TO.C,R9*%
X105918000Y-76096500D03*
X105918000Y-74271500D03*
%TD*%
D34*
%TO.C,R21*%
X141478000Y-83058000D03*
X140187530Y-81767530D03*
%TD*%
D18*
%TO.C,C4*%
X111576000Y-74468000D03*
X111576000Y-72568000D03*
%TD*%
D21*
%TO.C,C17*%
X157988000Y-102936000D03*
X157988000Y-104836000D03*
%TD*%
D29*
%TO.C,Q13*%
X152212000Y-132509500D03*
X154112000Y-132509500D03*
X153162000Y-130634500D03*
%TD*%
D35*
%TO.C,Q6*%
X118999000Y-81091000D03*
X117729000Y-81091000D03*
X116459000Y-81091000D03*
X115189000Y-81091000D03*
X115189000Y-86041000D03*
X116459000Y-86041000D03*
X117729000Y-86041000D03*
X118999000Y-86041000D03*
%TD*%
D21*
%TO.C,C36*%
X181610000Y-90236000D03*
X181610000Y-92136000D03*
%TD*%
D24*
%TO.C,D3*%
X183262000Y-66040000D03*
X186562000Y-66040000D03*
%TD*%
D12*
%TO.C,R43*%
X180594000Y-88542500D03*
X180594000Y-86717500D03*
%TD*%
D36*
%TO.C,D10*%
X187706000Y-106804000D03*
X187706000Y-109604000D03*
%TD*%
D23*
%TO.C,U8*%
X133162000Y-69209500D03*
X134112000Y-69209500D03*
X135062000Y-69209500D03*
X135062000Y-66934500D03*
X133162000Y-66934500D03*
%TD*%
D37*
%TO.C,A3*%
X142435040Y-112441260D03*
X145663380Y-112441260D03*
X142435040Y-111171260D03*
X145663380Y-111171260D03*
X142435040Y-109901260D03*
X145663380Y-109901260D03*
X142435040Y-108631260D03*
X145663380Y-108631260D03*
X142435040Y-107361260D03*
X145663380Y-107361260D03*
X142435040Y-106091260D03*
X145663380Y-106091260D03*
X142435040Y-104821260D03*
X145663380Y-104821260D03*
X142435040Y-103551260D03*
X145663380Y-103551260D03*
X142435040Y-102281260D03*
X145663380Y-102281260D03*
X142435040Y-101011260D03*
X145663380Y-101011260D03*
%TD*%
D21*
%TO.C,C3*%
X121290000Y-73218000D03*
X121290000Y-75118000D03*
%TD*%
D14*
%TO.C,U6*%
X175071000Y-115697000D03*
X175071000Y-116967000D03*
X175071000Y-118237000D03*
X175071000Y-119507000D03*
X180021000Y-119507000D03*
X180021000Y-118237000D03*
X180021000Y-116967000D03*
X180021000Y-115697000D03*
%TD*%
D13*
%TO.C,R11*%
X112164500Y-86106000D03*
X110339500Y-86106000D03*
%TD*%
D21*
%TO.C,C20*%
X156818000Y-77126000D03*
X156818000Y-79026000D03*
%TD*%
D38*
%TO.C,R25*%
X137160000Y-66609500D03*
X137160000Y-69534500D03*
%TD*%
M02*
