M48
; DRILL file {KiCad 6.0.9-8da3e8f707~117~ubuntu22.04.1} date Thu 01 Dec 2022 01:08:58 PM EST
; FORMAT={-:-/ absolute / inch / decimal}
; #@! TF.CreationDate,2022-12-01T13:08:58-05:00
; #@! TF.GenerationSoftware,Kicad,Pcbnew,6.0.9-8da3e8f707~117~ubuntu22.04.1
; #@! TF.FileFunction,Plated,1,4,PTH
FMAT,2
INCH
; #@! TA.AperFunction,Plated,PTH,ComponentDrill
T1C0.0079
; #@! TA.AperFunction,Plated,PTH,ViaDrill
T2C0.0157
; #@! TA.AperFunction,Plated,PTH,ViaDrill
T3C0.0197
; #@! TA.AperFunction,Plated,PTH,ComponentDrill
T4C0.0300
; #@! TA.AperFunction,Plated,PTH,ComponentDrill
T5C0.0311
; #@! TA.AperFunction,Plated,PTH,ComponentDrill
T6C0.0315
; #@! TA.AperFunction,Plated,PTH,ComponentDrill
T7C0.0354
; #@! TA.AperFunction,Plated,PTH,ComponentDrill
T8C0.0394
; #@! TA.AperFunction,Plated,PTH,ComponentDrill
T9C0.0472
; #@! TA.AperFunction,Plated,PTH,ComponentDrill
T10C0.0591
; #@! TA.AperFunction,Plated,PTH,ComponentDrill
T11C0.0669
; #@! TA.AperFunction,Plated,PTH,ComponentDrill
T12C0.1260
; #@! TA.AperFunction,Plated,PTH,ComponentDrill
T13C0.1260
%
G90
G05
T1
X5.1024Y-4.6567
X5.1024Y-4.7
X5.1024Y-4.7433
X5.1457Y-4.6567
X5.1457Y-4.7
X5.1457Y-4.7433
X5.189Y-4.6567
X5.189Y-4.7
X5.189Y-4.7433
T2
X4.15Y-4.3
X4.17Y-3.2
X4.25Y-4.91
X4.27Y-4.095
X4.315Y-4.255
X4.33Y-3.2205
X4.34Y-4.91
X4.3489Y-4.0955
X4.35Y-5.05
X4.42Y-3.33
X4.42Y-4.91
X4.425Y-4.095
X4.4471Y-5.0429
X4.4613Y-4.2287
X4.5174Y-5.0974
X4.6Y-2.78
X4.6Y-2.83
X4.6Y-2.88
X4.6Y-2.93
X4.64Y-4.23
X4.7498Y-2.9148
X4.75Y-3.0056
X4.8226Y-4.0874
X4.83Y-5.5
X4.86Y-4.01
X4.87Y-3.83
X4.87Y-4.2
X4.965Y-3.025
X4.965Y-3.395
X4.9795Y-3.4587
X4.9857Y-4.56
X4.9857Y-4.84
X5.014Y-3.093
X5.0457Y-4.42
X5.0457Y-4.98
X5.0619Y-3.0594
X5.0857Y-4.6
X5.0857Y-4.8
X5.09Y-3.8
X5.09Y-5.6
X5.1257Y-4.42
X5.1257Y-4.98
X5.21Y-4.48
X5.21Y-4.92
X5.2251Y-3.069
X5.23Y-3.7
X5.23Y-4.52
X5.23Y-4.88
X5.25Y-4.48
X5.25Y-4.92
X5.271Y-3.419
X5.29Y-3.86
X5.29Y-3.93
X5.29Y-4.0
X5.29Y-5.4
X5.29Y-5.47
X5.29Y-5.54
X5.3124Y-3.1026
X5.32Y-2.87
X5.33Y-4.4
X5.33Y-5.0
X5.34Y-3.2712
X5.36Y-3.49
X5.3817Y-4.6641
X5.42Y-3.0316
X5.42Y-3.3023
X5.47Y-3.24
X5.48Y-2.48
X5.48Y-2.59
X5.48Y-3.08
X5.5Y-4.76
X5.53Y-4.33
X5.55Y-3.5
X5.55Y-3.6981
X5.55Y-4.28
X5.5522Y-4.1268
X5.5532Y-4.1768
X5.645Y-3.075
X5.67Y-4.35
X5.69Y-3.37
X5.7Y-3.07
X5.705Y-3.225
X5.77Y-2.49
X5.8Y-3.9457
X5.8Y-4.01
X5.82Y-2.88
X5.83Y-5.11
X5.84Y-3.07
X5.8504Y-4.2996
X5.86Y-4.12
X5.87Y-4.3471
X5.89Y-3.34
X5.89Y-4.69
X5.94Y-4.78
X5.9721Y-3.6981
X5.9832Y-4.3668
X6.05Y-3.38
X6.05Y-4.2
X6.09Y-5.12
X6.1187Y-3.1113
X6.1241Y-4.42
X6.19Y-4.75
X6.2Y-4.29
X6.22Y-4.18
X6.23Y-3.06
X6.23Y-3.67
X6.2531Y-5.12
X6.26Y-5.0
X6.2657Y-3.0343
X6.275Y-4.505
X6.2889Y-3.3831
X6.2889Y-3.44
X6.2999Y-3.0701
X6.3384Y-3.1079
X6.485Y-2.925
X6.5212Y-2.9095
X6.575Y-2.905
X6.58Y-2.69
X6.7611Y-3.3356
X6.77Y-3.71
X6.78Y-4.76
X6.8544Y-3.4344
X6.88Y-4.04
X6.97Y-3.83
X7.1314Y-3.6679
X7.132Y-4.7056
X7.16Y-3.08
X7.2524Y-3.8776
X7.26Y-4.03
X7.3Y-3.74
T3
X5.15Y-3.47
X5.6704Y-4.0704
X5.79Y-4.37
T4
X6.3Y-2.81
X6.4Y-2.11
X6.4Y-2.81
X6.5Y-2.11
X6.5Y-2.81
X6.6Y-2.11
X6.6Y-2.81
X6.7Y-2.11
X6.7Y-2.81
X6.8Y-2.81
T5
X5.6212Y-4.5477
X5.6212Y-4.6477
X5.6212Y-4.7446
X5.6212Y-4.8446
X5.6712Y-4.5977
X5.6712Y-4.7946
X5.7216Y-4.5477
X5.7216Y-4.6477
X5.7216Y-4.7446
X5.7216Y-4.8446
T6
X4.15Y-3.9008
X4.15Y-4.0008
X4.48Y-5.4992
X4.48Y-5.5992
T7
X6.3891Y-3.185
X6.3891Y-3.285
X6.3891Y-3.385
X6.3891Y-3.485
X6.3891Y-3.585
X6.3891Y-3.685
X6.3891Y-3.785
X6.3891Y-3.885
X6.3891Y-3.985
X6.3891Y-4.085
X6.3891Y-4.185
X6.3891Y-4.285
X6.3891Y-4.385
X6.3891Y-4.485
X6.3891Y-4.585
X6.3891Y-4.685
X6.3891Y-4.785
X6.3891Y-4.885
X6.3891Y-4.985
X6.3891Y-5.085
X6.4891Y-3.185
X6.4891Y-3.285
X6.4891Y-3.385
X6.4891Y-3.485
X6.4891Y-3.585
X6.4891Y-3.685
X6.4891Y-3.785
X6.4891Y-3.885
X6.4891Y-3.985
X6.4891Y-4.085
X6.4891Y-4.185
X6.4891Y-4.285
X6.4891Y-4.385
X6.4891Y-4.485
X6.4891Y-4.585
X6.4891Y-4.685
X6.4891Y-4.785
X6.4891Y-4.885
X6.4891Y-4.985
X6.4891Y-5.085
T8
X4.1Y-4.9106
X4.1Y-5.0106
X4.1Y-5.1106
X4.2678Y-2.6894
X4.2678Y-2.7894
X4.2678Y-2.8894
X4.2678Y-2.9894
X4.2678Y-3.0894
X4.2678Y-3.1894
X4.2678Y-3.2894
X4.2678Y-3.3894
X4.6106Y-5.68
X4.7106Y-5.68
X4.8106Y-5.68
X4.99Y-3.94
X4.99Y-5.46
X5.37Y-2.3
X5.37Y-2.4
X5.39Y-3.94
X5.39Y-5.46
X5.47Y-2.3
X5.47Y-2.4
X5.57Y-2.3
X5.57Y-2.4
X5.67Y-2.3
X5.67Y-2.4
X5.77Y-2.3
X5.77Y-2.4
X5.95Y-3.53
X5.95Y-3.63
X6.03Y-5.56
X6.13Y-5.56
X6.23Y-5.56
X6.33Y-5.56
X6.43Y-5.56
X6.53Y-5.56
X6.7406Y-5.68
X6.8406Y-5.68
X6.928Y-4.2211
X6.928Y-5.04
X6.9406Y-5.68
X7.05Y-4.2211
X7.05Y-5.04
X7.45Y-2.4994
X7.45Y-2.5994
X7.45Y-2.6994
T9
X4.7422Y-2.37
X4.88Y-2.37
T10
X5.67Y-5.51
T11
X5.57Y-5.41
X5.57Y-5.61
X5.77Y-5.41
X5.77Y-5.61
T12
X4.2Y-5.5752
X4.35Y-2.2
X7.25Y-2.2
X7.35Y-5.5752
T13
X4.3201Y-5.1587
X5.7177Y-3.6036
T0
M30
