%TF.GenerationSoftware,KiCad,Pcbnew,6.0.10*%
%TF.CreationDate,2022-12-29T00:17:53-05:00*%
%TF.ProjectId,piridium-bus,70697269-6469-4756-9d2d-6275732e6b69,rev?*%
%TF.SameCoordinates,Original*%
%TF.FileFunction,Soldermask,Bot*%
%TF.FilePolarity,Negative*%
%FSLAX46Y46*%
G04 Gerber Fmt 4.6, Leading zero omitted, Abs format (unit mm)*
G04 Created by KiCad (PCBNEW 6.0.10) date 2022-12-29 00:17:53*
%MOMM*%
%LPD*%
G01*
G04 APERTURE LIST*
G04 Aperture macros list*
%AMRoundRect*
0 Rectangle with rounded corners*
0 $1 Rounding radius*
0 $2 $3 $4 $5 $6 $7 $8 $9 X,Y pos of 4 corners*
0 Add a 4 corners polygon primitive as box body*
4,1,4,$2,$3,$4,$5,$6,$7,$8,$9,$2,$3,0*
0 Add four circle primitives for the rounded corners*
1,1,$1+$1,$2,$3*
1,1,$1+$1,$4,$5*
1,1,$1+$1,$6,$7*
1,1,$1+$1,$8,$9*
0 Add four rect primitives between the rounded corners*
20,1,$1+$1,$2,$3,$4,$5,0*
20,1,$1+$1,$4,$5,$6,$7,0*
20,1,$1+$1,$6,$7,$8,$9,0*
20,1,$1+$1,$8,$9,$2,$3,0*%
G04 Aperture macros list end*
%ADD10RoundRect,0.250000X0.450000X-0.262500X0.450000X0.262500X-0.450000X0.262500X-0.450000X-0.262500X0*%
%ADD11C,5.600000*%
%ADD12C,2.500000*%
%ADD13C,1.524000*%
%ADD14R,1.700000X1.700000*%
%ADD15O,1.700000X1.700000*%
%ADD16RoundRect,0.250000X0.600000X-0.600000X0.600000X0.600000X-0.600000X0.600000X-0.600000X-0.600000X0*%
%ADD17C,1.700000*%
%ADD18C,2.700000*%
%ADD19C,1.600000*%
%ADD20R,2.400000X2.400000*%
%ADD21C,2.400000*%
%ADD22C,2.050000*%
%ADD23C,2.250000*%
%ADD24C,0.701040*%
%ADD25C,1.198880*%
%ADD26C,4.000500*%
%ADD27RoundRect,0.150000X-0.725000X-0.150000X0.725000X-0.150000X0.725000X0.150000X-0.725000X0.150000X0*%
%ADD28RoundRect,0.250000X-0.450000X0.262500X-0.450000X-0.262500X0.450000X-0.262500X0.450000X0.262500X0*%
%ADD29R,1.100000X1.100000*%
%ADD30RoundRect,0.250000X-0.625000X0.312500X-0.625000X-0.312500X0.625000X-0.312500X0.625000X0.312500X0*%
%ADD31RoundRect,0.087500X-0.325000X-0.087500X0.325000X-0.087500X0.325000X0.087500X-0.325000X0.087500X0*%
%ADD32RoundRect,0.087500X-0.087500X-0.325000X0.087500X-0.325000X0.087500X0.325000X-0.087500X0.325000X0*%
%ADD33R,2.700000X2.700000*%
%ADD34RoundRect,0.250000X0.475000X-0.250000X0.475000X0.250000X-0.475000X0.250000X-0.475000X-0.250000X0*%
%ADD35RoundRect,0.235000X-1.465000X0.940000X-1.465000X-0.940000X1.465000X-0.940000X1.465000X0.940000X0*%
%ADD36RoundRect,0.250000X0.250000X0.475000X-0.250000X0.475000X-0.250000X-0.475000X0.250000X-0.475000X0*%
%ADD37R,2.000000X2.000000*%
%ADD38RoundRect,0.250000X-0.262500X-0.450000X0.262500X-0.450000X0.262500X0.450000X-0.262500X0.450000X0*%
%ADD39RoundRect,0.100000X0.100000X-0.625000X0.100000X0.625000X-0.100000X0.625000X-0.100000X-0.625000X0*%
%ADD40R,2.850000X1.650000*%
%ADD41RoundRect,0.150000X0.512500X0.150000X-0.512500X0.150000X-0.512500X-0.150000X0.512500X-0.150000X0*%
%ADD42RoundRect,0.225000X-0.250000X0.225000X-0.250000X-0.225000X0.250000X-0.225000X0.250000X0.225000X0*%
%ADD43RoundRect,0.250000X-0.325000X-1.100000X0.325000X-1.100000X0.325000X1.100000X-0.325000X1.100000X0*%
%ADD44RoundRect,0.150000X0.587500X0.150000X-0.587500X0.150000X-0.587500X-0.150000X0.587500X-0.150000X0*%
%ADD45C,2.000000*%
%ADD46RoundRect,0.225000X0.250000X-0.225000X0.250000X0.225000X-0.250000X0.225000X-0.250000X-0.225000X0*%
%ADD47RoundRect,0.225000X-0.325000X-0.225000X0.325000X-0.225000X0.325000X0.225000X-0.325000X0.225000X0*%
%ADD48RoundRect,0.225000X-0.475000X-0.225000X0.475000X-0.225000X0.475000X0.225000X-0.475000X0.225000X0*%
%ADD49RoundRect,0.250000X-0.250000X-0.475000X0.250000X-0.475000X0.250000X0.475000X-0.250000X0.475000X0*%
%ADD50RoundRect,0.250000X0.312500X0.625000X-0.312500X0.625000X-0.312500X-0.625000X0.312500X-0.625000X0*%
%ADD51RoundRect,0.250000X-0.475000X0.250000X-0.475000X-0.250000X0.475000X-0.250000X0.475000X0.250000X0*%
%ADD52RoundRect,0.150000X0.150000X-0.512500X0.150000X0.512500X-0.150000X0.512500X-0.150000X-0.512500X0*%
%ADD53RoundRect,0.462500X-0.462500X-1.287500X0.462500X-1.287500X0.462500X1.287500X-0.462500X1.287500X0*%
%ADD54R,1.800000X2.500000*%
%ADD55R,2.000000X1.500000*%
%ADD56R,2.000000X3.800000*%
%ADD57C,2.300000*%
%ADD58C,17.500000*%
%ADD59C,1.400000*%
%ADD60RoundRect,0.150000X-0.825000X-0.150000X0.825000X-0.150000X0.825000X0.150000X-0.825000X0.150000X0*%
%ADD61RoundRect,0.150000X-0.587500X-0.150000X0.587500X-0.150000X0.587500X0.150000X-0.587500X0.150000X0*%
%ADD62RoundRect,0.125000X-0.537500X-0.125000X0.537500X-0.125000X0.537500X0.125000X-0.537500X0.125000X0*%
%ADD63RoundRect,0.225000X-0.225000X0.325000X-0.225000X-0.325000X0.225000X-0.325000X0.225000X0.325000X0*%
%ADD64RoundRect,0.225000X-0.225000X0.475000X-0.225000X-0.475000X0.225000X-0.475000X0.225000X0.475000X0*%
G04 APERTURE END LIST*
D10*
%TO.C,R26*%
X138176000Y-109878500D03*
X138176000Y-108053500D03*
%TD*%
D11*
%TO.C,MH1*%
X110490000Y-55880000D03*
%TD*%
%TO.C,MH2*%
X184150000Y-55880000D03*
%TD*%
%TO.C,MH3*%
X186690000Y-141610000D03*
%TD*%
%TO.C,MH4*%
X106680000Y-141610000D03*
%TD*%
D12*
%TO.C,A2*%
X155575000Y-70104000D03*
X177165000Y-54864000D03*
X155575000Y-54864000D03*
X177165000Y-70104000D03*
D13*
X160020000Y-71374000D03*
X162560000Y-71374000D03*
X165100000Y-71374000D03*
X167640000Y-71374000D03*
X170180000Y-71374000D03*
X172720000Y-71374000D03*
X170180000Y-53594000D03*
X167640000Y-53594000D03*
X165100000Y-53594000D03*
X162560000Y-53594000D03*
%TD*%
D14*
%TO.C,J7*%
X189230000Y-68565000D03*
D15*
X189230000Y-66025000D03*
X189230000Y-63485000D03*
%TD*%
D14*
%TO.C,J9*%
X117109000Y-144272000D03*
D15*
X119649000Y-144272000D03*
X122189000Y-144272000D03*
%TD*%
D14*
%TO.C,J8*%
X104140000Y-124729000D03*
D15*
X104140000Y-127269000D03*
X104140000Y-129809000D03*
%TD*%
D16*
%TO.C,J5*%
X136398000Y-60960000D03*
D17*
X136398000Y-58420000D03*
X138938000Y-60960000D03*
X138938000Y-58420000D03*
X141478000Y-60960000D03*
X141478000Y-58420000D03*
X144018000Y-60960000D03*
X144018000Y-58420000D03*
X146558000Y-60960000D03*
X146558000Y-58420000D03*
%TD*%
D14*
%TO.C,JP1*%
X151130000Y-89662000D03*
D15*
X151130000Y-92202000D03*
%TD*%
D18*
%TO.C,A1*%
X186571000Y-76029000D03*
X163571000Y-134029000D03*
X163571000Y-76029000D03*
X186571000Y-134029000D03*
D19*
X164823000Y-129159000D03*
X162283000Y-129159000D03*
X164823000Y-126619000D03*
X162283000Y-126619000D03*
X164823000Y-124079000D03*
X162283000Y-124079000D03*
X164823000Y-121539000D03*
X162283000Y-121539000D03*
X164823000Y-118999000D03*
X162283000Y-118999000D03*
X164823000Y-116459000D03*
X162283000Y-116459000D03*
X164823000Y-113919000D03*
X162283000Y-113919000D03*
X164823000Y-111379000D03*
X162283000Y-111379000D03*
X164823000Y-108839000D03*
X162283000Y-108839000D03*
X164823000Y-106299000D03*
X162283000Y-106299000D03*
X164823000Y-103759000D03*
X162283000Y-103759000D03*
X164823000Y-101219000D03*
X162283000Y-101219000D03*
X164823000Y-98679000D03*
X162283000Y-98679000D03*
X164823000Y-96139000D03*
X162283000Y-96139000D03*
X164823000Y-93599000D03*
X162283000Y-93599000D03*
X164823000Y-91059000D03*
X162283000Y-91059000D03*
X164823000Y-88519000D03*
X162283000Y-88519000D03*
X164823000Y-85979000D03*
X162283000Y-85979000D03*
X164823000Y-83439000D03*
X162283000Y-83439000D03*
X164823000Y-80899000D03*
X162283000Y-80899000D03*
%TD*%
D20*
%TO.C,J1*%
X123952000Y-60198000D03*
D21*
X120452000Y-60198000D03*
%TD*%
D22*
%TO.C,J4*%
X144018000Y-139954000D03*
D23*
X146558000Y-137414000D03*
X141478000Y-142494000D03*
X146558000Y-142494000D03*
X141478000Y-137414000D03*
%TD*%
D14*
%TO.C,J3*%
X165862000Y-140716000D03*
D15*
X163322000Y-140716000D03*
X160782000Y-140716000D03*
X158242000Y-140716000D03*
X155702000Y-140716000D03*
X153162000Y-140716000D03*
%TD*%
D24*
%TO.C,A3*%
X144047940Y-101641180D03*
X144047940Y-111801180D03*
D25*
X144047940Y-121783380D03*
X142777940Y-120513380D03*
X145328100Y-123053380D03*
X145328100Y-120513380D03*
X142777940Y-123053380D03*
X144047940Y-116782120D03*
X142777940Y-115512120D03*
X145328100Y-115512120D03*
X142777940Y-118052120D03*
X145328100Y-118052120D03*
D26*
X109730000Y-131031520D03*
X145229040Y-91531980D03*
%TD*%
D14*
%TO.C,J6*%
X171211000Y-144272000D03*
D15*
X173751000Y-144272000D03*
X176291000Y-144272000D03*
%TD*%
D27*
%TO.C,U17*%
X150079000Y-126492000D03*
X150079000Y-125222000D03*
X150079000Y-123952000D03*
X150079000Y-122682000D03*
X155229000Y-122682000D03*
X155229000Y-123952000D03*
X155229000Y-125222000D03*
X155229000Y-126492000D03*
%TD*%
D28*
%TO.C,R30*%
X108481500Y-97682000D03*
X108481500Y-99507000D03*
%TD*%
D29*
%TO.C,D9*%
X120200000Y-110302000D03*
X123000000Y-110302000D03*
%TD*%
D10*
%TO.C,R15*%
X135377000Y-125833500D03*
X135377000Y-124008500D03*
%TD*%
D30*
%TO.C,R51*%
X157480000Y-124521500D03*
X157480000Y-127446500D03*
%TD*%
D10*
%TO.C,R48*%
X148655000Y-133119500D03*
X148655000Y-131294500D03*
%TD*%
D31*
%TO.C,U3*%
X128739000Y-120355000D03*
X128739000Y-119705000D03*
X128739000Y-119055000D03*
X128739000Y-118405000D03*
D32*
X129726500Y-117417500D03*
X130376500Y-117417500D03*
X131026500Y-117417500D03*
X131676500Y-117417500D03*
D31*
X132664000Y-118405000D03*
X132664000Y-119055000D03*
X132664000Y-119705000D03*
X132664000Y-120355000D03*
D32*
X131676500Y-121342500D03*
X131026500Y-121342500D03*
X130376500Y-121342500D03*
X129726500Y-121342500D03*
D33*
X130701500Y-119380000D03*
%TD*%
D30*
%TO.C,R34*%
X125288000Y-81463000D03*
X125288000Y-84388000D03*
%TD*%
D34*
%TO.C,C2*%
X139294000Y-91456250D03*
X139294000Y-89556250D03*
%TD*%
D35*
%TO.C,L2*%
X129177500Y-128039000D03*
X129177500Y-134089000D03*
%TD*%
D10*
%TO.C,R38*%
X107884000Y-114770500D03*
X107884000Y-112945500D03*
%TD*%
D36*
%TO.C,C35*%
X159004000Y-109220000D03*
X157104000Y-109220000D03*
%TD*%
D34*
%TO.C,C23*%
X115085500Y-107418500D03*
X115085500Y-105518500D03*
%TD*%
D30*
%TO.C,R41*%
X119446000Y-102570690D03*
X119446000Y-105495690D03*
%TD*%
D37*
%TO.C,TP6*%
X106172000Y-105664000D03*
%TD*%
D38*
%TO.C,R50*%
X153773500Y-120650000D03*
X155598500Y-120650000D03*
%TD*%
%TO.C,R39*%
X106209500Y-116652000D03*
X108034500Y-116652000D03*
%TD*%
D39*
%TO.C,U12*%
X111795000Y-126930000D03*
X111145000Y-126930000D03*
X110495000Y-126930000D03*
X109845000Y-126930000D03*
X109195000Y-126930000D03*
X108545000Y-126930000D03*
X108545000Y-122630000D03*
X109195000Y-122630000D03*
X109845000Y-122630000D03*
X110495000Y-122630000D03*
X111145000Y-122630000D03*
X111795000Y-122630000D03*
D40*
X110170000Y-124780000D03*
%TD*%
D41*
%TO.C,U16*%
X159633500Y-111318000D03*
X159633500Y-112268000D03*
X159633500Y-113218000D03*
X157358500Y-113218000D03*
X157358500Y-111318000D03*
%TD*%
D42*
%TO.C,C9*%
X126487000Y-120590000D03*
X126487000Y-122140000D03*
%TD*%
D43*
%TO.C,C5*%
X129125000Y-101553000D03*
X132075000Y-101553000D03*
%TD*%
D44*
%TO.C,Q14*%
X159433500Y-120462000D03*
X159433500Y-122362000D03*
X157558500Y-121412000D03*
%TD*%
D45*
%TO.C,TP4*%
X126746000Y-138684000D03*
%TD*%
D39*
%TO.C,U10*%
X112086500Y-106176500D03*
X111436500Y-106176500D03*
X110786500Y-106176500D03*
X110136500Y-106176500D03*
X109486500Y-106176500D03*
X108836500Y-106176500D03*
X108836500Y-101876500D03*
X109486500Y-101876500D03*
X110136500Y-101876500D03*
X110786500Y-101876500D03*
X111436500Y-101876500D03*
X112086500Y-101876500D03*
D40*
X110461500Y-104026500D03*
%TD*%
D34*
%TO.C,C28*%
X114742000Y-128524000D03*
X114742000Y-126624000D03*
%TD*%
D29*
%TO.C,D11*%
X159258000Y-114932000D03*
X159258000Y-117732000D03*
%TD*%
D43*
%TO.C,C13*%
X129125000Y-140415000D03*
X132075000Y-140415000D03*
%TD*%
D46*
%TO.C,C8*%
X126487000Y-118076000D03*
X126487000Y-116526000D03*
%TD*%
D47*
%TO.C,RV1*%
X107830000Y-108078000D03*
D48*
X106680000Y-111378000D03*
D47*
X105530000Y-108078000D03*
%TD*%
D34*
%TO.C,C37*%
X154940000Y-116805810D03*
X154940000Y-114905810D03*
%TD*%
D49*
%TO.C,C11*%
X127823000Y-124413000D03*
X129723000Y-124413000D03*
%TD*%
D50*
%TO.C,R33*%
X123406000Y-93514500D03*
X120481000Y-93514500D03*
%TD*%
D35*
%TO.C,L1*%
X129177500Y-104671000D03*
X129177500Y-110721000D03*
%TD*%
D51*
%TO.C,C1*%
X128270000Y-91506000D03*
X128270000Y-93406000D03*
%TD*%
D29*
%TO.C,D5*%
X120543500Y-89196500D03*
X123343500Y-89196500D03*
%TD*%
D36*
%TO.C,C31*%
X123444000Y-100731190D03*
X121544000Y-100731190D03*
%TD*%
D52*
%TO.C,U13*%
X123444000Y-105170690D03*
X122494000Y-105170690D03*
X121544000Y-105170690D03*
X121544000Y-102895690D03*
X123444000Y-102895690D03*
%TD*%
D10*
%TO.C,R2*%
X133096000Y-87884000D03*
X133096000Y-86059000D03*
%TD*%
D36*
%TO.C,C24*%
X113241500Y-98594500D03*
X111341500Y-98594500D03*
%TD*%
D53*
%TO.C,L4*%
X112475000Y-114620000D03*
X118025000Y-114620000D03*
%TD*%
D10*
%TO.C,R18*%
X147896500Y-126635500D03*
X147896500Y-124810500D03*
%TD*%
D54*
%TO.C,D4*%
X115847500Y-99134500D03*
X115847500Y-103134500D03*
%TD*%
D50*
%TO.C,R40*%
X123062500Y-114620000D03*
X120137500Y-114620000D03*
%TD*%
D55*
%TO.C,U1*%
X130708000Y-94756000D03*
X130708000Y-92456000D03*
D56*
X137008000Y-92456000D03*
D55*
X130708000Y-90156000D03*
%TD*%
D51*
%TO.C,C30*%
X122870000Y-116718000D03*
X122870000Y-118618000D03*
%TD*%
D49*
%TO.C,C27*%
X146370000Y-84836000D03*
X148270000Y-84836000D03*
%TD*%
D38*
%TO.C,R32*%
X106807000Y-95800500D03*
X108632000Y-95800500D03*
%TD*%
D36*
%TO.C,C29*%
X112898000Y-119700000D03*
X110998000Y-119700000D03*
%TD*%
D37*
%TO.C,TP8*%
X113792000Y-136398000D03*
%TD*%
D10*
%TO.C,R31*%
X108481500Y-93919000D03*
X108481500Y-92094000D03*
%TD*%
D57*
%TO.C,BT1*%
X179070000Y-128016000D03*
X175970000Y-128016000D03*
X179070000Y-107216000D03*
X175970000Y-107216000D03*
D58*
X177470000Y-117616000D03*
%TD*%
D59*
%TO.C,TP5*%
X105410000Y-99080000D03*
X105410000Y-101620000D03*
%TD*%
D10*
%TO.C,R19*%
X147896500Y-123213500D03*
X147896500Y-121388500D03*
%TD*%
D60*
%TO.C,Q13*%
X151006000Y-135128000D03*
X151006000Y-133858000D03*
X151006000Y-132588000D03*
X151006000Y-131318000D03*
X155956000Y-131318000D03*
X155956000Y-132588000D03*
X155956000Y-133858000D03*
X155956000Y-135128000D03*
%TD*%
D28*
%TO.C,R49*%
X156972000Y-114943310D03*
X156972000Y-116768310D03*
%TD*%
D45*
%TO.C,TP2*%
X136906000Y-100076000D03*
%TD*%
D61*
%TO.C,U7*%
X153113500Y-77658000D03*
X153113500Y-75758000D03*
X154988500Y-76708000D03*
%TD*%
D49*
%TO.C,C10*%
X134869000Y-119841000D03*
X136769000Y-119841000D03*
%TD*%
D45*
%TO.C,TP1*%
X126746000Y-100076000D03*
%TD*%
D62*
%TO.C,U2*%
X135260500Y-87884000D03*
X135260500Y-87234000D03*
X135260500Y-86584000D03*
X135260500Y-85934000D03*
X137535500Y-85934000D03*
X137535500Y-86584000D03*
X137535500Y-87234000D03*
X137535500Y-87884000D03*
%TD*%
D38*
%TO.C,R5*%
X134869000Y-116840000D03*
X136694000Y-116840000D03*
%TD*%
D36*
%TO.C,C36*%
X149981428Y-128397000D03*
X148081428Y-128397000D03*
%TD*%
D51*
%TO.C,C16*%
X143256000Y-81854000D03*
X143256000Y-83754000D03*
%TD*%
D43*
%TO.C,C6*%
X129125000Y-98251000D03*
X132075000Y-98251000D03*
%TD*%
D52*
%TO.C,U11*%
X129286000Y-84063000D03*
X128336000Y-84063000D03*
X127386000Y-84063000D03*
X127386000Y-81788000D03*
X129286000Y-81788000D03*
%TD*%
D43*
%TO.C,C12*%
X129125000Y-137160000D03*
X132075000Y-137160000D03*
%TD*%
D51*
%TO.C,C25*%
X122174000Y-95612500D03*
X122174000Y-97512500D03*
%TD*%
D45*
%TO.C,TP3*%
X136906000Y-138684000D03*
%TD*%
D28*
%TO.C,R10*%
X139294000Y-93234250D03*
X139294000Y-95059250D03*
%TD*%
D34*
%TO.C,C22*%
X148336000Y-76388000D03*
X148336000Y-74488000D03*
%TD*%
D59*
%TO.C,TP7*%
X113792000Y-142220000D03*
X113792000Y-139680000D03*
%TD*%
D36*
%TO.C,C26*%
X129286000Y-79623500D03*
X127386000Y-79623500D03*
%TD*%
D14*
%TO.C,J2*%
X108401000Y-86091000D03*
D15*
X108401000Y-83551000D03*
X108401000Y-81011000D03*
X108401000Y-78471000D03*
X108401000Y-75931000D03*
X108401000Y-73391000D03*
X108401000Y-70851000D03*
X108401000Y-68311000D03*
%TD*%
D28*
%TO.C,R37*%
X107884000Y-118533500D03*
X107884000Y-120358500D03*
%TD*%
D38*
%TO.C,R16*%
X134869000Y-121873000D03*
X136694000Y-121873000D03*
%TD*%
D49*
%TO.C,C7*%
X127719500Y-114300000D03*
X129619500Y-114300000D03*
%TD*%
D63*
%TO.C,RV2*%
X118490000Y-133484000D03*
D64*
X115190000Y-132334000D03*
D63*
X118490000Y-131184000D03*
%TD*%
D53*
%TO.C,L3*%
X112818500Y-93514500D03*
X118368500Y-93514500D03*
%TD*%
D28*
%TO.C,R4*%
X135377000Y-112879500D03*
X135377000Y-114704500D03*
%TD*%
D54*
%TO.C,D8*%
X115504000Y-120240000D03*
X115504000Y-124240000D03*
%TD*%
M02*
