%TF.GenerationSoftware,KiCad,Pcbnew,6.0.10*%
%TF.CreationDate,2022-12-29T09:18:26-05:00*%
%TF.ProjectId,piridium-bus,70697269-6469-4756-9d2d-6275732e6b69,rev?*%
%TF.SameCoordinates,Original*%
%TF.FileFunction,Profile,NP*%
%FSLAX46Y46*%
G04 Gerber Fmt 4.6, Leading zero omitted, Abs format (unit mm)*
G04 Created by KiCad (PCBNEW 6.0.10) date 2022-12-29 09:18:26*
%MOMM*%
%LPD*%
G01*
G04 APERTURE LIST*
%TA.AperFunction,Profile*%
%ADD10C,0.050000*%
%TD*%
G04 APERTURE END LIST*
D10*
X186690000Y-146690000D02*
X166370000Y-146690000D01*
X191770000Y-55880000D02*
G75*
G03*
X186690000Y-50800000I-5080000J0D01*
G01*
X127000000Y-146690000D02*
X130810000Y-144150000D01*
X104140000Y-83820000D02*
X104140000Y-113670000D01*
X191770000Y-117480000D02*
X191770000Y-141610000D01*
X156337000Y-50800000D02*
X186690000Y-50800000D01*
X130810000Y-53340000D02*
X127000000Y-50800000D01*
X101600000Y-80010000D02*
X101600000Y-55880000D01*
X191770000Y-80010000D02*
X191770000Y-55880000D01*
X101600000Y-80010000D02*
X104140000Y-83820000D01*
X106680000Y-50800000D02*
G75*
G03*
X101600000Y-55880000I0J-5080000D01*
G01*
X152527000Y-53340000D02*
X130810000Y-53340000D01*
X101600000Y-141610000D02*
G75*
G03*
X106680000Y-146690000I5080000J0D01*
G01*
X191770000Y-117480000D02*
X189230000Y-113670000D01*
X186690000Y-146690000D02*
G75*
G03*
X191770000Y-141610000I0J5080000D01*
G01*
X189230000Y-113670000D02*
X189230000Y-83820000D01*
X130810000Y-144150000D02*
X162560000Y-144150000D01*
X104140000Y-113670000D02*
X101600000Y-117480000D01*
X189230000Y-83820000D02*
X191770000Y-80010000D01*
X162560000Y-144150000D02*
X166370000Y-146690000D01*
X156337000Y-50800000D02*
X152527000Y-53340000D01*
X106680000Y-50800000D02*
X127000000Y-50800000D01*
X106680000Y-146690000D02*
X127000000Y-146690000D01*
X101600000Y-117480000D02*
X101600000Y-141610000D01*
M02*
