%TF.GenerationSoftware,KiCad,Pcbnew,6.0.10*%
%TF.CreationDate,2023-01-10T19:36:31-05:00*%
%TF.ProjectId,piridium-bus,70697269-6469-4756-9d2d-6275732e6b69,rev?*%
%TF.SameCoordinates,Original*%
%TF.FileFunction,Legend,Top*%
%TF.FilePolarity,Positive*%
%FSLAX46Y46*%
G04 Gerber Fmt 4.6, Leading zero omitted, Abs format (unit mm)*
G04 Created by KiCad (PCBNEW 6.0.10) date 2023-01-10 19:36:31*
%MOMM*%
%LPD*%
G01*
G04 APERTURE LIST*
%ADD10C,0.150000*%
%ADD11C,0.304800*%
%ADD12C,0.120000*%
%ADD13C,0.248920*%
%ADD14C,0.381000*%
%ADD15C,0.251460*%
%ADD16C,0.701040*%
%ADD17C,1.198880*%
%ADD18C,4.000500*%
G04 APERTURE END LIST*
D10*
X120015047Y-54427428D02*
X120776952Y-54427428D01*
X168854380Y-141771619D02*
X168378190Y-142104952D01*
X168854380Y-142343047D02*
X167854380Y-142343047D01*
X167854380Y-141962095D01*
X167902000Y-141866857D01*
X167949619Y-141819238D01*
X168044857Y-141771619D01*
X168187714Y-141771619D01*
X168282952Y-141819238D01*
X168330571Y-141866857D01*
X168378190Y-141962095D01*
X168378190Y-142343047D01*
X167854380Y-141485904D02*
X167854380Y-140914476D01*
X168854380Y-141200190D02*
X167854380Y-141200190D01*
X168806761Y-140628761D02*
X168854380Y-140485904D01*
X168854380Y-140247809D01*
X168806761Y-140152571D01*
X168759142Y-140104952D01*
X168663904Y-140057333D01*
X168568666Y-140057333D01*
X168473428Y-140104952D01*
X168425809Y-140152571D01*
X168378190Y-140247809D01*
X168330571Y-140438285D01*
X168282952Y-140533523D01*
X168235333Y-140581142D01*
X168140095Y-140628761D01*
X168044857Y-140628761D01*
X167949619Y-140581142D01*
X167902000Y-140533523D01*
X167854380Y-140438285D01*
X167854380Y-140200190D01*
X167902000Y-140057333D01*
X123571047Y-54427428D02*
X124332952Y-54427428D01*
X123952000Y-54808380D02*
X123952000Y-54046476D01*
X150122000Y-141985904D02*
X150074380Y-142081142D01*
X150074380Y-142224000D01*
X150122000Y-142366857D01*
X150217238Y-142462095D01*
X150312476Y-142509714D01*
X150502952Y-142557333D01*
X150645809Y-142557333D01*
X150836285Y-142509714D01*
X150931523Y-142462095D01*
X151026761Y-142366857D01*
X151074380Y-142224000D01*
X151074380Y-142128761D01*
X151026761Y-141985904D01*
X150979142Y-141938285D01*
X150645809Y-141938285D01*
X150645809Y-142128761D01*
X151074380Y-141509714D02*
X150074380Y-141509714D01*
X151074380Y-140938285D01*
X150074380Y-140938285D01*
X151074380Y-140462095D02*
X150074380Y-140462095D01*
X150074380Y-140224000D01*
X150122000Y-140081142D01*
X150217238Y-139985904D01*
X150312476Y-139938285D01*
X150502952Y-139890666D01*
X150645809Y-139890666D01*
X150836285Y-139938285D01*
X150931523Y-139985904D01*
X151026761Y-140081142D01*
X151074380Y-140224000D01*
X151074380Y-140462095D01*
X149263714Y-53903619D02*
X149263714Y-54903619D01*
X148882761Y-54903619D01*
X148787523Y-54856000D01*
X148739904Y-54808380D01*
X148692285Y-54713142D01*
X148692285Y-54570285D01*
X148739904Y-54475047D01*
X148787523Y-54427428D01*
X148882761Y-54379809D01*
X149263714Y-54379809D01*
X148311333Y-54189333D02*
X147835142Y-54189333D01*
X148406571Y-53903619D02*
X148073238Y-54903619D01*
X147739904Y-53903619D01*
X147216095Y-54379809D02*
X147216095Y-53903619D01*
X147549428Y-54903619D02*
X147216095Y-54379809D01*
X146882761Y-54903619D01*
X146073238Y-53903619D02*
X146549428Y-53903619D01*
X146549428Y-54903619D01*
X145549428Y-54903619D02*
X145358952Y-54903619D01*
X145263714Y-54856000D01*
X145168476Y-54760761D01*
X145120857Y-54570285D01*
X145120857Y-54236952D01*
X145168476Y-54046476D01*
X145263714Y-53951238D01*
X145358952Y-53903619D01*
X145549428Y-53903619D01*
X145644666Y-53951238D01*
X145739904Y-54046476D01*
X145787523Y-54236952D01*
X145787523Y-54570285D01*
X145739904Y-54760761D01*
X145644666Y-54856000D01*
X145549428Y-54903619D01*
X144739904Y-54189333D02*
X144263714Y-54189333D01*
X144835142Y-53903619D02*
X144501809Y-54903619D01*
X144168476Y-53903619D01*
X143835142Y-53903619D02*
X143835142Y-54903619D01*
X143597047Y-54903619D01*
X143454190Y-54856000D01*
X143358952Y-54760761D01*
X143311333Y-54665523D01*
X143263714Y-54475047D01*
X143263714Y-54332190D01*
X143311333Y-54141714D01*
X143358952Y-54046476D01*
X143454190Y-53951238D01*
X143597047Y-53903619D01*
X143835142Y-53903619D01*
X141501809Y-53998857D02*
X141549428Y-53951238D01*
X141692285Y-53903619D01*
X141787523Y-53903619D01*
X141930380Y-53951238D01*
X142025619Y-54046476D01*
X142073238Y-54141714D01*
X142120857Y-54332190D01*
X142120857Y-54475047D01*
X142073238Y-54665523D01*
X142025619Y-54760761D01*
X141930380Y-54856000D01*
X141787523Y-54903619D01*
X141692285Y-54903619D01*
X141549428Y-54856000D01*
X141501809Y-54808380D01*
X140882761Y-54903619D02*
X140692285Y-54903619D01*
X140597047Y-54856000D01*
X140501809Y-54760761D01*
X140454190Y-54570285D01*
X140454190Y-54236952D01*
X140501809Y-54046476D01*
X140597047Y-53951238D01*
X140692285Y-53903619D01*
X140882761Y-53903619D01*
X140978000Y-53951238D01*
X141073238Y-54046476D01*
X141120857Y-54236952D01*
X141120857Y-54570285D01*
X141073238Y-54760761D01*
X140978000Y-54856000D01*
X140882761Y-54903619D01*
X140025619Y-53903619D02*
X140025619Y-54903619D01*
X139454190Y-53903619D01*
X139454190Y-54903619D01*
X138978000Y-53903619D02*
X138978000Y-54903619D01*
X138406571Y-53903619D01*
X138406571Y-54903619D01*
X137930380Y-54427428D02*
X137597047Y-54427428D01*
X137454190Y-53903619D02*
X137930380Y-53903619D01*
X137930380Y-54903619D01*
X137454190Y-54903619D01*
X136454190Y-53998857D02*
X136501809Y-53951238D01*
X136644666Y-53903619D01*
X136739904Y-53903619D01*
X136882761Y-53951238D01*
X136978000Y-54046476D01*
X137025619Y-54141714D01*
X137073238Y-54332190D01*
X137073238Y-54475047D01*
X137025619Y-54665523D01*
X136978000Y-54760761D01*
X136882761Y-54856000D01*
X136739904Y-54903619D01*
X136644666Y-54903619D01*
X136501809Y-54856000D01*
X136454190Y-54808380D01*
X136168476Y-54903619D02*
X135597047Y-54903619D01*
X135882761Y-53903619D02*
X135882761Y-54903619D01*
X135073238Y-54903619D02*
X134882761Y-54903619D01*
X134787523Y-54856000D01*
X134692285Y-54760761D01*
X134644666Y-54570285D01*
X134644666Y-54236952D01*
X134692285Y-54046476D01*
X134787523Y-53951238D01*
X134882761Y-53903619D01*
X135073238Y-53903619D01*
X135168476Y-53951238D01*
X135263714Y-54046476D01*
X135311333Y-54236952D01*
X135311333Y-54570285D01*
X135263714Y-54760761D01*
X135168476Y-54856000D01*
X135073238Y-54903619D01*
X133644666Y-53903619D02*
X133978000Y-54379809D01*
X134216095Y-53903619D02*
X134216095Y-54903619D01*
X133835142Y-54903619D01*
X133739904Y-54856000D01*
X133692285Y-54808380D01*
X133644666Y-54713142D01*
X133644666Y-54570285D01*
X133692285Y-54475047D01*
X133739904Y-54427428D01*
X133835142Y-54379809D01*
X134216095Y-54379809D01*
X178078476Y-145946761D02*
X178221333Y-145994380D01*
X178459428Y-145994380D01*
X178554666Y-145946761D01*
X178602285Y-145899142D01*
X178649904Y-145803904D01*
X178649904Y-145708666D01*
X178602285Y-145613428D01*
X178554666Y-145565809D01*
X178459428Y-145518190D01*
X178268952Y-145470571D01*
X178173714Y-145422952D01*
X178126095Y-145375333D01*
X178078476Y-145280095D01*
X178078476Y-145184857D01*
X178126095Y-145089619D01*
X178173714Y-145042000D01*
X178268952Y-144994380D01*
X178507047Y-144994380D01*
X178649904Y-145042000D01*
X179221333Y-145994380D02*
X179126095Y-145946761D01*
X179078476Y-145899142D01*
X179030857Y-145803904D01*
X179030857Y-145518190D01*
X179078476Y-145422952D01*
X179126095Y-145375333D01*
X179221333Y-145327714D01*
X179364190Y-145327714D01*
X179459428Y-145375333D01*
X179507047Y-145422952D01*
X179554666Y-145518190D01*
X179554666Y-145803904D01*
X179507047Y-145899142D01*
X179459428Y-145946761D01*
X179364190Y-145994380D01*
X179221333Y-145994380D01*
X180126095Y-145994380D02*
X180030857Y-145946761D01*
X179983238Y-145851523D01*
X179983238Y-144994380D01*
X180935619Y-145994380D02*
X180935619Y-145470571D01*
X180888000Y-145375333D01*
X180792761Y-145327714D01*
X180602285Y-145327714D01*
X180507047Y-145375333D01*
X180935619Y-145946761D02*
X180840380Y-145994380D01*
X180602285Y-145994380D01*
X180507047Y-145946761D01*
X180459428Y-145851523D01*
X180459428Y-145756285D01*
X180507047Y-145661047D01*
X180602285Y-145613428D01*
X180840380Y-145613428D01*
X180935619Y-145565809D01*
X181411809Y-145994380D02*
X181411809Y-145327714D01*
X181411809Y-145518190D02*
X181459428Y-145422952D01*
X181507047Y-145375333D01*
X181602285Y-145327714D01*
X181697523Y-145327714D01*
X182792761Y-145994380D02*
X182792761Y-144994380D01*
X183268952Y-145327714D02*
X183268952Y-145994380D01*
X183268952Y-145422952D02*
X183316571Y-145375333D01*
X183411809Y-145327714D01*
X183554666Y-145327714D01*
X183649904Y-145375333D01*
X183697523Y-145470571D01*
X183697523Y-145994380D01*
X184173714Y-145327714D02*
X184173714Y-146327714D01*
X184173714Y-145375333D02*
X184268952Y-145327714D01*
X184459428Y-145327714D01*
X184554666Y-145375333D01*
X184602285Y-145422952D01*
X184649904Y-145518190D01*
X184649904Y-145803904D01*
X184602285Y-145899142D01*
X184554666Y-145946761D01*
X184459428Y-145994380D01*
X184268952Y-145994380D01*
X184173714Y-145946761D01*
X185507047Y-145327714D02*
X185507047Y-145994380D01*
X185078476Y-145327714D02*
X185078476Y-145851523D01*
X185126095Y-145946761D01*
X185221333Y-145994380D01*
X185364190Y-145994380D01*
X185459428Y-145946761D01*
X185507047Y-145899142D01*
X185840380Y-145327714D02*
X186221333Y-145327714D01*
X185983238Y-144994380D02*
X185983238Y-145851523D01*
X186030857Y-145946761D01*
X186126095Y-145994380D01*
X186221333Y-145994380D01*
X187268952Y-145708666D02*
X187745142Y-145708666D01*
X187173714Y-145994380D02*
X187507047Y-144994380D01*
X187840380Y-145994380D01*
X188697523Y-145994380D02*
X188126095Y-145994380D01*
X188411809Y-145994380D02*
X188411809Y-144994380D01*
X188316571Y-145137238D01*
X188221333Y-145232476D01*
X188126095Y-145280095D01*
X190904761Y-80747523D02*
X190952380Y-80604666D01*
X190952380Y-80366571D01*
X190904761Y-80271333D01*
X190857142Y-80223714D01*
X190761904Y-80176095D01*
X190666666Y-80176095D01*
X190571428Y-80223714D01*
X190523809Y-80271333D01*
X190476190Y-80366571D01*
X190428571Y-80557047D01*
X190380952Y-80652285D01*
X190333333Y-80699904D01*
X190238095Y-80747523D01*
X190142857Y-80747523D01*
X190047619Y-80699904D01*
X190000000Y-80652285D01*
X189952380Y-80557047D01*
X189952380Y-80318952D01*
X190000000Y-80176095D01*
X190952380Y-79604666D02*
X190904761Y-79699904D01*
X190857142Y-79747523D01*
X190761904Y-79795142D01*
X190476190Y-79795142D01*
X190380952Y-79747523D01*
X190333333Y-79699904D01*
X190285714Y-79604666D01*
X190285714Y-79461809D01*
X190333333Y-79366571D01*
X190380952Y-79318952D01*
X190476190Y-79271333D01*
X190761904Y-79271333D01*
X190857142Y-79318952D01*
X190904761Y-79366571D01*
X190952380Y-79461809D01*
X190952380Y-79604666D01*
X190952380Y-78699904D02*
X190904761Y-78795142D01*
X190809523Y-78842761D01*
X189952380Y-78842761D01*
X190952380Y-77890380D02*
X190428571Y-77890380D01*
X190333333Y-77938000D01*
X190285714Y-78033238D01*
X190285714Y-78223714D01*
X190333333Y-78318952D01*
X190904761Y-77890380D02*
X190952380Y-77985619D01*
X190952380Y-78223714D01*
X190904761Y-78318952D01*
X190809523Y-78366571D01*
X190714285Y-78366571D01*
X190619047Y-78318952D01*
X190571428Y-78223714D01*
X190571428Y-77985619D01*
X190523809Y-77890380D01*
X190952380Y-77414190D02*
X190285714Y-77414190D01*
X190476190Y-77414190D02*
X190380952Y-77366571D01*
X190333333Y-77318952D01*
X190285714Y-77223714D01*
X190285714Y-77128476D01*
X190952380Y-76033238D02*
X189952380Y-76033238D01*
X190285714Y-75557047D02*
X190952380Y-75557047D01*
X190380952Y-75557047D02*
X190333333Y-75509428D01*
X190285714Y-75414190D01*
X190285714Y-75271333D01*
X190333333Y-75176095D01*
X190428571Y-75128476D01*
X190952380Y-75128476D01*
X190285714Y-74652285D02*
X191285714Y-74652285D01*
X190333333Y-74652285D02*
X190285714Y-74557047D01*
X190285714Y-74366571D01*
X190333333Y-74271333D01*
X190380952Y-74223714D01*
X190476190Y-74176095D01*
X190761904Y-74176095D01*
X190857142Y-74223714D01*
X190904761Y-74271333D01*
X190952380Y-74366571D01*
X190952380Y-74557047D01*
X190904761Y-74652285D01*
X190285714Y-73318952D02*
X190952380Y-73318952D01*
X190285714Y-73747523D02*
X190809523Y-73747523D01*
X190904761Y-73699904D01*
X190952380Y-73604666D01*
X190952380Y-73461809D01*
X190904761Y-73366571D01*
X190857142Y-73318952D01*
X190285714Y-72985619D02*
X190285714Y-72604666D01*
X189952380Y-72842761D02*
X190809523Y-72842761D01*
X190904761Y-72795142D01*
X190952380Y-72699904D01*
X190952380Y-72604666D01*
X190666666Y-71557047D02*
X190666666Y-71080857D01*
X190952380Y-71652285D02*
X189952380Y-71318952D01*
X190952380Y-70985619D01*
X190047619Y-70699904D02*
X190000000Y-70652285D01*
X189952380Y-70557047D01*
X189952380Y-70318952D01*
X190000000Y-70223714D01*
X190047619Y-70176095D01*
X190142857Y-70128476D01*
X190238095Y-70128476D01*
X190380952Y-70176095D01*
X190952380Y-70747523D01*
X190952380Y-70128476D01*
X102211238Y-131525047D02*
X102163619Y-131667904D01*
X102163619Y-131906000D01*
X102211238Y-132001238D01*
X102258857Y-132048857D01*
X102354095Y-132096476D01*
X102449333Y-132096476D01*
X102544571Y-132048857D01*
X102592190Y-132001238D01*
X102639809Y-131906000D01*
X102687428Y-131715523D01*
X102735047Y-131620285D01*
X102782666Y-131572666D01*
X102877904Y-131525047D01*
X102973142Y-131525047D01*
X103068380Y-131572666D01*
X103116000Y-131620285D01*
X103163619Y-131715523D01*
X103163619Y-131953619D01*
X103116000Y-132096476D01*
X102163619Y-132667904D02*
X102211238Y-132572666D01*
X102258857Y-132525047D01*
X102354095Y-132477428D01*
X102639809Y-132477428D01*
X102735047Y-132525047D01*
X102782666Y-132572666D01*
X102830285Y-132667904D01*
X102830285Y-132810761D01*
X102782666Y-132906000D01*
X102735047Y-132953619D01*
X102639809Y-133001238D01*
X102354095Y-133001238D01*
X102258857Y-132953619D01*
X102211238Y-132906000D01*
X102163619Y-132810761D01*
X102163619Y-132667904D01*
X102163619Y-133572666D02*
X102211238Y-133477428D01*
X102306476Y-133429809D01*
X103163619Y-133429809D01*
X102163619Y-134382190D02*
X102687428Y-134382190D01*
X102782666Y-134334571D01*
X102830285Y-134239333D01*
X102830285Y-134048857D01*
X102782666Y-133953619D01*
X102211238Y-134382190D02*
X102163619Y-134286952D01*
X102163619Y-134048857D01*
X102211238Y-133953619D01*
X102306476Y-133906000D01*
X102401714Y-133906000D01*
X102496952Y-133953619D01*
X102544571Y-134048857D01*
X102544571Y-134286952D01*
X102592190Y-134382190D01*
X102163619Y-134858380D02*
X102830285Y-134858380D01*
X102639809Y-134858380D02*
X102735047Y-134906000D01*
X102782666Y-134953619D01*
X102830285Y-135048857D01*
X102830285Y-135144095D01*
X102163619Y-136239333D02*
X103163619Y-136239333D01*
X102830285Y-136715523D02*
X102163619Y-136715523D01*
X102735047Y-136715523D02*
X102782666Y-136763142D01*
X102830285Y-136858380D01*
X102830285Y-137001238D01*
X102782666Y-137096476D01*
X102687428Y-137144095D01*
X102163619Y-137144095D01*
X102830285Y-137620285D02*
X101830285Y-137620285D01*
X102782666Y-137620285D02*
X102830285Y-137715523D01*
X102830285Y-137906000D01*
X102782666Y-138001238D01*
X102735047Y-138048857D01*
X102639809Y-138096476D01*
X102354095Y-138096476D01*
X102258857Y-138048857D01*
X102211238Y-138001238D01*
X102163619Y-137906000D01*
X102163619Y-137715523D01*
X102211238Y-137620285D01*
X102830285Y-138953619D02*
X102163619Y-138953619D01*
X102830285Y-138525047D02*
X102306476Y-138525047D01*
X102211238Y-138572666D01*
X102163619Y-138667904D01*
X102163619Y-138810761D01*
X102211238Y-138906000D01*
X102258857Y-138953619D01*
X102830285Y-139286952D02*
X102830285Y-139667904D01*
X103163619Y-139429809D02*
X102306476Y-139429809D01*
X102211238Y-139477428D01*
X102163619Y-139572666D01*
X102163619Y-139667904D01*
X102687428Y-141096476D02*
X102639809Y-141239333D01*
X102592190Y-141286952D01*
X102496952Y-141334571D01*
X102354095Y-141334571D01*
X102258857Y-141286952D01*
X102211238Y-141239333D01*
X102163619Y-141144095D01*
X102163619Y-140763142D01*
X103163619Y-140763142D01*
X103163619Y-141096476D01*
X103116000Y-141191714D01*
X103068380Y-141239333D01*
X102973142Y-141286952D01*
X102877904Y-141286952D01*
X102782666Y-141239333D01*
X102735047Y-141191714D01*
X102687428Y-141096476D01*
X102687428Y-140763142D01*
X102163619Y-142286952D02*
X102163619Y-141715523D01*
X102163619Y-142001238D02*
X103163619Y-142001238D01*
X103020761Y-141906000D01*
X102925523Y-141810761D01*
X102877904Y-141715523D01*
X124702000Y-52903428D02*
X124559142Y-52855809D01*
X124511523Y-52808190D01*
X124463904Y-52712952D01*
X124463904Y-52570095D01*
X124511523Y-52474857D01*
X124559142Y-52427238D01*
X124654380Y-52379619D01*
X125035333Y-52379619D01*
X125035333Y-53379619D01*
X124702000Y-53379619D01*
X124606761Y-53332000D01*
X124559142Y-53284380D01*
X124511523Y-53189142D01*
X124511523Y-53093904D01*
X124559142Y-52998666D01*
X124606761Y-52951047D01*
X124702000Y-52903428D01*
X125035333Y-52903428D01*
X124082952Y-52665333D02*
X123606761Y-52665333D01*
X124178190Y-52379619D02*
X123844857Y-53379619D01*
X123511523Y-52379619D01*
X123321047Y-53379619D02*
X122749619Y-53379619D01*
X123035333Y-52379619D02*
X123035333Y-53379619D01*
X122559142Y-53379619D02*
X121987714Y-53379619D01*
X122273428Y-52379619D02*
X122273428Y-53379619D01*
X121654380Y-52903428D02*
X121321047Y-52903428D01*
X121178190Y-52379619D02*
X121654380Y-52379619D01*
X121654380Y-53379619D01*
X121178190Y-53379619D01*
X120178190Y-52379619D02*
X120511523Y-52855809D01*
X120749619Y-52379619D02*
X120749619Y-53379619D01*
X120368666Y-53379619D01*
X120273428Y-53332000D01*
X120225809Y-53284380D01*
X120178190Y-53189142D01*
X120178190Y-53046285D01*
X120225809Y-52951047D01*
X120273428Y-52903428D01*
X120368666Y-52855809D01*
X120749619Y-52855809D01*
X119559142Y-52855809D02*
X119559142Y-52379619D01*
X119892476Y-53379619D02*
X119559142Y-52855809D01*
X119225809Y-53379619D01*
X158354380Y-137078404D02*
X157354380Y-137078404D01*
X157354380Y-136697452D01*
X157402000Y-136602214D01*
X157449619Y-136554595D01*
X157544857Y-136506976D01*
X157687714Y-136506976D01*
X157782952Y-136554595D01*
X157830571Y-136602214D01*
X157878190Y-136697452D01*
X157878190Y-137078404D01*
X158354380Y-136078404D02*
X157687714Y-136078404D01*
X157354380Y-136078404D02*
X157402000Y-136126023D01*
X157449619Y-136078404D01*
X157402000Y-136030785D01*
X157354380Y-136078404D01*
X157449619Y-136078404D01*
X158354380Y-135602214D02*
X157687714Y-135602214D01*
X157878190Y-135602214D02*
X157782952Y-135554595D01*
X157735333Y-135506976D01*
X157687714Y-135411738D01*
X157687714Y-135316500D01*
X158354380Y-134983166D02*
X157687714Y-134983166D01*
X157354380Y-134983166D02*
X157402000Y-135030785D01*
X157449619Y-134983166D01*
X157402000Y-134935547D01*
X157354380Y-134983166D01*
X157449619Y-134983166D01*
X158354380Y-134078404D02*
X157354380Y-134078404D01*
X158306761Y-134078404D02*
X158354380Y-134173642D01*
X158354380Y-134364119D01*
X158306761Y-134459357D01*
X158259142Y-134506976D01*
X158163904Y-134554595D01*
X157878190Y-134554595D01*
X157782952Y-134506976D01*
X157735333Y-134459357D01*
X157687714Y-134364119D01*
X157687714Y-134173642D01*
X157735333Y-134078404D01*
X158354380Y-133602214D02*
X157687714Y-133602214D01*
X157354380Y-133602214D02*
X157402000Y-133649833D01*
X157449619Y-133602214D01*
X157402000Y-133554595D01*
X157354380Y-133602214D01*
X157449619Y-133602214D01*
X157687714Y-132697452D02*
X158354380Y-132697452D01*
X157687714Y-133126023D02*
X158211523Y-133126023D01*
X158306761Y-133078404D01*
X158354380Y-132983166D01*
X158354380Y-132840309D01*
X158306761Y-132745071D01*
X158259142Y-132697452D01*
X158354380Y-132221261D02*
X157687714Y-132221261D01*
X157782952Y-132221261D02*
X157735333Y-132173642D01*
X157687714Y-132078404D01*
X157687714Y-131935547D01*
X157735333Y-131840309D01*
X157830571Y-131792690D01*
X158354380Y-131792690D01*
X157830571Y-131792690D02*
X157735333Y-131745071D01*
X157687714Y-131649833D01*
X157687714Y-131506976D01*
X157735333Y-131411738D01*
X157830571Y-131364119D01*
X158354380Y-131364119D01*
X158068666Y-130173642D02*
X158068666Y-129697452D01*
X158354380Y-130268880D02*
X157354380Y-129935547D01*
X158354380Y-129602214D01*
X157687714Y-129364119D02*
X158354380Y-129126023D01*
X157687714Y-128887928D01*
X158354380Y-128506976D02*
X157687714Y-128506976D01*
X157354380Y-128506976D02*
X157402000Y-128554595D01*
X157449619Y-128506976D01*
X157402000Y-128459357D01*
X157354380Y-128506976D01*
X157449619Y-128506976D01*
X158354380Y-127887928D02*
X158306761Y-127983166D01*
X158259142Y-128030785D01*
X158163904Y-128078404D01*
X157878190Y-128078404D01*
X157782952Y-128030785D01*
X157735333Y-127983166D01*
X157687714Y-127887928D01*
X157687714Y-127745071D01*
X157735333Y-127649833D01*
X157782952Y-127602214D01*
X157878190Y-127554595D01*
X158163904Y-127554595D01*
X158259142Y-127602214D01*
X158306761Y-127649833D01*
X158354380Y-127745071D01*
X158354380Y-127887928D01*
X157687714Y-127126023D02*
X158354380Y-127126023D01*
X157782952Y-127126023D02*
X157735333Y-127078404D01*
X157687714Y-126983166D01*
X157687714Y-126840309D01*
X157735333Y-126745071D01*
X157830571Y-126697452D01*
X158354380Y-126697452D01*
X158354380Y-126221261D02*
X157687714Y-126221261D01*
X157354380Y-126221261D02*
X157402000Y-126268880D01*
X157449619Y-126221261D01*
X157402000Y-126173642D01*
X157354380Y-126221261D01*
X157449619Y-126221261D01*
X158306761Y-125316500D02*
X158354380Y-125411738D01*
X158354380Y-125602214D01*
X158306761Y-125697452D01*
X158259142Y-125745071D01*
X158163904Y-125792690D01*
X157878190Y-125792690D01*
X157782952Y-125745071D01*
X157735333Y-125697452D01*
X157687714Y-125602214D01*
X157687714Y-125411738D01*
X157735333Y-125316500D01*
X158306761Y-124935547D02*
X158354380Y-124840309D01*
X158354380Y-124649833D01*
X158306761Y-124554595D01*
X158211523Y-124506976D01*
X158163904Y-124506976D01*
X158068666Y-124554595D01*
X158021047Y-124649833D01*
X158021047Y-124792690D01*
X157973428Y-124887928D01*
X157878190Y-124935547D01*
X157830571Y-124935547D01*
X157735333Y-124887928D01*
X157687714Y-124792690D01*
X157687714Y-124649833D01*
X157735333Y-124554595D01*
X157830571Y-122983166D02*
X157878190Y-122840309D01*
X157925809Y-122792690D01*
X158021047Y-122745071D01*
X158163904Y-122745071D01*
X158259142Y-122792690D01*
X158306761Y-122840309D01*
X158354380Y-122935547D01*
X158354380Y-123316500D01*
X157354380Y-123316500D01*
X157354380Y-122983166D01*
X157402000Y-122887928D01*
X157449619Y-122840309D01*
X157544857Y-122792690D01*
X157640095Y-122792690D01*
X157735333Y-122840309D01*
X157782952Y-122887928D01*
X157830571Y-122983166D01*
X157830571Y-123316500D01*
X158354380Y-122173642D02*
X158306761Y-122268880D01*
X158259142Y-122316500D01*
X158163904Y-122364119D01*
X157878190Y-122364119D01*
X157782952Y-122316500D01*
X157735333Y-122268880D01*
X157687714Y-122173642D01*
X157687714Y-122030785D01*
X157735333Y-121935547D01*
X157782952Y-121887928D01*
X157878190Y-121840309D01*
X158163904Y-121840309D01*
X158259142Y-121887928D01*
X158306761Y-121935547D01*
X158354380Y-122030785D01*
X158354380Y-122173642D01*
X158354380Y-120983166D02*
X157830571Y-120983166D01*
X157735333Y-121030785D01*
X157687714Y-121126023D01*
X157687714Y-121316500D01*
X157735333Y-121411738D01*
X158306761Y-120983166D02*
X158354380Y-121078404D01*
X158354380Y-121316500D01*
X158306761Y-121411738D01*
X158211523Y-121459357D01*
X158116285Y-121459357D01*
X158021047Y-121411738D01*
X157973428Y-121316500D01*
X157973428Y-121078404D01*
X157925809Y-120983166D01*
X158354380Y-120506976D02*
X157687714Y-120506976D01*
X157878190Y-120506976D02*
X157782952Y-120459357D01*
X157735333Y-120411738D01*
X157687714Y-120316500D01*
X157687714Y-120221261D01*
X158354380Y-119459357D02*
X157354380Y-119459357D01*
X158306761Y-119459357D02*
X158354380Y-119554595D01*
X158354380Y-119745071D01*
X158306761Y-119840309D01*
X158259142Y-119887928D01*
X158163904Y-119935547D01*
X157878190Y-119935547D01*
X157782952Y-119887928D01*
X157735333Y-119840309D01*
X157687714Y-119745071D01*
X157687714Y-119554595D01*
X157735333Y-119459357D01*
X159297714Y-136649833D02*
X160107238Y-136649833D01*
X160202476Y-136697452D01*
X160250095Y-136745071D01*
X160297714Y-136840309D01*
X160297714Y-136983166D01*
X160250095Y-137078404D01*
X159916761Y-136649833D02*
X159964380Y-136745071D01*
X159964380Y-136935547D01*
X159916761Y-137030785D01*
X159869142Y-137078404D01*
X159773904Y-137126023D01*
X159488190Y-137126023D01*
X159392952Y-137078404D01*
X159345333Y-137030785D01*
X159297714Y-136935547D01*
X159297714Y-136745071D01*
X159345333Y-136649833D01*
X159964380Y-136173642D02*
X159297714Y-136173642D01*
X158964380Y-136173642D02*
X159012000Y-136221261D01*
X159059619Y-136173642D01*
X159012000Y-136126023D01*
X158964380Y-136173642D01*
X159059619Y-136173642D01*
X159297714Y-135840309D02*
X159297714Y-135459357D01*
X158964380Y-135697452D02*
X159821523Y-135697452D01*
X159916761Y-135649833D01*
X159964380Y-135554595D01*
X159964380Y-135459357D01*
X159964380Y-135126023D02*
X158964380Y-135126023D01*
X159964380Y-134697452D02*
X159440571Y-134697452D01*
X159345333Y-134745071D01*
X159297714Y-134840309D01*
X159297714Y-134983166D01*
X159345333Y-135078404D01*
X159392952Y-135126023D01*
X159297714Y-133792690D02*
X159964380Y-133792690D01*
X159297714Y-134221261D02*
X159821523Y-134221261D01*
X159916761Y-134173642D01*
X159964380Y-134078404D01*
X159964380Y-133935547D01*
X159916761Y-133840309D01*
X159869142Y-133792690D01*
X159964380Y-133316500D02*
X158964380Y-133316500D01*
X159345333Y-133316500D02*
X159297714Y-133221261D01*
X159297714Y-133030785D01*
X159345333Y-132935547D01*
X159392952Y-132887928D01*
X159488190Y-132840309D01*
X159773904Y-132840309D01*
X159869142Y-132887928D01*
X159916761Y-132935547D01*
X159964380Y-133030785D01*
X159964380Y-133221261D01*
X159916761Y-133316500D01*
X159869142Y-132411738D02*
X159916761Y-132364119D01*
X159964380Y-132411738D01*
X159916761Y-132459357D01*
X159869142Y-132411738D01*
X159964380Y-132411738D01*
X159916761Y-131506976D02*
X159964380Y-131602214D01*
X159964380Y-131792690D01*
X159916761Y-131887928D01*
X159869142Y-131935547D01*
X159773904Y-131983166D01*
X159488190Y-131983166D01*
X159392952Y-131935547D01*
X159345333Y-131887928D01*
X159297714Y-131792690D01*
X159297714Y-131602214D01*
X159345333Y-131506976D01*
X159964380Y-130935547D02*
X159916761Y-131030785D01*
X159869142Y-131078404D01*
X159773904Y-131126023D01*
X159488190Y-131126023D01*
X159392952Y-131078404D01*
X159345333Y-131030785D01*
X159297714Y-130935547D01*
X159297714Y-130792690D01*
X159345333Y-130697452D01*
X159392952Y-130649833D01*
X159488190Y-130602214D01*
X159773904Y-130602214D01*
X159869142Y-130649833D01*
X159916761Y-130697452D01*
X159964380Y-130792690D01*
X159964380Y-130935547D01*
X159964380Y-130173642D02*
X159297714Y-130173642D01*
X159392952Y-130173642D02*
X159345333Y-130126023D01*
X159297714Y-130030785D01*
X159297714Y-129887928D01*
X159345333Y-129792690D01*
X159440571Y-129745071D01*
X159964380Y-129745071D01*
X159440571Y-129745071D02*
X159345333Y-129697452D01*
X159297714Y-129602214D01*
X159297714Y-129459357D01*
X159345333Y-129364119D01*
X159440571Y-129316500D01*
X159964380Y-129316500D01*
X158916761Y-128126023D02*
X160202476Y-128983166D01*
X159678666Y-127840309D02*
X159678666Y-127364119D01*
X159964380Y-127935547D02*
X158964380Y-127602214D01*
X159964380Y-127268880D01*
X159964380Y-126792690D02*
X159916761Y-126887928D01*
X159821523Y-126935547D01*
X158964380Y-126935547D01*
X159964380Y-125983166D02*
X159440571Y-125983166D01*
X159345333Y-126030785D01*
X159297714Y-126126023D01*
X159297714Y-126316500D01*
X159345333Y-126411738D01*
X159916761Y-125983166D02*
X159964380Y-126078404D01*
X159964380Y-126316500D01*
X159916761Y-126411738D01*
X159821523Y-126459357D01*
X159726285Y-126459357D01*
X159631047Y-126411738D01*
X159583428Y-126316500D01*
X159583428Y-126078404D01*
X159535809Y-125983166D01*
X159297714Y-125506976D02*
X159964380Y-125506976D01*
X159392952Y-125506976D02*
X159345333Y-125459357D01*
X159297714Y-125364119D01*
X159297714Y-125221261D01*
X159345333Y-125126023D01*
X159440571Y-125078404D01*
X159964380Y-125078404D01*
X159583428Y-124602214D02*
X159583428Y-123840309D01*
X158964380Y-123078404D02*
X159678666Y-123078404D01*
X159821523Y-123126023D01*
X159916761Y-123221261D01*
X159964380Y-123364119D01*
X159964380Y-123459357D01*
X159964380Y-122602214D02*
X158964380Y-122602214D01*
X159440571Y-122602214D02*
X159440571Y-122030785D01*
X159964380Y-122030785D02*
X158964380Y-122030785D01*
X158916761Y-120840309D02*
X160202476Y-121697452D01*
X159297714Y-120506976D02*
X160297714Y-120506976D01*
X159345333Y-120506976D02*
X159297714Y-120411738D01*
X159297714Y-120221261D01*
X159345333Y-120126023D01*
X159392952Y-120078404D01*
X159488190Y-120030785D01*
X159773904Y-120030785D01*
X159869142Y-120078404D01*
X159916761Y-120126023D01*
X159964380Y-120221261D01*
X159964380Y-120411738D01*
X159916761Y-120506976D01*
X159964380Y-119602214D02*
X159297714Y-119602214D01*
X158964380Y-119602214D02*
X159012000Y-119649833D01*
X159059619Y-119602214D01*
X159012000Y-119554595D01*
X158964380Y-119602214D01*
X159059619Y-119602214D01*
X159964380Y-119126023D02*
X159297714Y-119126023D01*
X159488190Y-119126023D02*
X159392952Y-119078404D01*
X159345333Y-119030785D01*
X159297714Y-118935547D01*
X159297714Y-118840309D01*
X159964380Y-118506976D02*
X159297714Y-118506976D01*
X158964380Y-118506976D02*
X159012000Y-118554595D01*
X159059619Y-118506976D01*
X159012000Y-118459357D01*
X158964380Y-118506976D01*
X159059619Y-118506976D01*
X159964380Y-117602214D02*
X158964380Y-117602214D01*
X159916761Y-117602214D02*
X159964380Y-117697452D01*
X159964380Y-117887928D01*
X159916761Y-117983166D01*
X159869142Y-118030785D01*
X159773904Y-118078404D01*
X159488190Y-118078404D01*
X159392952Y-118030785D01*
X159345333Y-117983166D01*
X159297714Y-117887928D01*
X159297714Y-117697452D01*
X159345333Y-117602214D01*
X159964380Y-117126023D02*
X159297714Y-117126023D01*
X158964380Y-117126023D02*
X159012000Y-117173642D01*
X159059619Y-117126023D01*
X159012000Y-117078404D01*
X158964380Y-117126023D01*
X159059619Y-117126023D01*
X159297714Y-116221261D02*
X159964380Y-116221261D01*
X159297714Y-116649833D02*
X159821523Y-116649833D01*
X159916761Y-116602214D01*
X159964380Y-116506976D01*
X159964380Y-116364119D01*
X159916761Y-116268880D01*
X159869142Y-116221261D01*
X159964380Y-115745071D02*
X159297714Y-115745071D01*
X159392952Y-115745071D02*
X159345333Y-115697452D01*
X159297714Y-115602214D01*
X159297714Y-115459357D01*
X159345333Y-115364119D01*
X159440571Y-115316500D01*
X159964380Y-115316500D01*
X159440571Y-115316500D02*
X159345333Y-115268880D01*
X159297714Y-115173642D01*
X159297714Y-115030785D01*
X159345333Y-114935547D01*
X159440571Y-114887928D01*
X159964380Y-114887928D01*
X159583428Y-114411738D02*
X159583428Y-113649833D01*
X159964380Y-113173642D02*
X158964380Y-113173642D01*
X159345333Y-113173642D02*
X159297714Y-113078404D01*
X159297714Y-112887928D01*
X159345333Y-112792690D01*
X159392952Y-112745071D01*
X159488190Y-112697452D01*
X159773904Y-112697452D01*
X159869142Y-112745071D01*
X159916761Y-112792690D01*
X159964380Y-112887928D01*
X159964380Y-113078404D01*
X159916761Y-113173642D01*
X159297714Y-111840309D02*
X159964380Y-111840309D01*
X159297714Y-112268880D02*
X159821523Y-112268880D01*
X159916761Y-112221261D01*
X159964380Y-112126023D01*
X159964380Y-111983166D01*
X159916761Y-111887928D01*
X159869142Y-111840309D01*
X159916761Y-111411738D02*
X159964380Y-111316500D01*
X159964380Y-111126023D01*
X159916761Y-111030785D01*
X159821523Y-110983166D01*
X159773904Y-110983166D01*
X159678666Y-111030785D01*
X159631047Y-111126023D01*
X159631047Y-111268880D01*
X159583428Y-111364119D01*
X159488190Y-111411738D01*
X159440571Y-111411738D01*
X159345333Y-111364119D01*
X159297714Y-111268880D01*
X159297714Y-111126023D01*
X159345333Y-111030785D01*
X160907714Y-137173642D02*
X161574380Y-136935547D01*
X160907714Y-136697452D01*
X160669619Y-136364119D02*
X160622000Y-136316500D01*
X160574380Y-136221261D01*
X160574380Y-135983166D01*
X160622000Y-135887928D01*
X160669619Y-135840309D01*
X160764857Y-135792690D01*
X160860095Y-135792690D01*
X161002952Y-135840309D01*
X161574380Y-136411738D01*
X161574380Y-135792690D01*
X124159047Y-143660761D02*
X124301904Y-143708380D01*
X124540000Y-143708380D01*
X124635238Y-143660761D01*
X124682857Y-143613142D01*
X124730476Y-143517904D01*
X124730476Y-143422666D01*
X124682857Y-143327428D01*
X124635238Y-143279809D01*
X124540000Y-143232190D01*
X124349523Y-143184571D01*
X124254285Y-143136952D01*
X124206666Y-143089333D01*
X124159047Y-142994095D01*
X124159047Y-142898857D01*
X124206666Y-142803619D01*
X124254285Y-142756000D01*
X124349523Y-142708380D01*
X124587619Y-142708380D01*
X124730476Y-142756000D01*
X125301904Y-143708380D02*
X125206666Y-143660761D01*
X125159047Y-143613142D01*
X125111428Y-143517904D01*
X125111428Y-143232190D01*
X125159047Y-143136952D01*
X125206666Y-143089333D01*
X125301904Y-143041714D01*
X125444761Y-143041714D01*
X125540000Y-143089333D01*
X125587619Y-143136952D01*
X125635238Y-143232190D01*
X125635238Y-143517904D01*
X125587619Y-143613142D01*
X125540000Y-143660761D01*
X125444761Y-143708380D01*
X125301904Y-143708380D01*
X126206666Y-143708380D02*
X126111428Y-143660761D01*
X126063809Y-143565523D01*
X126063809Y-142708380D01*
X127016190Y-143708380D02*
X127016190Y-143184571D01*
X126968571Y-143089333D01*
X126873333Y-143041714D01*
X126682857Y-143041714D01*
X126587619Y-143089333D01*
X127016190Y-143660761D02*
X126920952Y-143708380D01*
X126682857Y-143708380D01*
X126587619Y-143660761D01*
X126540000Y-143565523D01*
X126540000Y-143470285D01*
X126587619Y-143375047D01*
X126682857Y-143327428D01*
X126920952Y-143327428D01*
X127016190Y-143279809D01*
X127492380Y-143708380D02*
X127492380Y-143041714D01*
X127492380Y-143232190D02*
X127540000Y-143136952D01*
X127587619Y-143089333D01*
X127682857Y-143041714D01*
X127778095Y-143041714D01*
X128873333Y-143708380D02*
X128873333Y-142708380D01*
X129349523Y-143041714D02*
X129349523Y-143708380D01*
X129349523Y-143136952D02*
X129397142Y-143089333D01*
X129492380Y-143041714D01*
X129635238Y-143041714D01*
X129730476Y-143089333D01*
X129778095Y-143184571D01*
X129778095Y-143708380D01*
X130254285Y-143041714D02*
X130254285Y-144041714D01*
X130254285Y-143089333D02*
X130349523Y-143041714D01*
X130540000Y-143041714D01*
X130635238Y-143089333D01*
X130682857Y-143136952D01*
X130730476Y-143232190D01*
X130730476Y-143517904D01*
X130682857Y-143613142D01*
X130635238Y-143660761D01*
X130540000Y-143708380D01*
X130349523Y-143708380D01*
X130254285Y-143660761D01*
X131587619Y-143041714D02*
X131587619Y-143708380D01*
X131159047Y-143041714D02*
X131159047Y-143565523D01*
X131206666Y-143660761D01*
X131301904Y-143708380D01*
X131444761Y-143708380D01*
X131540000Y-143660761D01*
X131587619Y-143613142D01*
X131920952Y-143041714D02*
X132301904Y-143041714D01*
X132063809Y-142708380D02*
X132063809Y-143565523D01*
X132111428Y-143660761D01*
X132206666Y-143708380D01*
X132301904Y-143708380D01*
X133730476Y-143184571D02*
X133873333Y-143232190D01*
X133920952Y-143279809D01*
X133968571Y-143375047D01*
X133968571Y-143517904D01*
X133920952Y-143613142D01*
X133873333Y-143660761D01*
X133778095Y-143708380D01*
X133397142Y-143708380D01*
X133397142Y-142708380D01*
X133730476Y-142708380D01*
X133825714Y-142756000D01*
X133873333Y-142803619D01*
X133920952Y-142898857D01*
X133920952Y-142994095D01*
X133873333Y-143089333D01*
X133825714Y-143136952D01*
X133730476Y-143184571D01*
X133397142Y-143184571D01*
X134349523Y-142803619D02*
X134397142Y-142756000D01*
X134492380Y-142708380D01*
X134730476Y-142708380D01*
X134825714Y-142756000D01*
X134873333Y-142803619D01*
X134920952Y-142898857D01*
X134920952Y-142994095D01*
X134873333Y-143136952D01*
X134301904Y-143708380D01*
X134920952Y-143708380D01*
%TO.C,MH1*%
X109156666Y-52532380D02*
X109156666Y-51532380D01*
X109490000Y-52246666D01*
X109823333Y-51532380D01*
X109823333Y-52532380D01*
X110299523Y-52532380D02*
X110299523Y-51532380D01*
X110299523Y-52008571D02*
X110870952Y-52008571D01*
X110870952Y-52532380D02*
X110870952Y-51532380D01*
X111870952Y-52532380D02*
X111299523Y-52532380D01*
X111585238Y-52532380D02*
X111585238Y-51532380D01*
X111490000Y-51675238D01*
X111394761Y-51770476D01*
X111299523Y-51818095D01*
%TO.C,MH2*%
X182816666Y-52532380D02*
X182816666Y-51532380D01*
X183150000Y-52246666D01*
X183483333Y-51532380D01*
X183483333Y-52532380D01*
X183959523Y-52532380D02*
X183959523Y-51532380D01*
X183959523Y-52008571D02*
X184530952Y-52008571D01*
X184530952Y-52532380D02*
X184530952Y-51532380D01*
X184959523Y-51627619D02*
X185007142Y-51580000D01*
X185102380Y-51532380D01*
X185340476Y-51532380D01*
X185435714Y-51580000D01*
X185483333Y-51627619D01*
X185530952Y-51722857D01*
X185530952Y-51818095D01*
X185483333Y-51960952D01*
X184911904Y-52532380D01*
X185530952Y-52532380D01*
%TO.C,MH3*%
X185356666Y-138262380D02*
X185356666Y-137262380D01*
X185690000Y-137976666D01*
X186023333Y-137262380D01*
X186023333Y-138262380D01*
X186499523Y-138262380D02*
X186499523Y-137262380D01*
X186499523Y-137738571D02*
X187070952Y-137738571D01*
X187070952Y-138262380D02*
X187070952Y-137262380D01*
X187451904Y-137262380D02*
X188070952Y-137262380D01*
X187737619Y-137643333D01*
X187880476Y-137643333D01*
X187975714Y-137690952D01*
X188023333Y-137738571D01*
X188070952Y-137833809D01*
X188070952Y-138071904D01*
X188023333Y-138167142D01*
X187975714Y-138214761D01*
X187880476Y-138262380D01*
X187594761Y-138262380D01*
X187499523Y-138214761D01*
X187451904Y-138167142D01*
%TO.C,MH4*%
X105346666Y-138262380D02*
X105346666Y-137262380D01*
X105680000Y-137976666D01*
X106013333Y-137262380D01*
X106013333Y-138262380D01*
X106489523Y-138262380D02*
X106489523Y-137262380D01*
X106489523Y-137738571D02*
X107060952Y-137738571D01*
X107060952Y-138262380D02*
X107060952Y-137262380D01*
X107965714Y-137595714D02*
X107965714Y-138262380D01*
X107727619Y-137214761D02*
X107489523Y-137929047D01*
X108108571Y-137929047D01*
%TO.C,A2*%
X165655714Y-64420666D02*
X166131904Y-64420666D01*
X165560476Y-64706380D02*
X165893809Y-63706380D01*
X166227142Y-64706380D01*
X166512857Y-63801619D02*
X166560476Y-63754000D01*
X166655714Y-63706380D01*
X166893809Y-63706380D01*
X166989047Y-63754000D01*
X167036666Y-63801619D01*
X167084285Y-63896857D01*
X167084285Y-63992095D01*
X167036666Y-64134952D01*
X166465238Y-64706380D01*
X167084285Y-64706380D01*
X163965238Y-62412571D02*
X164108095Y-62460190D01*
X164155714Y-62507809D01*
X164203333Y-62603047D01*
X164203333Y-62745904D01*
X164155714Y-62841142D01*
X164108095Y-62888761D01*
X164012857Y-62936380D01*
X163631904Y-62936380D01*
X163631904Y-61936380D01*
X163965238Y-61936380D01*
X164060476Y-61984000D01*
X164108095Y-62031619D01*
X164155714Y-62126857D01*
X164155714Y-62222095D01*
X164108095Y-62317333D01*
X164060476Y-62364952D01*
X163965238Y-62412571D01*
X163631904Y-62412571D01*
X164631904Y-62936380D02*
X164631904Y-61936380D01*
X165203333Y-62936380D01*
X165203333Y-61936380D01*
X165870000Y-61936380D02*
X166060476Y-61936380D01*
X166155714Y-61984000D01*
X166250952Y-62079238D01*
X166298571Y-62269714D01*
X166298571Y-62603047D01*
X166250952Y-62793523D01*
X166155714Y-62888761D01*
X166060476Y-62936380D01*
X165870000Y-62936380D01*
X165774761Y-62888761D01*
X165679523Y-62793523D01*
X165631904Y-62603047D01*
X165631904Y-62269714D01*
X165679523Y-62079238D01*
X165774761Y-61984000D01*
X165870000Y-61936380D01*
X166917619Y-61936380D02*
X167012857Y-61936380D01*
X167108095Y-61984000D01*
X167155714Y-62031619D01*
X167203333Y-62126857D01*
X167250952Y-62317333D01*
X167250952Y-62555428D01*
X167203333Y-62745904D01*
X167155714Y-62841142D01*
X167108095Y-62888761D01*
X167012857Y-62936380D01*
X166917619Y-62936380D01*
X166822380Y-62888761D01*
X166774761Y-62841142D01*
X166727142Y-62745904D01*
X166679523Y-62555428D01*
X166679523Y-62317333D01*
X166727142Y-62126857D01*
X166774761Y-62031619D01*
X166822380Y-61984000D01*
X166917619Y-61936380D01*
X168155714Y-61936380D02*
X167679523Y-61936380D01*
X167631904Y-62412571D01*
X167679523Y-62364952D01*
X167774761Y-62317333D01*
X168012857Y-62317333D01*
X168108095Y-62364952D01*
X168155714Y-62412571D01*
X168203333Y-62507809D01*
X168203333Y-62745904D01*
X168155714Y-62841142D01*
X168108095Y-62888761D01*
X168012857Y-62936380D01*
X167774761Y-62936380D01*
X167679523Y-62888761D01*
X167631904Y-62841142D01*
X169108095Y-61936380D02*
X168631904Y-61936380D01*
X168584285Y-62412571D01*
X168631904Y-62364952D01*
X168727142Y-62317333D01*
X168965238Y-62317333D01*
X169060476Y-62364952D01*
X169108095Y-62412571D01*
X169155714Y-62507809D01*
X169155714Y-62745904D01*
X169108095Y-62841142D01*
X169060476Y-62888761D01*
X168965238Y-62936380D01*
X168727142Y-62936380D01*
X168631904Y-62888761D01*
X168584285Y-62841142D01*
%TO.C,J7*%
X188896666Y-60412380D02*
X188896666Y-61126666D01*
X188849047Y-61269523D01*
X188753809Y-61364761D01*
X188610952Y-61412380D01*
X188515714Y-61412380D01*
X189277619Y-60412380D02*
X189944285Y-60412380D01*
X189515714Y-61412380D01*
%TO.C,R45*%
X178323642Y-105608380D02*
X177990309Y-105132190D01*
X177752214Y-105608380D02*
X177752214Y-104608380D01*
X178133166Y-104608380D01*
X178228404Y-104656000D01*
X178276023Y-104703619D01*
X178323642Y-104798857D01*
X178323642Y-104941714D01*
X178276023Y-105036952D01*
X178228404Y-105084571D01*
X178133166Y-105132190D01*
X177752214Y-105132190D01*
X179180785Y-104941714D02*
X179180785Y-105608380D01*
X178942690Y-104560761D02*
X178704595Y-105275047D01*
X179323642Y-105275047D01*
X180180785Y-104608380D02*
X179704595Y-104608380D01*
X179656976Y-105084571D01*
X179704595Y-105036952D01*
X179799833Y-104989333D01*
X180037928Y-104989333D01*
X180133166Y-105036952D01*
X180180785Y-105084571D01*
X180228404Y-105179809D01*
X180228404Y-105417904D01*
X180180785Y-105513142D01*
X180133166Y-105560761D01*
X180037928Y-105608380D01*
X179799833Y-105608380D01*
X179704595Y-105560761D01*
X179656976Y-105513142D01*
%TO.C,C33*%
X173093142Y-94591142D02*
X173045523Y-94638761D01*
X172902666Y-94686380D01*
X172807428Y-94686380D01*
X172664571Y-94638761D01*
X172569333Y-94543523D01*
X172521714Y-94448285D01*
X172474095Y-94257809D01*
X172474095Y-94114952D01*
X172521714Y-93924476D01*
X172569333Y-93829238D01*
X172664571Y-93734000D01*
X172807428Y-93686380D01*
X172902666Y-93686380D01*
X173045523Y-93734000D01*
X173093142Y-93781619D01*
X173426476Y-93686380D02*
X174045523Y-93686380D01*
X173712190Y-94067333D01*
X173855047Y-94067333D01*
X173950285Y-94114952D01*
X173997904Y-94162571D01*
X174045523Y-94257809D01*
X174045523Y-94495904D01*
X173997904Y-94591142D01*
X173950285Y-94638761D01*
X173855047Y-94686380D01*
X173569333Y-94686380D01*
X173474095Y-94638761D01*
X173426476Y-94591142D01*
X174378857Y-93686380D02*
X174997904Y-93686380D01*
X174664571Y-94067333D01*
X174807428Y-94067333D01*
X174902666Y-94114952D01*
X174950285Y-94162571D01*
X174997904Y-94257809D01*
X174997904Y-94495904D01*
X174950285Y-94591142D01*
X174902666Y-94638761D01*
X174807428Y-94686380D01*
X174521714Y-94686380D01*
X174426476Y-94638761D01*
X174378857Y-94591142D01*
%TO.C,J9*%
X114231380Y-144605333D02*
X114945666Y-144605333D01*
X115088523Y-144652952D01*
X115183761Y-144748190D01*
X115231380Y-144891047D01*
X115231380Y-144986285D01*
X115231380Y-144081523D02*
X115231380Y-143891047D01*
X115183761Y-143795809D01*
X115136142Y-143748190D01*
X114993285Y-143652952D01*
X114802809Y-143605333D01*
X114421857Y-143605333D01*
X114326619Y-143652952D01*
X114279000Y-143700571D01*
X114231380Y-143795809D01*
X114231380Y-143986285D01*
X114279000Y-144081523D01*
X114326619Y-144129142D01*
X114421857Y-144176761D01*
X114659952Y-144176761D01*
X114755190Y-144129142D01*
X114802809Y-144081523D01*
X114850428Y-143986285D01*
X114850428Y-143795809D01*
X114802809Y-143700571D01*
X114755190Y-143652952D01*
X114659952Y-143605333D01*
%TO.C,R24*%
X146756380Y-73286857D02*
X146280190Y-73620190D01*
X146756380Y-73858285D02*
X145756380Y-73858285D01*
X145756380Y-73477333D01*
X145804000Y-73382095D01*
X145851619Y-73334476D01*
X145946857Y-73286857D01*
X146089714Y-73286857D01*
X146184952Y-73334476D01*
X146232571Y-73382095D01*
X146280190Y-73477333D01*
X146280190Y-73858285D01*
X145851619Y-72905904D02*
X145804000Y-72858285D01*
X145756380Y-72763047D01*
X145756380Y-72524952D01*
X145804000Y-72429714D01*
X145851619Y-72382095D01*
X145946857Y-72334476D01*
X146042095Y-72334476D01*
X146184952Y-72382095D01*
X146756380Y-72953523D01*
X146756380Y-72334476D01*
X146089714Y-71477333D02*
X146756380Y-71477333D01*
X145708761Y-71715428D02*
X146423047Y-71953523D01*
X146423047Y-71334476D01*
%TO.C,R23*%
X143883142Y-66238380D02*
X143549809Y-65762190D01*
X143311714Y-66238380D02*
X143311714Y-65238380D01*
X143692666Y-65238380D01*
X143787904Y-65286000D01*
X143835523Y-65333619D01*
X143883142Y-65428857D01*
X143883142Y-65571714D01*
X143835523Y-65666952D01*
X143787904Y-65714571D01*
X143692666Y-65762190D01*
X143311714Y-65762190D01*
X144264095Y-65333619D02*
X144311714Y-65286000D01*
X144406952Y-65238380D01*
X144645047Y-65238380D01*
X144740285Y-65286000D01*
X144787904Y-65333619D01*
X144835523Y-65428857D01*
X144835523Y-65524095D01*
X144787904Y-65666952D01*
X144216476Y-66238380D01*
X144835523Y-66238380D01*
X145168857Y-65238380D02*
X145787904Y-65238380D01*
X145454571Y-65619333D01*
X145597428Y-65619333D01*
X145692666Y-65666952D01*
X145740285Y-65714571D01*
X145787904Y-65809809D01*
X145787904Y-66047904D01*
X145740285Y-66143142D01*
X145692666Y-66190761D01*
X145597428Y-66238380D01*
X145311714Y-66238380D01*
X145216476Y-66190761D01*
X145168857Y-66143142D01*
%TO.C,U8*%
X148336095Y-74832380D02*
X148336095Y-75641904D01*
X148383714Y-75737142D01*
X148431333Y-75784761D01*
X148526571Y-75832380D01*
X148717047Y-75832380D01*
X148812285Y-75784761D01*
X148859904Y-75737142D01*
X148907523Y-75641904D01*
X148907523Y-74832380D01*
X149526571Y-75260952D02*
X149431333Y-75213333D01*
X149383714Y-75165714D01*
X149336095Y-75070476D01*
X149336095Y-75022857D01*
X149383714Y-74927619D01*
X149431333Y-74880000D01*
X149526571Y-74832380D01*
X149717047Y-74832380D01*
X149812285Y-74880000D01*
X149859904Y-74927619D01*
X149907523Y-75022857D01*
X149907523Y-75070476D01*
X149859904Y-75165714D01*
X149812285Y-75213333D01*
X149717047Y-75260952D01*
X149526571Y-75260952D01*
X149431333Y-75308571D01*
X149383714Y-75356190D01*
X149336095Y-75451428D01*
X149336095Y-75641904D01*
X149383714Y-75737142D01*
X149431333Y-75784761D01*
X149526571Y-75832380D01*
X149717047Y-75832380D01*
X149812285Y-75784761D01*
X149859904Y-75737142D01*
X149907523Y-75641904D01*
X149907523Y-75451428D01*
X149859904Y-75356190D01*
X149812285Y-75308571D01*
X149717047Y-75260952D01*
%TO.C,J8*%
X103806666Y-121851380D02*
X103806666Y-122565666D01*
X103759047Y-122708523D01*
X103663809Y-122803761D01*
X103520952Y-122851380D01*
X103425714Y-122851380D01*
X104425714Y-122279952D02*
X104330476Y-122232333D01*
X104282857Y-122184714D01*
X104235238Y-122089476D01*
X104235238Y-122041857D01*
X104282857Y-121946619D01*
X104330476Y-121899000D01*
X104425714Y-121851380D01*
X104616190Y-121851380D01*
X104711428Y-121899000D01*
X104759047Y-121946619D01*
X104806666Y-122041857D01*
X104806666Y-122089476D01*
X104759047Y-122184714D01*
X104711428Y-122232333D01*
X104616190Y-122279952D01*
X104425714Y-122279952D01*
X104330476Y-122327571D01*
X104282857Y-122375190D01*
X104235238Y-122470428D01*
X104235238Y-122660904D01*
X104282857Y-122756142D01*
X104330476Y-122803761D01*
X104425714Y-122851380D01*
X104616190Y-122851380D01*
X104711428Y-122803761D01*
X104759047Y-122756142D01*
X104806666Y-122660904D01*
X104806666Y-122470428D01*
X104759047Y-122375190D01*
X104711428Y-122327571D01*
X104616190Y-122279952D01*
%TO.C,U15*%
X174275904Y-103084380D02*
X174275904Y-103893904D01*
X174323523Y-103989142D01*
X174371142Y-104036761D01*
X174466380Y-104084380D01*
X174656857Y-104084380D01*
X174752095Y-104036761D01*
X174799714Y-103989142D01*
X174847333Y-103893904D01*
X174847333Y-103084380D01*
X175847333Y-104084380D02*
X175275904Y-104084380D01*
X175561619Y-104084380D02*
X175561619Y-103084380D01*
X175466380Y-103227238D01*
X175371142Y-103322476D01*
X175275904Y-103370095D01*
X176752095Y-103084380D02*
X176275904Y-103084380D01*
X176228285Y-103560571D01*
X176275904Y-103512952D01*
X176371142Y-103465333D01*
X176609238Y-103465333D01*
X176704476Y-103512952D01*
X176752095Y-103560571D01*
X176799714Y-103655809D01*
X176799714Y-103893904D01*
X176752095Y-103989142D01*
X176704476Y-104036761D01*
X176609238Y-104084380D01*
X176371142Y-104084380D01*
X176275904Y-104036761D01*
X176228285Y-103989142D01*
%TO.C,Q3*%
X127412761Y-77255619D02*
X127317523Y-77208000D01*
X127222285Y-77112761D01*
X127079428Y-76969904D01*
X126984190Y-76922285D01*
X126888952Y-76922285D01*
X126936571Y-77160380D02*
X126841333Y-77112761D01*
X126746095Y-77017523D01*
X126698476Y-76827047D01*
X126698476Y-76493714D01*
X126746095Y-76303238D01*
X126841333Y-76208000D01*
X126936571Y-76160380D01*
X127127047Y-76160380D01*
X127222285Y-76208000D01*
X127317523Y-76303238D01*
X127365142Y-76493714D01*
X127365142Y-76827047D01*
X127317523Y-77017523D01*
X127222285Y-77112761D01*
X127127047Y-77160380D01*
X126936571Y-77160380D01*
X127698476Y-76160380D02*
X128317523Y-76160380D01*
X127984190Y-76541333D01*
X128127047Y-76541333D01*
X128222285Y-76588952D01*
X128269904Y-76636571D01*
X128317523Y-76731809D01*
X128317523Y-76969904D01*
X128269904Y-77065142D01*
X128222285Y-77112761D01*
X128127047Y-77160380D01*
X127841333Y-77160380D01*
X127746095Y-77112761D01*
X127698476Y-77065142D01*
%TO.C,R44*%
X184015142Y-111196380D02*
X183681809Y-110720190D01*
X183443714Y-111196380D02*
X183443714Y-110196380D01*
X183824666Y-110196380D01*
X183919904Y-110244000D01*
X183967523Y-110291619D01*
X184015142Y-110386857D01*
X184015142Y-110529714D01*
X183967523Y-110624952D01*
X183919904Y-110672571D01*
X183824666Y-110720190D01*
X183443714Y-110720190D01*
X184872285Y-110529714D02*
X184872285Y-111196380D01*
X184634190Y-110148761D02*
X184396095Y-110863047D01*
X185015142Y-110863047D01*
X185824666Y-110529714D02*
X185824666Y-111196380D01*
X185586571Y-110148761D02*
X185348476Y-110863047D01*
X185967523Y-110863047D01*
%TO.C,D1*%
X152169904Y-97425880D02*
X152169904Y-96425880D01*
X152408000Y-96425880D01*
X152550857Y-96473500D01*
X152646095Y-96568738D01*
X152693714Y-96663976D01*
X152741333Y-96854452D01*
X152741333Y-96997309D01*
X152693714Y-97187785D01*
X152646095Y-97283023D01*
X152550857Y-97378261D01*
X152408000Y-97425880D01*
X152169904Y-97425880D01*
X153693714Y-97425880D02*
X153122285Y-97425880D01*
X153408000Y-97425880D02*
X153408000Y-96425880D01*
X153312761Y-96568738D01*
X153217523Y-96663976D01*
X153122285Y-96711595D01*
%TO.C,C18*%
X170889142Y-119260857D02*
X170936761Y-119308476D01*
X170984380Y-119451333D01*
X170984380Y-119546571D01*
X170936761Y-119689428D01*
X170841523Y-119784666D01*
X170746285Y-119832285D01*
X170555809Y-119879904D01*
X170412952Y-119879904D01*
X170222476Y-119832285D01*
X170127238Y-119784666D01*
X170032000Y-119689428D01*
X169984380Y-119546571D01*
X169984380Y-119451333D01*
X170032000Y-119308476D01*
X170079619Y-119260857D01*
X170984380Y-118308476D02*
X170984380Y-118879904D01*
X170984380Y-118594190D02*
X169984380Y-118594190D01*
X170127238Y-118689428D01*
X170222476Y-118784666D01*
X170270095Y-118879904D01*
X170412952Y-117737047D02*
X170365333Y-117832285D01*
X170317714Y-117879904D01*
X170222476Y-117927523D01*
X170174857Y-117927523D01*
X170079619Y-117879904D01*
X170032000Y-117832285D01*
X169984380Y-117737047D01*
X169984380Y-117546571D01*
X170032000Y-117451333D01*
X170079619Y-117403714D01*
X170174857Y-117356095D01*
X170222476Y-117356095D01*
X170317714Y-117403714D01*
X170365333Y-117451333D01*
X170412952Y-117546571D01*
X170412952Y-117737047D01*
X170460571Y-117832285D01*
X170508190Y-117879904D01*
X170603428Y-117927523D01*
X170793904Y-117927523D01*
X170889142Y-117879904D01*
X170936761Y-117832285D01*
X170984380Y-117737047D01*
X170984380Y-117546571D01*
X170936761Y-117451333D01*
X170889142Y-117403714D01*
X170793904Y-117356095D01*
X170603428Y-117356095D01*
X170508190Y-117403714D01*
X170460571Y-117451333D01*
X170412952Y-117546571D01*
%TO.C,J5*%
X129750380Y-60023333D02*
X130464666Y-60023333D01*
X130607523Y-60070952D01*
X130702761Y-60166190D01*
X130750380Y-60309047D01*
X130750380Y-60404285D01*
X129750380Y-59070952D02*
X129750380Y-59547142D01*
X130226571Y-59594761D01*
X130178952Y-59547142D01*
X130131333Y-59451904D01*
X130131333Y-59213809D01*
X130178952Y-59118571D01*
X130226571Y-59070952D01*
X130321809Y-59023333D01*
X130559904Y-59023333D01*
X130655142Y-59070952D01*
X130702761Y-59118571D01*
X130750380Y-59213809D01*
X130750380Y-59451904D01*
X130702761Y-59547142D01*
X130655142Y-59594761D01*
%TO.C,R46*%
X181729142Y-101798380D02*
X181395809Y-101322190D01*
X181157714Y-101798380D02*
X181157714Y-100798380D01*
X181538666Y-100798380D01*
X181633904Y-100846000D01*
X181681523Y-100893619D01*
X181729142Y-100988857D01*
X181729142Y-101131714D01*
X181681523Y-101226952D01*
X181633904Y-101274571D01*
X181538666Y-101322190D01*
X181157714Y-101322190D01*
X182586285Y-101131714D02*
X182586285Y-101798380D01*
X182348190Y-100750761D02*
X182110095Y-101465047D01*
X182729142Y-101465047D01*
X183538666Y-100798380D02*
X183348190Y-100798380D01*
X183252952Y-100846000D01*
X183205333Y-100893619D01*
X183110095Y-101036476D01*
X183062476Y-101226952D01*
X183062476Y-101607904D01*
X183110095Y-101703142D01*
X183157714Y-101750761D01*
X183252952Y-101798380D01*
X183443428Y-101798380D01*
X183538666Y-101750761D01*
X183586285Y-101703142D01*
X183633904Y-101607904D01*
X183633904Y-101369809D01*
X183586285Y-101274571D01*
X183538666Y-101226952D01*
X183443428Y-101179333D01*
X183252952Y-101179333D01*
X183157714Y-101226952D01*
X183110095Y-101274571D01*
X183062476Y-101369809D01*
%TO.C,D7*%
X119546380Y-140692095D02*
X118546380Y-140692095D01*
X118546380Y-140454000D01*
X118594000Y-140311142D01*
X118689238Y-140215904D01*
X118784476Y-140168285D01*
X118974952Y-140120666D01*
X119117809Y-140120666D01*
X119308285Y-140168285D01*
X119403523Y-140215904D01*
X119498761Y-140311142D01*
X119546380Y-140454000D01*
X119546380Y-140692095D01*
X118546380Y-139787333D02*
X118546380Y-139120666D01*
X119546380Y-139549238D01*
%TO.C,R8*%
X171394380Y-102528666D02*
X170918190Y-102862000D01*
X171394380Y-103100095D02*
X170394380Y-103100095D01*
X170394380Y-102719142D01*
X170442000Y-102623904D01*
X170489619Y-102576285D01*
X170584857Y-102528666D01*
X170727714Y-102528666D01*
X170822952Y-102576285D01*
X170870571Y-102623904D01*
X170918190Y-102719142D01*
X170918190Y-103100095D01*
X170822952Y-101957238D02*
X170775333Y-102052476D01*
X170727714Y-102100095D01*
X170632476Y-102147714D01*
X170584857Y-102147714D01*
X170489619Y-102100095D01*
X170442000Y-102052476D01*
X170394380Y-101957238D01*
X170394380Y-101766761D01*
X170442000Y-101671523D01*
X170489619Y-101623904D01*
X170584857Y-101576285D01*
X170632476Y-101576285D01*
X170727714Y-101623904D01*
X170775333Y-101671523D01*
X170822952Y-101766761D01*
X170822952Y-101957238D01*
X170870571Y-102052476D01*
X170918190Y-102100095D01*
X171013428Y-102147714D01*
X171203904Y-102147714D01*
X171299142Y-102100095D01*
X171346761Y-102052476D01*
X171394380Y-101957238D01*
X171394380Y-101766761D01*
X171346761Y-101671523D01*
X171299142Y-101623904D01*
X171203904Y-101576285D01*
X171013428Y-101576285D01*
X170918190Y-101623904D01*
X170870571Y-101671523D01*
X170822952Y-101766761D01*
%TO.C,Q2*%
X116306761Y-64061619D02*
X116211523Y-64014000D01*
X116116285Y-63918761D01*
X115973428Y-63775904D01*
X115878190Y-63728285D01*
X115782952Y-63728285D01*
X115830571Y-63966380D02*
X115735333Y-63918761D01*
X115640095Y-63823523D01*
X115592476Y-63633047D01*
X115592476Y-63299714D01*
X115640095Y-63109238D01*
X115735333Y-63014000D01*
X115830571Y-62966380D01*
X116021047Y-62966380D01*
X116116285Y-63014000D01*
X116211523Y-63109238D01*
X116259142Y-63299714D01*
X116259142Y-63633047D01*
X116211523Y-63823523D01*
X116116285Y-63918761D01*
X116021047Y-63966380D01*
X115830571Y-63966380D01*
X116640095Y-63061619D02*
X116687714Y-63014000D01*
X116782952Y-62966380D01*
X117021047Y-62966380D01*
X117116285Y-63014000D01*
X117163904Y-63061619D01*
X117211523Y-63156857D01*
X117211523Y-63252095D01*
X117163904Y-63394952D01*
X116592476Y-63966380D01*
X117211523Y-63966380D01*
%TO.C,C19*%
X153381142Y-76147142D02*
X153333523Y-76194761D01*
X153190666Y-76242380D01*
X153095428Y-76242380D01*
X152952571Y-76194761D01*
X152857333Y-76099523D01*
X152809714Y-76004285D01*
X152762095Y-75813809D01*
X152762095Y-75670952D01*
X152809714Y-75480476D01*
X152857333Y-75385238D01*
X152952571Y-75290000D01*
X153095428Y-75242380D01*
X153190666Y-75242380D01*
X153333523Y-75290000D01*
X153381142Y-75337619D01*
X154333523Y-76242380D02*
X153762095Y-76242380D01*
X154047809Y-76242380D02*
X154047809Y-75242380D01*
X153952571Y-75385238D01*
X153857333Y-75480476D01*
X153762095Y-75528095D01*
X154809714Y-76242380D02*
X155000190Y-76242380D01*
X155095428Y-76194761D01*
X155143047Y-76147142D01*
X155238285Y-76004285D01*
X155285904Y-75813809D01*
X155285904Y-75432857D01*
X155238285Y-75337619D01*
X155190666Y-75290000D01*
X155095428Y-75242380D01*
X154904952Y-75242380D01*
X154809714Y-75290000D01*
X154762095Y-75337619D01*
X154714476Y-75432857D01*
X154714476Y-75670952D01*
X154762095Y-75766190D01*
X154809714Y-75813809D01*
X154904952Y-75861428D01*
X155095428Y-75861428D01*
X155190666Y-75813809D01*
X155238285Y-75766190D01*
X155285904Y-75670952D01*
%TO.C,C34*%
X182065142Y-108780857D02*
X182112761Y-108828476D01*
X182160380Y-108971333D01*
X182160380Y-109066571D01*
X182112761Y-109209428D01*
X182017523Y-109304666D01*
X181922285Y-109352285D01*
X181731809Y-109399904D01*
X181588952Y-109399904D01*
X181398476Y-109352285D01*
X181303238Y-109304666D01*
X181208000Y-109209428D01*
X181160380Y-109066571D01*
X181160380Y-108971333D01*
X181208000Y-108828476D01*
X181255619Y-108780857D01*
X181160380Y-108447523D02*
X181160380Y-107828476D01*
X181541333Y-108161809D01*
X181541333Y-108018952D01*
X181588952Y-107923714D01*
X181636571Y-107876095D01*
X181731809Y-107828476D01*
X181969904Y-107828476D01*
X182065142Y-107876095D01*
X182112761Y-107923714D01*
X182160380Y-108018952D01*
X182160380Y-108304666D01*
X182112761Y-108399904D01*
X182065142Y-108447523D01*
X181493714Y-106971333D02*
X182160380Y-106971333D01*
X181112761Y-107209428D02*
X181827047Y-107447523D01*
X181827047Y-106828476D01*
%TO.C,Q8*%
X139604761Y-77607619D02*
X139509523Y-77560000D01*
X139414285Y-77464761D01*
X139271428Y-77321904D01*
X139176190Y-77274285D01*
X139080952Y-77274285D01*
X139128571Y-77512380D02*
X139033333Y-77464761D01*
X138938095Y-77369523D01*
X138890476Y-77179047D01*
X138890476Y-76845714D01*
X138938095Y-76655238D01*
X139033333Y-76560000D01*
X139128571Y-76512380D01*
X139319047Y-76512380D01*
X139414285Y-76560000D01*
X139509523Y-76655238D01*
X139557142Y-76845714D01*
X139557142Y-77179047D01*
X139509523Y-77369523D01*
X139414285Y-77464761D01*
X139319047Y-77512380D01*
X139128571Y-77512380D01*
X140128571Y-76940952D02*
X140033333Y-76893333D01*
X139985714Y-76845714D01*
X139938095Y-76750476D01*
X139938095Y-76702857D01*
X139985714Y-76607619D01*
X140033333Y-76560000D01*
X140128571Y-76512380D01*
X140319047Y-76512380D01*
X140414285Y-76560000D01*
X140461904Y-76607619D01*
X140509523Y-76702857D01*
X140509523Y-76750476D01*
X140461904Y-76845714D01*
X140414285Y-76893333D01*
X140319047Y-76940952D01*
X140128571Y-76940952D01*
X140033333Y-76988571D01*
X139985714Y-77036190D01*
X139938095Y-77131428D01*
X139938095Y-77321904D01*
X139985714Y-77417142D01*
X140033333Y-77464761D01*
X140128571Y-77512380D01*
X140319047Y-77512380D01*
X140414285Y-77464761D01*
X140461904Y-77417142D01*
X140509523Y-77321904D01*
X140509523Y-77131428D01*
X140461904Y-77036190D01*
X140414285Y-76988571D01*
X140319047Y-76940952D01*
%TO.C,R6*%
X112355333Y-78938380D02*
X112022000Y-78462190D01*
X111783904Y-78938380D02*
X111783904Y-77938380D01*
X112164857Y-77938380D01*
X112260095Y-77986000D01*
X112307714Y-78033619D01*
X112355333Y-78128857D01*
X112355333Y-78271714D01*
X112307714Y-78366952D01*
X112260095Y-78414571D01*
X112164857Y-78462190D01*
X111783904Y-78462190D01*
X113212476Y-77938380D02*
X113022000Y-77938380D01*
X112926761Y-77986000D01*
X112879142Y-78033619D01*
X112783904Y-78176476D01*
X112736285Y-78366952D01*
X112736285Y-78747904D01*
X112783904Y-78843142D01*
X112831523Y-78890761D01*
X112926761Y-78938380D01*
X113117238Y-78938380D01*
X113212476Y-78890761D01*
X113260095Y-78843142D01*
X113307714Y-78747904D01*
X113307714Y-78509809D01*
X113260095Y-78414571D01*
X113212476Y-78366952D01*
X113117238Y-78319333D01*
X112926761Y-78319333D01*
X112831523Y-78366952D01*
X112783904Y-78414571D01*
X112736285Y-78509809D01*
%TO.C,U14*%
X183165904Y-86574380D02*
X183165904Y-87383904D01*
X183213523Y-87479142D01*
X183261142Y-87526761D01*
X183356380Y-87574380D01*
X183546857Y-87574380D01*
X183642095Y-87526761D01*
X183689714Y-87479142D01*
X183737333Y-87383904D01*
X183737333Y-86574380D01*
X184737333Y-87574380D02*
X184165904Y-87574380D01*
X184451619Y-87574380D02*
X184451619Y-86574380D01*
X184356380Y-86717238D01*
X184261142Y-86812476D01*
X184165904Y-86860095D01*
X185594476Y-86907714D02*
X185594476Y-87574380D01*
X185356380Y-86526761D02*
X185118285Y-87241047D01*
X185737333Y-87241047D01*
%TO.C,D6*%
X112291904Y-138596380D02*
X112291904Y-137596380D01*
X112530000Y-137596380D01*
X112672857Y-137644000D01*
X112768095Y-137739238D01*
X112815714Y-137834476D01*
X112863333Y-138024952D01*
X112863333Y-138167809D01*
X112815714Y-138358285D01*
X112768095Y-138453523D01*
X112672857Y-138548761D01*
X112530000Y-138596380D01*
X112291904Y-138596380D01*
X113720476Y-137596380D02*
X113530000Y-137596380D01*
X113434761Y-137644000D01*
X113387142Y-137691619D01*
X113291904Y-137834476D01*
X113244285Y-138024952D01*
X113244285Y-138405904D01*
X113291904Y-138501142D01*
X113339523Y-138548761D01*
X113434761Y-138596380D01*
X113625238Y-138596380D01*
X113720476Y-138548761D01*
X113768095Y-138501142D01*
X113815714Y-138405904D01*
X113815714Y-138167809D01*
X113768095Y-138072571D01*
X113720476Y-138024952D01*
X113625238Y-137977333D01*
X113434761Y-137977333D01*
X113339523Y-138024952D01*
X113291904Y-138072571D01*
X113244285Y-138167809D01*
%TO.C,R42*%
X187142380Y-91574857D02*
X186666190Y-91908190D01*
X187142380Y-92146285D02*
X186142380Y-92146285D01*
X186142380Y-91765333D01*
X186190000Y-91670095D01*
X186237619Y-91622476D01*
X186332857Y-91574857D01*
X186475714Y-91574857D01*
X186570952Y-91622476D01*
X186618571Y-91670095D01*
X186666190Y-91765333D01*
X186666190Y-92146285D01*
X186475714Y-90717714D02*
X187142380Y-90717714D01*
X186094761Y-90955809D02*
X186809047Y-91193904D01*
X186809047Y-90574857D01*
X186237619Y-90241523D02*
X186190000Y-90193904D01*
X186142380Y-90098666D01*
X186142380Y-89860571D01*
X186190000Y-89765333D01*
X186237619Y-89717714D01*
X186332857Y-89670095D01*
X186428095Y-89670095D01*
X186570952Y-89717714D01*
X187142380Y-90289142D01*
X187142380Y-89670095D01*
%TO.C,JP1*%
X153122380Y-91770333D02*
X153836666Y-91770333D01*
X153979523Y-91817952D01*
X154074761Y-91913190D01*
X154122380Y-92056047D01*
X154122380Y-92151285D01*
X154122380Y-91294142D02*
X153122380Y-91294142D01*
X153122380Y-90913190D01*
X153170000Y-90817952D01*
X153217619Y-90770333D01*
X153312857Y-90722714D01*
X153455714Y-90722714D01*
X153550952Y-90770333D01*
X153598571Y-90817952D01*
X153646190Y-90913190D01*
X153646190Y-91294142D01*
X154122380Y-89770333D02*
X154122380Y-90341761D01*
X154122380Y-90056047D02*
X153122380Y-90056047D01*
X153265238Y-90151285D01*
X153360476Y-90246523D01*
X153408095Y-90341761D01*
X154646380Y-93598666D02*
X155646380Y-93360571D01*
X154932095Y-93170095D01*
X155646380Y-92979619D01*
X154646380Y-92741523D01*
X155646380Y-92360571D02*
X154646380Y-92360571D01*
X154646380Y-92122476D01*
X154694000Y-91979619D01*
X154789238Y-91884380D01*
X154884476Y-91836761D01*
X155074952Y-91789142D01*
X155217809Y-91789142D01*
X155408285Y-91836761D01*
X155503523Y-91884380D01*
X155598761Y-91979619D01*
X155646380Y-92122476D01*
X155646380Y-92360571D01*
X154646380Y-91503428D02*
X154646380Y-90932000D01*
X155646380Y-91217714D02*
X154646380Y-91217714D01*
X155741619Y-90836761D02*
X155741619Y-90074857D01*
X155122571Y-89836761D02*
X155122571Y-89503428D01*
X155646380Y-89360571D02*
X155646380Y-89836761D01*
X154646380Y-89836761D01*
X154646380Y-89360571D01*
X155646380Y-88932000D02*
X154646380Y-88932000D01*
X155646380Y-88360571D01*
X154646380Y-88360571D01*
%TO.C,A1*%
X166790666Y-105616285D02*
X166790666Y-105140095D01*
X167076380Y-105711523D02*
X166076380Y-105378190D01*
X167076380Y-105044857D01*
X167076380Y-104187714D02*
X167076380Y-104759142D01*
X167076380Y-104473428D02*
X166076380Y-104473428D01*
X166219238Y-104568666D01*
X166314476Y-104663904D01*
X166362095Y-104759142D01*
X188412380Y-105107619D02*
X187936190Y-105440952D01*
X188412380Y-105679047D02*
X187412380Y-105679047D01*
X187412380Y-105298095D01*
X187460000Y-105202857D01*
X187507619Y-105155238D01*
X187602857Y-105107619D01*
X187745714Y-105107619D01*
X187840952Y-105155238D01*
X187888571Y-105202857D01*
X187936190Y-105298095D01*
X187936190Y-105679047D01*
X188412380Y-104250476D02*
X187888571Y-104250476D01*
X187793333Y-104298095D01*
X187745714Y-104393333D01*
X187745714Y-104583809D01*
X187793333Y-104679047D01*
X188364761Y-104250476D02*
X188412380Y-104345714D01*
X188412380Y-104583809D01*
X188364761Y-104679047D01*
X188269523Y-104726666D01*
X188174285Y-104726666D01*
X188079047Y-104679047D01*
X188031428Y-104583809D01*
X188031428Y-104345714D01*
X187983809Y-104250476D01*
X188364761Y-103821904D02*
X188412380Y-103726666D01*
X188412380Y-103536190D01*
X188364761Y-103440952D01*
X188269523Y-103393333D01*
X188221904Y-103393333D01*
X188126666Y-103440952D01*
X188079047Y-103536190D01*
X188079047Y-103679047D01*
X188031428Y-103774285D01*
X187936190Y-103821904D01*
X187888571Y-103821904D01*
X187793333Y-103774285D01*
X187745714Y-103679047D01*
X187745714Y-103536190D01*
X187793333Y-103440952D01*
X187745714Y-102964761D02*
X188745714Y-102964761D01*
X187793333Y-102964761D02*
X187745714Y-102869523D01*
X187745714Y-102679047D01*
X187793333Y-102583809D01*
X187840952Y-102536190D01*
X187936190Y-102488571D01*
X188221904Y-102488571D01*
X188317142Y-102536190D01*
X188364761Y-102583809D01*
X188412380Y-102679047D01*
X188412380Y-102869523D01*
X188364761Y-102964761D01*
X188412380Y-102060000D02*
X187412380Y-102060000D01*
X187793333Y-102060000D02*
X187745714Y-101964761D01*
X187745714Y-101774285D01*
X187793333Y-101679047D01*
X187840952Y-101631428D01*
X187936190Y-101583809D01*
X188221904Y-101583809D01*
X188317142Y-101631428D01*
X188364761Y-101679047D01*
X188412380Y-101774285D01*
X188412380Y-101964761D01*
X188364761Y-102060000D01*
X188364761Y-100774285D02*
X188412380Y-100869523D01*
X188412380Y-101060000D01*
X188364761Y-101155238D01*
X188269523Y-101202857D01*
X187888571Y-101202857D01*
X187793333Y-101155238D01*
X187745714Y-101060000D01*
X187745714Y-100869523D01*
X187793333Y-100774285D01*
X187888571Y-100726666D01*
X187983809Y-100726666D01*
X188079047Y-101202857D01*
X188412380Y-100298095D02*
X187745714Y-100298095D01*
X187936190Y-100298095D02*
X187840952Y-100250476D01*
X187793333Y-100202857D01*
X187745714Y-100107619D01*
X187745714Y-100012380D01*
X188412380Y-99679047D02*
X187745714Y-99679047D01*
X187936190Y-99679047D02*
X187840952Y-99631428D01*
X187793333Y-99583809D01*
X187745714Y-99488571D01*
X187745714Y-99393333D01*
X187745714Y-99155238D02*
X188412380Y-98917142D01*
X187745714Y-98679047D02*
X188412380Y-98917142D01*
X188650476Y-99012380D01*
X188698095Y-99060000D01*
X188745714Y-99155238D01*
X188507619Y-98536190D02*
X188507619Y-97774285D01*
X188412380Y-97536190D02*
X187412380Y-97536190D01*
X187412380Y-97155238D01*
X187460000Y-97060000D01*
X187507619Y-97012380D01*
X187602857Y-96964761D01*
X187745714Y-96964761D01*
X187840952Y-97012380D01*
X187888571Y-97060000D01*
X187936190Y-97155238D01*
X187936190Y-97536190D01*
X188412380Y-96536190D02*
X187745714Y-96536190D01*
X187412380Y-96536190D02*
X187460000Y-96583809D01*
X187507619Y-96536190D01*
X187460000Y-96488571D01*
X187412380Y-96536190D01*
X187507619Y-96536190D01*
X188507619Y-96298095D02*
X188507619Y-95536190D01*
X187412380Y-95393333D02*
X187412380Y-94726666D01*
X188412380Y-95393333D01*
X188412380Y-94726666D01*
X188364761Y-93964761D02*
X188412380Y-94060000D01*
X188412380Y-94250476D01*
X188364761Y-94345714D01*
X188269523Y-94393333D01*
X187888571Y-94393333D01*
X187793333Y-94345714D01*
X187745714Y-94250476D01*
X187745714Y-94060000D01*
X187793333Y-93964761D01*
X187888571Y-93917142D01*
X187983809Y-93917142D01*
X188079047Y-94393333D01*
X188412380Y-93488571D02*
X187745714Y-93488571D01*
X187936190Y-93488571D02*
X187840952Y-93440952D01*
X187793333Y-93393333D01*
X187745714Y-93298095D01*
X187745714Y-93202857D01*
X188412380Y-92726666D02*
X188364761Y-92821904D01*
X188317142Y-92869523D01*
X188221904Y-92917142D01*
X187936190Y-92917142D01*
X187840952Y-92869523D01*
X187793333Y-92821904D01*
X187745714Y-92726666D01*
X187745714Y-92583809D01*
X187793333Y-92488571D01*
X187840952Y-92440952D01*
X187936190Y-92393333D01*
X188221904Y-92393333D01*
X188317142Y-92440952D01*
X188364761Y-92488571D01*
X188412380Y-92583809D01*
X188412380Y-92726666D01*
%TO.C,R35*%
X120007142Y-135326380D02*
X119673809Y-134850190D01*
X119435714Y-135326380D02*
X119435714Y-134326380D01*
X119816666Y-134326380D01*
X119911904Y-134374000D01*
X119959523Y-134421619D01*
X120007142Y-134516857D01*
X120007142Y-134659714D01*
X119959523Y-134754952D01*
X119911904Y-134802571D01*
X119816666Y-134850190D01*
X119435714Y-134850190D01*
X120340476Y-134326380D02*
X120959523Y-134326380D01*
X120626190Y-134707333D01*
X120769047Y-134707333D01*
X120864285Y-134754952D01*
X120911904Y-134802571D01*
X120959523Y-134897809D01*
X120959523Y-135135904D01*
X120911904Y-135231142D01*
X120864285Y-135278761D01*
X120769047Y-135326380D01*
X120483333Y-135326380D01*
X120388095Y-135278761D01*
X120340476Y-135231142D01*
X121864285Y-134326380D02*
X121388095Y-134326380D01*
X121340476Y-134802571D01*
X121388095Y-134754952D01*
X121483333Y-134707333D01*
X121721428Y-134707333D01*
X121816666Y-134754952D01*
X121864285Y-134802571D01*
X121911904Y-134897809D01*
X121911904Y-135135904D01*
X121864285Y-135231142D01*
X121816666Y-135278761D01*
X121721428Y-135326380D01*
X121483333Y-135326380D01*
X121388095Y-135278761D01*
X121340476Y-135231142D01*
%TO.C,J1*%
X126920666Y-59650380D02*
X126920666Y-60364666D01*
X126873047Y-60507523D01*
X126777809Y-60602761D01*
X126634952Y-60650380D01*
X126539714Y-60650380D01*
X127920666Y-60650380D02*
X127349238Y-60650380D01*
X127634952Y-60650380D02*
X127634952Y-59650380D01*
X127539714Y-59793238D01*
X127444476Y-59888476D01*
X127349238Y-59936095D01*
%TO.C,Q7*%
X144425619Y-68929238D02*
X144378000Y-69024476D01*
X144282761Y-69119714D01*
X144139904Y-69262571D01*
X144092285Y-69357809D01*
X144092285Y-69453047D01*
X144330380Y-69405428D02*
X144282761Y-69500666D01*
X144187523Y-69595904D01*
X143997047Y-69643523D01*
X143663714Y-69643523D01*
X143473238Y-69595904D01*
X143378000Y-69500666D01*
X143330380Y-69405428D01*
X143330380Y-69214952D01*
X143378000Y-69119714D01*
X143473238Y-69024476D01*
X143663714Y-68976857D01*
X143997047Y-68976857D01*
X144187523Y-69024476D01*
X144282761Y-69119714D01*
X144330380Y-69214952D01*
X144330380Y-69405428D01*
X143330380Y-68643523D02*
X143330380Y-67976857D01*
X144330380Y-68405428D01*
%TO.C,R7*%
X171394380Y-98972666D02*
X170918190Y-99306000D01*
X171394380Y-99544095D02*
X170394380Y-99544095D01*
X170394380Y-99163142D01*
X170442000Y-99067904D01*
X170489619Y-99020285D01*
X170584857Y-98972666D01*
X170727714Y-98972666D01*
X170822952Y-99020285D01*
X170870571Y-99067904D01*
X170918190Y-99163142D01*
X170918190Y-99544095D01*
X170394380Y-98639333D02*
X170394380Y-97972666D01*
X171394380Y-98401238D01*
%TO.C,R13*%
X118737142Y-79192380D02*
X118403809Y-78716190D01*
X118165714Y-79192380D02*
X118165714Y-78192380D01*
X118546666Y-78192380D01*
X118641904Y-78240000D01*
X118689523Y-78287619D01*
X118737142Y-78382857D01*
X118737142Y-78525714D01*
X118689523Y-78620952D01*
X118641904Y-78668571D01*
X118546666Y-78716190D01*
X118165714Y-78716190D01*
X119689523Y-79192380D02*
X119118095Y-79192380D01*
X119403809Y-79192380D02*
X119403809Y-78192380D01*
X119308571Y-78335238D01*
X119213333Y-78430476D01*
X119118095Y-78478095D01*
X120022857Y-78192380D02*
X120641904Y-78192380D01*
X120308571Y-78573333D01*
X120451428Y-78573333D01*
X120546666Y-78620952D01*
X120594285Y-78668571D01*
X120641904Y-78763809D01*
X120641904Y-79001904D01*
X120594285Y-79097142D01*
X120546666Y-79144761D01*
X120451428Y-79192380D01*
X120165714Y-79192380D01*
X120070476Y-79144761D01*
X120022857Y-79097142D01*
%TO.C,C15*%
X184663142Y-119768857D02*
X184710761Y-119816476D01*
X184758380Y-119959333D01*
X184758380Y-120054571D01*
X184710761Y-120197428D01*
X184615523Y-120292666D01*
X184520285Y-120340285D01*
X184329809Y-120387904D01*
X184186952Y-120387904D01*
X183996476Y-120340285D01*
X183901238Y-120292666D01*
X183806000Y-120197428D01*
X183758380Y-120054571D01*
X183758380Y-119959333D01*
X183806000Y-119816476D01*
X183853619Y-119768857D01*
X184758380Y-118816476D02*
X184758380Y-119387904D01*
X184758380Y-119102190D02*
X183758380Y-119102190D01*
X183901238Y-119197428D01*
X183996476Y-119292666D01*
X184044095Y-119387904D01*
X183758380Y-117911714D02*
X183758380Y-118387904D01*
X184234571Y-118435523D01*
X184186952Y-118387904D01*
X184139333Y-118292666D01*
X184139333Y-118054571D01*
X184186952Y-117959333D01*
X184234571Y-117911714D01*
X184329809Y-117864095D01*
X184567904Y-117864095D01*
X184663142Y-117911714D01*
X184710761Y-117959333D01*
X184758380Y-118054571D01*
X184758380Y-118292666D01*
X184710761Y-118387904D01*
X184663142Y-118435523D01*
%TO.C,Q5*%
X127039619Y-83661238D02*
X126992000Y-83756476D01*
X126896761Y-83851714D01*
X126753904Y-83994571D01*
X126706285Y-84089809D01*
X126706285Y-84185047D01*
X126944380Y-84137428D02*
X126896761Y-84232666D01*
X126801523Y-84327904D01*
X126611047Y-84375523D01*
X126277714Y-84375523D01*
X126087238Y-84327904D01*
X125992000Y-84232666D01*
X125944380Y-84137428D01*
X125944380Y-83946952D01*
X125992000Y-83851714D01*
X126087238Y-83756476D01*
X126277714Y-83708857D01*
X126611047Y-83708857D01*
X126801523Y-83756476D01*
X126896761Y-83851714D01*
X126944380Y-83946952D01*
X126944380Y-84137428D01*
X125944380Y-82804095D02*
X125944380Y-83280285D01*
X126420571Y-83327904D01*
X126372952Y-83280285D01*
X126325333Y-83185047D01*
X126325333Y-82946952D01*
X126372952Y-82851714D01*
X126420571Y-82804095D01*
X126515809Y-82756476D01*
X126753904Y-82756476D01*
X126849142Y-82804095D01*
X126896761Y-82851714D01*
X126944380Y-82946952D01*
X126944380Y-83185047D01*
X126896761Y-83280285D01*
X126849142Y-83327904D01*
%TO.C,R20*%
X144297941Y-79856726D02*
X144196926Y-80429145D01*
X144702002Y-80260787D02*
X143994895Y-80967893D01*
X143725521Y-80698519D01*
X143691849Y-80597504D01*
X143691849Y-80530161D01*
X143725521Y-80429145D01*
X143826536Y-80328130D01*
X143927552Y-80294458D01*
X143994895Y-80294458D01*
X144095910Y-80328130D01*
X144365284Y-80597504D01*
X143388803Y-80227115D02*
X143321460Y-80227115D01*
X143220445Y-80193443D01*
X143052086Y-80025084D01*
X143018414Y-79924069D01*
X143018414Y-79856726D01*
X143052086Y-79755710D01*
X143119429Y-79688367D01*
X143254116Y-79621023D01*
X144062239Y-79621023D01*
X143624506Y-79183290D01*
X142479666Y-79452664D02*
X142412323Y-79385321D01*
X142378651Y-79284306D01*
X142378651Y-79216962D01*
X142412323Y-79115947D01*
X142513338Y-78947588D01*
X142681697Y-78779229D01*
X142850055Y-78678214D01*
X142951071Y-78644542D01*
X143018414Y-78644542D01*
X143119429Y-78678214D01*
X143186773Y-78745558D01*
X143220445Y-78846573D01*
X143220445Y-78913916D01*
X143186773Y-79014932D01*
X143085758Y-79183290D01*
X142917399Y-79351649D01*
X142749040Y-79452664D01*
X142648025Y-79486336D01*
X142580681Y-79486336D01*
X142479666Y-79452664D01*
%TO.C,R29*%
X179189142Y-77034380D02*
X178855809Y-76558190D01*
X178617714Y-77034380D02*
X178617714Y-76034380D01*
X178998666Y-76034380D01*
X179093904Y-76082000D01*
X179141523Y-76129619D01*
X179189142Y-76224857D01*
X179189142Y-76367714D01*
X179141523Y-76462952D01*
X179093904Y-76510571D01*
X178998666Y-76558190D01*
X178617714Y-76558190D01*
X179570095Y-76129619D02*
X179617714Y-76082000D01*
X179712952Y-76034380D01*
X179951047Y-76034380D01*
X180046285Y-76082000D01*
X180093904Y-76129619D01*
X180141523Y-76224857D01*
X180141523Y-76320095D01*
X180093904Y-76462952D01*
X179522476Y-77034380D01*
X180141523Y-77034380D01*
X180617714Y-77034380D02*
X180808190Y-77034380D01*
X180903428Y-76986761D01*
X180951047Y-76939142D01*
X181046285Y-76796285D01*
X181093904Y-76605809D01*
X181093904Y-76224857D01*
X181046285Y-76129619D01*
X180998666Y-76082000D01*
X180903428Y-76034380D01*
X180712952Y-76034380D01*
X180617714Y-76082000D01*
X180570095Y-76129619D01*
X180522476Y-76224857D01*
X180522476Y-76462952D01*
X180570095Y-76558190D01*
X180617714Y-76605809D01*
X180712952Y-76653428D01*
X180903428Y-76653428D01*
X180998666Y-76605809D01*
X181046285Y-76558190D01*
X181093904Y-76462952D01*
%TO.C,R27*%
X149725142Y-97480380D02*
X149391809Y-97004190D01*
X149153714Y-97480380D02*
X149153714Y-96480380D01*
X149534666Y-96480380D01*
X149629904Y-96528000D01*
X149677523Y-96575619D01*
X149725142Y-96670857D01*
X149725142Y-96813714D01*
X149677523Y-96908952D01*
X149629904Y-96956571D01*
X149534666Y-97004190D01*
X149153714Y-97004190D01*
X150106095Y-96575619D02*
X150153714Y-96528000D01*
X150248952Y-96480380D01*
X150487047Y-96480380D01*
X150582285Y-96528000D01*
X150629904Y-96575619D01*
X150677523Y-96670857D01*
X150677523Y-96766095D01*
X150629904Y-96908952D01*
X150058476Y-97480380D01*
X150677523Y-97480380D01*
X151010857Y-96480380D02*
X151677523Y-96480380D01*
X151248952Y-97480380D01*
%TO.C,R12*%
X111117142Y-82368380D02*
X110783809Y-81892190D01*
X110545714Y-82368380D02*
X110545714Y-81368380D01*
X110926666Y-81368380D01*
X111021904Y-81416000D01*
X111069523Y-81463619D01*
X111117142Y-81558857D01*
X111117142Y-81701714D01*
X111069523Y-81796952D01*
X111021904Y-81844571D01*
X110926666Y-81892190D01*
X110545714Y-81892190D01*
X112069523Y-82368380D02*
X111498095Y-82368380D01*
X111783809Y-82368380D02*
X111783809Y-81368380D01*
X111688571Y-81511238D01*
X111593333Y-81606476D01*
X111498095Y-81654095D01*
X112450476Y-81463619D02*
X112498095Y-81416000D01*
X112593333Y-81368380D01*
X112831428Y-81368380D01*
X112926666Y-81416000D01*
X112974285Y-81463619D01*
X113021904Y-81558857D01*
X113021904Y-81654095D01*
X112974285Y-81796952D01*
X112402857Y-82368380D01*
X113021904Y-82368380D01*
%TO.C,Q4*%
X116306761Y-76605619D02*
X116211523Y-76558000D01*
X116116285Y-76462761D01*
X115973428Y-76319904D01*
X115878190Y-76272285D01*
X115782952Y-76272285D01*
X115830571Y-76510380D02*
X115735333Y-76462761D01*
X115640095Y-76367523D01*
X115592476Y-76177047D01*
X115592476Y-75843714D01*
X115640095Y-75653238D01*
X115735333Y-75558000D01*
X115830571Y-75510380D01*
X116021047Y-75510380D01*
X116116285Y-75558000D01*
X116211523Y-75653238D01*
X116259142Y-75843714D01*
X116259142Y-76177047D01*
X116211523Y-76367523D01*
X116116285Y-76462761D01*
X116021047Y-76510380D01*
X115830571Y-76510380D01*
X117116285Y-75843714D02*
X117116285Y-76510380D01*
X116878190Y-75462761D02*
X116640095Y-76177047D01*
X117259142Y-76177047D01*
%TO.C,Q9*%
X183186619Y-94583238D02*
X183139000Y-94678476D01*
X183043761Y-94773714D01*
X182900904Y-94916571D01*
X182853285Y-95011809D01*
X182853285Y-95107047D01*
X183091380Y-95059428D02*
X183043761Y-95154666D01*
X182948523Y-95249904D01*
X182758047Y-95297523D01*
X182424714Y-95297523D01*
X182234238Y-95249904D01*
X182139000Y-95154666D01*
X182091380Y-95059428D01*
X182091380Y-94868952D01*
X182139000Y-94773714D01*
X182234238Y-94678476D01*
X182424714Y-94630857D01*
X182758047Y-94630857D01*
X182948523Y-94678476D01*
X183043761Y-94773714D01*
X183091380Y-94868952D01*
X183091380Y-95059428D01*
X183091380Y-94154666D02*
X183091380Y-93964190D01*
X183043761Y-93868952D01*
X182996142Y-93821333D01*
X182853285Y-93726095D01*
X182662809Y-93678476D01*
X182281857Y-93678476D01*
X182186619Y-93726095D01*
X182139000Y-93773714D01*
X182091380Y-93868952D01*
X182091380Y-94059428D01*
X182139000Y-94154666D01*
X182186619Y-94202285D01*
X182281857Y-94249904D01*
X182519952Y-94249904D01*
X182615190Y-94202285D01*
X182662809Y-94154666D01*
X182710428Y-94059428D01*
X182710428Y-93868952D01*
X182662809Y-93773714D01*
X182615190Y-93726095D01*
X182519952Y-93678476D01*
%TO.C,J4*%
X138720380Y-140287333D02*
X139434666Y-140287333D01*
X139577523Y-140334952D01*
X139672761Y-140430190D01*
X139720380Y-140573047D01*
X139720380Y-140668285D01*
X139053714Y-139382571D02*
X139720380Y-139382571D01*
X138672761Y-139620666D02*
X139387047Y-139858761D01*
X139387047Y-139239714D01*
%TO.C,R3*%
X110520333Y-63811380D02*
X110187000Y-63335190D01*
X109948904Y-63811380D02*
X109948904Y-62811380D01*
X110329857Y-62811380D01*
X110425095Y-62859000D01*
X110472714Y-62906619D01*
X110520333Y-63001857D01*
X110520333Y-63144714D01*
X110472714Y-63239952D01*
X110425095Y-63287571D01*
X110329857Y-63335190D01*
X109948904Y-63335190D01*
X110853666Y-62811380D02*
X111472714Y-62811380D01*
X111139380Y-63192333D01*
X111282238Y-63192333D01*
X111377476Y-63239952D01*
X111425095Y-63287571D01*
X111472714Y-63382809D01*
X111472714Y-63620904D01*
X111425095Y-63716142D01*
X111377476Y-63763761D01*
X111282238Y-63811380D01*
X110996523Y-63811380D01*
X110901285Y-63763761D01*
X110853666Y-63716142D01*
%TO.C,U4*%
X132080095Y-75858380D02*
X132080095Y-76667904D01*
X132127714Y-76763142D01*
X132175333Y-76810761D01*
X132270571Y-76858380D01*
X132461047Y-76858380D01*
X132556285Y-76810761D01*
X132603904Y-76763142D01*
X132651523Y-76667904D01*
X132651523Y-75858380D01*
X133556285Y-76191714D02*
X133556285Y-76858380D01*
X133318190Y-75810761D02*
X133080095Y-76525047D01*
X133699142Y-76525047D01*
%TO.C,R47*%
X152519142Y-127326380D02*
X152185809Y-126850190D01*
X151947714Y-127326380D02*
X151947714Y-126326380D01*
X152328666Y-126326380D01*
X152423904Y-126374000D01*
X152471523Y-126421619D01*
X152519142Y-126516857D01*
X152519142Y-126659714D01*
X152471523Y-126754952D01*
X152423904Y-126802571D01*
X152328666Y-126850190D01*
X151947714Y-126850190D01*
X153376285Y-126659714D02*
X153376285Y-127326380D01*
X153138190Y-126278761D02*
X152900095Y-126993047D01*
X153519142Y-126993047D01*
X153804857Y-126326380D02*
X154471523Y-126326380D01*
X154042952Y-127326380D01*
%TO.C,R22*%
X147644380Y-69476857D02*
X147168190Y-69810190D01*
X147644380Y-70048285D02*
X146644380Y-70048285D01*
X146644380Y-69667333D01*
X146692000Y-69572095D01*
X146739619Y-69524476D01*
X146834857Y-69476857D01*
X146977714Y-69476857D01*
X147072952Y-69524476D01*
X147120571Y-69572095D01*
X147168190Y-69667333D01*
X147168190Y-70048285D01*
X146739619Y-69095904D02*
X146692000Y-69048285D01*
X146644380Y-68953047D01*
X146644380Y-68714952D01*
X146692000Y-68619714D01*
X146739619Y-68572095D01*
X146834857Y-68524476D01*
X146930095Y-68524476D01*
X147072952Y-68572095D01*
X147644380Y-69143523D01*
X147644380Y-68524476D01*
X146739619Y-68143523D02*
X146692000Y-68095904D01*
X146644380Y-68000666D01*
X146644380Y-67762571D01*
X146692000Y-67667333D01*
X146739619Y-67619714D01*
X146834857Y-67572095D01*
X146930095Y-67572095D01*
X147072952Y-67619714D01*
X147644380Y-68191142D01*
X147644380Y-67572095D01*
%TO.C,J3*%
X154916761Y-138628380D02*
X154916761Y-137628380D01*
X155250095Y-138342666D01*
X155583428Y-137628380D01*
X155583428Y-138628380D01*
X156250095Y-137628380D02*
X156440571Y-137628380D01*
X156535809Y-137676000D01*
X156631047Y-137771238D01*
X156678666Y-137961714D01*
X156678666Y-138295047D01*
X156631047Y-138485523D01*
X156535809Y-138580761D01*
X156440571Y-138628380D01*
X156250095Y-138628380D01*
X156154857Y-138580761D01*
X156059619Y-138485523D01*
X156012000Y-138295047D01*
X156012000Y-137961714D01*
X156059619Y-137771238D01*
X156154857Y-137676000D01*
X156250095Y-137628380D01*
X157107238Y-138628380D02*
X157107238Y-137628380D01*
X157345333Y-137628380D01*
X157488190Y-137676000D01*
X157583428Y-137771238D01*
X157631047Y-137866476D01*
X157678666Y-138056952D01*
X157678666Y-138199809D01*
X157631047Y-138390285D01*
X157583428Y-138485523D01*
X157488190Y-138580761D01*
X157345333Y-138628380D01*
X157107238Y-138628380D01*
X158107238Y-138104571D02*
X158440571Y-138104571D01*
X158583428Y-138628380D02*
X158107238Y-138628380D01*
X158107238Y-137628380D01*
X158583428Y-137628380D01*
X159012000Y-138628380D02*
X159012000Y-137628380D01*
X159345333Y-138342666D01*
X159678666Y-137628380D01*
X159678666Y-138628380D01*
X160916761Y-137628380D02*
X160916761Y-138437904D01*
X160964380Y-138533142D01*
X161012000Y-138580761D01*
X161107238Y-138628380D01*
X161297714Y-138628380D01*
X161392952Y-138580761D01*
X161440571Y-138533142D01*
X161488190Y-138437904D01*
X161488190Y-137628380D01*
X161916761Y-138342666D02*
X162392952Y-138342666D01*
X161821523Y-138628380D02*
X162154857Y-137628380D01*
X162488190Y-138628380D01*
X163392952Y-138628380D02*
X163059619Y-138152190D01*
X162821523Y-138628380D02*
X162821523Y-137628380D01*
X163202476Y-137628380D01*
X163297714Y-137676000D01*
X163345333Y-137723619D01*
X163392952Y-137818857D01*
X163392952Y-137961714D01*
X163345333Y-138056952D01*
X163297714Y-138104571D01*
X163202476Y-138152190D01*
X162821523Y-138152190D01*
X163678666Y-137628380D02*
X164250095Y-137628380D01*
X163964380Y-138628380D02*
X163964380Y-137628380D01*
%TO.C,D2*%
X176203380Y-140692095D02*
X175203380Y-140692095D01*
X175203380Y-140454000D01*
X175251000Y-140311142D01*
X175346238Y-140215904D01*
X175441476Y-140168285D01*
X175631952Y-140120666D01*
X175774809Y-140120666D01*
X175965285Y-140168285D01*
X176060523Y-140215904D01*
X176155761Y-140311142D01*
X176203380Y-140454000D01*
X176203380Y-140692095D01*
X175298619Y-139739714D02*
X175251000Y-139692095D01*
X175203380Y-139596857D01*
X175203380Y-139358761D01*
X175251000Y-139263523D01*
X175298619Y-139215904D01*
X175393857Y-139168285D01*
X175489095Y-139168285D01*
X175631952Y-139215904D01*
X176203380Y-139787333D01*
X176203380Y-139168285D01*
%TO.C,R14*%
X104846380Y-79636857D02*
X104370190Y-79970190D01*
X104846380Y-80208285D02*
X103846380Y-80208285D01*
X103846380Y-79827333D01*
X103894000Y-79732095D01*
X103941619Y-79684476D01*
X104036857Y-79636857D01*
X104179714Y-79636857D01*
X104274952Y-79684476D01*
X104322571Y-79732095D01*
X104370190Y-79827333D01*
X104370190Y-80208285D01*
X104846380Y-78684476D02*
X104846380Y-79255904D01*
X104846380Y-78970190D02*
X103846380Y-78970190D01*
X103989238Y-79065428D01*
X104084476Y-79160666D01*
X104132095Y-79255904D01*
X104179714Y-77827333D02*
X104846380Y-77827333D01*
X103798761Y-78065428D02*
X104513047Y-78303523D01*
X104513047Y-77684476D01*
%TO.C,Q10*%
X175196571Y-86145619D02*
X175101333Y-86098000D01*
X175006095Y-86002761D01*
X174863238Y-85859904D01*
X174768000Y-85812285D01*
X174672761Y-85812285D01*
X174720380Y-86050380D02*
X174625142Y-86002761D01*
X174529904Y-85907523D01*
X174482285Y-85717047D01*
X174482285Y-85383714D01*
X174529904Y-85193238D01*
X174625142Y-85098000D01*
X174720380Y-85050380D01*
X174910857Y-85050380D01*
X175006095Y-85098000D01*
X175101333Y-85193238D01*
X175148952Y-85383714D01*
X175148952Y-85717047D01*
X175101333Y-85907523D01*
X175006095Y-86002761D01*
X174910857Y-86050380D01*
X174720380Y-86050380D01*
X176101333Y-86050380D02*
X175529904Y-86050380D01*
X175815619Y-86050380D02*
X175815619Y-85050380D01*
X175720380Y-85193238D01*
X175625142Y-85288476D01*
X175529904Y-85336095D01*
X176720380Y-85050380D02*
X176815619Y-85050380D01*
X176910857Y-85098000D01*
X176958476Y-85145619D01*
X177006095Y-85240857D01*
X177053714Y-85431333D01*
X177053714Y-85669428D01*
X177006095Y-85859904D01*
X176958476Y-85955142D01*
X176910857Y-86002761D01*
X176815619Y-86050380D01*
X176720380Y-86050380D01*
X176625142Y-86002761D01*
X176577523Y-85955142D01*
X176529904Y-85859904D01*
X176482285Y-85669428D01*
X176482285Y-85431333D01*
X176529904Y-85240857D01*
X176577523Y-85145619D01*
X176625142Y-85098000D01*
X176720380Y-85050380D01*
%TO.C,Q1*%
X127920761Y-64047619D02*
X127825523Y-64000000D01*
X127730285Y-63904761D01*
X127587428Y-63761904D01*
X127492190Y-63714285D01*
X127396952Y-63714285D01*
X127444571Y-63952380D02*
X127349333Y-63904761D01*
X127254095Y-63809523D01*
X127206476Y-63619047D01*
X127206476Y-63285714D01*
X127254095Y-63095238D01*
X127349333Y-63000000D01*
X127444571Y-62952380D01*
X127635047Y-62952380D01*
X127730285Y-63000000D01*
X127825523Y-63095238D01*
X127873142Y-63285714D01*
X127873142Y-63619047D01*
X127825523Y-63809523D01*
X127730285Y-63904761D01*
X127635047Y-63952380D01*
X127444571Y-63952380D01*
X128825523Y-63952380D02*
X128254095Y-63952380D01*
X128539809Y-63952380D02*
X128539809Y-62952380D01*
X128444571Y-63095238D01*
X128349333Y-63190476D01*
X128254095Y-63238095D01*
%TO.C,R17*%
X132199142Y-84126380D02*
X131865809Y-83650190D01*
X131627714Y-84126380D02*
X131627714Y-83126380D01*
X132008666Y-83126380D01*
X132103904Y-83174000D01*
X132151523Y-83221619D01*
X132199142Y-83316857D01*
X132199142Y-83459714D01*
X132151523Y-83554952D01*
X132103904Y-83602571D01*
X132008666Y-83650190D01*
X131627714Y-83650190D01*
X133151523Y-84126380D02*
X132580095Y-84126380D01*
X132865809Y-84126380D02*
X132865809Y-83126380D01*
X132770571Y-83269238D01*
X132675333Y-83364476D01*
X132580095Y-83412095D01*
X133484857Y-83126380D02*
X134151523Y-83126380D01*
X133722952Y-84126380D01*
%TO.C,C20*%
X133469142Y-73763142D02*
X133421523Y-73810761D01*
X133278666Y-73858380D01*
X133183428Y-73858380D01*
X133040571Y-73810761D01*
X132945333Y-73715523D01*
X132897714Y-73620285D01*
X132850095Y-73429809D01*
X132850095Y-73286952D01*
X132897714Y-73096476D01*
X132945333Y-73001238D01*
X133040571Y-72906000D01*
X133183428Y-72858380D01*
X133278666Y-72858380D01*
X133421523Y-72906000D01*
X133469142Y-72953619D01*
X133850095Y-72953619D02*
X133897714Y-72906000D01*
X133992952Y-72858380D01*
X134231047Y-72858380D01*
X134326285Y-72906000D01*
X134373904Y-72953619D01*
X134421523Y-73048857D01*
X134421523Y-73144095D01*
X134373904Y-73286952D01*
X133802476Y-73858380D01*
X134421523Y-73858380D01*
X135040571Y-72858380D02*
X135135809Y-72858380D01*
X135231047Y-72906000D01*
X135278666Y-72953619D01*
X135326285Y-73048857D01*
X135373904Y-73239333D01*
X135373904Y-73477428D01*
X135326285Y-73667904D01*
X135278666Y-73763142D01*
X135231047Y-73810761D01*
X135135809Y-73858380D01*
X135040571Y-73858380D01*
X134945333Y-73810761D01*
X134897714Y-73763142D01*
X134850095Y-73667904D01*
X134802476Y-73477428D01*
X134802476Y-73239333D01*
X134850095Y-73048857D01*
X134897714Y-72953619D01*
X134945333Y-72906000D01*
X135040571Y-72858380D01*
%TO.C,R1*%
X122515333Y-79460380D02*
X122182000Y-78984190D01*
X121943904Y-79460380D02*
X121943904Y-78460380D01*
X122324857Y-78460380D01*
X122420095Y-78508000D01*
X122467714Y-78555619D01*
X122515333Y-78650857D01*
X122515333Y-78793714D01*
X122467714Y-78888952D01*
X122420095Y-78936571D01*
X122324857Y-78984190D01*
X121943904Y-78984190D01*
X123467714Y-79460380D02*
X122896285Y-79460380D01*
X123182000Y-79460380D02*
X123182000Y-78460380D01*
X123086761Y-78603238D01*
X122991523Y-78698476D01*
X122896285Y-78746095D01*
%TO.C,U5*%
X149860095Y-101306380D02*
X149860095Y-102115904D01*
X149907714Y-102211142D01*
X149955333Y-102258761D01*
X150050571Y-102306380D01*
X150241047Y-102306380D01*
X150336285Y-102258761D01*
X150383904Y-102211142D01*
X150431523Y-102115904D01*
X150431523Y-101306380D01*
X151383904Y-101306380D02*
X150907714Y-101306380D01*
X150860095Y-101782571D01*
X150907714Y-101734952D01*
X151002952Y-101687333D01*
X151241047Y-101687333D01*
X151336285Y-101734952D01*
X151383904Y-101782571D01*
X151431523Y-101877809D01*
X151431523Y-102115904D01*
X151383904Y-102211142D01*
X151336285Y-102258761D01*
X151241047Y-102306380D01*
X151002952Y-102306380D01*
X150907714Y-102258761D01*
X150860095Y-102211142D01*
%TO.C,C14*%
X138181142Y-79636857D02*
X138228761Y-79684476D01*
X138276380Y-79827333D01*
X138276380Y-79922571D01*
X138228761Y-80065428D01*
X138133523Y-80160666D01*
X138038285Y-80208285D01*
X137847809Y-80255904D01*
X137704952Y-80255904D01*
X137514476Y-80208285D01*
X137419238Y-80160666D01*
X137324000Y-80065428D01*
X137276380Y-79922571D01*
X137276380Y-79827333D01*
X137324000Y-79684476D01*
X137371619Y-79636857D01*
X138276380Y-78684476D02*
X138276380Y-79255904D01*
X138276380Y-78970190D02*
X137276380Y-78970190D01*
X137419238Y-79065428D01*
X137514476Y-79160666D01*
X137562095Y-79255904D01*
X137609714Y-77827333D02*
X138276380Y-77827333D01*
X137228761Y-78065428D02*
X137943047Y-78303523D01*
X137943047Y-77684476D01*
%TO.C,R36*%
X124784380Y-138056857D02*
X124308190Y-138390190D01*
X124784380Y-138628285D02*
X123784380Y-138628285D01*
X123784380Y-138247333D01*
X123832000Y-138152095D01*
X123879619Y-138104476D01*
X123974857Y-138056857D01*
X124117714Y-138056857D01*
X124212952Y-138104476D01*
X124260571Y-138152095D01*
X124308190Y-138247333D01*
X124308190Y-138628285D01*
X123784380Y-137723523D02*
X123784380Y-137104476D01*
X124165333Y-137437809D01*
X124165333Y-137294952D01*
X124212952Y-137199714D01*
X124260571Y-137152095D01*
X124355809Y-137104476D01*
X124593904Y-137104476D01*
X124689142Y-137152095D01*
X124736761Y-137199714D01*
X124784380Y-137294952D01*
X124784380Y-137580666D01*
X124736761Y-137675904D01*
X124689142Y-137723523D01*
X123784380Y-136247333D02*
X123784380Y-136437809D01*
X123832000Y-136533047D01*
X123879619Y-136580666D01*
X124022476Y-136675904D01*
X124212952Y-136723523D01*
X124593904Y-136723523D01*
X124689142Y-136675904D01*
X124736761Y-136628285D01*
X124784380Y-136533047D01*
X124784380Y-136342571D01*
X124736761Y-136247333D01*
X124689142Y-136199714D01*
X124593904Y-136152095D01*
X124355809Y-136152095D01*
X124260571Y-136199714D01*
X124212952Y-136247333D01*
X124165333Y-136342571D01*
X124165333Y-136533047D01*
X124212952Y-136628285D01*
X124260571Y-136675904D01*
X124355809Y-136723523D01*
%TO.C,Q11*%
X185967619Y-105219428D02*
X185920000Y-105314666D01*
X185824761Y-105409904D01*
X185681904Y-105552761D01*
X185634285Y-105648000D01*
X185634285Y-105743238D01*
X185872380Y-105695619D02*
X185824761Y-105790857D01*
X185729523Y-105886095D01*
X185539047Y-105933714D01*
X185205714Y-105933714D01*
X185015238Y-105886095D01*
X184920000Y-105790857D01*
X184872380Y-105695619D01*
X184872380Y-105505142D01*
X184920000Y-105409904D01*
X185015238Y-105314666D01*
X185205714Y-105267047D01*
X185539047Y-105267047D01*
X185729523Y-105314666D01*
X185824761Y-105409904D01*
X185872380Y-105505142D01*
X185872380Y-105695619D01*
X185872380Y-104314666D02*
X185872380Y-104886095D01*
X185872380Y-104600380D02*
X184872380Y-104600380D01*
X185015238Y-104695619D01*
X185110476Y-104790857D01*
X185158095Y-104886095D01*
X185872380Y-103362285D02*
X185872380Y-103933714D01*
X185872380Y-103648000D02*
X184872380Y-103648000D01*
X185015238Y-103743238D01*
X185110476Y-103838476D01*
X185158095Y-103933714D01*
%TO.C,R28*%
X179189142Y-82366380D02*
X178855809Y-81890190D01*
X178617714Y-82366380D02*
X178617714Y-81366380D01*
X178998666Y-81366380D01*
X179093904Y-81414000D01*
X179141523Y-81461619D01*
X179189142Y-81556857D01*
X179189142Y-81699714D01*
X179141523Y-81794952D01*
X179093904Y-81842571D01*
X178998666Y-81890190D01*
X178617714Y-81890190D01*
X179570095Y-81461619D02*
X179617714Y-81414000D01*
X179712952Y-81366380D01*
X179951047Y-81366380D01*
X180046285Y-81414000D01*
X180093904Y-81461619D01*
X180141523Y-81556857D01*
X180141523Y-81652095D01*
X180093904Y-81794952D01*
X179522476Y-82366380D01*
X180141523Y-82366380D01*
X180712952Y-81794952D02*
X180617714Y-81747333D01*
X180570095Y-81699714D01*
X180522476Y-81604476D01*
X180522476Y-81556857D01*
X180570095Y-81461619D01*
X180617714Y-81414000D01*
X180712952Y-81366380D01*
X180903428Y-81366380D01*
X180998666Y-81414000D01*
X181046285Y-81461619D01*
X181093904Y-81556857D01*
X181093904Y-81604476D01*
X181046285Y-81699714D01*
X180998666Y-81747333D01*
X180903428Y-81794952D01*
X180712952Y-81794952D01*
X180617714Y-81842571D01*
X180570095Y-81890190D01*
X180522476Y-81985428D01*
X180522476Y-82175904D01*
X180570095Y-82271142D01*
X180617714Y-82318761D01*
X180712952Y-82366380D01*
X180903428Y-82366380D01*
X180998666Y-82318761D01*
X181046285Y-82271142D01*
X181093904Y-82175904D01*
X181093904Y-81985428D01*
X181046285Y-81890190D01*
X180998666Y-81842571D01*
X180903428Y-81794952D01*
%TO.C,R9*%
X104846380Y-75350666D02*
X104370190Y-75684000D01*
X104846380Y-75922095D02*
X103846380Y-75922095D01*
X103846380Y-75541142D01*
X103894000Y-75445904D01*
X103941619Y-75398285D01*
X104036857Y-75350666D01*
X104179714Y-75350666D01*
X104274952Y-75398285D01*
X104322571Y-75445904D01*
X104370190Y-75541142D01*
X104370190Y-75922095D01*
X104846380Y-74874476D02*
X104846380Y-74684000D01*
X104798761Y-74588761D01*
X104751142Y-74541142D01*
X104608285Y-74445904D01*
X104417809Y-74398285D01*
X104036857Y-74398285D01*
X103941619Y-74445904D01*
X103894000Y-74493523D01*
X103846380Y-74588761D01*
X103846380Y-74779238D01*
X103894000Y-74874476D01*
X103941619Y-74922095D01*
X104036857Y-74969714D01*
X104274952Y-74969714D01*
X104370190Y-74922095D01*
X104417809Y-74874476D01*
X104465428Y-74779238D01*
X104465428Y-74588761D01*
X104417809Y-74493523D01*
X104370190Y-74445904D01*
X104274952Y-74398285D01*
%TO.C,R21*%
X140728450Y-83954687D02*
X140627435Y-84527106D01*
X141132511Y-84358748D02*
X140425404Y-85065854D01*
X140156030Y-84796480D01*
X140122358Y-84695465D01*
X140122358Y-84628122D01*
X140156030Y-84527106D01*
X140257045Y-84426091D01*
X140358061Y-84392419D01*
X140425404Y-84392419D01*
X140526419Y-84426091D01*
X140795793Y-84695465D01*
X139819312Y-84325076D02*
X139751969Y-84325076D01*
X139650954Y-84291404D01*
X139482595Y-84123045D01*
X139448923Y-84022030D01*
X139448923Y-83954687D01*
X139482595Y-83853671D01*
X139549938Y-83786328D01*
X139684625Y-83718984D01*
X140492748Y-83718984D01*
X140055015Y-83281251D01*
X139381580Y-82607816D02*
X139785641Y-83011877D01*
X139583610Y-82809847D02*
X138876503Y-83516954D01*
X139044862Y-83483282D01*
X139179549Y-83483282D01*
X139280564Y-83516954D01*
%TO.C,C4*%
X110339142Y-73684666D02*
X110386761Y-73732285D01*
X110434380Y-73875142D01*
X110434380Y-73970380D01*
X110386761Y-74113238D01*
X110291523Y-74208476D01*
X110196285Y-74256095D01*
X110005809Y-74303714D01*
X109862952Y-74303714D01*
X109672476Y-74256095D01*
X109577238Y-74208476D01*
X109482000Y-74113238D01*
X109434380Y-73970380D01*
X109434380Y-73875142D01*
X109482000Y-73732285D01*
X109529619Y-73684666D01*
X109767714Y-72827523D02*
X110434380Y-72827523D01*
X109386761Y-73065619D02*
X110101047Y-73303714D01*
X110101047Y-72684666D01*
%TO.C,C17*%
X160025142Y-104528857D02*
X160072761Y-104576476D01*
X160120380Y-104719333D01*
X160120380Y-104814571D01*
X160072761Y-104957428D01*
X159977523Y-105052666D01*
X159882285Y-105100285D01*
X159691809Y-105147904D01*
X159548952Y-105147904D01*
X159358476Y-105100285D01*
X159263238Y-105052666D01*
X159168000Y-104957428D01*
X159120380Y-104814571D01*
X159120380Y-104719333D01*
X159168000Y-104576476D01*
X159215619Y-104528857D01*
X160120380Y-103576476D02*
X160120380Y-104147904D01*
X160120380Y-103862190D02*
X159120380Y-103862190D01*
X159263238Y-103957428D01*
X159358476Y-104052666D01*
X159406095Y-104147904D01*
X159120380Y-103243142D02*
X159120380Y-102576476D01*
X160120380Y-103005047D01*
%TO.C,Q12*%
X152590571Y-134913619D02*
X152495333Y-134866000D01*
X152400095Y-134770761D01*
X152257238Y-134627904D01*
X152162000Y-134580285D01*
X152066761Y-134580285D01*
X152114380Y-134818380D02*
X152019142Y-134770761D01*
X151923904Y-134675523D01*
X151876285Y-134485047D01*
X151876285Y-134151714D01*
X151923904Y-133961238D01*
X152019142Y-133866000D01*
X152114380Y-133818380D01*
X152304857Y-133818380D01*
X152400095Y-133866000D01*
X152495333Y-133961238D01*
X152542952Y-134151714D01*
X152542952Y-134485047D01*
X152495333Y-134675523D01*
X152400095Y-134770761D01*
X152304857Y-134818380D01*
X152114380Y-134818380D01*
X153495333Y-134818380D02*
X152923904Y-134818380D01*
X153209619Y-134818380D02*
X153209619Y-133818380D01*
X153114380Y-133961238D01*
X153019142Y-134056476D01*
X152923904Y-134104095D01*
X153876285Y-133913619D02*
X153923904Y-133866000D01*
X154019142Y-133818380D01*
X154257238Y-133818380D01*
X154352476Y-133866000D01*
X154400095Y-133913619D01*
X154447714Y-134008857D01*
X154447714Y-134104095D01*
X154400095Y-134246952D01*
X153828666Y-134818380D01*
X154447714Y-134818380D01*
%TO.C,Q6*%
X114339619Y-83661238D02*
X114292000Y-83756476D01*
X114196761Y-83851714D01*
X114053904Y-83994571D01*
X114006285Y-84089809D01*
X114006285Y-84185047D01*
X114244380Y-84137428D02*
X114196761Y-84232666D01*
X114101523Y-84327904D01*
X113911047Y-84375523D01*
X113577714Y-84375523D01*
X113387238Y-84327904D01*
X113292000Y-84232666D01*
X113244380Y-84137428D01*
X113244380Y-83946952D01*
X113292000Y-83851714D01*
X113387238Y-83756476D01*
X113577714Y-83708857D01*
X113911047Y-83708857D01*
X114101523Y-83756476D01*
X114196761Y-83851714D01*
X114244380Y-83946952D01*
X114244380Y-84137428D01*
X113244380Y-82851714D02*
X113244380Y-83042190D01*
X113292000Y-83137428D01*
X113339619Y-83185047D01*
X113482476Y-83280285D01*
X113672952Y-83327904D01*
X114053904Y-83327904D01*
X114149142Y-83280285D01*
X114196761Y-83232666D01*
X114244380Y-83137428D01*
X114244380Y-82946952D01*
X114196761Y-82851714D01*
X114149142Y-82804095D01*
X114053904Y-82756476D01*
X113815809Y-82756476D01*
X113720571Y-82804095D01*
X113672952Y-82851714D01*
X113625333Y-82946952D01*
X113625333Y-83137428D01*
X113672952Y-83232666D01*
X113720571Y-83280285D01*
X113815809Y-83327904D01*
%TO.C,C32*%
X180443142Y-91320857D02*
X180490761Y-91368476D01*
X180538380Y-91511333D01*
X180538380Y-91606571D01*
X180490761Y-91749428D01*
X180395523Y-91844666D01*
X180300285Y-91892285D01*
X180109809Y-91939904D01*
X179966952Y-91939904D01*
X179776476Y-91892285D01*
X179681238Y-91844666D01*
X179586000Y-91749428D01*
X179538380Y-91606571D01*
X179538380Y-91511333D01*
X179586000Y-91368476D01*
X179633619Y-91320857D01*
X179538380Y-90987523D02*
X179538380Y-90368476D01*
X179919333Y-90701809D01*
X179919333Y-90558952D01*
X179966952Y-90463714D01*
X180014571Y-90416095D01*
X180109809Y-90368476D01*
X180347904Y-90368476D01*
X180443142Y-90416095D01*
X180490761Y-90463714D01*
X180538380Y-90558952D01*
X180538380Y-90844666D01*
X180490761Y-90939904D01*
X180443142Y-90987523D01*
X179633619Y-89987523D02*
X179586000Y-89939904D01*
X179538380Y-89844666D01*
X179538380Y-89606571D01*
X179586000Y-89511333D01*
X179633619Y-89463714D01*
X179728857Y-89416095D01*
X179824095Y-89416095D01*
X179966952Y-89463714D01*
X180538380Y-90035142D01*
X180538380Y-89416095D01*
%TO.C,D3*%
X184173904Y-64492380D02*
X184173904Y-63492380D01*
X184412000Y-63492380D01*
X184554857Y-63540000D01*
X184650095Y-63635238D01*
X184697714Y-63730476D01*
X184745333Y-63920952D01*
X184745333Y-64063809D01*
X184697714Y-64254285D01*
X184650095Y-64349523D01*
X184554857Y-64444761D01*
X184412000Y-64492380D01*
X184173904Y-64492380D01*
X185078666Y-63492380D02*
X185697714Y-63492380D01*
X185364380Y-63873333D01*
X185507238Y-63873333D01*
X185602476Y-63920952D01*
X185650095Y-63968571D01*
X185697714Y-64063809D01*
X185697714Y-64301904D01*
X185650095Y-64397142D01*
X185602476Y-64444761D01*
X185507238Y-64492380D01*
X185221523Y-64492380D01*
X185126285Y-64444761D01*
X185078666Y-64397142D01*
%TO.C,R43*%
X182570380Y-88272857D02*
X182094190Y-88606190D01*
X182570380Y-88844285D02*
X181570380Y-88844285D01*
X181570380Y-88463333D01*
X181618000Y-88368095D01*
X181665619Y-88320476D01*
X181760857Y-88272857D01*
X181903714Y-88272857D01*
X181998952Y-88320476D01*
X182046571Y-88368095D01*
X182094190Y-88463333D01*
X182094190Y-88844285D01*
X181903714Y-87415714D02*
X182570380Y-87415714D01*
X181522761Y-87653809D02*
X182237047Y-87891904D01*
X182237047Y-87272857D01*
X181570380Y-86987142D02*
X181570380Y-86368095D01*
X181951333Y-86701428D01*
X181951333Y-86558571D01*
X181998952Y-86463333D01*
X182046571Y-86415714D01*
X182141809Y-86368095D01*
X182379904Y-86368095D01*
X182475142Y-86415714D01*
X182522761Y-86463333D01*
X182570380Y-86558571D01*
X182570380Y-86844285D01*
X182522761Y-86939523D01*
X182475142Y-86987142D01*
%TO.C,D10*%
X186237714Y-111450380D02*
X186237714Y-110450380D01*
X186475809Y-110450380D01*
X186618666Y-110498000D01*
X186713904Y-110593238D01*
X186761523Y-110688476D01*
X186809142Y-110878952D01*
X186809142Y-111021809D01*
X186761523Y-111212285D01*
X186713904Y-111307523D01*
X186618666Y-111402761D01*
X186475809Y-111450380D01*
X186237714Y-111450380D01*
X187761523Y-111450380D02*
X187190095Y-111450380D01*
X187475809Y-111450380D02*
X187475809Y-110450380D01*
X187380571Y-110593238D01*
X187285333Y-110688476D01*
X187190095Y-110736095D01*
X188380571Y-110450380D02*
X188475809Y-110450380D01*
X188571047Y-110498000D01*
X188618666Y-110545619D01*
X188666285Y-110640857D01*
X188713904Y-110831333D01*
X188713904Y-111069428D01*
X188666285Y-111259904D01*
X188618666Y-111355142D01*
X188571047Y-111402761D01*
X188475809Y-111450380D01*
X188380571Y-111450380D01*
X188285333Y-111402761D01*
X188237714Y-111355142D01*
X188190095Y-111259904D01*
X188142476Y-111069428D01*
X188142476Y-110831333D01*
X188190095Y-110640857D01*
X188237714Y-110545619D01*
X188285333Y-110498000D01*
X188380571Y-110450380D01*
%TO.C,U9*%
X133350095Y-64984380D02*
X133350095Y-65793904D01*
X133397714Y-65889142D01*
X133445333Y-65936761D01*
X133540571Y-65984380D01*
X133731047Y-65984380D01*
X133826285Y-65936761D01*
X133873904Y-65889142D01*
X133921523Y-65793904D01*
X133921523Y-64984380D01*
X134445333Y-65984380D02*
X134635809Y-65984380D01*
X134731047Y-65936761D01*
X134778666Y-65889142D01*
X134873904Y-65746285D01*
X134921523Y-65555809D01*
X134921523Y-65174857D01*
X134873904Y-65079619D01*
X134826285Y-65032000D01*
X134731047Y-64984380D01*
X134540571Y-64984380D01*
X134445333Y-65032000D01*
X134397714Y-65079619D01*
X134350095Y-65174857D01*
X134350095Y-65412952D01*
X134397714Y-65508190D01*
X134445333Y-65555809D01*
X134540571Y-65603428D01*
X134731047Y-65603428D01*
X134826285Y-65555809D01*
X134873904Y-65508190D01*
X134921523Y-65412952D01*
D11*
%TO.C,A3*%
X150295428Y-133313714D02*
X150295428Y-133023428D01*
X150222857Y-132878285D01*
X150150285Y-132805714D01*
X149932571Y-132660571D01*
X149642285Y-132588000D01*
X149061714Y-132588000D01*
X148916571Y-132660571D01*
X148844000Y-132733142D01*
X148771428Y-132878285D01*
X148771428Y-133168571D01*
X148844000Y-133313714D01*
X148916571Y-133386285D01*
X149061714Y-133458857D01*
X149424571Y-133458857D01*
X149569714Y-133386285D01*
X149642285Y-133313714D01*
X149714857Y-133168571D01*
X149714857Y-132878285D01*
X149642285Y-132733142D01*
X149569714Y-132660571D01*
X149424571Y-132588000D01*
X148771428Y-131281714D02*
X148771428Y-131572000D01*
X148844000Y-131717142D01*
X148916571Y-131789714D01*
X149134285Y-131934857D01*
X149424571Y-132007428D01*
X150005142Y-132007428D01*
X150150285Y-131934857D01*
X150222857Y-131862285D01*
X150295428Y-131717142D01*
X150295428Y-131426857D01*
X150222857Y-131281714D01*
X150150285Y-131209142D01*
X150005142Y-131136571D01*
X149642285Y-131136571D01*
X149497142Y-131209142D01*
X149424571Y-131281714D01*
X149352000Y-131426857D01*
X149352000Y-131717142D01*
X149424571Y-131862285D01*
X149497142Y-131934857D01*
X149642285Y-132007428D01*
X148771428Y-130193142D02*
X148771428Y-130048000D01*
X148844000Y-129902857D01*
X148916571Y-129830285D01*
X149061714Y-129757714D01*
X149352000Y-129685142D01*
X149714857Y-129685142D01*
X150005142Y-129757714D01*
X150150285Y-129830285D01*
X150222857Y-129902857D01*
X150295428Y-130048000D01*
X150295428Y-130193142D01*
X150222857Y-130338285D01*
X150150285Y-130410857D01*
X150005142Y-130483428D01*
X149714857Y-130556000D01*
X149352000Y-130556000D01*
X149061714Y-130483428D01*
X148916571Y-130410857D01*
X148844000Y-130338285D01*
X148771428Y-130193142D01*
X148916571Y-129104571D02*
X148844000Y-129032000D01*
X148771428Y-128886857D01*
X148771428Y-128524000D01*
X148844000Y-128378857D01*
X148916571Y-128306285D01*
X149061714Y-128233714D01*
X149206857Y-128233714D01*
X149424571Y-128306285D01*
X150295428Y-129177142D01*
X150295428Y-128233714D01*
X150295428Y-127580571D02*
X148771428Y-127580571D01*
X150295428Y-126709714D01*
X148771428Y-126709714D01*
X138233880Y-123525094D02*
X138233880Y-122799380D01*
X138669308Y-123670237D02*
X137145308Y-123162237D01*
X138669308Y-122654237D01*
X138669308Y-122146237D02*
X137145308Y-122146237D01*
X138669308Y-121275380D01*
X137145308Y-121275380D01*
X137145308Y-120767380D02*
X137145308Y-119896522D01*
X138669308Y-120331951D02*
X137145308Y-120331951D01*
X137217880Y-117870691D02*
X137145308Y-118015834D01*
X137145308Y-118233548D01*
X137217880Y-118451262D01*
X137363022Y-118596405D01*
X137508165Y-118668977D01*
X137798451Y-118741548D01*
X138016165Y-118741548D01*
X138306451Y-118668977D01*
X138451594Y-118596405D01*
X138596737Y-118451262D01*
X138669308Y-118233548D01*
X138669308Y-118088405D01*
X138596737Y-117870691D01*
X138524165Y-117798120D01*
X138016165Y-117798120D01*
X138016165Y-118088405D01*
X138669308Y-117144977D02*
X137145308Y-117144977D01*
X137145308Y-116564405D01*
X137217880Y-116419262D01*
X137290451Y-116346691D01*
X137435594Y-116274120D01*
X137653308Y-116274120D01*
X137798451Y-116346691D01*
X137871022Y-116419262D01*
X137943594Y-116564405D01*
X137943594Y-117144977D01*
X138596737Y-115693548D02*
X138669308Y-115475834D01*
X138669308Y-115112977D01*
X138596737Y-114967834D01*
X138524165Y-114895262D01*
X138379022Y-114822691D01*
X138233880Y-114822691D01*
X138088737Y-114895262D01*
X138016165Y-114967834D01*
X137943594Y-115112977D01*
X137871022Y-115403262D01*
X137798451Y-115548405D01*
X137725880Y-115620977D01*
X137580737Y-115693548D01*
X137435594Y-115693548D01*
X137290451Y-115620977D01*
X137217880Y-115548405D01*
X137145308Y-115403262D01*
X137145308Y-115040405D01*
X137217880Y-114822691D01*
D10*
%TO.C,C3*%
X120991333Y-72239142D02*
X120943714Y-72286761D01*
X120800857Y-72334380D01*
X120705619Y-72334380D01*
X120562761Y-72286761D01*
X120467523Y-72191523D01*
X120419904Y-72096285D01*
X120372285Y-71905809D01*
X120372285Y-71762952D01*
X120419904Y-71572476D01*
X120467523Y-71477238D01*
X120562761Y-71382000D01*
X120705619Y-71334380D01*
X120800857Y-71334380D01*
X120943714Y-71382000D01*
X120991333Y-71429619D01*
X121324666Y-71334380D02*
X121943714Y-71334380D01*
X121610380Y-71715333D01*
X121753238Y-71715333D01*
X121848476Y-71762952D01*
X121896095Y-71810571D01*
X121943714Y-71905809D01*
X121943714Y-72143904D01*
X121896095Y-72239142D01*
X121848476Y-72286761D01*
X121753238Y-72334380D01*
X121467523Y-72334380D01*
X121372285Y-72286761D01*
X121324666Y-72239142D01*
%TO.C,J6*%
X168123380Y-144605333D02*
X168837666Y-144605333D01*
X168980523Y-144652952D01*
X169075761Y-144748190D01*
X169123380Y-144891047D01*
X169123380Y-144986285D01*
X168123380Y-143700571D02*
X168123380Y-143891047D01*
X168171000Y-143986285D01*
X168218619Y-144033904D01*
X168361476Y-144129142D01*
X168551952Y-144176761D01*
X168932904Y-144176761D01*
X169028142Y-144129142D01*
X169075761Y-144081523D01*
X169123380Y-143986285D01*
X169123380Y-143795809D01*
X169075761Y-143700571D01*
X169028142Y-143652952D01*
X168932904Y-143605333D01*
X168694809Y-143605333D01*
X168599571Y-143652952D01*
X168551952Y-143700571D01*
X168504333Y-143795809D01*
X168504333Y-143986285D01*
X168551952Y-144081523D01*
X168599571Y-144129142D01*
X168694809Y-144176761D01*
%TO.C,U6*%
X176784095Y-113654380D02*
X176784095Y-114463904D01*
X176831714Y-114559142D01*
X176879333Y-114606761D01*
X176974571Y-114654380D01*
X177165047Y-114654380D01*
X177260285Y-114606761D01*
X177307904Y-114559142D01*
X177355523Y-114463904D01*
X177355523Y-113654380D01*
X178260285Y-113654380D02*
X178069809Y-113654380D01*
X177974571Y-113702000D01*
X177926952Y-113749619D01*
X177831714Y-113892476D01*
X177784095Y-114082952D01*
X177784095Y-114463904D01*
X177831714Y-114559142D01*
X177879333Y-114606761D01*
X177974571Y-114654380D01*
X178165047Y-114654380D01*
X178260285Y-114606761D01*
X178307904Y-114559142D01*
X178355523Y-114463904D01*
X178355523Y-114225809D01*
X178307904Y-114130571D01*
X178260285Y-114082952D01*
X178165047Y-114035333D01*
X177974571Y-114035333D01*
X177879333Y-114082952D01*
X177831714Y-114130571D01*
X177784095Y-114225809D01*
%TO.C,R11*%
X110609142Y-88208380D02*
X110275809Y-87732190D01*
X110037714Y-88208380D02*
X110037714Y-87208380D01*
X110418666Y-87208380D01*
X110513904Y-87256000D01*
X110561523Y-87303619D01*
X110609142Y-87398857D01*
X110609142Y-87541714D01*
X110561523Y-87636952D01*
X110513904Y-87684571D01*
X110418666Y-87732190D01*
X110037714Y-87732190D01*
X111561523Y-88208380D02*
X110990095Y-88208380D01*
X111275809Y-88208380D02*
X111275809Y-87208380D01*
X111180571Y-87351238D01*
X111085333Y-87446476D01*
X110990095Y-87494095D01*
X112513904Y-88208380D02*
X111942476Y-88208380D01*
X112228190Y-88208380D02*
X112228190Y-87208380D01*
X112132952Y-87351238D01*
X112037714Y-87446476D01*
X111942476Y-87494095D01*
%TO.C,C21*%
X156175142Y-76147142D02*
X156127523Y-76194761D01*
X155984666Y-76242380D01*
X155889428Y-76242380D01*
X155746571Y-76194761D01*
X155651333Y-76099523D01*
X155603714Y-76004285D01*
X155556095Y-75813809D01*
X155556095Y-75670952D01*
X155603714Y-75480476D01*
X155651333Y-75385238D01*
X155746571Y-75290000D01*
X155889428Y-75242380D01*
X155984666Y-75242380D01*
X156127523Y-75290000D01*
X156175142Y-75337619D01*
X156556095Y-75337619D02*
X156603714Y-75290000D01*
X156698952Y-75242380D01*
X156937047Y-75242380D01*
X157032285Y-75290000D01*
X157079904Y-75337619D01*
X157127523Y-75432857D01*
X157127523Y-75528095D01*
X157079904Y-75670952D01*
X156508476Y-76242380D01*
X157127523Y-76242380D01*
X158079904Y-76242380D02*
X157508476Y-76242380D01*
X157794190Y-76242380D02*
X157794190Y-75242380D01*
X157698952Y-75385238D01*
X157603714Y-75480476D01*
X157508476Y-75528095D01*
%TO.C,R25*%
X139432380Y-68714857D02*
X138956190Y-69048190D01*
X139432380Y-69286285D02*
X138432380Y-69286285D01*
X138432380Y-68905333D01*
X138480000Y-68810095D01*
X138527619Y-68762476D01*
X138622857Y-68714857D01*
X138765714Y-68714857D01*
X138860952Y-68762476D01*
X138908571Y-68810095D01*
X138956190Y-68905333D01*
X138956190Y-69286285D01*
X138527619Y-68333904D02*
X138480000Y-68286285D01*
X138432380Y-68191047D01*
X138432380Y-67952952D01*
X138480000Y-67857714D01*
X138527619Y-67810095D01*
X138622857Y-67762476D01*
X138718095Y-67762476D01*
X138860952Y-67810095D01*
X139432380Y-68381523D01*
X139432380Y-67762476D01*
X138432380Y-66857714D02*
X138432380Y-67333904D01*
X138908571Y-67381523D01*
X138860952Y-67333904D01*
X138813333Y-67238666D01*
X138813333Y-67000571D01*
X138860952Y-66905333D01*
X138908571Y-66857714D01*
X139003809Y-66810095D01*
X139241904Y-66810095D01*
X139337142Y-66857714D01*
X139384761Y-66905333D01*
X139432380Y-67000571D01*
X139432380Y-67238666D01*
X139384761Y-67333904D01*
X139337142Y-67381523D01*
D12*
%TO.C,A2*%
X153035000Y-70104000D02*
X153035000Y-54864000D01*
X155575000Y-52324000D02*
X177165000Y-52324000D01*
X179705000Y-54864000D02*
X179705000Y-70104000D01*
X177165000Y-72644000D02*
X155575000Y-72644000D01*
X179705000Y-54864000D02*
G75*
G03*
X177165000Y-52324000I-2540000J0D01*
G01*
X153035000Y-70104000D02*
G75*
G03*
X155575000Y-72644000I2540001J1D01*
G01*
X177165000Y-72644000D02*
G75*
G03*
X179705000Y-70104000I0J2540000D01*
G01*
X155575000Y-52324000D02*
G75*
G03*
X153035000Y-54864000I1J-2540001D01*
G01*
%TO.C,J7*%
X187900000Y-67295000D02*
X187900000Y-62155000D01*
X190560000Y-62155000D02*
X187900000Y-62155000D01*
X190560000Y-67295000D02*
X190560000Y-62155000D01*
X190560000Y-69895000D02*
X189230000Y-69895000D01*
X190560000Y-68565000D02*
X190560000Y-69895000D01*
X190560000Y-67295000D02*
X187900000Y-67295000D01*
%TO.C,R45*%
X178739436Y-104113000D02*
X179193564Y-104113000D01*
X178739436Y-102643000D02*
X179193564Y-102643000D01*
%TO.C,C33*%
X173997252Y-95023000D02*
X173474748Y-95023000D01*
X173997252Y-96493000D02*
X173474748Y-96493000D01*
%TO.C,J9*%
X115779000Y-145602000D02*
X115779000Y-144272000D01*
X118379000Y-145602000D02*
X118379000Y-142942000D01*
X117109000Y-145602000D02*
X115779000Y-145602000D01*
X118379000Y-145602000D02*
X123519000Y-145602000D01*
X123519000Y-145602000D02*
X123519000Y-142942000D01*
X118379000Y-142942000D02*
X123519000Y-142942000D01*
%TO.C,R24*%
X143791000Y-72871064D02*
X143791000Y-72416936D01*
X145261000Y-72871064D02*
X145261000Y-72416936D01*
%TO.C,R23*%
X141705064Y-65051000D02*
X141250936Y-65051000D01*
X141705064Y-66521000D02*
X141250936Y-66521000D01*
%TO.C,U8*%
X149098000Y-76220000D02*
X151048000Y-76220000D01*
X149098000Y-76220000D02*
X145648000Y-76220000D01*
X149098000Y-86340000D02*
X151048000Y-86340000D01*
X149098000Y-86340000D02*
X147148000Y-86340000D01*
%TO.C,J8*%
X102810000Y-125999000D02*
X105470000Y-125999000D01*
X102810000Y-125999000D02*
X102810000Y-131139000D01*
X102810000Y-131139000D02*
X105470000Y-131139000D01*
X105470000Y-125999000D02*
X105470000Y-131139000D01*
X102810000Y-124729000D02*
X102810000Y-123399000D01*
X102810000Y-123399000D02*
X104140000Y-123399000D01*
%TO.C,U15*%
X177292000Y-97008000D02*
X173842000Y-97008000D01*
X177292000Y-97008000D02*
X179242000Y-97008000D01*
X177292000Y-102128000D02*
X179242000Y-102128000D01*
X177292000Y-102128000D02*
X175342000Y-102128000D01*
%TO.C,Q3*%
X126116000Y-70592000D02*
X128066000Y-70592000D01*
X126116000Y-75712000D02*
X128066000Y-75712000D01*
X126116000Y-75712000D02*
X124166000Y-75712000D01*
X126116000Y-70592000D02*
X122666000Y-70592000D01*
%TO.C,R44*%
X184685000Y-107910936D02*
X184685000Y-108365064D01*
X186155000Y-107910936D02*
X186155000Y-108365064D01*
%TO.C,D1*%
X151948000Y-98513500D02*
X151948000Y-101198500D01*
X153868000Y-101198500D02*
X153868000Y-98513500D01*
X151948000Y-101198500D02*
X153868000Y-101198500D01*
%TO.C,C18*%
X171477000Y-118879252D02*
X171477000Y-118356748D01*
X172947000Y-118879252D02*
X172947000Y-118356748D01*
%TO.C,J5*%
X132488000Y-62940000D02*
X132488000Y-56440000D01*
X132488000Y-56440000D02*
X150468000Y-56440000D01*
X143528000Y-62940000D02*
X143528000Y-64250000D01*
X139428000Y-62940000D02*
X132488000Y-62940000D01*
X136898000Y-65640000D02*
X136398000Y-64640000D01*
X150468000Y-56440000D02*
X150468000Y-62940000D01*
X151768000Y-64250000D02*
X131188000Y-64250000D01*
X135898000Y-65640000D02*
X136898000Y-65640000D01*
X131188000Y-64250000D02*
X131188000Y-55130000D01*
X136398000Y-64640000D02*
X135898000Y-65640000D01*
X151768000Y-55130000D02*
X151768000Y-64250000D01*
X139428000Y-64250000D02*
X139428000Y-62940000D01*
X143528000Y-62940000D02*
X143528000Y-62940000D01*
X131188000Y-55130000D02*
X151768000Y-55130000D01*
X150468000Y-62940000D02*
X143528000Y-62940000D01*
%TO.C,R46*%
X183028000Y-99025064D02*
X183028000Y-97570936D01*
X181208000Y-99025064D02*
X181208000Y-97570936D01*
%TO.C,D7*%
X118094000Y-137704000D02*
X116094000Y-137704000D01*
X118094000Y-137704000D02*
X118094000Y-141604000D01*
X116094000Y-137704000D02*
X116094000Y-141604000D01*
%TO.C,R8*%
X171731000Y-102134936D02*
X171731000Y-102589064D01*
X173201000Y-102134936D02*
X173201000Y-102589064D01*
%TO.C,Q2*%
X116402000Y-69474000D02*
X118352000Y-69474000D01*
X116402000Y-64354000D02*
X118352000Y-64354000D01*
X116402000Y-64354000D02*
X112952000Y-64354000D01*
X116402000Y-69474000D02*
X114452000Y-69474000D01*
%TO.C,C19*%
X153289000Y-77814748D02*
X153289000Y-78337252D01*
X154759000Y-77814748D02*
X154759000Y-78337252D01*
%TO.C,C34*%
X182653000Y-108399252D02*
X182653000Y-107876748D01*
X184123000Y-108399252D02*
X184123000Y-107876748D01*
%TO.C,Q8*%
X139700000Y-76220000D02*
X137750000Y-76220000D01*
X139700000Y-71100000D02*
X141650000Y-71100000D01*
X139700000Y-71100000D02*
X137750000Y-71100000D01*
X139700000Y-76220000D02*
X143150000Y-76220000D01*
%TO.C,R6*%
X112749064Y-77443000D02*
X112294936Y-77443000D01*
X112749064Y-75973000D02*
X112294936Y-75973000D01*
%TO.C,U14*%
X185964000Y-89916000D02*
X185964000Y-90716000D01*
X185964000Y-89916000D02*
X185964000Y-89116000D01*
X182844000Y-89916000D02*
X182844000Y-91716000D01*
X182844000Y-89916000D02*
X182844000Y-89116000D01*
%TO.C,D6*%
X115280000Y-137144000D02*
X115280000Y-135144000D01*
X115280000Y-135144000D02*
X111380000Y-135144000D01*
X115280000Y-137144000D02*
X111380000Y-137144000D01*
%TO.C,R42*%
X184811936Y-92483000D02*
X185266064Y-92483000D01*
X184811936Y-93953000D02*
X185266064Y-93953000D01*
%TO.C,JP1*%
X152460000Y-90932000D02*
X152460000Y-93532000D01*
X149800000Y-88332000D02*
X151130000Y-88332000D01*
X149800000Y-90932000D02*
X149800000Y-93532000D01*
X149800000Y-89662000D02*
X149800000Y-88332000D01*
X149800000Y-90932000D02*
X152460000Y-90932000D01*
X149800000Y-93532000D02*
X152460000Y-93532000D01*
%TO.C,A1*%
X186571000Y-73471000D02*
X163571000Y-73471000D01*
X163571000Y-136587000D02*
X186571000Y-136587000D01*
X189129000Y-134029000D02*
X189129000Y-76029000D01*
X161013000Y-134029000D02*
X161013000Y-76029000D01*
X186571000Y-136587000D02*
G75*
G03*
X189129000Y-134029000I0J2558000D01*
G01*
X163571000Y-73471000D02*
G75*
G03*
X161013000Y-76029000I0J-2558000D01*
G01*
X189129000Y-76029000D02*
G75*
G03*
X186571000Y-73471000I-2558000J0D01*
G01*
X161013000Y-134029000D02*
G75*
G03*
X163571000Y-136587000I2558000J0D01*
G01*
%TO.C,R35*%
X119915000Y-137641064D02*
X119915000Y-137186936D01*
X121385000Y-137641064D02*
X121385000Y-137186936D01*
%TO.C,J1*%
X125762000Y-55638000D02*
X118642000Y-55638000D01*
X125762000Y-63358000D02*
X125762000Y-55638000D01*
X118642000Y-63358000D02*
X118642000Y-55638000D01*
X125762000Y-57198000D02*
X118642000Y-57198000D01*
X121427000Y-59017000D02*
X121521000Y-58924000D01*
X125762000Y-56098000D02*
X118642000Y-56098000D01*
X126002000Y-55398000D02*
X125602000Y-55398000D01*
X119177000Y-61267000D02*
X119306000Y-61139000D01*
X125762000Y-63358000D02*
X118642000Y-63358000D01*
X119382000Y-61473000D02*
X119476000Y-61379000D01*
X121597000Y-59257000D02*
X121726000Y-59129000D01*
X126002000Y-56038000D02*
X126002000Y-55398000D01*
X122527000Y-59307000D02*
G75*
G03*
X122526496Y-61088193I1425003J-891000D01*
G01*
X123086000Y-61638001D02*
G75*
G03*
X124841894Y-61623358I866000J1439999D01*
G01*
X124818000Y-58758000D02*
G75*
G03*
X123923326Y-58517901I-866003J-1440014D01*
G01*
X125392001Y-61064000D02*
G75*
G03*
X125377358Y-59308106I-1439999J866000D01*
G01*
X123952000Y-58518000D02*
G75*
G03*
X123061736Y-58773279I-3J-1679990D01*
G01*
X122132000Y-60198000D02*
G75*
G03*
X122132000Y-60198000I-1680000J0D01*
G01*
%TO.C,Q7*%
X139918000Y-68834000D02*
X139918000Y-68184000D01*
X139918000Y-68834000D02*
X139918000Y-69484000D01*
X143038000Y-68834000D02*
X143038000Y-69484000D01*
X143038000Y-68834000D02*
X143038000Y-67159000D01*
%TO.C,R7*%
X171731000Y-98578936D02*
X171731000Y-99033064D01*
X173201000Y-98578936D02*
X173201000Y-99033064D01*
%TO.C,R13*%
X116559064Y-79475000D02*
X116104936Y-79475000D01*
X116559064Y-78005000D02*
X116104936Y-78005000D01*
%TO.C,C15*%
X183361000Y-118864748D02*
X183361000Y-119387252D01*
X181891000Y-118864748D02*
X181891000Y-119387252D01*
%TO.C,Q5*%
X120630000Y-83566000D02*
X120630000Y-81616000D01*
X125750000Y-83566000D02*
X125750000Y-85516000D01*
X125750000Y-83566000D02*
X125750000Y-81616000D01*
X120630000Y-83566000D02*
X120630000Y-87016000D01*
%TO.C,R20*%
X141676483Y-81247930D02*
X141997600Y-81569047D01*
X142715930Y-80208483D02*
X143037047Y-80529600D01*
%TO.C,R29*%
X179604936Y-77497000D02*
X180059064Y-77497000D01*
X179604936Y-78967000D02*
X180059064Y-78967000D01*
%TO.C,R27*%
X149633000Y-99740564D02*
X149633000Y-99286436D01*
X151103000Y-99740564D02*
X151103000Y-99286436D01*
%TO.C,R12*%
X111024936Y-82831000D02*
X111479064Y-82831000D01*
X111024936Y-84301000D02*
X111479064Y-84301000D01*
%TO.C,Q4*%
X116402000Y-69942000D02*
X112952000Y-69942000D01*
X116402000Y-69942000D02*
X118352000Y-69942000D01*
X116402000Y-75062000D02*
X118352000Y-75062000D01*
X116402000Y-75062000D02*
X114452000Y-75062000D01*
%TO.C,Q9*%
X183479000Y-96266000D02*
X183479000Y-95616000D01*
X183479000Y-96266000D02*
X183479000Y-97941000D01*
X186599000Y-96266000D02*
X186599000Y-96916000D01*
X186599000Y-96266000D02*
X186599000Y-95616000D01*
%TO.C,J4*%
X142568000Y-143309000D02*
X145468000Y-143309000D01*
X140663000Y-141404000D02*
X140663000Y-138504000D01*
X142568000Y-136599000D02*
X145468000Y-136599000D01*
X147373000Y-141404000D02*
X147373000Y-138504000D01*
%TO.C,R3*%
X110459936Y-65744000D02*
X110914064Y-65744000D01*
X110459936Y-64274000D02*
X110914064Y-64274000D01*
%TO.C,U4*%
X132842000Y-80366000D02*
X133642000Y-80366000D01*
X132842000Y-80366000D02*
X132042000Y-80366000D01*
X132842000Y-77246000D02*
X131042000Y-77246000D01*
X132842000Y-77246000D02*
X133642000Y-77246000D01*
%TO.C,R47*%
X152934936Y-129259000D02*
X153389064Y-129259000D01*
X152934936Y-127789000D02*
X153389064Y-127789000D01*
%TO.C,R22*%
X144807000Y-68606936D02*
X144807000Y-69061064D01*
X146277000Y-68606936D02*
X146277000Y-69061064D01*
%TO.C,J3*%
X167192000Y-139386000D02*
X167192000Y-140716000D01*
X164592000Y-139386000D02*
X151832000Y-139386000D01*
X151832000Y-139386000D02*
X151832000Y-142046000D01*
X165862000Y-139386000D02*
X167192000Y-139386000D01*
X164592000Y-139386000D02*
X164592000Y-142046000D01*
X164592000Y-142046000D02*
X151832000Y-142046000D01*
%TO.C,D2*%
X174751000Y-137704000D02*
X174751000Y-141604000D01*
X174751000Y-137704000D02*
X172751000Y-137704000D01*
X172751000Y-137704000D02*
X172751000Y-141604000D01*
%TO.C,R14*%
X105183000Y-78766936D02*
X105183000Y-79221064D01*
X106653000Y-78766936D02*
X106653000Y-79221064D01*
%TO.C,Q10*%
X175768000Y-91714000D02*
X173818000Y-91714000D01*
X175768000Y-86594000D02*
X177718000Y-86594000D01*
X175768000Y-91714000D02*
X179218000Y-91714000D01*
X175768000Y-86594000D02*
X173818000Y-86594000D01*
%TO.C,Q1*%
X126116000Y-69474000D02*
X128066000Y-69474000D01*
X126116000Y-64354000D02*
X128066000Y-64354000D01*
X126116000Y-69474000D02*
X124166000Y-69474000D01*
X126116000Y-64354000D02*
X122666000Y-64354000D01*
%TO.C,R17*%
X133569064Y-80944000D02*
X132114936Y-80944000D01*
X133569064Y-82764000D02*
X132114936Y-82764000D01*
%TO.C,C20*%
X133850748Y-72363000D02*
X134373252Y-72363000D01*
X133850748Y-70893000D02*
X134373252Y-70893000D01*
%TO.C,R1*%
X122909064Y-78093000D02*
X122454936Y-78093000D01*
X122909064Y-76623000D02*
X122454936Y-76623000D01*
%TO.C,U5*%
X153103040Y-111542260D02*
X151153040Y-111542260D01*
X153103040Y-111542260D02*
X155053040Y-111542260D01*
X153103040Y-102672260D02*
X149653040Y-102672260D01*
X153103040Y-102672260D02*
X155053040Y-102672260D01*
%TO.C,C14*%
X136879000Y-78544748D02*
X136879000Y-79067252D01*
X135409000Y-78544748D02*
X135409000Y-79067252D01*
%TO.C,R36*%
X123417000Y-137186936D02*
X123417000Y-137641064D01*
X121947000Y-137186936D02*
X121947000Y-137641064D01*
%TO.C,Q11*%
X182626000Y-106208000D02*
X181976000Y-106208000D01*
X182626000Y-106208000D02*
X184301000Y-106208000D01*
X182626000Y-103088000D02*
X181976000Y-103088000D01*
X182626000Y-103088000D02*
X183276000Y-103088000D01*
%TO.C,R28*%
X180059064Y-80999000D02*
X179604936Y-80999000D01*
X180059064Y-79529000D02*
X179604936Y-79529000D01*
%TO.C,R9*%
X106653000Y-75411064D02*
X106653000Y-74956936D01*
X105183000Y-75411064D02*
X105183000Y-74956936D01*
%TO.C,R21*%
X141513047Y-82053600D02*
X141191930Y-81732483D01*
X140473600Y-83093047D02*
X140152483Y-82771930D01*
%TO.C,C4*%
X112311000Y-73779252D02*
X112311000Y-73256748D01*
X110841000Y-73779252D02*
X110841000Y-73256748D01*
%TO.C,C17*%
X157253000Y-103624748D02*
X157253000Y-104147252D01*
X158723000Y-103624748D02*
X158723000Y-104147252D01*
%TO.C,Q12*%
X154722000Y-131572000D02*
X154722000Y-132222000D01*
X151602000Y-131572000D02*
X151602000Y-130922000D01*
X151602000Y-131572000D02*
X151602000Y-133247000D01*
X154722000Y-131572000D02*
X154722000Y-130922000D01*
%TO.C,Q6*%
X119654000Y-83566000D02*
X119654000Y-80116000D01*
X119654000Y-83566000D02*
X119654000Y-85516000D01*
X114534000Y-83566000D02*
X114534000Y-85516000D01*
X114534000Y-83566000D02*
X114534000Y-81616000D01*
%TO.C,C32*%
X182345000Y-90924748D02*
X182345000Y-91447252D01*
X180875000Y-90924748D02*
X180875000Y-91447252D01*
%TO.C,D3*%
X182662000Y-65040000D02*
X186562000Y-65040000D01*
X182662000Y-67040000D02*
X186562000Y-67040000D01*
X182662000Y-65040000D02*
X182662000Y-67040000D01*
%TO.C,R43*%
X179859000Y-87857064D02*
X179859000Y-87402936D01*
X181329000Y-87857064D02*
X181329000Y-87402936D01*
%TO.C,D10*%
X188706000Y-106004000D02*
X186706000Y-106004000D01*
X188706000Y-106004000D02*
X188706000Y-109854000D01*
X186706000Y-106004000D02*
X186706000Y-109854000D01*
%TO.C,U9*%
X135672000Y-68072000D02*
X135672000Y-68872000D01*
X135672000Y-68072000D02*
X135672000Y-67272000D01*
X132552000Y-68072000D02*
X132552000Y-69872000D01*
X132552000Y-68072000D02*
X132552000Y-67272000D01*
D13*
%TO.C,A3*%
X147979860Y-96782160D02*
X142478220Y-96782160D01*
X147479480Y-100033360D02*
X147479480Y-113533460D01*
D14*
X106979180Y-133782340D02*
X147979860Y-133782340D01*
D13*
X139978860Y-99032600D02*
X139978860Y-125781340D01*
X139978860Y-125781340D02*
X147979860Y-125781340D01*
D15*
X147449000Y-100051140D02*
X140921200Y-100051140D01*
X141683200Y-113563940D02*
X141683200Y-113132140D01*
D14*
X106979180Y-88781160D02*
X106979180Y-133782340D01*
D15*
X140921200Y-113563940D02*
X140921200Y-100051140D01*
D14*
X147979860Y-88781160D02*
X106979180Y-88781160D01*
D15*
X147449000Y-113563940D02*
X140921200Y-113563940D01*
D14*
X147979860Y-133782340D02*
X147979860Y-88781160D01*
D13*
X142478220Y-96782160D02*
X139978860Y-99032600D01*
D15*
X141482540Y-112801940D02*
X141048200Y-112801940D01*
D12*
%TO.C,C3*%
X122025000Y-73906748D02*
X122025000Y-74429252D01*
X120555000Y-73906748D02*
X120555000Y-74429252D01*
%TO.C,J6*%
X171211000Y-145602000D02*
X169881000Y-145602000D01*
X169881000Y-145602000D02*
X169881000Y-144272000D01*
X172481000Y-145602000D02*
X172481000Y-142942000D01*
X177621000Y-145602000D02*
X177621000Y-142942000D01*
X172481000Y-145602000D02*
X177621000Y-145602000D01*
X172481000Y-142942000D02*
X177621000Y-142942000D01*
%TO.C,U6*%
X177546000Y-115042000D02*
X174096000Y-115042000D01*
X177546000Y-120162000D02*
X179496000Y-120162000D01*
X177546000Y-115042000D02*
X179496000Y-115042000D01*
X177546000Y-120162000D02*
X175596000Y-120162000D01*
%TO.C,R11*%
X111479064Y-86841000D02*
X111024936Y-86841000D01*
X111479064Y-85371000D02*
X111024936Y-85371000D01*
%TO.C,C21*%
X156083000Y-77814748D02*
X156083000Y-78337252D01*
X157553000Y-77814748D02*
X157553000Y-78337252D01*
%TO.C,R25*%
X138070000Y-67344936D02*
X138070000Y-68799064D01*
X136250000Y-67344936D02*
X136250000Y-68799064D01*
%TD*%
D16*
%TO.C,A3*%
X144047940Y-101641180D03*
X144047940Y-111801180D03*
D17*
X144047940Y-121783380D03*
X142777940Y-120513380D03*
X145328100Y-123053380D03*
X145328100Y-120513380D03*
X142777940Y-123053380D03*
X144047940Y-116782120D03*
X142777940Y-115512120D03*
X145328100Y-115512120D03*
X142777940Y-118052120D03*
X145328100Y-118052120D03*
D18*
X109730000Y-131031520D03*
X145229040Y-91531980D03*
%TD*%
M02*
