%TF.GenerationSoftware,KiCad,Pcbnew,6.0.9*%
%TF.CreationDate,2022-12-14T22:15:18-05:00*%
%TF.ProjectId,piridium-eps,70697269-6469-4756-9d2d-6570732e6b69,rev?*%
%TF.SameCoordinates,Original*%
%TF.FileFunction,Copper,L2,Bot*%
%TF.FilePolarity,Positive*%
%FSLAX46Y46*%
G04 Gerber Fmt 4.6, Leading zero omitted, Abs format (unit mm)*
G04 Created by KiCad (PCBNEW 6.0.9) date 2022-12-14 22:15:18*
%MOMM*%
%LPD*%
G01*
G04 APERTURE LIST*
%TA.AperFunction,ComponentPad*%
%ADD10C,5.600000*%
%TD*%
%TA.AperFunction,ComponentPad*%
%ADD11R,2.400000X2.400000*%
%TD*%
%TA.AperFunction,ComponentPad*%
%ADD12C,2.400000*%
%TD*%
%TA.AperFunction,ComponentPad*%
%ADD13C,0.600000*%
%TD*%
%TA.AperFunction,SMDPad,CuDef*%
%ADD14R,1.650000X2.400000*%
%TD*%
%TA.AperFunction,SMDPad,CuDef*%
%ADD15R,6.350000X7.340000*%
%TD*%
%TA.AperFunction,SMDPad,CuDef*%
%ADD16R,4.699000X7.340000*%
%TD*%
%TA.AperFunction,SMDPad,CuDef*%
%ADD17R,4.318000X7.340000*%
%TD*%
%TA.AperFunction,ViaPad*%
%ADD18C,1.200000*%
%TD*%
%TA.AperFunction,ViaPad*%
%ADD19C,0.800000*%
%TD*%
%TA.AperFunction,Conductor*%
%ADD20C,2.540000*%
%TD*%
%TA.AperFunction,Conductor*%
%ADD21C,0.762000*%
%TD*%
%TA.AperFunction,Conductor*%
%ADD22C,0.508000*%
%TD*%
G04 APERTURE END LIST*
D10*
%TO.P,MH1,1,1*%
%TO.N,GND*%
X110490000Y-55880000D03*
%TD*%
%TO.P,MH2,1,1*%
%TO.N,GND*%
X184150000Y-55880000D03*
%TD*%
%TO.P,MH3,1,1*%
%TO.N,GND*%
X186690000Y-141610000D03*
%TD*%
%TO.P,MH4,1,1*%
%TO.N,GND*%
X106680000Y-141610000D03*
%TD*%
D11*
%TO.P,J1,1,Pin_1*%
%TO.N,+BATT*%
X179578000Y-83256000D03*
D12*
%TO.P,J1,2,Pin_2*%
%TO.N,GND*%
X179578000Y-79756000D03*
%TD*%
D13*
%TO.P,U1,9,PGND*%
%TO.N,-BATT*%
X176082500Y-99390500D03*
X175082500Y-99390500D03*
X175082500Y-100890500D03*
X175582500Y-100140500D03*
D14*
X175582500Y-100140500D03*
D13*
X176082500Y-100890500D03*
%TD*%
D15*
%TO.P,BT3,1,+*%
%TO.N,+BATT*%
X178943000Y-138176000D03*
D16*
%TO.P,BT3,2,-*%
%TO.N,Net-(BT1-Pad2)*%
X178244500Y-59476000D03*
%TD*%
D17*
%TO.P,BT2,1,+*%
%TO.N,Net-(BT1-Pad2)*%
X116275000Y-59436000D03*
D15*
%TO.P,BT2,2,-*%
%TO.N,-BATT*%
X115132000Y-138136000D03*
%TD*%
%TO.P,BT4,1,+*%
%TO.N,Net-(BT1-Pad2)*%
X136468000Y-59476000D03*
%TO.P,BT4,2,-*%
%TO.N,-BATT*%
X136468000Y-138136000D03*
%TD*%
%TO.P,BT1,1,+*%
%TO.N,+BATT*%
X157734000Y-138136000D03*
%TO.P,BT1,2,-*%
%TO.N,Net-(BT1-Pad2)*%
X157734000Y-59476000D03*
%TD*%
D18*
%TO.N,GND*%
X177727000Y-108458000D03*
%TO.N,+BATT*%
X155448000Y-138136000D03*
X160020000Y-138136000D03*
X157734000Y-138176000D03*
%TO.N,Net-(BT1-Pad2)*%
X144486000Y-138176000D03*
X144486000Y-135930000D03*
X117201000Y-62016000D03*
X144526000Y-133604000D03*
X117201000Y-59476000D03*
X163068000Y-93578000D03*
X117201000Y-56936000D03*
%TO.N,-BATT*%
X155448000Y-110998000D03*
D19*
X158064385Y-104786385D03*
X158894615Y-106295000D03*
D18*
X115062000Y-140716000D03*
X115062000Y-138176000D03*
X115062000Y-135636000D03*
%TD*%
D20*
%TO.N,+BATT*%
X178903000Y-138136000D02*
X178943000Y-138176000D01*
X157734000Y-138136000D02*
X157948000Y-138136000D01*
X157948000Y-138136000D02*
X178903000Y-138136000D01*
%TO.N,Net-(BT1-Pad2)*%
X139152000Y-59476000D02*
X136468000Y-59476000D01*
X144526000Y-133604000D02*
X144526000Y-138136000D01*
X143724000Y-59476000D02*
X141184000Y-59476000D01*
D21*
X157734000Y-93472000D02*
X157805001Y-93543001D01*
X157805001Y-93543001D02*
X163033001Y-93543001D01*
D20*
X139700000Y-116840000D02*
X157734000Y-98806000D01*
X157734000Y-59476000D02*
X143724000Y-59476000D01*
X139700000Y-128778000D02*
X139700000Y-116840000D01*
X157734000Y-98806000D02*
X157734000Y-59476000D01*
X141184000Y-59476000D02*
X139152000Y-59476000D01*
X144526000Y-138136000D02*
X144486000Y-138176000D01*
X144526000Y-133604000D02*
X139700000Y-128778000D01*
X117602000Y-59436000D02*
X136428000Y-59436000D01*
X136428000Y-59436000D02*
X136468000Y-59476000D01*
D21*
X163033001Y-93543001D02*
X163068000Y-93578000D01*
D20*
X178244500Y-59476000D02*
X157734000Y-59476000D01*
X116275000Y-59436000D02*
X117602000Y-59436000D01*
D22*
%TO.N,-BATT*%
X158894615Y-106295000D02*
X158064385Y-105464770D01*
X158064385Y-105464770D02*
X158064385Y-104786385D01*
D20*
X155448000Y-110998000D02*
X155448000Y-127762000D01*
X140572000Y-142240000D02*
X136468000Y-138136000D01*
X155448000Y-127762000D02*
X149352000Y-133858000D01*
X115132000Y-138136000D02*
X136468000Y-138136000D01*
X146812000Y-142240000D02*
X140572000Y-142240000D01*
X149352000Y-139700000D02*
X146812000Y-142240000D01*
X149352000Y-133858000D02*
X149352000Y-139700000D01*
%TD*%
%TA.AperFunction,Conductor*%
%TO.N,GND*%
G36*
X126877781Y-51329662D02*
G01*
X130491876Y-53739058D01*
X130505391Y-53749454D01*
X130527951Y-53769378D01*
X130543129Y-53776504D01*
X130591874Y-53799390D01*
X130592648Y-53799757D01*
X130597874Y-53802254D01*
X130656459Y-53830248D01*
X130658205Y-53830532D01*
X130659800Y-53831281D01*
X130717357Y-53840243D01*
X130729610Y-53842151D01*
X130730455Y-53842286D01*
X130791367Y-53852195D01*
X130791369Y-53852195D01*
X130800227Y-53853636D01*
X130809133Y-53852533D01*
X130809360Y-53852505D01*
X130833987Y-53849455D01*
X130849474Y-53848500D01*
X152483668Y-53848500D01*
X152500681Y-53849654D01*
X152521602Y-53852505D01*
X152521603Y-53852505D01*
X152530497Y-53853717D01*
X152600381Y-53843223D01*
X152601163Y-53843108D01*
X152671187Y-53833080D01*
X152672798Y-53832348D01*
X152674540Y-53832086D01*
X152738819Y-53802331D01*
X152739098Y-53802202D01*
X152803782Y-53772792D01*
X152829557Y-53750583D01*
X152841907Y-53741203D01*
X156459219Y-51329662D01*
X156529111Y-51308500D01*
X186640633Y-51308500D01*
X186660018Y-51310000D01*
X186674851Y-51312310D01*
X186674855Y-51312310D01*
X186683724Y-51313691D01*
X186704183Y-51311016D01*
X186726008Y-51310072D01*
X187082937Y-51325656D01*
X187093886Y-51326614D01*
X187478379Y-51377233D01*
X187489205Y-51379142D01*
X187867822Y-51463080D01*
X187878439Y-51465925D01*
X188048702Y-51519608D01*
X188248302Y-51582542D01*
X188258615Y-51586295D01*
X188616932Y-51734715D01*
X188626876Y-51739353D01*
X188970867Y-51918423D01*
X188980387Y-51923919D01*
X189307468Y-52132292D01*
X189316472Y-52138597D01*
X189624138Y-52374678D01*
X189632558Y-52381743D01*
X189918483Y-52643744D01*
X189926256Y-52651517D01*
X190188257Y-52937442D01*
X190195322Y-52945862D01*
X190431403Y-53253528D01*
X190437708Y-53262532D01*
X190646081Y-53589613D01*
X190651576Y-53599132D01*
X190781887Y-53849455D01*
X190830643Y-53943115D01*
X190835289Y-53953077D01*
X190983702Y-54311377D01*
X190987461Y-54321706D01*
X191104075Y-54691561D01*
X191106920Y-54702178D01*
X191190858Y-55080795D01*
X191192767Y-55091621D01*
X191243386Y-55476114D01*
X191244344Y-55487063D01*
X191253796Y-55703540D01*
X191259603Y-55836552D01*
X191258223Y-55861429D01*
X191256309Y-55873724D01*
X191257473Y-55882626D01*
X191257473Y-55882628D01*
X191260436Y-55905283D01*
X191261500Y-55921621D01*
X191261500Y-79817889D01*
X191240338Y-79887781D01*
X188830942Y-83501876D01*
X188820546Y-83515391D01*
X188800622Y-83537951D01*
X188796808Y-83546075D01*
X188770610Y-83601874D01*
X188770243Y-83602648D01*
X188767489Y-83608412D01*
X188739752Y-83666459D01*
X188739468Y-83668205D01*
X188738719Y-83669800D01*
X188736477Y-83684202D01*
X188727849Y-83739610D01*
X188727714Y-83740455D01*
X188726707Y-83746647D01*
X188716364Y-83810227D01*
X188717467Y-83819133D01*
X188720545Y-83843988D01*
X188721500Y-83859474D01*
X188721500Y-113626668D01*
X188720346Y-113643681D01*
X188716283Y-113673497D01*
X188717616Y-113682373D01*
X188726773Y-113743353D01*
X188726892Y-113744163D01*
X188736920Y-113814187D01*
X188737652Y-113815798D01*
X188737914Y-113817540D01*
X188767669Y-113881819D01*
X188767798Y-113882098D01*
X188797208Y-113946782D01*
X188807545Y-113958778D01*
X188819414Y-113972553D01*
X188828797Y-113984907D01*
X191240338Y-117602219D01*
X191261500Y-117672111D01*
X191261500Y-141560633D01*
X191260000Y-141580018D01*
X191257690Y-141594851D01*
X191257690Y-141594855D01*
X191256309Y-141603724D01*
X191258984Y-141624183D01*
X191259928Y-141646008D01*
X191246056Y-141963715D01*
X191244344Y-142002936D01*
X191243386Y-142013886D01*
X191192767Y-142398379D01*
X191190858Y-142409205D01*
X191106920Y-142787822D01*
X191104075Y-142798439D01*
X190987461Y-143168294D01*
X190983705Y-143178615D01*
X190841084Y-143522933D01*
X190835289Y-143536923D01*
X190830647Y-143546876D01*
X190726886Y-143746200D01*
X190651577Y-143890867D01*
X190646081Y-143900387D01*
X190437708Y-144227468D01*
X190431403Y-144236472D01*
X190195322Y-144544138D01*
X190188257Y-144552558D01*
X189926256Y-144838483D01*
X189918483Y-144846256D01*
X189632558Y-145108257D01*
X189624138Y-145115322D01*
X189316472Y-145351403D01*
X189307468Y-145357708D01*
X188980387Y-145566081D01*
X188970868Y-145571576D01*
X188626876Y-145750647D01*
X188616932Y-145755285D01*
X188258615Y-145903705D01*
X188248302Y-145907458D01*
X188048702Y-145970392D01*
X187878439Y-146024075D01*
X187867822Y-146026920D01*
X187489205Y-146110858D01*
X187478379Y-146112767D01*
X187093886Y-146163386D01*
X187082937Y-146164344D01*
X186733446Y-146179603D01*
X186708571Y-146178223D01*
X186696276Y-146176309D01*
X186687374Y-146177473D01*
X186687372Y-146177473D01*
X186672323Y-146179441D01*
X186664714Y-146180436D01*
X186648379Y-146181500D01*
X166562111Y-146181500D01*
X166492219Y-146160338D01*
X162878124Y-143750942D01*
X162864609Y-143740546D01*
X162848778Y-143726565D01*
X162842049Y-143720622D01*
X162778097Y-143690596D01*
X162777352Y-143690243D01*
X162721215Y-143663419D01*
X162713541Y-143659752D01*
X162711795Y-143659468D01*
X162710200Y-143658719D01*
X162652643Y-143649757D01*
X162640390Y-143647849D01*
X162639545Y-143647714D01*
X162578633Y-143637805D01*
X162578631Y-143637805D01*
X162569773Y-143636364D01*
X162547504Y-143639122D01*
X162536012Y-143640545D01*
X162520526Y-143641500D01*
X148229869Y-143641500D01*
X148161748Y-143621498D01*
X148115255Y-143567842D01*
X148105151Y-143497568D01*
X148134645Y-143432988D01*
X148140774Y-143426405D01*
X149713045Y-141854134D01*
X154050500Y-141854134D01*
X154057255Y-141916316D01*
X154108385Y-142052705D01*
X154195739Y-142169261D01*
X154312295Y-142256615D01*
X154448684Y-142307745D01*
X154510866Y-142314500D01*
X160957134Y-142314500D01*
X161019316Y-142307745D01*
X161155705Y-142256615D01*
X161272261Y-142169261D01*
X161359615Y-142052705D01*
X161410745Y-141916316D01*
X161417500Y-141854134D01*
X161417500Y-140040500D01*
X161437502Y-139972379D01*
X161491158Y-139925886D01*
X161543500Y-139914500D01*
X175133500Y-139914500D01*
X175201621Y-139934502D01*
X175248114Y-139988158D01*
X175259500Y-140040500D01*
X175259500Y-141894134D01*
X175266255Y-141956316D01*
X175317385Y-142092705D01*
X175404739Y-142209261D01*
X175521295Y-142296615D01*
X175657684Y-142347745D01*
X175719866Y-142354500D01*
X182166134Y-142354500D01*
X182228316Y-142347745D01*
X182364705Y-142296615D01*
X182481261Y-142209261D01*
X182568615Y-142092705D01*
X182619745Y-141956316D01*
X182626500Y-141894134D01*
X182626500Y-134646583D01*
X185363828Y-134646583D01*
X185369935Y-134905689D01*
X185415163Y-135160890D01*
X185498473Y-135406313D01*
X185500674Y-135410549D01*
X185500676Y-135410555D01*
X185558210Y-135521312D01*
X185617947Y-135636311D01*
X185770837Y-135845590D01*
X185774209Y-135848980D01*
X185774211Y-135848982D01*
X185950248Y-136025945D01*
X185950253Y-136025949D01*
X185953622Y-136029336D01*
X186162099Y-136183319D01*
X186166337Y-136185549D01*
X186166339Y-136185550D01*
X186387232Y-136301768D01*
X186387239Y-136301771D01*
X186391468Y-136303996D01*
X186395984Y-136305555D01*
X186395990Y-136305558D01*
X186488489Y-136337498D01*
X186636451Y-136388590D01*
X186754193Y-136410093D01*
X186887441Y-136434429D01*
X186887445Y-136434429D01*
X186891412Y-136435154D01*
X186974342Y-136439500D01*
X187135903Y-136439500D01*
X187138282Y-136439319D01*
X187138283Y-136439319D01*
X187323664Y-136425218D01*
X187323669Y-136425217D01*
X187328431Y-136424855D01*
X187333084Y-136423776D01*
X187333087Y-136423776D01*
X187576251Y-136367413D01*
X187576250Y-136367413D01*
X187580915Y-136366332D01*
X187821642Y-136270292D01*
X188045072Y-136138944D01*
X188048783Y-136135923D01*
X188048787Y-136135920D01*
X188242351Y-135978334D01*
X188246063Y-135975312D01*
X188249272Y-135971767D01*
X188249277Y-135971762D01*
X188416774Y-135786713D01*
X188419990Y-135783160D01*
X188562851Y-135566910D01*
X188636888Y-135406313D01*
X188669352Y-135335892D01*
X188669353Y-135335889D01*
X188671358Y-135331540D01*
X188743015Y-135082465D01*
X188776172Y-134825417D01*
X188770065Y-134566311D01*
X188750244Y-134454469D01*
X188725671Y-134315814D01*
X188725670Y-134315810D01*
X188724837Y-134311110D01*
X188641527Y-134065687D01*
X188639326Y-134061451D01*
X188639324Y-134061445D01*
X188558104Y-133905090D01*
X188522053Y-133835689D01*
X188484932Y-133784876D01*
X188371986Y-133630274D01*
X188371985Y-133630273D01*
X188369163Y-133626410D01*
X188315907Y-133572874D01*
X188189752Y-133446055D01*
X188189747Y-133446051D01*
X188186378Y-133442664D01*
X187977901Y-133288681D01*
X187941891Y-133269735D01*
X187752768Y-133170232D01*
X187752761Y-133170229D01*
X187748532Y-133168004D01*
X187744016Y-133166445D01*
X187744010Y-133166442D01*
X187573148Y-133107443D01*
X187503549Y-133083410D01*
X187361175Y-133057408D01*
X187252559Y-133037571D01*
X187252555Y-133037571D01*
X187248588Y-133036846D01*
X187165658Y-133032500D01*
X187004097Y-133032500D01*
X187001718Y-133032681D01*
X187001717Y-133032681D01*
X186816336Y-133046782D01*
X186816331Y-133046783D01*
X186811569Y-133047145D01*
X186806916Y-133048224D01*
X186806913Y-133048224D01*
X186721491Y-133068024D01*
X186559085Y-133105668D01*
X186318358Y-133201708D01*
X186094928Y-133333056D01*
X186091217Y-133336077D01*
X186091213Y-133336080D01*
X185941597Y-133457887D01*
X185893937Y-133496688D01*
X185890728Y-133500233D01*
X185890723Y-133500238D01*
X185749817Y-133655910D01*
X185720010Y-133688840D01*
X185577149Y-133905090D01*
X185575148Y-133909430D01*
X185575146Y-133909434D01*
X185470648Y-134136108D01*
X185468642Y-134140460D01*
X185467318Y-134145062D01*
X185404464Y-134363540D01*
X185396985Y-134389535D01*
X185396374Y-134394270D01*
X185396373Y-134394276D01*
X185374789Y-134561606D01*
X185363828Y-134646583D01*
X182626500Y-134646583D01*
X182626500Y-134457866D01*
X182619745Y-134395684D01*
X182568615Y-134259295D01*
X182481261Y-134142739D01*
X182364705Y-134055385D01*
X182228316Y-134004255D01*
X182166134Y-133997500D01*
X175719866Y-133997500D01*
X175657684Y-134004255D01*
X175521295Y-134055385D01*
X175404739Y-134142739D01*
X175317385Y-134259295D01*
X175266255Y-134395684D01*
X175259500Y-134457866D01*
X175259500Y-136231500D01*
X175239498Y-136299621D01*
X175185842Y-136346114D01*
X175133500Y-136357500D01*
X166794956Y-136357500D01*
X166726835Y-136337498D01*
X166680342Y-136283842D01*
X166670238Y-136213568D01*
X166699732Y-136148988D01*
X166715406Y-136133787D01*
X166906351Y-135978334D01*
X166910063Y-135975312D01*
X166913272Y-135971767D01*
X166913277Y-135971762D01*
X167080774Y-135786713D01*
X167083990Y-135783160D01*
X167226851Y-135566910D01*
X167300888Y-135406313D01*
X167333352Y-135335892D01*
X167333353Y-135335889D01*
X167335358Y-135331540D01*
X167407015Y-135082465D01*
X167440172Y-134825417D01*
X167434065Y-134566311D01*
X167414244Y-134454469D01*
X167389671Y-134315814D01*
X167389670Y-134315810D01*
X167388837Y-134311110D01*
X167305527Y-134065687D01*
X167303326Y-134061451D01*
X167303324Y-134061445D01*
X167222104Y-133905090D01*
X167186053Y-133835689D01*
X167148932Y-133784876D01*
X167035986Y-133630274D01*
X167035985Y-133630273D01*
X167033163Y-133626410D01*
X166979907Y-133572874D01*
X166853752Y-133446055D01*
X166853747Y-133446051D01*
X166850378Y-133442664D01*
X166641901Y-133288681D01*
X166605891Y-133269735D01*
X166416768Y-133170232D01*
X166416761Y-133170229D01*
X166412532Y-133168004D01*
X166408016Y-133166445D01*
X166408010Y-133166442D01*
X166237148Y-133107443D01*
X166167549Y-133083410D01*
X166025175Y-133057408D01*
X165916559Y-133037571D01*
X165916555Y-133037571D01*
X165912588Y-133036846D01*
X165829658Y-133032500D01*
X165668097Y-133032500D01*
X165665718Y-133032681D01*
X165665717Y-133032681D01*
X165480336Y-133046782D01*
X165480331Y-133046783D01*
X165475569Y-133047145D01*
X165470916Y-133048224D01*
X165470913Y-133048224D01*
X165385491Y-133068024D01*
X165223085Y-133105668D01*
X164982358Y-133201708D01*
X164758928Y-133333056D01*
X164755217Y-133336077D01*
X164755213Y-133336080D01*
X164605597Y-133457887D01*
X164557937Y-133496688D01*
X164554728Y-133500233D01*
X164554723Y-133500238D01*
X164413817Y-133655910D01*
X164384010Y-133688840D01*
X164241149Y-133905090D01*
X164239148Y-133909430D01*
X164239146Y-133909434D01*
X164134648Y-134136108D01*
X164132642Y-134140460D01*
X164131318Y-134145062D01*
X164068464Y-134363540D01*
X164060985Y-134389535D01*
X164060374Y-134394270D01*
X164060373Y-134394276D01*
X164038789Y-134561606D01*
X164027828Y-134646583D01*
X164033935Y-134905689D01*
X164079163Y-135160890D01*
X164162473Y-135406313D01*
X164164674Y-135410549D01*
X164164676Y-135410555D01*
X164222210Y-135521312D01*
X164281947Y-135636311D01*
X164434837Y-135845590D01*
X164438209Y-135848980D01*
X164438211Y-135848982D01*
X164614248Y-136025945D01*
X164614253Y-136025949D01*
X164617622Y-136029336D01*
X164621474Y-136032181D01*
X164621475Y-136032182D01*
X164754112Y-136130149D01*
X164797023Y-136186710D01*
X164802543Y-136257491D01*
X164768919Y-136320021D01*
X164706827Y-136354446D01*
X164679253Y-136357500D01*
X161543500Y-136357500D01*
X161475379Y-136337498D01*
X161428886Y-136283842D01*
X161417500Y-136231500D01*
X161417500Y-134417866D01*
X161410745Y-134355684D01*
X161359615Y-134219295D01*
X161272261Y-134102739D01*
X161155705Y-134015385D01*
X161019316Y-133964255D01*
X160957134Y-133957500D01*
X154510866Y-133957500D01*
X154448684Y-133964255D01*
X154312295Y-134015385D01*
X154195739Y-134102739D01*
X154108385Y-134219295D01*
X154057255Y-134355684D01*
X154050500Y-134417866D01*
X154050500Y-141854134D01*
X149713045Y-141854134D01*
X150570353Y-140996826D01*
X150575547Y-140991918D01*
X150631441Y-140942031D01*
X150631443Y-140942029D01*
X150634933Y-140938914D01*
X150708819Y-140850076D01*
X150710216Y-140848425D01*
X150782612Y-140764406D01*
X150782614Y-140764404D01*
X150785668Y-140760859D01*
X150788163Y-140756905D01*
X150788168Y-140756898D01*
X150789588Y-140754647D01*
X150799270Y-140741322D01*
X150800969Y-140739279D01*
X150800978Y-140739266D01*
X150803964Y-140735676D01*
X150806390Y-140731679D01*
X150806393Y-140731674D01*
X150863921Y-140636873D01*
X150865077Y-140635004D01*
X150924228Y-140541255D01*
X150924230Y-140541252D01*
X150926725Y-140537297D01*
X150929682Y-140530577D01*
X150937285Y-140515973D01*
X150938669Y-140513691D01*
X150938671Y-140513687D01*
X150941099Y-140509686D01*
X150962512Y-140458621D01*
X150985797Y-140403093D01*
X150986665Y-140401072D01*
X151031304Y-140299621D01*
X151033188Y-140295340D01*
X151034419Y-140290826D01*
X151035121Y-140288253D01*
X151040479Y-140272694D01*
X151041515Y-140270223D01*
X151041518Y-140270213D01*
X151043323Y-140265909D01*
X151071782Y-140153851D01*
X151072319Y-140151810D01*
X151102719Y-140040306D01*
X151103267Y-140035675D01*
X151103270Y-140035660D01*
X151103583Y-140033013D01*
X151106585Y-140016814D01*
X151107240Y-140014236D01*
X151107241Y-140014233D01*
X151108392Y-140009699D01*
X151119973Y-139894692D01*
X151120209Y-139892532D01*
X151131099Y-139800523D01*
X151133789Y-139777795D01*
X151130559Y-139672067D01*
X151130500Y-139668219D01*
X151130500Y-134646869D01*
X151150502Y-134578748D01*
X151167405Y-134557774D01*
X156666353Y-129058826D01*
X156671547Y-129053918D01*
X156727441Y-129004031D01*
X156727443Y-129004029D01*
X156730933Y-129000914D01*
X156804819Y-128912076D01*
X156806216Y-128910425D01*
X156878620Y-128826397D01*
X156878623Y-128826393D01*
X156881668Y-128822859D01*
X156885587Y-128816648D01*
X156895269Y-128803322D01*
X156896971Y-128801275D01*
X156896973Y-128801273D01*
X156899964Y-128797676D01*
X156905007Y-128789366D01*
X156959929Y-128698858D01*
X156961086Y-128696989D01*
X157020231Y-128603249D01*
X157020232Y-128603247D01*
X157022725Y-128599296D01*
X157024608Y-128595017D01*
X157024611Y-128595011D01*
X157025678Y-128592586D01*
X157033284Y-128577973D01*
X157034677Y-128575677D01*
X157037099Y-128571686D01*
X157066158Y-128502389D01*
X157081799Y-128465090D01*
X157082667Y-128463070D01*
X157127305Y-128361622D01*
X157127306Y-128361621D01*
X157129189Y-128357340D01*
X157131118Y-128350265D01*
X157136483Y-128334680D01*
X157139323Y-128327909D01*
X157167783Y-128215848D01*
X157168313Y-128213834D01*
X157198719Y-128102306D01*
X157199267Y-128097675D01*
X157199270Y-128097660D01*
X157199583Y-128095013D01*
X157202585Y-128078814D01*
X157203240Y-128076236D01*
X157203241Y-128076233D01*
X157204392Y-128071699D01*
X157215973Y-127956696D01*
X157216199Y-127954628D01*
X157229790Y-127839795D01*
X157226559Y-127734048D01*
X157226500Y-127730200D01*
X157226500Y-126452880D01*
X168831992Y-126452880D01*
X168832355Y-126457028D01*
X168832355Y-126457032D01*
X168857487Y-126744293D01*
X168857488Y-126744301D01*
X168857852Y-126748459D01*
X168922577Y-127038021D01*
X168924019Y-127041941D01*
X168924021Y-127041947D01*
X168994619Y-127233827D01*
X169025029Y-127316480D01*
X169163410Y-127578942D01*
X169335288Y-127820797D01*
X169537642Y-128037796D01*
X169766918Y-128226125D01*
X170019088Y-128382477D01*
X170289722Y-128504105D01*
X170462390Y-128555580D01*
X170570065Y-128587679D01*
X170570067Y-128587679D01*
X170574064Y-128588871D01*
X170578184Y-128589524D01*
X170578186Y-128589524D01*
X170639885Y-128599296D01*
X170867119Y-128635286D01*
X170912146Y-128637331D01*
X170958497Y-128639436D01*
X170958516Y-128639436D01*
X170959916Y-128639500D01*
X171145264Y-128639500D01*
X171366056Y-128624835D01*
X171656910Y-128566188D01*
X171937453Y-128469590D01*
X171941196Y-128467716D01*
X171941200Y-128467714D01*
X172199012Y-128338611D01*
X172199014Y-128338610D01*
X172202756Y-128336736D01*
X172448158Y-128169961D01*
X172669346Y-127972196D01*
X172862436Y-127746914D01*
X172873290Y-127730200D01*
X173021763Y-127501572D01*
X173021765Y-127501569D01*
X173024035Y-127498073D01*
X173151304Y-127230046D01*
X173211919Y-127041252D01*
X173240726Y-126951530D01*
X173240727Y-126951524D01*
X173242006Y-126947542D01*
X173277091Y-126752548D01*
X173293809Y-126659632D01*
X173293810Y-126659627D01*
X173294548Y-126655523D01*
X173303751Y-126452880D01*
X173307819Y-126363290D01*
X173307819Y-126363285D01*
X173308008Y-126359120D01*
X173307645Y-126354968D01*
X173282513Y-126067707D01*
X173282512Y-126067699D01*
X173282148Y-126063541D01*
X173217423Y-125773979D01*
X173146773Y-125581954D01*
X173116418Y-125499452D01*
X173116416Y-125499448D01*
X173114971Y-125495520D01*
X172976590Y-125233058D01*
X172804712Y-124991203D01*
X172602358Y-124774204D01*
X172373082Y-124585875D01*
X172120912Y-124429523D01*
X171850278Y-124307895D01*
X171677610Y-124256420D01*
X171569935Y-124224321D01*
X171569933Y-124224321D01*
X171565936Y-124223129D01*
X171561816Y-124222476D01*
X171561814Y-124222476D01*
X171442894Y-124203641D01*
X171272881Y-124176714D01*
X171227854Y-124174669D01*
X171181503Y-124172564D01*
X171181484Y-124172564D01*
X171180084Y-124172500D01*
X170994736Y-124172500D01*
X170773944Y-124187165D01*
X170483090Y-124245812D01*
X170202547Y-124342410D01*
X170198804Y-124344284D01*
X170198800Y-124344286D01*
X170024179Y-124431730D01*
X169937244Y-124475264D01*
X169691842Y-124642039D01*
X169470654Y-124839804D01*
X169277564Y-125065086D01*
X169275290Y-125068588D01*
X169275289Y-125068589D01*
X169170698Y-125229646D01*
X169115965Y-125313927D01*
X168988696Y-125581954D01*
X168987417Y-125585937D01*
X168987416Y-125585940D01*
X168927044Y-125773979D01*
X168897994Y-125864458D01*
X168897253Y-125868577D01*
X168862174Y-126063541D01*
X168845452Y-126156477D01*
X168845263Y-126160644D01*
X168845262Y-126160651D01*
X168836060Y-126363290D01*
X168831992Y-126452880D01*
X157226500Y-126452880D01*
X157226500Y-110930892D01*
X157211897Y-110734384D01*
X157153557Y-110476559D01*
X157138028Y-110436626D01*
X157059442Y-110234542D01*
X157059441Y-110234540D01*
X157057749Y-110230189D01*
X157031535Y-110184323D01*
X156928897Y-110004745D01*
X156926578Y-110000687D01*
X156762925Y-109793094D01*
X156570385Y-109611970D01*
X156533212Y-109586182D01*
X156357026Y-109463958D01*
X156357021Y-109463955D01*
X156353188Y-109461296D01*
X156348997Y-109459229D01*
X156120294Y-109346445D01*
X156120291Y-109346444D01*
X156116106Y-109344380D01*
X156059150Y-109326148D01*
X155868792Y-109265214D01*
X155868794Y-109265214D01*
X155864347Y-109263791D01*
X155721825Y-109240580D01*
X155608053Y-109222051D01*
X155608052Y-109222051D01*
X155603441Y-109221300D01*
X155471281Y-109219570D01*
X155343798Y-109217901D01*
X155343795Y-109217901D01*
X155339121Y-109217840D01*
X155077192Y-109253486D01*
X155072702Y-109254795D01*
X155072696Y-109254796D01*
X154964732Y-109286265D01*
X154823410Y-109327457D01*
X154819163Y-109329415D01*
X154819160Y-109329416D01*
X154728950Y-109371004D01*
X154583348Y-109438127D01*
X154579439Y-109440690D01*
X154366195Y-109580499D01*
X154366190Y-109580503D01*
X154362282Y-109583065D01*
X154165067Y-109759086D01*
X153996036Y-109962324D01*
X153858901Y-110188314D01*
X153756677Y-110432091D01*
X153755526Y-110436623D01*
X153755525Y-110436626D01*
X153744226Y-110481116D01*
X153691608Y-110688301D01*
X153669500Y-110907856D01*
X153669500Y-126973131D01*
X153649498Y-127041252D01*
X153632595Y-127062226D01*
X148133647Y-132561174D01*
X148128453Y-132566082D01*
X148115766Y-132577406D01*
X148069067Y-132619086D01*
X147995948Y-132707003D01*
X147995205Y-132707896D01*
X147993784Y-132709575D01*
X147921380Y-132793603D01*
X147921377Y-132793607D01*
X147918332Y-132797141D01*
X147915838Y-132801094D01*
X147914413Y-132803352D01*
X147904731Y-132816678D01*
X147903029Y-132818725D01*
X147900036Y-132822324D01*
X147897613Y-132826317D01*
X147840071Y-132921142D01*
X147838914Y-132923011D01*
X147779769Y-133016751D01*
X147777275Y-133020704D01*
X147775392Y-133024983D01*
X147775389Y-133024989D01*
X147774322Y-133027414D01*
X147766716Y-133042027D01*
X147762901Y-133048314D01*
X147761094Y-133052622D01*
X147761094Y-133052623D01*
X147718201Y-133154910D01*
X147717333Y-133156930D01*
X147697630Y-133201708D01*
X147670811Y-133262660D01*
X147669582Y-133267169D01*
X147669580Y-133267174D01*
X147668882Y-133269735D01*
X147663517Y-133285320D01*
X147660677Y-133292091D01*
X147632217Y-133404152D01*
X147631687Y-133406166D01*
X147601281Y-133517694D01*
X147600733Y-133522325D01*
X147600730Y-133522340D01*
X147600417Y-133524987D01*
X147597415Y-133541186D01*
X147595608Y-133548301D01*
X147584027Y-133663304D01*
X147583801Y-133665372D01*
X147570210Y-133780205D01*
X147571905Y-133835689D01*
X147573441Y-133885952D01*
X147573500Y-133889800D01*
X147573500Y-138911131D01*
X147553498Y-138979252D01*
X147536595Y-139000226D01*
X146112226Y-140424595D01*
X146049914Y-140458621D01*
X146023131Y-140461500D01*
X141360869Y-140461500D01*
X141292748Y-140441498D01*
X141271774Y-140424595D01*
X140188405Y-139341226D01*
X140154379Y-139278914D01*
X140151500Y-139252131D01*
X140151500Y-134417866D01*
X140144745Y-134355684D01*
X140093615Y-134219295D01*
X140006261Y-134102739D01*
X139889705Y-134015385D01*
X139753316Y-133964255D01*
X139691134Y-133957500D01*
X133244866Y-133957500D01*
X133182684Y-133964255D01*
X133046295Y-134015385D01*
X132929739Y-134102739D01*
X132842385Y-134219295D01*
X132791255Y-134355684D01*
X132784500Y-134417866D01*
X132784500Y-136231500D01*
X132764498Y-136299621D01*
X132710842Y-136346114D01*
X132658500Y-136357500D01*
X118941500Y-136357500D01*
X118873379Y-136337498D01*
X118826886Y-136283842D01*
X118815500Y-136231500D01*
X118815500Y-134417866D01*
X118808745Y-134355684D01*
X118757615Y-134219295D01*
X118670261Y-134102739D01*
X118553705Y-134015385D01*
X118417316Y-133964255D01*
X118355134Y-133957500D01*
X111908866Y-133957500D01*
X111846684Y-133964255D01*
X111710295Y-134015385D01*
X111593739Y-134102739D01*
X111506385Y-134219295D01*
X111455255Y-134355684D01*
X111448500Y-134417866D01*
X111448500Y-141854134D01*
X111455255Y-141916316D01*
X111506385Y-142052705D01*
X111593739Y-142169261D01*
X111710295Y-142256615D01*
X111846684Y-142307745D01*
X111908866Y-142314500D01*
X118355134Y-142314500D01*
X118417316Y-142307745D01*
X118553705Y-142256615D01*
X118670261Y-142169261D01*
X118757615Y-142052705D01*
X118808745Y-141916316D01*
X118815500Y-141854134D01*
X118815500Y-140040500D01*
X118835502Y-139972379D01*
X118889158Y-139925886D01*
X118941500Y-139914500D01*
X132658500Y-139914500D01*
X132726621Y-139934502D01*
X132773114Y-139988158D01*
X132784500Y-140040500D01*
X132784500Y-141854134D01*
X132791255Y-141916316D01*
X132842385Y-142052705D01*
X132929739Y-142169261D01*
X133046295Y-142256615D01*
X133182684Y-142307745D01*
X133244866Y-142314500D01*
X138079131Y-142314500D01*
X138147252Y-142334502D01*
X138168226Y-142351405D01*
X139243226Y-143426405D01*
X139277252Y-143488717D01*
X139272187Y-143559532D01*
X139229640Y-143616368D01*
X139163120Y-143641179D01*
X139154131Y-143641500D01*
X130853332Y-143641500D01*
X130836319Y-143640346D01*
X130815398Y-143637495D01*
X130815397Y-143637495D01*
X130806503Y-143636283D01*
X130736619Y-143646777D01*
X130735837Y-143646892D01*
X130665813Y-143656920D01*
X130664202Y-143657652D01*
X130662460Y-143657914D01*
X130598181Y-143687669D01*
X130597902Y-143687798D01*
X130533218Y-143717208D01*
X130526421Y-143723065D01*
X130507447Y-143739414D01*
X130495093Y-143748797D01*
X126877781Y-146160338D01*
X126807889Y-146181500D01*
X106729367Y-146181500D01*
X106709982Y-146180000D01*
X106695149Y-146177690D01*
X106695145Y-146177690D01*
X106686276Y-146176309D01*
X106665817Y-146178984D01*
X106643992Y-146179928D01*
X106287063Y-146164344D01*
X106276114Y-146163386D01*
X105891621Y-146112767D01*
X105880795Y-146110858D01*
X105502178Y-146026920D01*
X105491561Y-146024075D01*
X105321298Y-145970392D01*
X105121698Y-145907458D01*
X105111385Y-145903705D01*
X104753068Y-145755285D01*
X104743124Y-145750647D01*
X104399132Y-145571576D01*
X104389613Y-145566081D01*
X104062532Y-145357708D01*
X104053528Y-145351403D01*
X103745862Y-145115322D01*
X103737442Y-145108257D01*
X103451517Y-144846256D01*
X103443744Y-144838483D01*
X103181743Y-144552558D01*
X103174678Y-144544138D01*
X102938597Y-144236472D01*
X102932292Y-144227468D01*
X102723919Y-143900387D01*
X102718423Y-143890867D01*
X102643114Y-143746200D01*
X102539353Y-143546876D01*
X102534711Y-143536923D01*
X102528917Y-143522933D01*
X102386295Y-143178615D01*
X102382539Y-143168294D01*
X102265925Y-142798439D01*
X102263080Y-142787822D01*
X102179142Y-142409205D01*
X102177233Y-142398379D01*
X102126614Y-142013886D01*
X102125656Y-142002936D01*
X102123621Y-141956316D01*
X102110561Y-141657206D01*
X102112188Y-141630805D01*
X102112769Y-141627352D01*
X102112770Y-141627345D01*
X102113576Y-141622552D01*
X102113729Y-141610000D01*
X102109773Y-141582376D01*
X102108500Y-141564514D01*
X102108500Y-126452880D01*
X104893992Y-126452880D01*
X104894355Y-126457028D01*
X104894355Y-126457032D01*
X104919487Y-126744293D01*
X104919488Y-126744301D01*
X104919852Y-126748459D01*
X104984577Y-127038021D01*
X104986019Y-127041941D01*
X104986021Y-127041947D01*
X105056619Y-127233827D01*
X105087029Y-127316480D01*
X105225410Y-127578942D01*
X105397288Y-127820797D01*
X105599642Y-128037796D01*
X105828918Y-128226125D01*
X106081088Y-128382477D01*
X106351722Y-128504105D01*
X106524390Y-128555580D01*
X106632065Y-128587679D01*
X106632067Y-128587679D01*
X106636064Y-128588871D01*
X106640184Y-128589524D01*
X106640186Y-128589524D01*
X106701885Y-128599296D01*
X106929119Y-128635286D01*
X106974146Y-128637331D01*
X107020497Y-128639436D01*
X107020516Y-128639436D01*
X107021916Y-128639500D01*
X107207264Y-128639500D01*
X107428056Y-128624835D01*
X107718910Y-128566188D01*
X107999453Y-128469590D01*
X108003196Y-128467716D01*
X108003200Y-128467714D01*
X108261012Y-128338611D01*
X108261014Y-128338610D01*
X108264756Y-128336736D01*
X108510158Y-128169961D01*
X108731346Y-127972196D01*
X108924436Y-127746914D01*
X108935290Y-127730200D01*
X109083763Y-127501572D01*
X109083765Y-127501569D01*
X109086035Y-127498073D01*
X109213304Y-127230046D01*
X109273919Y-127041252D01*
X109302726Y-126951530D01*
X109302727Y-126951524D01*
X109304006Y-126947542D01*
X109339091Y-126752548D01*
X109355809Y-126659632D01*
X109355810Y-126659627D01*
X109356548Y-126655523D01*
X109365751Y-126452880D01*
X120823992Y-126452880D01*
X120824355Y-126457028D01*
X120824355Y-126457032D01*
X120849487Y-126744293D01*
X120849488Y-126744301D01*
X120849852Y-126748459D01*
X120914577Y-127038021D01*
X120916019Y-127041941D01*
X120916021Y-127041947D01*
X120986619Y-127233827D01*
X121017029Y-127316480D01*
X121155410Y-127578942D01*
X121327288Y-127820797D01*
X121529642Y-128037796D01*
X121758918Y-128226125D01*
X122011088Y-128382477D01*
X122281722Y-128504105D01*
X122454390Y-128555580D01*
X122562065Y-128587679D01*
X122562067Y-128587679D01*
X122566064Y-128588871D01*
X122570184Y-128589524D01*
X122570186Y-128589524D01*
X122631885Y-128599296D01*
X122859119Y-128635286D01*
X122904146Y-128637331D01*
X122950497Y-128639436D01*
X122950516Y-128639436D01*
X122951916Y-128639500D01*
X123137264Y-128639500D01*
X123358056Y-128624835D01*
X123648910Y-128566188D01*
X123929453Y-128469590D01*
X123933196Y-128467716D01*
X123933200Y-128467714D01*
X124191012Y-128338611D01*
X124191014Y-128338610D01*
X124194756Y-128336736D01*
X124440158Y-128169961D01*
X124661346Y-127972196D01*
X124854436Y-127746914D01*
X124865290Y-127730200D01*
X125013763Y-127501572D01*
X125013765Y-127501569D01*
X125016035Y-127498073D01*
X125143304Y-127230046D01*
X125203919Y-127041252D01*
X125232726Y-126951530D01*
X125232727Y-126951524D01*
X125234006Y-126947542D01*
X125269091Y-126752548D01*
X125285809Y-126659632D01*
X125285810Y-126659627D01*
X125286548Y-126655523D01*
X125295751Y-126452880D01*
X126229992Y-126452880D01*
X126230355Y-126457028D01*
X126230355Y-126457032D01*
X126255487Y-126744293D01*
X126255488Y-126744301D01*
X126255852Y-126748459D01*
X126320577Y-127038021D01*
X126322019Y-127041941D01*
X126322021Y-127041947D01*
X126392619Y-127233827D01*
X126423029Y-127316480D01*
X126561410Y-127578942D01*
X126733288Y-127820797D01*
X126935642Y-128037796D01*
X127164918Y-128226125D01*
X127417088Y-128382477D01*
X127687722Y-128504105D01*
X127860390Y-128555580D01*
X127968065Y-128587679D01*
X127968067Y-128587679D01*
X127972064Y-128588871D01*
X127976184Y-128589524D01*
X127976186Y-128589524D01*
X128037885Y-128599296D01*
X128265119Y-128635286D01*
X128310146Y-128637331D01*
X128356497Y-128639436D01*
X128356516Y-128639436D01*
X128357916Y-128639500D01*
X128543264Y-128639500D01*
X128764056Y-128624835D01*
X129054910Y-128566188D01*
X129335453Y-128469590D01*
X129339196Y-128467716D01*
X129339200Y-128467714D01*
X129597012Y-128338611D01*
X129597014Y-128338610D01*
X129600756Y-128336736D01*
X129846158Y-128169961D01*
X130067346Y-127972196D01*
X130260436Y-127746914D01*
X130271290Y-127730200D01*
X130419763Y-127501572D01*
X130419765Y-127501569D01*
X130422035Y-127498073D01*
X130549304Y-127230046D01*
X130609919Y-127041252D01*
X130638726Y-126951530D01*
X130638727Y-126951524D01*
X130640006Y-126947542D01*
X130675091Y-126752548D01*
X130691809Y-126659632D01*
X130691810Y-126659627D01*
X130692548Y-126655523D01*
X130701751Y-126452880D01*
X130705819Y-126363290D01*
X130705819Y-126363285D01*
X130706008Y-126359120D01*
X130705645Y-126354968D01*
X130680513Y-126067707D01*
X130680512Y-126067699D01*
X130680148Y-126063541D01*
X130615423Y-125773979D01*
X130544773Y-125581954D01*
X130514418Y-125499452D01*
X130514416Y-125499448D01*
X130512971Y-125495520D01*
X130374590Y-125233058D01*
X130202712Y-124991203D01*
X130000358Y-124774204D01*
X129771082Y-124585875D01*
X129518912Y-124429523D01*
X129248278Y-124307895D01*
X129075610Y-124256420D01*
X128967935Y-124224321D01*
X128967933Y-124224321D01*
X128963936Y-124223129D01*
X128959816Y-124222476D01*
X128959814Y-124222476D01*
X128840894Y-124203641D01*
X128670881Y-124176714D01*
X128625854Y-124174669D01*
X128579503Y-124172564D01*
X128579484Y-124172564D01*
X128578084Y-124172500D01*
X128392736Y-124172500D01*
X128171944Y-124187165D01*
X127881090Y-124245812D01*
X127600547Y-124342410D01*
X127596804Y-124344284D01*
X127596800Y-124344286D01*
X127422179Y-124431730D01*
X127335244Y-124475264D01*
X127089842Y-124642039D01*
X126868654Y-124839804D01*
X126675564Y-125065086D01*
X126673290Y-125068588D01*
X126673289Y-125068589D01*
X126568698Y-125229646D01*
X126513965Y-125313927D01*
X126386696Y-125581954D01*
X126385417Y-125585937D01*
X126385416Y-125585940D01*
X126325044Y-125773979D01*
X126295994Y-125864458D01*
X126295253Y-125868577D01*
X126260174Y-126063541D01*
X126243452Y-126156477D01*
X126243263Y-126160644D01*
X126243262Y-126160651D01*
X126234060Y-126363290D01*
X126229992Y-126452880D01*
X125295751Y-126452880D01*
X125299819Y-126363290D01*
X125299819Y-126363285D01*
X125300008Y-126359120D01*
X125299645Y-126354968D01*
X125274513Y-126067707D01*
X125274512Y-126067699D01*
X125274148Y-126063541D01*
X125209423Y-125773979D01*
X125138773Y-125581954D01*
X125108418Y-125499452D01*
X125108416Y-125499448D01*
X125106971Y-125495520D01*
X124968590Y-125233058D01*
X124796712Y-124991203D01*
X124594358Y-124774204D01*
X124365082Y-124585875D01*
X124112912Y-124429523D01*
X123842278Y-124307895D01*
X123669610Y-124256420D01*
X123561935Y-124224321D01*
X123561933Y-124224321D01*
X123557936Y-124223129D01*
X123553816Y-124222476D01*
X123553814Y-124222476D01*
X123434894Y-124203641D01*
X123264881Y-124176714D01*
X123219854Y-124174669D01*
X123173503Y-124172564D01*
X123173484Y-124172564D01*
X123172084Y-124172500D01*
X122986736Y-124172500D01*
X122765944Y-124187165D01*
X122475090Y-124245812D01*
X122194547Y-124342410D01*
X122190804Y-124344284D01*
X122190800Y-124344286D01*
X122016179Y-124431730D01*
X121929244Y-124475264D01*
X121683842Y-124642039D01*
X121462654Y-124839804D01*
X121269564Y-125065086D01*
X121267290Y-125068588D01*
X121267289Y-125068589D01*
X121162698Y-125229646D01*
X121107965Y-125313927D01*
X120980696Y-125581954D01*
X120979417Y-125585937D01*
X120979416Y-125585940D01*
X120919044Y-125773979D01*
X120889994Y-125864458D01*
X120889253Y-125868577D01*
X120854174Y-126063541D01*
X120837452Y-126156477D01*
X120837263Y-126160644D01*
X120837262Y-126160651D01*
X120828060Y-126363290D01*
X120823992Y-126452880D01*
X109365751Y-126452880D01*
X109369819Y-126363290D01*
X109369819Y-126363285D01*
X109370008Y-126359120D01*
X109369645Y-126354968D01*
X109344513Y-126067707D01*
X109344512Y-126067699D01*
X109344148Y-126063541D01*
X109279423Y-125773979D01*
X109208773Y-125581954D01*
X109178418Y-125499452D01*
X109178416Y-125499448D01*
X109176971Y-125495520D01*
X109038590Y-125233058D01*
X108866712Y-124991203D01*
X108664358Y-124774204D01*
X108435082Y-124585875D01*
X108182912Y-124429523D01*
X107912278Y-124307895D01*
X107739610Y-124256420D01*
X107631935Y-124224321D01*
X107631933Y-124224321D01*
X107627936Y-124223129D01*
X107623816Y-124222476D01*
X107623814Y-124222476D01*
X107504894Y-124203641D01*
X107334881Y-124176714D01*
X107289854Y-124174669D01*
X107243503Y-124172564D01*
X107243484Y-124172564D01*
X107242084Y-124172500D01*
X107056736Y-124172500D01*
X106835944Y-124187165D01*
X106545090Y-124245812D01*
X106264547Y-124342410D01*
X106260804Y-124344284D01*
X106260800Y-124344286D01*
X106086179Y-124431730D01*
X105999244Y-124475264D01*
X105753842Y-124642039D01*
X105532654Y-124839804D01*
X105339564Y-125065086D01*
X105337290Y-125068588D01*
X105337289Y-125068589D01*
X105232698Y-125229646D01*
X105177965Y-125313927D01*
X105050696Y-125581954D01*
X105049417Y-125585937D01*
X105049416Y-125585940D01*
X104989044Y-125773979D01*
X104959994Y-125864458D01*
X104959253Y-125868577D01*
X104924174Y-126063541D01*
X104907452Y-126156477D01*
X104907263Y-126160644D01*
X104907262Y-126160651D01*
X104898060Y-126363290D01*
X104893992Y-126452880D01*
X102108500Y-126452880D01*
X102108500Y-117672111D01*
X102129662Y-117602219D01*
X104539058Y-113988124D01*
X104549454Y-113974609D01*
X104563435Y-113958778D01*
X104569378Y-113952049D01*
X104599404Y-113888097D01*
X104599757Y-113887352D01*
X104626581Y-113831215D01*
X104630248Y-113823541D01*
X104630532Y-113821795D01*
X104631281Y-113820200D01*
X104642151Y-113750390D01*
X104642286Y-113749545D01*
X104652195Y-113688633D01*
X104652195Y-113688631D01*
X104653636Y-113679773D01*
X104649455Y-113646012D01*
X104648500Y-113630526D01*
X104648500Y-83863332D01*
X104649654Y-83846319D01*
X104652505Y-83825398D01*
X104652505Y-83825397D01*
X104653717Y-83816503D01*
X104643223Y-83746619D01*
X104643103Y-83745799D01*
X104634281Y-83684202D01*
X104633080Y-83675813D01*
X104632348Y-83674202D01*
X104632086Y-83672460D01*
X104602331Y-83608181D01*
X104602202Y-83607902D01*
X104572792Y-83543218D01*
X104550583Y-83517443D01*
X104541203Y-83505093D01*
X102129662Y-79887781D01*
X102108500Y-79817889D01*
X102108500Y-71252880D01*
X104823992Y-71252880D01*
X104824355Y-71257028D01*
X104824355Y-71257032D01*
X104849487Y-71544293D01*
X104849488Y-71544301D01*
X104849852Y-71548459D01*
X104914577Y-71838021D01*
X104916019Y-71841941D01*
X104916021Y-71841947D01*
X104986619Y-72033827D01*
X105017029Y-72116480D01*
X105155410Y-72378942D01*
X105327288Y-72620797D01*
X105529642Y-72837796D01*
X105758918Y-73026125D01*
X106011088Y-73182477D01*
X106281722Y-73304105D01*
X106454390Y-73355580D01*
X106562065Y-73387679D01*
X106562067Y-73387679D01*
X106566064Y-73388871D01*
X106570184Y-73389524D01*
X106570186Y-73389524D01*
X106689106Y-73408359D01*
X106859119Y-73435286D01*
X106904146Y-73437331D01*
X106950497Y-73439436D01*
X106950516Y-73439436D01*
X106951916Y-73439500D01*
X107137264Y-73439500D01*
X107358056Y-73424835D01*
X107648910Y-73366188D01*
X107929453Y-73269590D01*
X107933196Y-73267716D01*
X107933200Y-73267714D01*
X108191012Y-73138611D01*
X108191014Y-73138610D01*
X108194756Y-73136736D01*
X108440158Y-72969961D01*
X108661346Y-72772196D01*
X108854436Y-72546914D01*
X108856711Y-72543411D01*
X109013763Y-72301572D01*
X109013765Y-72301569D01*
X109016035Y-72298073D01*
X109143304Y-72030046D01*
X109203696Y-71841947D01*
X109232726Y-71751530D01*
X109232727Y-71751524D01*
X109234006Y-71747542D01*
X109269091Y-71552548D01*
X109285809Y-71459632D01*
X109285810Y-71459627D01*
X109286548Y-71455523D01*
X109295751Y-71252880D01*
X120893992Y-71252880D01*
X120894355Y-71257028D01*
X120894355Y-71257032D01*
X120919487Y-71544293D01*
X120919488Y-71544301D01*
X120919852Y-71548459D01*
X120984577Y-71838021D01*
X120986019Y-71841941D01*
X120986021Y-71841947D01*
X121056619Y-72033827D01*
X121087029Y-72116480D01*
X121225410Y-72378942D01*
X121397288Y-72620797D01*
X121599642Y-72837796D01*
X121828918Y-73026125D01*
X122081088Y-73182477D01*
X122351722Y-73304105D01*
X122524390Y-73355580D01*
X122632065Y-73387679D01*
X122632067Y-73387679D01*
X122636064Y-73388871D01*
X122640184Y-73389524D01*
X122640186Y-73389524D01*
X122759106Y-73408359D01*
X122929119Y-73435286D01*
X122974146Y-73437331D01*
X123020497Y-73439436D01*
X123020516Y-73439436D01*
X123021916Y-73439500D01*
X123207264Y-73439500D01*
X123428056Y-73424835D01*
X123718910Y-73366188D01*
X123999453Y-73269590D01*
X124003196Y-73267716D01*
X124003200Y-73267714D01*
X124261012Y-73138611D01*
X124261014Y-73138610D01*
X124264756Y-73136736D01*
X124510158Y-72969961D01*
X124731346Y-72772196D01*
X124924436Y-72546914D01*
X124926711Y-72543411D01*
X125083763Y-72301572D01*
X125083765Y-72301569D01*
X125086035Y-72298073D01*
X125213304Y-72030046D01*
X125273696Y-71841947D01*
X125302726Y-71751530D01*
X125302727Y-71751524D01*
X125304006Y-71747542D01*
X125339091Y-71552548D01*
X125355809Y-71459632D01*
X125355810Y-71459627D01*
X125356548Y-71455523D01*
X125365751Y-71252880D01*
X126159992Y-71252880D01*
X126160355Y-71257028D01*
X126160355Y-71257032D01*
X126185487Y-71544293D01*
X126185488Y-71544301D01*
X126185852Y-71548459D01*
X126250577Y-71838021D01*
X126252019Y-71841941D01*
X126252021Y-71841947D01*
X126322619Y-72033827D01*
X126353029Y-72116480D01*
X126491410Y-72378942D01*
X126663288Y-72620797D01*
X126865642Y-72837796D01*
X127094918Y-73026125D01*
X127347088Y-73182477D01*
X127617722Y-73304105D01*
X127790390Y-73355580D01*
X127898065Y-73387679D01*
X127898067Y-73387679D01*
X127902064Y-73388871D01*
X127906184Y-73389524D01*
X127906186Y-73389524D01*
X128025106Y-73408359D01*
X128195119Y-73435286D01*
X128240146Y-73437331D01*
X128286497Y-73439436D01*
X128286516Y-73439436D01*
X128287916Y-73439500D01*
X128473264Y-73439500D01*
X128694056Y-73424835D01*
X128984910Y-73366188D01*
X129265453Y-73269590D01*
X129269196Y-73267716D01*
X129269200Y-73267714D01*
X129527012Y-73138611D01*
X129527014Y-73138610D01*
X129530756Y-73136736D01*
X129776158Y-72969961D01*
X129997346Y-72772196D01*
X130190436Y-72546914D01*
X130192711Y-72543411D01*
X130349763Y-72301572D01*
X130349765Y-72301569D01*
X130352035Y-72298073D01*
X130479304Y-72030046D01*
X130539696Y-71841947D01*
X130568726Y-71751530D01*
X130568727Y-71751524D01*
X130570006Y-71747542D01*
X130605091Y-71552548D01*
X130621809Y-71459632D01*
X130621810Y-71459627D01*
X130622548Y-71455523D01*
X130631751Y-71252880D01*
X142229992Y-71252880D01*
X142230355Y-71257028D01*
X142230355Y-71257032D01*
X142255487Y-71544293D01*
X142255488Y-71544301D01*
X142255852Y-71548459D01*
X142320577Y-71838021D01*
X142322019Y-71841941D01*
X142322021Y-71841947D01*
X142392619Y-72033827D01*
X142423029Y-72116480D01*
X142561410Y-72378942D01*
X142733288Y-72620797D01*
X142935642Y-72837796D01*
X143164918Y-73026125D01*
X143417088Y-73182477D01*
X143687722Y-73304105D01*
X143860390Y-73355580D01*
X143968065Y-73387679D01*
X143968067Y-73387679D01*
X143972064Y-73388871D01*
X143976184Y-73389524D01*
X143976186Y-73389524D01*
X144095106Y-73408359D01*
X144265119Y-73435286D01*
X144310146Y-73437331D01*
X144356497Y-73439436D01*
X144356516Y-73439436D01*
X144357916Y-73439500D01*
X144543264Y-73439500D01*
X144764056Y-73424835D01*
X145054910Y-73366188D01*
X145335453Y-73269590D01*
X145339196Y-73267716D01*
X145339200Y-73267714D01*
X145597012Y-73138611D01*
X145597014Y-73138610D01*
X145600756Y-73136736D01*
X145846158Y-72969961D01*
X146067346Y-72772196D01*
X146260436Y-72546914D01*
X146262711Y-72543411D01*
X146419763Y-72301572D01*
X146419765Y-72301569D01*
X146422035Y-72298073D01*
X146549304Y-72030046D01*
X146609696Y-71841947D01*
X146638726Y-71751530D01*
X146638727Y-71751524D01*
X146640006Y-71747542D01*
X146675091Y-71552548D01*
X146691809Y-71459632D01*
X146691810Y-71459627D01*
X146692548Y-71455523D01*
X146701751Y-71252880D01*
X146705819Y-71163290D01*
X146705819Y-71163285D01*
X146706008Y-71159120D01*
X146705645Y-71154968D01*
X146680513Y-70867707D01*
X146680512Y-70867699D01*
X146680148Y-70863541D01*
X146615423Y-70573979D01*
X146544773Y-70381954D01*
X146514418Y-70299452D01*
X146514416Y-70299448D01*
X146512971Y-70295520D01*
X146374590Y-70033058D01*
X146202712Y-69791203D01*
X146000358Y-69574204D01*
X145771082Y-69385875D01*
X145518912Y-69229523D01*
X145248278Y-69107895D01*
X145075610Y-69056420D01*
X144967935Y-69024321D01*
X144967933Y-69024321D01*
X144963936Y-69023129D01*
X144959816Y-69022476D01*
X144959814Y-69022476D01*
X144840894Y-69003641D01*
X144670881Y-68976714D01*
X144625854Y-68974669D01*
X144579503Y-68972564D01*
X144579484Y-68972564D01*
X144578084Y-68972500D01*
X144392736Y-68972500D01*
X144171944Y-68987165D01*
X143881090Y-69045812D01*
X143600547Y-69142410D01*
X143596804Y-69144284D01*
X143596800Y-69144286D01*
X143422179Y-69231730D01*
X143335244Y-69275264D01*
X143089842Y-69442039D01*
X142868654Y-69639804D01*
X142675564Y-69865086D01*
X142673290Y-69868588D01*
X142673289Y-69868589D01*
X142568698Y-70029646D01*
X142513965Y-70113927D01*
X142386696Y-70381954D01*
X142385417Y-70385937D01*
X142385416Y-70385940D01*
X142325044Y-70573979D01*
X142295994Y-70664458D01*
X142295253Y-70668577D01*
X142260174Y-70863541D01*
X142243452Y-70956477D01*
X142243263Y-70960644D01*
X142243262Y-70960651D01*
X142234060Y-71163290D01*
X142229992Y-71252880D01*
X130631751Y-71252880D01*
X130635819Y-71163290D01*
X130635819Y-71163285D01*
X130636008Y-71159120D01*
X130635645Y-71154968D01*
X130610513Y-70867707D01*
X130610512Y-70867699D01*
X130610148Y-70863541D01*
X130545423Y-70573979D01*
X130474773Y-70381954D01*
X130444418Y-70299452D01*
X130444416Y-70299448D01*
X130442971Y-70295520D01*
X130304590Y-70033058D01*
X130132712Y-69791203D01*
X129930358Y-69574204D01*
X129701082Y-69385875D01*
X129448912Y-69229523D01*
X129178278Y-69107895D01*
X129005610Y-69056420D01*
X128897935Y-69024321D01*
X128897933Y-69024321D01*
X128893936Y-69023129D01*
X128889816Y-69022476D01*
X128889814Y-69022476D01*
X128770894Y-69003641D01*
X128600881Y-68976714D01*
X128555854Y-68974669D01*
X128509503Y-68972564D01*
X128509484Y-68972564D01*
X128508084Y-68972500D01*
X128322736Y-68972500D01*
X128101944Y-68987165D01*
X127811090Y-69045812D01*
X127530547Y-69142410D01*
X127526804Y-69144284D01*
X127526800Y-69144286D01*
X127352179Y-69231730D01*
X127265244Y-69275264D01*
X127019842Y-69442039D01*
X126798654Y-69639804D01*
X126605564Y-69865086D01*
X126603290Y-69868588D01*
X126603289Y-69868589D01*
X126498698Y-70029646D01*
X126443965Y-70113927D01*
X126316696Y-70381954D01*
X126315417Y-70385937D01*
X126315416Y-70385940D01*
X126255044Y-70573979D01*
X126225994Y-70664458D01*
X126225253Y-70668577D01*
X126190174Y-70863541D01*
X126173452Y-70956477D01*
X126173263Y-70960644D01*
X126173262Y-70960651D01*
X126164060Y-71163290D01*
X126159992Y-71252880D01*
X125365751Y-71252880D01*
X125369819Y-71163290D01*
X125369819Y-71163285D01*
X125370008Y-71159120D01*
X125369645Y-71154968D01*
X125344513Y-70867707D01*
X125344512Y-70867699D01*
X125344148Y-70863541D01*
X125279423Y-70573979D01*
X125208773Y-70381954D01*
X125178418Y-70299452D01*
X125178416Y-70299448D01*
X125176971Y-70295520D01*
X125038590Y-70033058D01*
X124866712Y-69791203D01*
X124664358Y-69574204D01*
X124435082Y-69385875D01*
X124182912Y-69229523D01*
X123912278Y-69107895D01*
X123739610Y-69056420D01*
X123631935Y-69024321D01*
X123631933Y-69024321D01*
X123627936Y-69023129D01*
X123623816Y-69022476D01*
X123623814Y-69022476D01*
X123504894Y-69003641D01*
X123334881Y-68976714D01*
X123289854Y-68974669D01*
X123243503Y-68972564D01*
X123243484Y-68972564D01*
X123242084Y-68972500D01*
X123056736Y-68972500D01*
X122835944Y-68987165D01*
X122545090Y-69045812D01*
X122264547Y-69142410D01*
X122260804Y-69144284D01*
X122260800Y-69144286D01*
X122086179Y-69231730D01*
X121999244Y-69275264D01*
X121753842Y-69442039D01*
X121532654Y-69639804D01*
X121339564Y-69865086D01*
X121337290Y-69868588D01*
X121337289Y-69868589D01*
X121232698Y-70029646D01*
X121177965Y-70113927D01*
X121050696Y-70381954D01*
X121049417Y-70385937D01*
X121049416Y-70385940D01*
X120989044Y-70573979D01*
X120959994Y-70664458D01*
X120959253Y-70668577D01*
X120924174Y-70863541D01*
X120907452Y-70956477D01*
X120907263Y-70960644D01*
X120907262Y-70960651D01*
X120898060Y-71163290D01*
X120893992Y-71252880D01*
X109295751Y-71252880D01*
X109299819Y-71163290D01*
X109299819Y-71163285D01*
X109300008Y-71159120D01*
X109299645Y-71154968D01*
X109274513Y-70867707D01*
X109274512Y-70867699D01*
X109274148Y-70863541D01*
X109209423Y-70573979D01*
X109138773Y-70381954D01*
X109108418Y-70299452D01*
X109108416Y-70299448D01*
X109106971Y-70295520D01*
X108968590Y-70033058D01*
X108796712Y-69791203D01*
X108594358Y-69574204D01*
X108365082Y-69385875D01*
X108112912Y-69229523D01*
X107842278Y-69107895D01*
X107669610Y-69056420D01*
X107561935Y-69024321D01*
X107561933Y-69024321D01*
X107557936Y-69023129D01*
X107553816Y-69022476D01*
X107553814Y-69022476D01*
X107434894Y-69003641D01*
X107264881Y-68976714D01*
X107219854Y-68974669D01*
X107173503Y-68972564D01*
X107173484Y-68972564D01*
X107172084Y-68972500D01*
X106986736Y-68972500D01*
X106765944Y-68987165D01*
X106475090Y-69045812D01*
X106194547Y-69142410D01*
X106190804Y-69144284D01*
X106190800Y-69144286D01*
X106016179Y-69231730D01*
X105929244Y-69275264D01*
X105683842Y-69442039D01*
X105462654Y-69639804D01*
X105269564Y-69865086D01*
X105267290Y-69868588D01*
X105267289Y-69868589D01*
X105162698Y-70029646D01*
X105107965Y-70113927D01*
X104980696Y-70381954D01*
X104979417Y-70385937D01*
X104979416Y-70385940D01*
X104919044Y-70573979D01*
X104889994Y-70664458D01*
X104889253Y-70668577D01*
X104854174Y-70863541D01*
X104837452Y-70956477D01*
X104837263Y-70960644D01*
X104837262Y-70960651D01*
X104828060Y-71163290D01*
X104823992Y-71252880D01*
X102108500Y-71252880D01*
X102108500Y-62786583D01*
X105425828Y-62786583D01*
X105431935Y-63045689D01*
X105432769Y-63050394D01*
X105470575Y-63263715D01*
X105477163Y-63300890D01*
X105560473Y-63546313D01*
X105562674Y-63550549D01*
X105562676Y-63550555D01*
X105613606Y-63648598D01*
X105679947Y-63776311D01*
X105832837Y-63985590D01*
X105836209Y-63988980D01*
X105836211Y-63988982D01*
X106012248Y-64165945D01*
X106012253Y-64165949D01*
X106015622Y-64169336D01*
X106224099Y-64323319D01*
X106228337Y-64325549D01*
X106228339Y-64325550D01*
X106449232Y-64441768D01*
X106449239Y-64441771D01*
X106453468Y-64443996D01*
X106457984Y-64445555D01*
X106457990Y-64445558D01*
X106584565Y-64489264D01*
X106698451Y-64528590D01*
X106816193Y-64550093D01*
X106949441Y-64574429D01*
X106949445Y-64574429D01*
X106953412Y-64575154D01*
X107036342Y-64579500D01*
X107197903Y-64579500D01*
X107200282Y-64579319D01*
X107200283Y-64579319D01*
X107385664Y-64565218D01*
X107385669Y-64565217D01*
X107390431Y-64564855D01*
X107395084Y-64563776D01*
X107395087Y-64563776D01*
X107638251Y-64507413D01*
X107638250Y-64507413D01*
X107642915Y-64506332D01*
X107883642Y-64410292D01*
X108107072Y-64278944D01*
X108110783Y-64275923D01*
X108110787Y-64275920D01*
X108304351Y-64118334D01*
X108308063Y-64115312D01*
X108311272Y-64111767D01*
X108311277Y-64111762D01*
X108478774Y-63926713D01*
X108481990Y-63923160D01*
X108624851Y-63706910D01*
X108639792Y-63674502D01*
X108731352Y-63475892D01*
X108731353Y-63475889D01*
X108733358Y-63471540D01*
X108793148Y-63263715D01*
X108803694Y-63227058D01*
X108803695Y-63227053D01*
X108805015Y-63222465D01*
X108805809Y-63216316D01*
X108813830Y-63154134D01*
X113607500Y-63154134D01*
X113614255Y-63216316D01*
X113665385Y-63352705D01*
X113752739Y-63469261D01*
X113869295Y-63556615D01*
X114005684Y-63607745D01*
X114067866Y-63614500D01*
X118482134Y-63614500D01*
X118544316Y-63607745D01*
X118680705Y-63556615D01*
X118797261Y-63469261D01*
X118884615Y-63352705D01*
X118935745Y-63216316D01*
X118942500Y-63154134D01*
X118942500Y-61340500D01*
X118962502Y-61272379D01*
X119016158Y-61225886D01*
X119068500Y-61214500D01*
X122063788Y-61214500D01*
X122131909Y-61234502D01*
X122178402Y-61288158D01*
X122188506Y-61358432D01*
X122159012Y-61423012D01*
X122127644Y-61449120D01*
X122086928Y-61473056D01*
X122083217Y-61476077D01*
X122083213Y-61476080D01*
X121955791Y-61579818D01*
X121885937Y-61636688D01*
X121882728Y-61640233D01*
X121882723Y-61640238D01*
X121765021Y-61770274D01*
X121712010Y-61828840D01*
X121569149Y-62045090D01*
X121567148Y-62049430D01*
X121567146Y-62049434D01*
X121493025Y-62210215D01*
X121460642Y-62280460D01*
X121388985Y-62529535D01*
X121355828Y-62786583D01*
X121361935Y-63045689D01*
X121362769Y-63050394D01*
X121400575Y-63263715D01*
X121407163Y-63300890D01*
X121490473Y-63546313D01*
X121492674Y-63550549D01*
X121492676Y-63550555D01*
X121543606Y-63648598D01*
X121609947Y-63776311D01*
X121762837Y-63985590D01*
X121766209Y-63988980D01*
X121766211Y-63988982D01*
X121942248Y-64165945D01*
X121942253Y-64165949D01*
X121945622Y-64169336D01*
X122154099Y-64323319D01*
X122158337Y-64325549D01*
X122158339Y-64325550D01*
X122379232Y-64441768D01*
X122379239Y-64441771D01*
X122383468Y-64443996D01*
X122387984Y-64445555D01*
X122387990Y-64445558D01*
X122514565Y-64489264D01*
X122628451Y-64528590D01*
X122746193Y-64550093D01*
X122879441Y-64574429D01*
X122879445Y-64574429D01*
X122883412Y-64575154D01*
X122966342Y-64579500D01*
X123127903Y-64579500D01*
X123130282Y-64579319D01*
X123130283Y-64579319D01*
X123315664Y-64565218D01*
X123315669Y-64565217D01*
X123320431Y-64564855D01*
X123325084Y-64563776D01*
X123325087Y-64563776D01*
X123568251Y-64507413D01*
X123568250Y-64507413D01*
X123572915Y-64506332D01*
X123813642Y-64410292D01*
X124037072Y-64278944D01*
X124040783Y-64275923D01*
X124040787Y-64275920D01*
X124234351Y-64118334D01*
X124238063Y-64115312D01*
X124241272Y-64111767D01*
X124241277Y-64111762D01*
X124408774Y-63926713D01*
X124411990Y-63923160D01*
X124554851Y-63706910D01*
X124569792Y-63674502D01*
X124661352Y-63475892D01*
X124661353Y-63475889D01*
X124663358Y-63471540D01*
X124723148Y-63263715D01*
X124733694Y-63227058D01*
X124733695Y-63227053D01*
X124735015Y-63222465D01*
X124735809Y-63216316D01*
X124767561Y-62970154D01*
X124768172Y-62965417D01*
X124762065Y-62706311D01*
X124716837Y-62451110D01*
X124633527Y-62205687D01*
X124631326Y-62201451D01*
X124631324Y-62201445D01*
X124550104Y-62045090D01*
X124514053Y-61975689D01*
X124361163Y-61766410D01*
X124235651Y-61640238D01*
X124181752Y-61586055D01*
X124181747Y-61586051D01*
X124178378Y-61582664D01*
X124034075Y-61476080D01*
X123987732Y-61441851D01*
X123944821Y-61385290D01*
X123939301Y-61314509D01*
X123972925Y-61251979D01*
X124035017Y-61217554D01*
X124062591Y-61214500D01*
X127469788Y-61214500D01*
X127537909Y-61234502D01*
X127584402Y-61288158D01*
X127594506Y-61358432D01*
X127565012Y-61423012D01*
X127533644Y-61449120D01*
X127492928Y-61473056D01*
X127489217Y-61476077D01*
X127489213Y-61476080D01*
X127361791Y-61579818D01*
X127291937Y-61636688D01*
X127288728Y-61640233D01*
X127288723Y-61640238D01*
X127171021Y-61770274D01*
X127118010Y-61828840D01*
X126975149Y-62045090D01*
X126973148Y-62049430D01*
X126973146Y-62049434D01*
X126899025Y-62210215D01*
X126866642Y-62280460D01*
X126794985Y-62529535D01*
X126761828Y-62786583D01*
X126767935Y-63045689D01*
X126768769Y-63050394D01*
X126806575Y-63263715D01*
X126813163Y-63300890D01*
X126896473Y-63546313D01*
X126898674Y-63550549D01*
X126898676Y-63550555D01*
X126949606Y-63648598D01*
X127015947Y-63776311D01*
X127168837Y-63985590D01*
X127172209Y-63988980D01*
X127172211Y-63988982D01*
X127348248Y-64165945D01*
X127348253Y-64165949D01*
X127351622Y-64169336D01*
X127560099Y-64323319D01*
X127564337Y-64325549D01*
X127564339Y-64325550D01*
X127785232Y-64441768D01*
X127785239Y-64441771D01*
X127789468Y-64443996D01*
X127793984Y-64445555D01*
X127793990Y-64445558D01*
X127920565Y-64489264D01*
X128034451Y-64528590D01*
X128152193Y-64550093D01*
X128285441Y-64574429D01*
X128285445Y-64574429D01*
X128289412Y-64575154D01*
X128372342Y-64579500D01*
X128533903Y-64579500D01*
X128536282Y-64579319D01*
X128536283Y-64579319D01*
X128721664Y-64565218D01*
X128721669Y-64565217D01*
X128726431Y-64564855D01*
X128731084Y-64563776D01*
X128731087Y-64563776D01*
X128974251Y-64507413D01*
X128974250Y-64507413D01*
X128978915Y-64506332D01*
X129219642Y-64410292D01*
X129443072Y-64278944D01*
X129446783Y-64275923D01*
X129446787Y-64275920D01*
X129640351Y-64118334D01*
X129644063Y-64115312D01*
X129647272Y-64111767D01*
X129647277Y-64111762D01*
X129814774Y-63926713D01*
X129817990Y-63923160D01*
X129960851Y-63706910D01*
X129975792Y-63674502D01*
X130067352Y-63475892D01*
X130067353Y-63475889D01*
X130069358Y-63471540D01*
X130129148Y-63263715D01*
X130139694Y-63227058D01*
X130139695Y-63227053D01*
X130141015Y-63222465D01*
X130141809Y-63216316D01*
X130173561Y-62970154D01*
X130174172Y-62965417D01*
X130168065Y-62706311D01*
X130122837Y-62451110D01*
X130039527Y-62205687D01*
X130037326Y-62201451D01*
X130037324Y-62201445D01*
X129956104Y-62045090D01*
X129920053Y-61975689D01*
X129767163Y-61766410D01*
X129641651Y-61640238D01*
X129587752Y-61586055D01*
X129587747Y-61586051D01*
X129584378Y-61582664D01*
X129440075Y-61476080D01*
X129393732Y-61441851D01*
X129350821Y-61385290D01*
X129345301Y-61314509D01*
X129378925Y-61251979D01*
X129441017Y-61217554D01*
X129468591Y-61214500D01*
X132658500Y-61214500D01*
X132726621Y-61234502D01*
X132773114Y-61288158D01*
X132784500Y-61340500D01*
X132784500Y-63194134D01*
X132791255Y-63256316D01*
X132842385Y-63392705D01*
X132929739Y-63509261D01*
X133046295Y-63596615D01*
X133182684Y-63647745D01*
X133244866Y-63654500D01*
X139691134Y-63654500D01*
X139753316Y-63647745D01*
X139889705Y-63596615D01*
X140006261Y-63509261D01*
X140093615Y-63392705D01*
X140144745Y-63256316D01*
X140151500Y-63194134D01*
X140151500Y-61380500D01*
X140171502Y-61312379D01*
X140225158Y-61265886D01*
X140277500Y-61254500D01*
X143337044Y-61254500D01*
X143405165Y-61274502D01*
X143451658Y-61328158D01*
X143461762Y-61398432D01*
X143432268Y-61463012D01*
X143416596Y-61478211D01*
X143221937Y-61636688D01*
X143218728Y-61640233D01*
X143218723Y-61640238D01*
X143101021Y-61770274D01*
X143048010Y-61828840D01*
X142905149Y-62045090D01*
X142903148Y-62049430D01*
X142903146Y-62049434D01*
X142829025Y-62210215D01*
X142796642Y-62280460D01*
X142724985Y-62529535D01*
X142691828Y-62786583D01*
X142697935Y-63045689D01*
X142698769Y-63050394D01*
X142736575Y-63263715D01*
X142743163Y-63300890D01*
X142826473Y-63546313D01*
X142828674Y-63550549D01*
X142828676Y-63550555D01*
X142879606Y-63648598D01*
X142945947Y-63776311D01*
X143098837Y-63985590D01*
X143102209Y-63988980D01*
X143102211Y-63988982D01*
X143278248Y-64165945D01*
X143278253Y-64165949D01*
X143281622Y-64169336D01*
X143490099Y-64323319D01*
X143494337Y-64325549D01*
X143494339Y-64325550D01*
X143715232Y-64441768D01*
X143715239Y-64441771D01*
X143719468Y-64443996D01*
X143723984Y-64445555D01*
X143723990Y-64445558D01*
X143850565Y-64489264D01*
X143964451Y-64528590D01*
X144082193Y-64550093D01*
X144215441Y-64574429D01*
X144215445Y-64574429D01*
X144219412Y-64575154D01*
X144302342Y-64579500D01*
X144463903Y-64579500D01*
X144466282Y-64579319D01*
X144466283Y-64579319D01*
X144651664Y-64565218D01*
X144651669Y-64565217D01*
X144656431Y-64564855D01*
X144661084Y-64563776D01*
X144661087Y-64563776D01*
X144904251Y-64507413D01*
X144904250Y-64507413D01*
X144908915Y-64506332D01*
X145149642Y-64410292D01*
X145373072Y-64278944D01*
X145376783Y-64275923D01*
X145376787Y-64275920D01*
X145570351Y-64118334D01*
X145574063Y-64115312D01*
X145577272Y-64111767D01*
X145577277Y-64111762D01*
X145744774Y-63926713D01*
X145747990Y-63923160D01*
X145890851Y-63706910D01*
X145905792Y-63674502D01*
X145997352Y-63475892D01*
X145997353Y-63475889D01*
X145999358Y-63471540D01*
X146059148Y-63263715D01*
X146069694Y-63227058D01*
X146069695Y-63227053D01*
X146071015Y-63222465D01*
X146071809Y-63216316D01*
X146103561Y-62970154D01*
X146104172Y-62965417D01*
X146098065Y-62706311D01*
X146052837Y-62451110D01*
X145969527Y-62205687D01*
X145967326Y-62201451D01*
X145967324Y-62201445D01*
X145886104Y-62045090D01*
X145850053Y-61975689D01*
X145697163Y-61766410D01*
X145571651Y-61640238D01*
X145517752Y-61586055D01*
X145517747Y-61586051D01*
X145514378Y-61582664D01*
X145377888Y-61481851D01*
X145334977Y-61425290D01*
X145329457Y-61354509D01*
X145363081Y-61291979D01*
X145425173Y-61257554D01*
X145452747Y-61254500D01*
X153924500Y-61254500D01*
X153992621Y-61274502D01*
X154039114Y-61328158D01*
X154050500Y-61380500D01*
X154050500Y-63194134D01*
X154057255Y-63256316D01*
X154108385Y-63392705D01*
X154195739Y-63509261D01*
X154312295Y-63596615D01*
X154448684Y-63647745D01*
X154510866Y-63654500D01*
X155829500Y-63654500D01*
X155897621Y-63674502D01*
X155944114Y-63728158D01*
X155955500Y-63780500D01*
X155955500Y-98017131D01*
X155935498Y-98085252D01*
X155918595Y-98106226D01*
X138481647Y-115543174D01*
X138476453Y-115548082D01*
X138417067Y-115601086D01*
X138414074Y-115604685D01*
X138343205Y-115689896D01*
X138341784Y-115691575D01*
X138269380Y-115775603D01*
X138269377Y-115775607D01*
X138266332Y-115779141D01*
X138263838Y-115783094D01*
X138262413Y-115785352D01*
X138252731Y-115798678D01*
X138251029Y-115800725D01*
X138248036Y-115804324D01*
X138245613Y-115808317D01*
X138188071Y-115903142D01*
X138186914Y-115905011D01*
X138125275Y-116002704D01*
X138123392Y-116006983D01*
X138123389Y-116006989D01*
X138122322Y-116009414D01*
X138114716Y-116024027D01*
X138110901Y-116030314D01*
X138109094Y-116034622D01*
X138109094Y-116034623D01*
X138066201Y-116136910D01*
X138065333Y-116138930D01*
X138018811Y-116244660D01*
X138017582Y-116249169D01*
X138017580Y-116249174D01*
X138016882Y-116251735D01*
X138011517Y-116267320D01*
X138008677Y-116274091D01*
X137980217Y-116386152D01*
X137979687Y-116388166D01*
X137949281Y-116499694D01*
X137948733Y-116504325D01*
X137948730Y-116504340D01*
X137948417Y-116506987D01*
X137945415Y-116523186D01*
X137943608Y-116530301D01*
X137932027Y-116645304D01*
X137931801Y-116647372D01*
X137918210Y-116762205D01*
X137918353Y-116766876D01*
X137921441Y-116867952D01*
X137921500Y-116871800D01*
X137921500Y-128722522D01*
X137921297Y-128729665D01*
X137917050Y-128804450D01*
X137917050Y-128804457D01*
X137916785Y-128809126D01*
X137917214Y-128813792D01*
X137927350Y-128924113D01*
X137927532Y-128926303D01*
X137935755Y-129036947D01*
X137935757Y-129036961D01*
X137936103Y-129041616D01*
X137937134Y-129046172D01*
X137937134Y-129046173D01*
X137937725Y-129048786D01*
X137940302Y-129065057D01*
X137940973Y-129072360D01*
X137942085Y-129076904D01*
X137968433Y-129184582D01*
X137968937Y-129186722D01*
X137994443Y-129299441D01*
X137997103Y-129306283D01*
X138002057Y-129321993D01*
X138003803Y-129329128D01*
X138005576Y-129333461D01*
X138047555Y-129436073D01*
X138048370Y-129438114D01*
X138090251Y-129545811D01*
X138092565Y-129549860D01*
X138092571Y-129549872D01*
X138093893Y-129552184D01*
X138101116Y-129566993D01*
X138102122Y-129569453D01*
X138102125Y-129569460D01*
X138103896Y-129573788D01*
X138106290Y-129577812D01*
X138162979Y-129673097D01*
X138164085Y-129674994D01*
X138221422Y-129775313D01*
X138225966Y-129781077D01*
X138235298Y-129794655D01*
X138239053Y-129800966D01*
X138242009Y-129804584D01*
X138242016Y-129804594D01*
X138312174Y-129890462D01*
X138313551Y-129892178D01*
X138382178Y-129979232D01*
X138382183Y-129979237D01*
X138385075Y-129982906D01*
X138388477Y-129986106D01*
X138462152Y-130055413D01*
X138464914Y-130058093D01*
X142710595Y-134303774D01*
X142744621Y-134366086D01*
X142747500Y-134392869D01*
X142747500Y-137774008D01*
X142743063Y-137807150D01*
X142735281Y-137835694D01*
X142704210Y-138098205D01*
X142712283Y-138362425D01*
X142713116Y-138367030D01*
X142753036Y-138587785D01*
X142759322Y-138622549D01*
X142844292Y-138872864D01*
X142888666Y-138959021D01*
X142963186Y-139103713D01*
X142963189Y-139103718D01*
X142965327Y-139107869D01*
X143119770Y-139322403D01*
X143138107Y-139341226D01*
X143300964Y-139508404D01*
X143300968Y-139508407D01*
X143304226Y-139511752D01*
X143307944Y-139514580D01*
X143307946Y-139514581D01*
X143509988Y-139668219D01*
X143514643Y-139671759D01*
X143746400Y-139798904D01*
X143994405Y-139890398D01*
X144253208Y-139944229D01*
X144385167Y-139951722D01*
X144512450Y-139958950D01*
X144512457Y-139958950D01*
X144517126Y-139959215D01*
X144736945Y-139939016D01*
X144775703Y-139935455D01*
X144775704Y-139935455D01*
X144780360Y-139935027D01*
X145037128Y-139872197D01*
X145281788Y-139772104D01*
X145508966Y-139636947D01*
X145512580Y-139633994D01*
X145512586Y-139633990D01*
X145658735Y-139514581D01*
X145679848Y-139497331D01*
X145744353Y-139432826D01*
X145749547Y-139427918D01*
X145805441Y-139378031D01*
X145805443Y-139378029D01*
X145808933Y-139374914D01*
X145882863Y-139286022D01*
X145884132Y-139284523D01*
X145959669Y-139196859D01*
X145963598Y-139190632D01*
X145973266Y-139177326D01*
X145977964Y-139171676D01*
X145980388Y-139167681D01*
X145980394Y-139167673D01*
X146037905Y-139072900D01*
X146039061Y-139071032D01*
X146098229Y-138977255D01*
X146098234Y-138977246D01*
X146100726Y-138973296D01*
X146102609Y-138969018D01*
X146102612Y-138969011D01*
X146103685Y-138966573D01*
X146111289Y-138951964D01*
X146115099Y-138945686D01*
X146159790Y-138839111D01*
X146160658Y-138837091D01*
X146205305Y-138735622D01*
X146205305Y-138735621D01*
X146207189Y-138731340D01*
X146209118Y-138724265D01*
X146214483Y-138708680D01*
X146217323Y-138701909D01*
X146245767Y-138589912D01*
X146246327Y-138587785D01*
X146275489Y-138480820D01*
X146276720Y-138476305D01*
X146277584Y-138469005D01*
X146280586Y-138452810D01*
X146281243Y-138450224D01*
X146281243Y-138450223D01*
X146282392Y-138445699D01*
X146293963Y-138330785D01*
X146294202Y-138328598D01*
X146307241Y-138218431D01*
X146307790Y-138213795D01*
X146304559Y-138108035D01*
X146304500Y-138104187D01*
X146304500Y-133659478D01*
X146304703Y-133652335D01*
X146308950Y-133577550D01*
X146308950Y-133577543D01*
X146309215Y-133572874D01*
X146301937Y-133493666D01*
X146298650Y-133457887D01*
X146298468Y-133455697D01*
X146290245Y-133345053D01*
X146290243Y-133345039D01*
X146289897Y-133340384D01*
X146288275Y-133333214D01*
X146285698Y-133316942D01*
X146285455Y-133314297D01*
X146285027Y-133309640D01*
X146272483Y-133258378D01*
X146257567Y-133197418D01*
X146257063Y-133195278D01*
X146232588Y-133087116D01*
X146231557Y-133082559D01*
X146228897Y-133075717D01*
X146223943Y-133060007D01*
X146222197Y-133052872D01*
X146178444Y-132945925D01*
X146177630Y-132943885D01*
X146137442Y-132840543D01*
X146135749Y-132836189D01*
X146133435Y-132832140D01*
X146133429Y-132832128D01*
X146132107Y-132829816D01*
X146124884Y-132815007D01*
X146123878Y-132812547D01*
X146123875Y-132812540D01*
X146122104Y-132808212D01*
X146063020Y-132708901D01*
X146061913Y-132707003D01*
X146006902Y-132610753D01*
X146006901Y-132610752D01*
X146004578Y-132606687D01*
X146000033Y-132600922D01*
X145990701Y-132587344D01*
X145989338Y-132585053D01*
X145986947Y-132581034D01*
X145983991Y-132577416D01*
X145983984Y-132577406D01*
X145913826Y-132491538D01*
X145912449Y-132489822D01*
X145843822Y-132402768D01*
X145843817Y-132402763D01*
X145840925Y-132399094D01*
X145763848Y-132326587D01*
X145761086Y-132323907D01*
X141515405Y-128078226D01*
X141481379Y-128015914D01*
X141478500Y-127989131D01*
X141478500Y-126452880D01*
X142159992Y-126452880D01*
X142160355Y-126457028D01*
X142160355Y-126457032D01*
X142185487Y-126744293D01*
X142185488Y-126744301D01*
X142185852Y-126748459D01*
X142250577Y-127038021D01*
X142252019Y-127041941D01*
X142252021Y-127041947D01*
X142322619Y-127233827D01*
X142353029Y-127316480D01*
X142491410Y-127578942D01*
X142663288Y-127820797D01*
X142865642Y-128037796D01*
X143094918Y-128226125D01*
X143347088Y-128382477D01*
X143617722Y-128504105D01*
X143790390Y-128555580D01*
X143898065Y-128587679D01*
X143898067Y-128587679D01*
X143902064Y-128588871D01*
X143906184Y-128589524D01*
X143906186Y-128589524D01*
X143967885Y-128599296D01*
X144195119Y-128635286D01*
X144240146Y-128637331D01*
X144286497Y-128639436D01*
X144286516Y-128639436D01*
X144287916Y-128639500D01*
X144473264Y-128639500D01*
X144694056Y-128624835D01*
X144984910Y-128566188D01*
X145265453Y-128469590D01*
X145269196Y-128467716D01*
X145269200Y-128467714D01*
X145527012Y-128338611D01*
X145527014Y-128338610D01*
X145530756Y-128336736D01*
X145776158Y-128169961D01*
X145997346Y-127972196D01*
X146190436Y-127746914D01*
X146201290Y-127730200D01*
X146349763Y-127501572D01*
X146349765Y-127501569D01*
X146352035Y-127498073D01*
X146479304Y-127230046D01*
X146539919Y-127041252D01*
X146568726Y-126951530D01*
X146568727Y-126951524D01*
X146570006Y-126947542D01*
X146605091Y-126752548D01*
X146621809Y-126659632D01*
X146621810Y-126659627D01*
X146622548Y-126655523D01*
X146631751Y-126452880D01*
X147495992Y-126452880D01*
X147496355Y-126457028D01*
X147496355Y-126457032D01*
X147521487Y-126744293D01*
X147521488Y-126744301D01*
X147521852Y-126748459D01*
X147586577Y-127038021D01*
X147588019Y-127041941D01*
X147588021Y-127041947D01*
X147658619Y-127233827D01*
X147689029Y-127316480D01*
X147827410Y-127578942D01*
X147999288Y-127820797D01*
X148201642Y-128037796D01*
X148430918Y-128226125D01*
X148683088Y-128382477D01*
X148953722Y-128504105D01*
X149126390Y-128555580D01*
X149234065Y-128587679D01*
X149234067Y-128587679D01*
X149238064Y-128588871D01*
X149242184Y-128589524D01*
X149242186Y-128589524D01*
X149303885Y-128599296D01*
X149531119Y-128635286D01*
X149576146Y-128637331D01*
X149622497Y-128639436D01*
X149622516Y-128639436D01*
X149623916Y-128639500D01*
X149809264Y-128639500D01*
X150030056Y-128624835D01*
X150320910Y-128566188D01*
X150601453Y-128469590D01*
X150605196Y-128467716D01*
X150605200Y-128467714D01*
X150863012Y-128338611D01*
X150863014Y-128338610D01*
X150866756Y-128336736D01*
X151112158Y-128169961D01*
X151333346Y-127972196D01*
X151526436Y-127746914D01*
X151537290Y-127730200D01*
X151685763Y-127501572D01*
X151685765Y-127501569D01*
X151688035Y-127498073D01*
X151815304Y-127230046D01*
X151875919Y-127041252D01*
X151904726Y-126951530D01*
X151904727Y-126951524D01*
X151906006Y-126947542D01*
X151941091Y-126752548D01*
X151957809Y-126659632D01*
X151957810Y-126659627D01*
X151958548Y-126655523D01*
X151967751Y-126452880D01*
X151971819Y-126363290D01*
X151971819Y-126363285D01*
X151972008Y-126359120D01*
X151971645Y-126354968D01*
X151946513Y-126067707D01*
X151946512Y-126067699D01*
X151946148Y-126063541D01*
X151881423Y-125773979D01*
X151810773Y-125581954D01*
X151780418Y-125499452D01*
X151780416Y-125499448D01*
X151778971Y-125495520D01*
X151640590Y-125233058D01*
X151468712Y-124991203D01*
X151266358Y-124774204D01*
X151037082Y-124585875D01*
X150784912Y-124429523D01*
X150514278Y-124307895D01*
X150341610Y-124256420D01*
X150233935Y-124224321D01*
X150233933Y-124224321D01*
X150229936Y-124223129D01*
X150225816Y-124222476D01*
X150225814Y-124222476D01*
X150106894Y-124203641D01*
X149936881Y-124176714D01*
X149891854Y-124174669D01*
X149845503Y-124172564D01*
X149845484Y-124172564D01*
X149844084Y-124172500D01*
X149658736Y-124172500D01*
X149437944Y-124187165D01*
X149147090Y-124245812D01*
X148866547Y-124342410D01*
X148862804Y-124344284D01*
X148862800Y-124344286D01*
X148688179Y-124431730D01*
X148601244Y-124475264D01*
X148355842Y-124642039D01*
X148134654Y-124839804D01*
X147941564Y-125065086D01*
X147939290Y-125068588D01*
X147939289Y-125068589D01*
X147834698Y-125229646D01*
X147779965Y-125313927D01*
X147652696Y-125581954D01*
X147651417Y-125585937D01*
X147651416Y-125585940D01*
X147591044Y-125773979D01*
X147561994Y-125864458D01*
X147561253Y-125868577D01*
X147526174Y-126063541D01*
X147509452Y-126156477D01*
X147509263Y-126160644D01*
X147509262Y-126160651D01*
X147500060Y-126363290D01*
X147495992Y-126452880D01*
X146631751Y-126452880D01*
X146635819Y-126363290D01*
X146635819Y-126363285D01*
X146636008Y-126359120D01*
X146635645Y-126354968D01*
X146610513Y-126067707D01*
X146610512Y-126067699D01*
X146610148Y-126063541D01*
X146545423Y-125773979D01*
X146474773Y-125581954D01*
X146444418Y-125499452D01*
X146444416Y-125499448D01*
X146442971Y-125495520D01*
X146304590Y-125233058D01*
X146132712Y-124991203D01*
X145930358Y-124774204D01*
X145701082Y-124585875D01*
X145448912Y-124429523D01*
X145178278Y-124307895D01*
X145005610Y-124256420D01*
X144897935Y-124224321D01*
X144897933Y-124224321D01*
X144893936Y-124223129D01*
X144889816Y-124222476D01*
X144889814Y-124222476D01*
X144770894Y-124203641D01*
X144600881Y-124176714D01*
X144555854Y-124174669D01*
X144509503Y-124172564D01*
X144509484Y-124172564D01*
X144508084Y-124172500D01*
X144322736Y-124172500D01*
X144101944Y-124187165D01*
X143811090Y-124245812D01*
X143530547Y-124342410D01*
X143526804Y-124344284D01*
X143526800Y-124344286D01*
X143352179Y-124431730D01*
X143265244Y-124475264D01*
X143019842Y-124642039D01*
X142798654Y-124839804D01*
X142605564Y-125065086D01*
X142603290Y-125068588D01*
X142603289Y-125068589D01*
X142498698Y-125229646D01*
X142443965Y-125313927D01*
X142316696Y-125581954D01*
X142315417Y-125585937D01*
X142315416Y-125585940D01*
X142255044Y-125773979D01*
X142225994Y-125864458D01*
X142225253Y-125868577D01*
X142190174Y-126063541D01*
X142173452Y-126156477D01*
X142173263Y-126160644D01*
X142173262Y-126160651D01*
X142164060Y-126363290D01*
X142159992Y-126452880D01*
X141478500Y-126452880D01*
X141478500Y-117628869D01*
X141498502Y-117560748D01*
X141515405Y-117539774D01*
X154268794Y-104786385D01*
X157150881Y-104786385D01*
X157170843Y-104976313D01*
X157229858Y-105157941D01*
X157233161Y-105163663D01*
X157233162Y-105163664D01*
X157285004Y-105253456D01*
X157301885Y-105316456D01*
X157301885Y-105397394D01*
X157300452Y-105416344D01*
X157298261Y-105430743D01*
X157298261Y-105430749D01*
X157297161Y-105437978D01*
X157297754Y-105445270D01*
X157297754Y-105445273D01*
X157301470Y-105490953D01*
X157301885Y-105501168D01*
X157301885Y-105509295D01*
X157305196Y-105537694D01*
X157305623Y-105542014D01*
X157311576Y-105615196D01*
X157313832Y-105622158D01*
X157315028Y-105628146D01*
X157316436Y-105634103D01*
X157317284Y-105641377D01*
X157319782Y-105648259D01*
X157319783Y-105648263D01*
X157342330Y-105710377D01*
X157343740Y-105714481D01*
X157366372Y-105784345D01*
X157370172Y-105790608D01*
X157372710Y-105796150D01*
X157375452Y-105801626D01*
X157377951Y-105808511D01*
X157381966Y-105814635D01*
X157418200Y-105869902D01*
X157420515Y-105873570D01*
X157458612Y-105936351D01*
X157462326Y-105940556D01*
X157462328Y-105940559D01*
X157466052Y-105944775D01*
X157466023Y-105944801D01*
X157468623Y-105947732D01*
X157471427Y-105951086D01*
X157475439Y-105957205D01*
X157480751Y-105962237D01*
X157531971Y-106010758D01*
X157534413Y-106013136D01*
X157977212Y-106455935D01*
X158007950Y-106506093D01*
X158060088Y-106666556D01*
X158155575Y-106831944D01*
X158283362Y-106973866D01*
X158437863Y-107086118D01*
X158443891Y-107088802D01*
X158443893Y-107088803D01*
X158606296Y-107161109D01*
X158612327Y-107163794D01*
X158705727Y-107183647D01*
X158792671Y-107202128D01*
X158792676Y-107202128D01*
X158799128Y-107203500D01*
X158990102Y-107203500D01*
X158996554Y-107202128D01*
X158996559Y-107202128D01*
X159083503Y-107183647D01*
X159176903Y-107163794D01*
X159182934Y-107161109D01*
X159345337Y-107088803D01*
X159345339Y-107088802D01*
X159351367Y-107086118D01*
X159505868Y-106973866D01*
X159633655Y-106831944D01*
X159729142Y-106666556D01*
X159788157Y-106484928D01*
X159808119Y-106295000D01*
X159788157Y-106105072D01*
X159729142Y-105923444D01*
X159633655Y-105758056D01*
X159505868Y-105616134D01*
X159363825Y-105512933D01*
X159356709Y-105507763D01*
X159356708Y-105507762D01*
X159351367Y-105503882D01*
X159345339Y-105501198D01*
X159345337Y-105501197D01*
X159182934Y-105428891D01*
X159182933Y-105428891D01*
X159176903Y-105426206D01*
X159170448Y-105424834D01*
X159170439Y-105424831D01*
X159121027Y-105414328D01*
X159058130Y-105380177D01*
X158938056Y-105260103D01*
X158904030Y-105197791D01*
X158907318Y-105132072D01*
X158955887Y-104982591D01*
X158957927Y-104976313D01*
X158977889Y-104786385D01*
X158957927Y-104596457D01*
X158898912Y-104414829D01*
X158803425Y-104249441D01*
X158675638Y-104107519D01*
X158521137Y-103995267D01*
X158515109Y-103992583D01*
X158515107Y-103992582D01*
X158352704Y-103920276D01*
X158352703Y-103920276D01*
X158346673Y-103917591D01*
X158253272Y-103897738D01*
X158166329Y-103879257D01*
X158166324Y-103879257D01*
X158159872Y-103877885D01*
X157968898Y-103877885D01*
X157962446Y-103879257D01*
X157962441Y-103879257D01*
X157875498Y-103897738D01*
X157782097Y-103917591D01*
X157776067Y-103920276D01*
X157776066Y-103920276D01*
X157613663Y-103992582D01*
X157613661Y-103992583D01*
X157607633Y-103995267D01*
X157453132Y-104107519D01*
X157325345Y-104249441D01*
X157229858Y-104414829D01*
X157170843Y-104596457D01*
X157150881Y-104786385D01*
X154268794Y-104786385D01*
X157666545Y-101388634D01*
X174249000Y-101388634D01*
X174255755Y-101450816D01*
X174306885Y-101587205D01*
X174394239Y-101703761D01*
X174510795Y-101791115D01*
X174647184Y-101842245D01*
X174709366Y-101849000D01*
X176455634Y-101849000D01*
X176517816Y-101842245D01*
X176654205Y-101791115D01*
X176770761Y-101703761D01*
X176858115Y-101587205D01*
X176909245Y-101450816D01*
X176916000Y-101388634D01*
X176916000Y-98892366D01*
X176909245Y-98830184D01*
X176858115Y-98693795D01*
X176770761Y-98577239D01*
X176654205Y-98489885D01*
X176517816Y-98438755D01*
X176455634Y-98432000D01*
X174709366Y-98432000D01*
X174647184Y-98438755D01*
X174510795Y-98489885D01*
X174394239Y-98577239D01*
X174306885Y-98693795D01*
X174255755Y-98830184D01*
X174249000Y-98892366D01*
X174249000Y-101388634D01*
X157666545Y-101388634D01*
X158952353Y-100102826D01*
X158957547Y-100097918D01*
X159013441Y-100048031D01*
X159013443Y-100048029D01*
X159016933Y-100044914D01*
X159090819Y-99956076D01*
X159092216Y-99954425D01*
X159164612Y-99870406D01*
X159164614Y-99870404D01*
X159167668Y-99866859D01*
X159170163Y-99862905D01*
X159170168Y-99862898D01*
X159171588Y-99860647D01*
X159181270Y-99847322D01*
X159182969Y-99845279D01*
X159182978Y-99845266D01*
X159185964Y-99841676D01*
X159188390Y-99837679D01*
X159188393Y-99837674D01*
X159245921Y-99742873D01*
X159247077Y-99741004D01*
X159306228Y-99647255D01*
X159306230Y-99647252D01*
X159308725Y-99643297D01*
X159311682Y-99636577D01*
X159319285Y-99621973D01*
X159320667Y-99619695D01*
X159320671Y-99619687D01*
X159323099Y-99615686D01*
X159367795Y-99509099D01*
X159368663Y-99507079D01*
X159413305Y-99405622D01*
X159413306Y-99405621D01*
X159415189Y-99401340D01*
X159417118Y-99394265D01*
X159422483Y-99378680D01*
X159425323Y-99371909D01*
X159453783Y-99259848D01*
X159454313Y-99257834D01*
X159484719Y-99146306D01*
X159485267Y-99141675D01*
X159485270Y-99141660D01*
X159485583Y-99139013D01*
X159488585Y-99122814D01*
X159489240Y-99120236D01*
X159489241Y-99120233D01*
X159490392Y-99115699D01*
X159501973Y-99000692D01*
X159502209Y-98998532D01*
X159514370Y-98895783D01*
X159515789Y-98883795D01*
X159512559Y-98778067D01*
X159512500Y-98774219D01*
X159512500Y-94558501D01*
X159532502Y-94490380D01*
X159586158Y-94443887D01*
X159638500Y-94432501D01*
X162313241Y-94432501D01*
X162383242Y-94453736D01*
X162536803Y-94556342D01*
X162542106Y-94558620D01*
X162542109Y-94558622D01*
X162631115Y-94596862D01*
X162723987Y-94636763D01*
X162796817Y-94653243D01*
X162917055Y-94680450D01*
X162917060Y-94680451D01*
X162922692Y-94681725D01*
X162928463Y-94681952D01*
X162928465Y-94681952D01*
X162991470Y-94684427D01*
X163126263Y-94689723D01*
X163327883Y-94660490D01*
X163333347Y-94658635D01*
X163333352Y-94658634D01*
X163515327Y-94596862D01*
X163515332Y-94596860D01*
X163520799Y-94595004D01*
X163698551Y-94495458D01*
X163855186Y-94365186D01*
X163985458Y-94208551D01*
X164085004Y-94030799D01*
X164086860Y-94025332D01*
X164086862Y-94025327D01*
X164148634Y-93843352D01*
X164148635Y-93843347D01*
X164150490Y-93837883D01*
X164179723Y-93636263D01*
X164181249Y-93578000D01*
X164162608Y-93375126D01*
X164107307Y-93179047D01*
X164017201Y-92996329D01*
X163895305Y-92833091D01*
X163745703Y-92694800D01*
X163652171Y-92635786D01*
X163578288Y-92589169D01*
X163578283Y-92589167D01*
X163573404Y-92586088D01*
X163384180Y-92510595D01*
X163184366Y-92470849D01*
X163178592Y-92470773D01*
X163178588Y-92470773D01*
X163075452Y-92469424D01*
X162980655Y-92468183D01*
X162974958Y-92469162D01*
X162974957Y-92469162D01*
X162785567Y-92501705D01*
X162779870Y-92502684D01*
X162588734Y-92573198D01*
X162583773Y-92576150D01*
X162583772Y-92576150D01*
X162483533Y-92635786D01*
X162419110Y-92653501D01*
X159638500Y-92653501D01*
X159570379Y-92633499D01*
X159523886Y-92579843D01*
X159512500Y-92527501D01*
X159512500Y-84504134D01*
X177869500Y-84504134D01*
X177876255Y-84566316D01*
X177927385Y-84702705D01*
X178014739Y-84819261D01*
X178131295Y-84906615D01*
X178267684Y-84957745D01*
X178329866Y-84964500D01*
X180826134Y-84964500D01*
X180888316Y-84957745D01*
X181024705Y-84906615D01*
X181141261Y-84819261D01*
X181228615Y-84702705D01*
X181279745Y-84566316D01*
X181286500Y-84504134D01*
X181286500Y-82007866D01*
X181279745Y-81945684D01*
X181228615Y-81809295D01*
X181141261Y-81692739D01*
X181024705Y-81605385D01*
X180888316Y-81554255D01*
X180826134Y-81547500D01*
X178329866Y-81547500D01*
X178267684Y-81554255D01*
X178131295Y-81605385D01*
X178014739Y-81692739D01*
X177927385Y-81809295D01*
X177876255Y-81945684D01*
X177869500Y-82007866D01*
X177869500Y-84504134D01*
X159512500Y-84504134D01*
X159512500Y-71252880D01*
X163495992Y-71252880D01*
X163496355Y-71257028D01*
X163496355Y-71257032D01*
X163521487Y-71544293D01*
X163521488Y-71544301D01*
X163521852Y-71548459D01*
X163586577Y-71838021D01*
X163588019Y-71841941D01*
X163588021Y-71841947D01*
X163658619Y-72033827D01*
X163689029Y-72116480D01*
X163827410Y-72378942D01*
X163999288Y-72620797D01*
X164201642Y-72837796D01*
X164430918Y-73026125D01*
X164683088Y-73182477D01*
X164953722Y-73304105D01*
X165126390Y-73355580D01*
X165234065Y-73387679D01*
X165234067Y-73387679D01*
X165238064Y-73388871D01*
X165242184Y-73389524D01*
X165242186Y-73389524D01*
X165361106Y-73408359D01*
X165531119Y-73435286D01*
X165576146Y-73437331D01*
X165622497Y-73439436D01*
X165622516Y-73439436D01*
X165623916Y-73439500D01*
X165809264Y-73439500D01*
X166030056Y-73424835D01*
X166320910Y-73366188D01*
X166601453Y-73269590D01*
X166605196Y-73267716D01*
X166605200Y-73267714D01*
X166863012Y-73138611D01*
X166863014Y-73138610D01*
X166866756Y-73136736D01*
X167112158Y-72969961D01*
X167333346Y-72772196D01*
X167526436Y-72546914D01*
X167528711Y-72543411D01*
X167685763Y-72301572D01*
X167685765Y-72301569D01*
X167688035Y-72298073D01*
X167815304Y-72030046D01*
X167875696Y-71841947D01*
X167904726Y-71751530D01*
X167904727Y-71751524D01*
X167906006Y-71747542D01*
X167941091Y-71552548D01*
X167957809Y-71459632D01*
X167957810Y-71459627D01*
X167958548Y-71455523D01*
X167967751Y-71252880D01*
X184831992Y-71252880D01*
X184832355Y-71257028D01*
X184832355Y-71257032D01*
X184857487Y-71544293D01*
X184857488Y-71544301D01*
X184857852Y-71548459D01*
X184922577Y-71838021D01*
X184924019Y-71841941D01*
X184924021Y-71841947D01*
X184994619Y-72033827D01*
X185025029Y-72116480D01*
X185163410Y-72378942D01*
X185335288Y-72620797D01*
X185537642Y-72837796D01*
X185766918Y-73026125D01*
X186019088Y-73182477D01*
X186289722Y-73304105D01*
X186462390Y-73355580D01*
X186570065Y-73387679D01*
X186570067Y-73387679D01*
X186574064Y-73388871D01*
X186578184Y-73389524D01*
X186578186Y-73389524D01*
X186697106Y-73408359D01*
X186867119Y-73435286D01*
X186912146Y-73437331D01*
X186958497Y-73439436D01*
X186958516Y-73439436D01*
X186959916Y-73439500D01*
X187145264Y-73439500D01*
X187366056Y-73424835D01*
X187656910Y-73366188D01*
X187937453Y-73269590D01*
X187941196Y-73267716D01*
X187941200Y-73267714D01*
X188199012Y-73138611D01*
X188199014Y-73138610D01*
X188202756Y-73136736D01*
X188448158Y-72969961D01*
X188669346Y-72772196D01*
X188862436Y-72546914D01*
X188864711Y-72543411D01*
X189021763Y-72301572D01*
X189021765Y-72301569D01*
X189024035Y-72298073D01*
X189151304Y-72030046D01*
X189211696Y-71841947D01*
X189240726Y-71751530D01*
X189240727Y-71751524D01*
X189242006Y-71747542D01*
X189277091Y-71552548D01*
X189293809Y-71459632D01*
X189293810Y-71459627D01*
X189294548Y-71455523D01*
X189303751Y-71252880D01*
X189307819Y-71163290D01*
X189307819Y-71163285D01*
X189308008Y-71159120D01*
X189307645Y-71154968D01*
X189282513Y-70867707D01*
X189282512Y-70867699D01*
X189282148Y-70863541D01*
X189217423Y-70573979D01*
X189146773Y-70381954D01*
X189116418Y-70299452D01*
X189116416Y-70299448D01*
X189114971Y-70295520D01*
X188976590Y-70033058D01*
X188804712Y-69791203D01*
X188602358Y-69574204D01*
X188373082Y-69385875D01*
X188120912Y-69229523D01*
X187850278Y-69107895D01*
X187677610Y-69056420D01*
X187569935Y-69024321D01*
X187569933Y-69024321D01*
X187565936Y-69023129D01*
X187561816Y-69022476D01*
X187561814Y-69022476D01*
X187442894Y-69003641D01*
X187272881Y-68976714D01*
X187227854Y-68974669D01*
X187181503Y-68972564D01*
X187181484Y-68972564D01*
X187180084Y-68972500D01*
X186994736Y-68972500D01*
X186773944Y-68987165D01*
X186483090Y-69045812D01*
X186202547Y-69142410D01*
X186198804Y-69144284D01*
X186198800Y-69144286D01*
X186024179Y-69231730D01*
X185937244Y-69275264D01*
X185691842Y-69442039D01*
X185470654Y-69639804D01*
X185277564Y-69865086D01*
X185275290Y-69868588D01*
X185275289Y-69868589D01*
X185170698Y-70029646D01*
X185115965Y-70113927D01*
X184988696Y-70381954D01*
X184987417Y-70385937D01*
X184987416Y-70385940D01*
X184927044Y-70573979D01*
X184897994Y-70664458D01*
X184897253Y-70668577D01*
X184862174Y-70863541D01*
X184845452Y-70956477D01*
X184845263Y-70960644D01*
X184845262Y-70960651D01*
X184836060Y-71163290D01*
X184831992Y-71252880D01*
X167967751Y-71252880D01*
X167971819Y-71163290D01*
X167971819Y-71163285D01*
X167972008Y-71159120D01*
X167971645Y-71154968D01*
X167946513Y-70867707D01*
X167946512Y-70867699D01*
X167946148Y-70863541D01*
X167881423Y-70573979D01*
X167810773Y-70381954D01*
X167780418Y-70299452D01*
X167780416Y-70299448D01*
X167778971Y-70295520D01*
X167640590Y-70033058D01*
X167468712Y-69791203D01*
X167266358Y-69574204D01*
X167037082Y-69385875D01*
X166784912Y-69229523D01*
X166514278Y-69107895D01*
X166341610Y-69056420D01*
X166233935Y-69024321D01*
X166233933Y-69024321D01*
X166229936Y-69023129D01*
X166225816Y-69022476D01*
X166225814Y-69022476D01*
X166106894Y-69003641D01*
X165936881Y-68976714D01*
X165891854Y-68974669D01*
X165845503Y-68972564D01*
X165845484Y-68972564D01*
X165844084Y-68972500D01*
X165658736Y-68972500D01*
X165437944Y-68987165D01*
X165147090Y-69045812D01*
X164866547Y-69142410D01*
X164862804Y-69144284D01*
X164862800Y-69144286D01*
X164688179Y-69231730D01*
X164601244Y-69275264D01*
X164355842Y-69442039D01*
X164134654Y-69639804D01*
X163941564Y-69865086D01*
X163939290Y-69868588D01*
X163939289Y-69868589D01*
X163834698Y-70029646D01*
X163779965Y-70113927D01*
X163652696Y-70381954D01*
X163651417Y-70385937D01*
X163651416Y-70385940D01*
X163591044Y-70573979D01*
X163561994Y-70664458D01*
X163561253Y-70668577D01*
X163526174Y-70863541D01*
X163509452Y-70956477D01*
X163509263Y-70960644D01*
X163509262Y-70960651D01*
X163500060Y-71163290D01*
X163495992Y-71252880D01*
X159512500Y-71252880D01*
X159512500Y-63780500D01*
X159532502Y-63712379D01*
X159586158Y-63665886D01*
X159638500Y-63654500D01*
X160957134Y-63654500D01*
X161019316Y-63647745D01*
X161155705Y-63596615D01*
X161272261Y-63509261D01*
X161359615Y-63392705D01*
X161410745Y-63256316D01*
X161417500Y-63194134D01*
X161417500Y-61380500D01*
X161437502Y-61312379D01*
X161491158Y-61265886D01*
X161543500Y-61254500D01*
X175260500Y-61254500D01*
X175328621Y-61274502D01*
X175375114Y-61328158D01*
X175386500Y-61380500D01*
X175386500Y-63194134D01*
X175393255Y-63256316D01*
X175444385Y-63392705D01*
X175531739Y-63509261D01*
X175648295Y-63596615D01*
X175784684Y-63647745D01*
X175846866Y-63654500D01*
X180642134Y-63654500D01*
X180704316Y-63647745D01*
X180840705Y-63596615D01*
X180957261Y-63509261D01*
X181044615Y-63392705D01*
X181095745Y-63256316D01*
X181102500Y-63194134D01*
X181102500Y-55757866D01*
X181095745Y-55695684D01*
X181044615Y-55559295D01*
X180957261Y-55442739D01*
X180840705Y-55355385D01*
X180704316Y-55304255D01*
X180642134Y-55297500D01*
X175846866Y-55297500D01*
X175784684Y-55304255D01*
X175648295Y-55355385D01*
X175531739Y-55442739D01*
X175444385Y-55559295D01*
X175393255Y-55695684D01*
X175386500Y-55757866D01*
X175386500Y-57571500D01*
X175366498Y-57639621D01*
X175312842Y-57686114D01*
X175260500Y-57697500D01*
X161543500Y-57697500D01*
X161475379Y-57677498D01*
X161428886Y-57623842D01*
X161417500Y-57571500D01*
X161417500Y-55757866D01*
X161410745Y-55695684D01*
X161359615Y-55559295D01*
X161272261Y-55442739D01*
X161155705Y-55355385D01*
X161019316Y-55304255D01*
X160957134Y-55297500D01*
X154510866Y-55297500D01*
X154448684Y-55304255D01*
X154312295Y-55355385D01*
X154195739Y-55442739D01*
X154108385Y-55559295D01*
X154057255Y-55695684D01*
X154050500Y-55757866D01*
X154050500Y-57571500D01*
X154030498Y-57639621D01*
X153976842Y-57686114D01*
X153924500Y-57697500D01*
X140277500Y-57697500D01*
X140209379Y-57677498D01*
X140162886Y-57623842D01*
X140151500Y-57571500D01*
X140151500Y-55757866D01*
X140144745Y-55695684D01*
X140093615Y-55559295D01*
X140006261Y-55442739D01*
X139889705Y-55355385D01*
X139753316Y-55304255D01*
X139691134Y-55297500D01*
X133244866Y-55297500D01*
X133182684Y-55304255D01*
X133046295Y-55355385D01*
X132929739Y-55442739D01*
X132842385Y-55559295D01*
X132791255Y-55695684D01*
X132784500Y-55757866D01*
X132784500Y-57531500D01*
X132764498Y-57599621D01*
X132710842Y-57646114D01*
X132658500Y-57657500D01*
X119068500Y-57657500D01*
X119000379Y-57637498D01*
X118953886Y-57583842D01*
X118942500Y-57531500D01*
X118942500Y-55717866D01*
X118935745Y-55655684D01*
X118884615Y-55519295D01*
X118797261Y-55402739D01*
X118680705Y-55315385D01*
X118544316Y-55264255D01*
X118482134Y-55257500D01*
X114067866Y-55257500D01*
X114005684Y-55264255D01*
X113869295Y-55315385D01*
X113752739Y-55402739D01*
X113665385Y-55519295D01*
X113614255Y-55655684D01*
X113607500Y-55717866D01*
X113607500Y-63154134D01*
X108813830Y-63154134D01*
X108837561Y-62970154D01*
X108838172Y-62965417D01*
X108832065Y-62706311D01*
X108786837Y-62451110D01*
X108703527Y-62205687D01*
X108701326Y-62201451D01*
X108701324Y-62201445D01*
X108620104Y-62045090D01*
X108584053Y-61975689D01*
X108431163Y-61766410D01*
X108305651Y-61640238D01*
X108251752Y-61586055D01*
X108251747Y-61586051D01*
X108248378Y-61582664D01*
X108039901Y-61428681D01*
X108029126Y-61423012D01*
X107814768Y-61310232D01*
X107814761Y-61310229D01*
X107810532Y-61308004D01*
X107806016Y-61306445D01*
X107806010Y-61306442D01*
X107679435Y-61262736D01*
X107565549Y-61223410D01*
X107447807Y-61201907D01*
X107314559Y-61177571D01*
X107314555Y-61177571D01*
X107310588Y-61176846D01*
X107227658Y-61172500D01*
X107066097Y-61172500D01*
X107063718Y-61172681D01*
X107063717Y-61172681D01*
X106878336Y-61186782D01*
X106878331Y-61186783D01*
X106873569Y-61187145D01*
X106868916Y-61188224D01*
X106868913Y-61188224D01*
X106755552Y-61214500D01*
X106621085Y-61245668D01*
X106380358Y-61341708D01*
X106156928Y-61473056D01*
X106153217Y-61476077D01*
X106153213Y-61476080D01*
X106025791Y-61579818D01*
X105955937Y-61636688D01*
X105952728Y-61640233D01*
X105952723Y-61640238D01*
X105835021Y-61770274D01*
X105782010Y-61828840D01*
X105639149Y-62045090D01*
X105637148Y-62049430D01*
X105637146Y-62049434D01*
X105563025Y-62210215D01*
X105530642Y-62280460D01*
X105458985Y-62529535D01*
X105425828Y-62786583D01*
X102108500Y-62786583D01*
X102108500Y-55933250D01*
X102110246Y-55912345D01*
X102112770Y-55897344D01*
X102112770Y-55897341D01*
X102113576Y-55892552D01*
X102113729Y-55880000D01*
X102113039Y-55875184D01*
X102113039Y-55875178D01*
X102111387Y-55863644D01*
X102110234Y-55840284D01*
X102113684Y-55761283D01*
X102125656Y-55487063D01*
X102126614Y-55476114D01*
X102177233Y-55091621D01*
X102179142Y-55080795D01*
X102263080Y-54702178D01*
X102265925Y-54691561D01*
X102382539Y-54321706D01*
X102386298Y-54311377D01*
X102534711Y-53953077D01*
X102539357Y-53943115D01*
X102588114Y-53849455D01*
X102718424Y-53599132D01*
X102723919Y-53589613D01*
X102932292Y-53262532D01*
X102938597Y-53253528D01*
X103174678Y-52945862D01*
X103181743Y-52937442D01*
X103443744Y-52651517D01*
X103451517Y-52643744D01*
X103737442Y-52381743D01*
X103745862Y-52374678D01*
X104053528Y-52138597D01*
X104062532Y-52132292D01*
X104389613Y-51923919D01*
X104399133Y-51918423D01*
X104743124Y-51739353D01*
X104753068Y-51734715D01*
X105111385Y-51586295D01*
X105121698Y-51582542D01*
X105321298Y-51519608D01*
X105491561Y-51465925D01*
X105502178Y-51463080D01*
X105880795Y-51379142D01*
X105891621Y-51377233D01*
X106276114Y-51326614D01*
X106287063Y-51325656D01*
X106636554Y-51310397D01*
X106661429Y-51311777D01*
X106673724Y-51313691D01*
X106682626Y-51312527D01*
X106682628Y-51312527D01*
X106701399Y-51310072D01*
X106705286Y-51309564D01*
X106721621Y-51308500D01*
X126807889Y-51308500D01*
X126877781Y-51329662D01*
G37*
%TD.AperFunction*%
%TD*%
M02*
