%TF.GenerationSoftware,KiCad,Pcbnew,6.0.9*%
%TF.CreationDate,2022-12-12T20:01:49-05:00*%
%TF.ProjectId,piridium-eps,70697269-6469-4756-9d2d-6570732e6b69,rev?*%
%TF.SameCoordinates,Original*%
%TF.FileFunction,Legend,Top*%
%TF.FilePolarity,Positive*%
%FSLAX46Y46*%
G04 Gerber Fmt 4.6, Leading zero omitted, Abs format (unit mm)*
G04 Created by KiCad (PCBNEW 6.0.9) date 2022-12-12 20:01:49*
%MOMM*%
%LPD*%
G01*
G04 APERTURE LIST*
%ADD10C,0.150000*%
%ADD11C,0.120000*%
G04 APERTURE END LIST*
D10*
X185205904Y-79684571D02*
X185348761Y-79732190D01*
X185396380Y-79779809D01*
X185444000Y-79875047D01*
X185444000Y-80017904D01*
X185396380Y-80113142D01*
X185348761Y-80160761D01*
X185253523Y-80208380D01*
X184872571Y-80208380D01*
X184872571Y-79208380D01*
X185205904Y-79208380D01*
X185301142Y-79256000D01*
X185348761Y-79303619D01*
X185396380Y-79398857D01*
X185396380Y-79494095D01*
X185348761Y-79589333D01*
X185301142Y-79636952D01*
X185205904Y-79684571D01*
X184872571Y-79684571D01*
X185824952Y-79922666D02*
X186301142Y-79922666D01*
X185729714Y-80208380D02*
X186063047Y-79208380D01*
X186396380Y-80208380D01*
X186586857Y-79208380D02*
X187158285Y-79208380D01*
X186872571Y-80208380D02*
X186872571Y-79208380D01*
X187348761Y-79208380D02*
X187920190Y-79208380D01*
X187634476Y-80208380D02*
X187634476Y-79208380D01*
X188253523Y-79827428D02*
X189015428Y-79827428D01*
X185205904Y-83240571D02*
X185348761Y-83288190D01*
X185396380Y-83335809D01*
X185444000Y-83431047D01*
X185444000Y-83573904D01*
X185396380Y-83669142D01*
X185348761Y-83716761D01*
X185253523Y-83764380D01*
X184872571Y-83764380D01*
X184872571Y-82764380D01*
X185205904Y-82764380D01*
X185301142Y-82812000D01*
X185348761Y-82859619D01*
X185396380Y-82954857D01*
X185396380Y-83050095D01*
X185348761Y-83145333D01*
X185301142Y-83192952D01*
X185205904Y-83240571D01*
X184872571Y-83240571D01*
X185824952Y-83478666D02*
X186301142Y-83478666D01*
X185729714Y-83764380D02*
X186063047Y-82764380D01*
X186396380Y-83764380D01*
X186586857Y-82764380D02*
X187158285Y-82764380D01*
X186872571Y-83764380D02*
X186872571Y-82764380D01*
X187348761Y-82764380D02*
X187920190Y-82764380D01*
X187634476Y-83764380D02*
X187634476Y-82764380D01*
X188253523Y-83383428D02*
X189015428Y-83383428D01*
X188634476Y-83764380D02*
X188634476Y-83002476D01*
X167060571Y-67453595D02*
X167108190Y-67310738D01*
X167155809Y-67263119D01*
X167251047Y-67215500D01*
X167393904Y-67215500D01*
X167489142Y-67263119D01*
X167536761Y-67310738D01*
X167584380Y-67405976D01*
X167584380Y-67786928D01*
X166584380Y-67786928D01*
X166584380Y-67453595D01*
X166632000Y-67358357D01*
X166679619Y-67310738D01*
X166774857Y-67263119D01*
X166870095Y-67263119D01*
X166965333Y-67310738D01*
X167012952Y-67358357D01*
X167060571Y-67453595D01*
X167060571Y-67786928D01*
X167584380Y-66644071D02*
X167536761Y-66739309D01*
X167489142Y-66786928D01*
X167393904Y-66834547D01*
X167108190Y-66834547D01*
X167012952Y-66786928D01*
X166965333Y-66739309D01*
X166917714Y-66644071D01*
X166917714Y-66501214D01*
X166965333Y-66405976D01*
X167012952Y-66358357D01*
X167108190Y-66310738D01*
X167393904Y-66310738D01*
X167489142Y-66358357D01*
X167536761Y-66405976D01*
X167584380Y-66501214D01*
X167584380Y-66644071D01*
X167584380Y-65453595D02*
X167060571Y-65453595D01*
X166965333Y-65501214D01*
X166917714Y-65596452D01*
X166917714Y-65786928D01*
X166965333Y-65882166D01*
X167536761Y-65453595D02*
X167584380Y-65548833D01*
X167584380Y-65786928D01*
X167536761Y-65882166D01*
X167441523Y-65929785D01*
X167346285Y-65929785D01*
X167251047Y-65882166D01*
X167203428Y-65786928D01*
X167203428Y-65548833D01*
X167155809Y-65453595D01*
X167584380Y-64977404D02*
X166917714Y-64977404D01*
X167108190Y-64977404D02*
X167012952Y-64929785D01*
X166965333Y-64882166D01*
X166917714Y-64786928D01*
X166917714Y-64691690D01*
X167584380Y-63929785D02*
X166584380Y-63929785D01*
X167536761Y-63929785D02*
X167584380Y-64025023D01*
X167584380Y-64215500D01*
X167536761Y-64310738D01*
X167489142Y-64358357D01*
X167393904Y-64405976D01*
X167108190Y-64405976D01*
X167012952Y-64358357D01*
X166965333Y-64310738D01*
X166917714Y-64215500D01*
X166917714Y-64025023D01*
X166965333Y-63929785D01*
X167489142Y-62120261D02*
X167536761Y-62167880D01*
X167584380Y-62310738D01*
X167584380Y-62405976D01*
X167536761Y-62548833D01*
X167441523Y-62644071D01*
X167346285Y-62691690D01*
X167155809Y-62739309D01*
X167012952Y-62739309D01*
X166822476Y-62691690D01*
X166727238Y-62644071D01*
X166632000Y-62548833D01*
X166584380Y-62405976D01*
X166584380Y-62310738D01*
X166632000Y-62167880D01*
X166679619Y-62120261D01*
X167584380Y-61548833D02*
X167536761Y-61644071D01*
X167489142Y-61691690D01*
X167393904Y-61739309D01*
X167108190Y-61739309D01*
X167012952Y-61691690D01*
X166965333Y-61644071D01*
X166917714Y-61548833D01*
X166917714Y-61405976D01*
X166965333Y-61310738D01*
X167012952Y-61263119D01*
X167108190Y-61215500D01*
X167393904Y-61215500D01*
X167489142Y-61263119D01*
X167536761Y-61310738D01*
X167584380Y-61405976D01*
X167584380Y-61548833D01*
X167584380Y-60786928D02*
X166917714Y-60786928D01*
X167012952Y-60786928D02*
X166965333Y-60739309D01*
X166917714Y-60644071D01*
X166917714Y-60501214D01*
X166965333Y-60405976D01*
X167060571Y-60358357D01*
X167584380Y-60358357D01*
X167060571Y-60358357D02*
X166965333Y-60310738D01*
X166917714Y-60215500D01*
X166917714Y-60072642D01*
X166965333Y-59977404D01*
X167060571Y-59929785D01*
X167584380Y-59929785D01*
X167584380Y-59453595D02*
X166917714Y-59453595D01*
X167012952Y-59453595D02*
X166965333Y-59405976D01*
X166917714Y-59310738D01*
X166917714Y-59167880D01*
X166965333Y-59072642D01*
X167060571Y-59025023D01*
X167584380Y-59025023D01*
X167060571Y-59025023D02*
X166965333Y-58977404D01*
X166917714Y-58882166D01*
X166917714Y-58739309D01*
X166965333Y-58644071D01*
X167060571Y-58596452D01*
X167584380Y-58596452D01*
X167536761Y-57739309D02*
X167584380Y-57834547D01*
X167584380Y-58025023D01*
X167536761Y-58120261D01*
X167441523Y-58167880D01*
X167060571Y-58167880D01*
X166965333Y-58120261D01*
X166917714Y-58025023D01*
X166917714Y-57834547D01*
X166965333Y-57739309D01*
X167060571Y-57691690D01*
X167155809Y-57691690D01*
X167251047Y-58167880D01*
X166917714Y-57263119D02*
X167584380Y-57263119D01*
X167012952Y-57263119D02*
X166965333Y-57215500D01*
X166917714Y-57120261D01*
X166917714Y-56977404D01*
X166965333Y-56882166D01*
X167060571Y-56834547D01*
X167584380Y-56834547D01*
X166917714Y-56501214D02*
X166917714Y-56120261D01*
X166584380Y-56358357D02*
X167441523Y-56358357D01*
X167536761Y-56310738D01*
X167584380Y-56215500D01*
X167584380Y-56120261D01*
X167536761Y-55834547D02*
X167584380Y-55739309D01*
X167584380Y-55548833D01*
X167536761Y-55453595D01*
X167441523Y-55405976D01*
X167393904Y-55405976D01*
X167298666Y-55453595D01*
X167251047Y-55548833D01*
X167251047Y-55691690D01*
X167203428Y-55786928D01*
X167108190Y-55834547D01*
X167060571Y-55834547D01*
X166965333Y-55786928D01*
X166917714Y-55691690D01*
X166917714Y-55548833D01*
X166965333Y-55453595D01*
X183500380Y-131490404D02*
X182500380Y-131490404D01*
X182500380Y-131109452D01*
X182548000Y-131014214D01*
X182595619Y-130966595D01*
X182690857Y-130918976D01*
X182833714Y-130918976D01*
X182928952Y-130966595D01*
X182976571Y-131014214D01*
X183024190Y-131109452D01*
X183024190Y-131490404D01*
X183500380Y-130490404D02*
X182833714Y-130490404D01*
X182500380Y-130490404D02*
X182548000Y-130538023D01*
X182595619Y-130490404D01*
X182548000Y-130442785D01*
X182500380Y-130490404D01*
X182595619Y-130490404D01*
X183500380Y-130014214D02*
X182833714Y-130014214D01*
X183024190Y-130014214D02*
X182928952Y-129966595D01*
X182881333Y-129918976D01*
X182833714Y-129823738D01*
X182833714Y-129728500D01*
X183500380Y-129395166D02*
X182833714Y-129395166D01*
X182500380Y-129395166D02*
X182548000Y-129442785D01*
X182595619Y-129395166D01*
X182548000Y-129347547D01*
X182500380Y-129395166D01*
X182595619Y-129395166D01*
X183500380Y-128490404D02*
X182500380Y-128490404D01*
X183452761Y-128490404D02*
X183500380Y-128585642D01*
X183500380Y-128776119D01*
X183452761Y-128871357D01*
X183405142Y-128918976D01*
X183309904Y-128966595D01*
X183024190Y-128966595D01*
X182928952Y-128918976D01*
X182881333Y-128871357D01*
X182833714Y-128776119D01*
X182833714Y-128585642D01*
X182881333Y-128490404D01*
X183500380Y-128014214D02*
X182833714Y-128014214D01*
X182500380Y-128014214D02*
X182548000Y-128061833D01*
X182595619Y-128014214D01*
X182548000Y-127966595D01*
X182500380Y-128014214D01*
X182595619Y-128014214D01*
X182833714Y-127109452D02*
X183500380Y-127109452D01*
X182833714Y-127538023D02*
X183357523Y-127538023D01*
X183452761Y-127490404D01*
X183500380Y-127395166D01*
X183500380Y-127252309D01*
X183452761Y-127157071D01*
X183405142Y-127109452D01*
X183500380Y-126633261D02*
X182833714Y-126633261D01*
X182928952Y-126633261D02*
X182881333Y-126585642D01*
X182833714Y-126490404D01*
X182833714Y-126347547D01*
X182881333Y-126252309D01*
X182976571Y-126204690D01*
X183500380Y-126204690D01*
X182976571Y-126204690D02*
X182881333Y-126157071D01*
X182833714Y-126061833D01*
X182833714Y-125918976D01*
X182881333Y-125823738D01*
X182976571Y-125776119D01*
X183500380Y-125776119D01*
X182976571Y-124204690D02*
X183024190Y-124061833D01*
X183071809Y-124014214D01*
X183167047Y-123966595D01*
X183309904Y-123966595D01*
X183405142Y-124014214D01*
X183452761Y-124061833D01*
X183500380Y-124157071D01*
X183500380Y-124538023D01*
X182500380Y-124538023D01*
X182500380Y-124204690D01*
X182548000Y-124109452D01*
X182595619Y-124061833D01*
X182690857Y-124014214D01*
X182786095Y-124014214D01*
X182881333Y-124061833D01*
X182928952Y-124109452D01*
X182976571Y-124204690D01*
X182976571Y-124538023D01*
X183500380Y-123109452D02*
X182976571Y-123109452D01*
X182881333Y-123157071D01*
X182833714Y-123252309D01*
X182833714Y-123442785D01*
X182881333Y-123538023D01*
X183452761Y-123109452D02*
X183500380Y-123204690D01*
X183500380Y-123442785D01*
X183452761Y-123538023D01*
X183357523Y-123585642D01*
X183262285Y-123585642D01*
X183167047Y-123538023D01*
X183119428Y-123442785D01*
X183119428Y-123204690D01*
X183071809Y-123109452D01*
X182833714Y-122776119D02*
X182833714Y-122395166D01*
X182500380Y-122633261D02*
X183357523Y-122633261D01*
X183452761Y-122585642D01*
X183500380Y-122490404D01*
X183500380Y-122395166D01*
X182833714Y-122204690D02*
X182833714Y-121823738D01*
X182500380Y-122061833D02*
X183357523Y-122061833D01*
X183452761Y-122014214D01*
X183500380Y-121918976D01*
X183500380Y-121823738D01*
X183452761Y-121109452D02*
X183500380Y-121204690D01*
X183500380Y-121395166D01*
X183452761Y-121490404D01*
X183357523Y-121538023D01*
X182976571Y-121538023D01*
X182881333Y-121490404D01*
X182833714Y-121395166D01*
X182833714Y-121204690D01*
X182881333Y-121109452D01*
X182976571Y-121061833D01*
X183071809Y-121061833D01*
X183167047Y-121538023D01*
X183500380Y-120633261D02*
X182833714Y-120633261D01*
X183024190Y-120633261D02*
X182928952Y-120585642D01*
X182881333Y-120538023D01*
X182833714Y-120442785D01*
X182833714Y-120347547D01*
X182833714Y-120109452D02*
X183500380Y-119871357D01*
X182833714Y-119633261D02*
X183500380Y-119871357D01*
X183738476Y-119966595D01*
X183786095Y-120014214D01*
X183833714Y-120109452D01*
X182976571Y-118157071D02*
X183024190Y-118014214D01*
X183071809Y-117966595D01*
X183167047Y-117918976D01*
X183309904Y-117918976D01*
X183405142Y-117966595D01*
X183452761Y-118014214D01*
X183500380Y-118109452D01*
X183500380Y-118490404D01*
X182500380Y-118490404D01*
X182500380Y-118157071D01*
X182548000Y-118061833D01*
X182595619Y-118014214D01*
X182690857Y-117966595D01*
X182786095Y-117966595D01*
X182881333Y-118014214D01*
X182928952Y-118061833D01*
X182976571Y-118157071D01*
X182976571Y-118490404D01*
X183500380Y-117347547D02*
X183452761Y-117442785D01*
X183405142Y-117490404D01*
X183309904Y-117538023D01*
X183024190Y-117538023D01*
X182928952Y-117490404D01*
X182881333Y-117442785D01*
X182833714Y-117347547D01*
X182833714Y-117204690D01*
X182881333Y-117109452D01*
X182928952Y-117061833D01*
X183024190Y-117014214D01*
X183309904Y-117014214D01*
X183405142Y-117061833D01*
X183452761Y-117109452D01*
X183500380Y-117204690D01*
X183500380Y-117347547D01*
X183500380Y-116157071D02*
X182976571Y-116157071D01*
X182881333Y-116204690D01*
X182833714Y-116299928D01*
X182833714Y-116490404D01*
X182881333Y-116585642D01*
X183452761Y-116157071D02*
X183500380Y-116252309D01*
X183500380Y-116490404D01*
X183452761Y-116585642D01*
X183357523Y-116633261D01*
X183262285Y-116633261D01*
X183167047Y-116585642D01*
X183119428Y-116490404D01*
X183119428Y-116252309D01*
X183071809Y-116157071D01*
X183500380Y-115680880D02*
X182833714Y-115680880D01*
X183024190Y-115680880D02*
X182928952Y-115633261D01*
X182881333Y-115585642D01*
X182833714Y-115490404D01*
X182833714Y-115395166D01*
X183500380Y-114633261D02*
X182500380Y-114633261D01*
X183452761Y-114633261D02*
X183500380Y-114728500D01*
X183500380Y-114918976D01*
X183452761Y-115014214D01*
X183405142Y-115061833D01*
X183309904Y-115109452D01*
X183024190Y-115109452D01*
X182928952Y-115061833D01*
X182881333Y-115014214D01*
X182833714Y-114918976D01*
X182833714Y-114728500D01*
X182881333Y-114633261D01*
X184443714Y-131061833D02*
X185253238Y-131061833D01*
X185348476Y-131109452D01*
X185396095Y-131157071D01*
X185443714Y-131252309D01*
X185443714Y-131395166D01*
X185396095Y-131490404D01*
X185062761Y-131061833D02*
X185110380Y-131157071D01*
X185110380Y-131347547D01*
X185062761Y-131442785D01*
X185015142Y-131490404D01*
X184919904Y-131538023D01*
X184634190Y-131538023D01*
X184538952Y-131490404D01*
X184491333Y-131442785D01*
X184443714Y-131347547D01*
X184443714Y-131157071D01*
X184491333Y-131061833D01*
X185110380Y-130585642D02*
X184443714Y-130585642D01*
X184110380Y-130585642D02*
X184158000Y-130633261D01*
X184205619Y-130585642D01*
X184158000Y-130538023D01*
X184110380Y-130585642D01*
X184205619Y-130585642D01*
X184443714Y-130252309D02*
X184443714Y-129871357D01*
X184110380Y-130109452D02*
X184967523Y-130109452D01*
X185062761Y-130061833D01*
X185110380Y-129966595D01*
X185110380Y-129871357D01*
X185110380Y-129538023D02*
X184110380Y-129538023D01*
X185110380Y-129109452D02*
X184586571Y-129109452D01*
X184491333Y-129157071D01*
X184443714Y-129252309D01*
X184443714Y-129395166D01*
X184491333Y-129490404D01*
X184538952Y-129538023D01*
X184443714Y-128204690D02*
X185110380Y-128204690D01*
X184443714Y-128633261D02*
X184967523Y-128633261D01*
X185062761Y-128585642D01*
X185110380Y-128490404D01*
X185110380Y-128347547D01*
X185062761Y-128252309D01*
X185015142Y-128204690D01*
X185110380Y-127728500D02*
X184110380Y-127728500D01*
X184491333Y-127728500D02*
X184443714Y-127633261D01*
X184443714Y-127442785D01*
X184491333Y-127347547D01*
X184538952Y-127299928D01*
X184634190Y-127252309D01*
X184919904Y-127252309D01*
X185015142Y-127299928D01*
X185062761Y-127347547D01*
X185110380Y-127442785D01*
X185110380Y-127633261D01*
X185062761Y-127728500D01*
X185015142Y-126823738D02*
X185062761Y-126776119D01*
X185110380Y-126823738D01*
X185062761Y-126871357D01*
X185015142Y-126823738D01*
X185110380Y-126823738D01*
X185062761Y-125918976D02*
X185110380Y-126014214D01*
X185110380Y-126204690D01*
X185062761Y-126299928D01*
X185015142Y-126347547D01*
X184919904Y-126395166D01*
X184634190Y-126395166D01*
X184538952Y-126347547D01*
X184491333Y-126299928D01*
X184443714Y-126204690D01*
X184443714Y-126014214D01*
X184491333Y-125918976D01*
X185110380Y-125347547D02*
X185062761Y-125442785D01*
X185015142Y-125490404D01*
X184919904Y-125538023D01*
X184634190Y-125538023D01*
X184538952Y-125490404D01*
X184491333Y-125442785D01*
X184443714Y-125347547D01*
X184443714Y-125204690D01*
X184491333Y-125109452D01*
X184538952Y-125061833D01*
X184634190Y-125014214D01*
X184919904Y-125014214D01*
X185015142Y-125061833D01*
X185062761Y-125109452D01*
X185110380Y-125204690D01*
X185110380Y-125347547D01*
X185110380Y-124585642D02*
X184443714Y-124585642D01*
X184538952Y-124585642D02*
X184491333Y-124538023D01*
X184443714Y-124442785D01*
X184443714Y-124299928D01*
X184491333Y-124204690D01*
X184586571Y-124157071D01*
X185110380Y-124157071D01*
X184586571Y-124157071D02*
X184491333Y-124109452D01*
X184443714Y-124014214D01*
X184443714Y-123871357D01*
X184491333Y-123776119D01*
X184586571Y-123728500D01*
X185110380Y-123728500D01*
X184062761Y-122538023D02*
X185348476Y-123395166D01*
X184824666Y-122252309D02*
X184824666Y-121776119D01*
X185110380Y-122347547D02*
X184110380Y-122014214D01*
X185110380Y-121680880D01*
X185110380Y-121204690D02*
X185062761Y-121299928D01*
X184967523Y-121347547D01*
X184110380Y-121347547D01*
X185110380Y-120395166D02*
X184586571Y-120395166D01*
X184491333Y-120442785D01*
X184443714Y-120538023D01*
X184443714Y-120728500D01*
X184491333Y-120823738D01*
X185062761Y-120395166D02*
X185110380Y-120490404D01*
X185110380Y-120728500D01*
X185062761Y-120823738D01*
X184967523Y-120871357D01*
X184872285Y-120871357D01*
X184777047Y-120823738D01*
X184729428Y-120728500D01*
X184729428Y-120490404D01*
X184681809Y-120395166D01*
X184443714Y-119918976D02*
X185110380Y-119918976D01*
X184538952Y-119918976D02*
X184491333Y-119871357D01*
X184443714Y-119776119D01*
X184443714Y-119633261D01*
X184491333Y-119538023D01*
X184586571Y-119490404D01*
X185110380Y-119490404D01*
X184729428Y-119014214D02*
X184729428Y-118252309D01*
X184110380Y-117490404D02*
X184824666Y-117490404D01*
X184967523Y-117538023D01*
X185062761Y-117633261D01*
X185110380Y-117776119D01*
X185110380Y-117871357D01*
X185110380Y-117014214D02*
X184110380Y-117014214D01*
X184586571Y-117014214D02*
X184586571Y-116442785D01*
X185110380Y-116442785D02*
X184110380Y-116442785D01*
X184062761Y-115252309D02*
X185348476Y-116109452D01*
X184443714Y-114918976D02*
X185443714Y-114918976D01*
X184491333Y-114918976D02*
X184443714Y-114823738D01*
X184443714Y-114633261D01*
X184491333Y-114538023D01*
X184538952Y-114490404D01*
X184634190Y-114442785D01*
X184919904Y-114442785D01*
X185015142Y-114490404D01*
X185062761Y-114538023D01*
X185110380Y-114633261D01*
X185110380Y-114823738D01*
X185062761Y-114918976D01*
X185110380Y-114014214D02*
X184443714Y-114014214D01*
X184110380Y-114014214D02*
X184158000Y-114061833D01*
X184205619Y-114014214D01*
X184158000Y-113966595D01*
X184110380Y-114014214D01*
X184205619Y-114014214D01*
X185110380Y-113538023D02*
X184443714Y-113538023D01*
X184634190Y-113538023D02*
X184538952Y-113490404D01*
X184491333Y-113442785D01*
X184443714Y-113347547D01*
X184443714Y-113252309D01*
X185110380Y-112918976D02*
X184443714Y-112918976D01*
X184110380Y-112918976D02*
X184158000Y-112966595D01*
X184205619Y-112918976D01*
X184158000Y-112871357D01*
X184110380Y-112918976D01*
X184205619Y-112918976D01*
X185110380Y-112014214D02*
X184110380Y-112014214D01*
X185062761Y-112014214D02*
X185110380Y-112109452D01*
X185110380Y-112299928D01*
X185062761Y-112395166D01*
X185015142Y-112442785D01*
X184919904Y-112490404D01*
X184634190Y-112490404D01*
X184538952Y-112442785D01*
X184491333Y-112395166D01*
X184443714Y-112299928D01*
X184443714Y-112109452D01*
X184491333Y-112014214D01*
X185110380Y-111538023D02*
X184443714Y-111538023D01*
X184110380Y-111538023D02*
X184158000Y-111585642D01*
X184205619Y-111538023D01*
X184158000Y-111490404D01*
X184110380Y-111538023D01*
X184205619Y-111538023D01*
X184443714Y-110633261D02*
X185110380Y-110633261D01*
X184443714Y-111061833D02*
X184967523Y-111061833D01*
X185062761Y-111014214D01*
X185110380Y-110918976D01*
X185110380Y-110776119D01*
X185062761Y-110680880D01*
X185015142Y-110633261D01*
X185110380Y-110157071D02*
X184443714Y-110157071D01*
X184538952Y-110157071D02*
X184491333Y-110109452D01*
X184443714Y-110014214D01*
X184443714Y-109871357D01*
X184491333Y-109776119D01*
X184586571Y-109728500D01*
X185110380Y-109728500D01*
X184586571Y-109728500D02*
X184491333Y-109680880D01*
X184443714Y-109585642D01*
X184443714Y-109442785D01*
X184491333Y-109347547D01*
X184586571Y-109299928D01*
X185110380Y-109299928D01*
X184729428Y-108823738D02*
X184729428Y-108061833D01*
X185110380Y-107585642D02*
X184110380Y-107585642D01*
X184491333Y-107585642D02*
X184443714Y-107490404D01*
X184443714Y-107299928D01*
X184491333Y-107204690D01*
X184538952Y-107157071D01*
X184634190Y-107109452D01*
X184919904Y-107109452D01*
X185015142Y-107157071D01*
X185062761Y-107204690D01*
X185110380Y-107299928D01*
X185110380Y-107490404D01*
X185062761Y-107585642D01*
X184443714Y-106252309D02*
X185110380Y-106252309D01*
X184443714Y-106680880D02*
X184967523Y-106680880D01*
X185062761Y-106633261D01*
X185110380Y-106538023D01*
X185110380Y-106395166D01*
X185062761Y-106299928D01*
X185015142Y-106252309D01*
X185062761Y-105823738D02*
X185110380Y-105728500D01*
X185110380Y-105538023D01*
X185062761Y-105442785D01*
X184967523Y-105395166D01*
X184919904Y-105395166D01*
X184824666Y-105442785D01*
X184777047Y-105538023D01*
X184777047Y-105680880D01*
X184729428Y-105776119D01*
X184634190Y-105823738D01*
X184586571Y-105823738D01*
X184491333Y-105776119D01*
X184443714Y-105680880D01*
X184443714Y-105538023D01*
X184491333Y-105442785D01*
X186053714Y-131585642D02*
X186720380Y-131347547D01*
X186053714Y-131109452D01*
X186720380Y-130204690D02*
X186720380Y-130776119D01*
X186720380Y-130490404D02*
X185720380Y-130490404D01*
X185863238Y-130585642D01*
X185958476Y-130680880D01*
X186006095Y-130776119D01*
%TO.C,MH1*%
X109156666Y-52532380D02*
X109156666Y-51532380D01*
X109490000Y-52246666D01*
X109823333Y-51532380D01*
X109823333Y-52532380D01*
X110299523Y-52532380D02*
X110299523Y-51532380D01*
X110299523Y-52008571D02*
X110870952Y-52008571D01*
X110870952Y-52532380D02*
X110870952Y-51532380D01*
X111870952Y-52532380D02*
X111299523Y-52532380D01*
X111585238Y-52532380D02*
X111585238Y-51532380D01*
X111490000Y-51675238D01*
X111394761Y-51770476D01*
X111299523Y-51818095D01*
%TO.C,MH2*%
X182816666Y-52532380D02*
X182816666Y-51532380D01*
X183150000Y-52246666D01*
X183483333Y-51532380D01*
X183483333Y-52532380D01*
X183959523Y-52532380D02*
X183959523Y-51532380D01*
X183959523Y-52008571D02*
X184530952Y-52008571D01*
X184530952Y-52532380D02*
X184530952Y-51532380D01*
X184959523Y-51627619D02*
X185007142Y-51580000D01*
X185102380Y-51532380D01*
X185340476Y-51532380D01*
X185435714Y-51580000D01*
X185483333Y-51627619D01*
X185530952Y-51722857D01*
X185530952Y-51818095D01*
X185483333Y-51960952D01*
X184911904Y-52532380D01*
X185530952Y-52532380D01*
%TO.C,MH3*%
X185356666Y-145994380D02*
X185356666Y-144994380D01*
X185690000Y-145708666D01*
X186023333Y-144994380D01*
X186023333Y-145994380D01*
X186499523Y-145994380D02*
X186499523Y-144994380D01*
X186499523Y-145470571D02*
X187070952Y-145470571D01*
X187070952Y-145994380D02*
X187070952Y-144994380D01*
X187451904Y-144994380D02*
X188070952Y-144994380D01*
X187737619Y-145375333D01*
X187880476Y-145375333D01*
X187975714Y-145422952D01*
X188023333Y-145470571D01*
X188070952Y-145565809D01*
X188070952Y-145803904D01*
X188023333Y-145899142D01*
X187975714Y-145946761D01*
X187880476Y-145994380D01*
X187594761Y-145994380D01*
X187499523Y-145946761D01*
X187451904Y-145899142D01*
%TO.C,MH4*%
X105346666Y-145994380D02*
X105346666Y-144994380D01*
X105680000Y-145708666D01*
X106013333Y-144994380D01*
X106013333Y-145994380D01*
X106489523Y-145994380D02*
X106489523Y-144994380D01*
X106489523Y-145470571D02*
X107060952Y-145470571D01*
X107060952Y-145994380D02*
X107060952Y-144994380D01*
X107965714Y-145327714D02*
X107965714Y-145994380D01*
X107727619Y-144946761D02*
X107489523Y-145661047D01*
X108108571Y-145661047D01*
%TO.C,C7*%
X160094142Y-105511666D02*
X160141761Y-105559285D01*
X160189380Y-105702142D01*
X160189380Y-105797380D01*
X160141761Y-105940238D01*
X160046523Y-106035476D01*
X159951285Y-106083095D01*
X159760809Y-106130714D01*
X159617952Y-106130714D01*
X159427476Y-106083095D01*
X159332238Y-106035476D01*
X159237000Y-105940238D01*
X159189380Y-105797380D01*
X159189380Y-105702142D01*
X159237000Y-105559285D01*
X159284619Y-105511666D01*
X159189380Y-105178333D02*
X159189380Y-104511666D01*
X160189380Y-104940238D01*
%TO.C,C6*%
X157456142Y-97891666D02*
X157503761Y-97939285D01*
X157551380Y-98082142D01*
X157551380Y-98177380D01*
X157503761Y-98320238D01*
X157408523Y-98415476D01*
X157313285Y-98463095D01*
X157122809Y-98510714D01*
X156979952Y-98510714D01*
X156789476Y-98463095D01*
X156694238Y-98415476D01*
X156599000Y-98320238D01*
X156551380Y-98177380D01*
X156551380Y-98082142D01*
X156599000Y-97939285D01*
X156646619Y-97891666D01*
X156551380Y-97034523D02*
X156551380Y-97225000D01*
X156599000Y-97320238D01*
X156646619Y-97367857D01*
X156789476Y-97463095D01*
X156979952Y-97510714D01*
X157360904Y-97510714D01*
X157456142Y-97463095D01*
X157503761Y-97415476D01*
X157551380Y-97320238D01*
X157551380Y-97129761D01*
X157503761Y-97034523D01*
X157456142Y-96986904D01*
X157360904Y-96939285D01*
X157122809Y-96939285D01*
X157027571Y-96986904D01*
X156979952Y-97034523D01*
X156932333Y-97129761D01*
X156932333Y-97320238D01*
X156979952Y-97415476D01*
X157027571Y-97463095D01*
X157122809Y-97510714D01*
%TO.C,C1*%
X181683642Y-100561166D02*
X181731261Y-100608785D01*
X181778880Y-100751642D01*
X181778880Y-100846880D01*
X181731261Y-100989738D01*
X181636023Y-101084976D01*
X181540785Y-101132595D01*
X181350309Y-101180214D01*
X181207452Y-101180214D01*
X181016976Y-101132595D01*
X180921738Y-101084976D01*
X180826500Y-100989738D01*
X180778880Y-100846880D01*
X180778880Y-100751642D01*
X180826500Y-100608785D01*
X180874119Y-100561166D01*
X181778880Y-99608785D02*
X181778880Y-100180214D01*
X181778880Y-99894500D02*
X180778880Y-99894500D01*
X180921738Y-99989738D01*
X181016976Y-100084976D01*
X181064595Y-100180214D01*
%TO.C,Q2*%
X170727619Y-112363238D02*
X170680000Y-112458476D01*
X170584761Y-112553714D01*
X170441904Y-112696571D01*
X170394285Y-112791809D01*
X170394285Y-112887047D01*
X170632380Y-112839428D02*
X170584761Y-112934666D01*
X170489523Y-113029904D01*
X170299047Y-113077523D01*
X169965714Y-113077523D01*
X169775238Y-113029904D01*
X169680000Y-112934666D01*
X169632380Y-112839428D01*
X169632380Y-112648952D01*
X169680000Y-112553714D01*
X169775238Y-112458476D01*
X169965714Y-112410857D01*
X170299047Y-112410857D01*
X170489523Y-112458476D01*
X170584761Y-112553714D01*
X170632380Y-112648952D01*
X170632380Y-112839428D01*
X169727619Y-112029904D02*
X169680000Y-111982285D01*
X169632380Y-111887047D01*
X169632380Y-111648952D01*
X169680000Y-111553714D01*
X169727619Y-111506095D01*
X169822857Y-111458476D01*
X169918095Y-111458476D01*
X170060952Y-111506095D01*
X170632380Y-112077523D01*
X170632380Y-111458476D01*
%TO.C,R7*%
X163282333Y-101353380D02*
X162949000Y-100877190D01*
X162710904Y-101353380D02*
X162710904Y-100353380D01*
X163091857Y-100353380D01*
X163187095Y-100401000D01*
X163234714Y-100448619D01*
X163282333Y-100543857D01*
X163282333Y-100686714D01*
X163234714Y-100781952D01*
X163187095Y-100829571D01*
X163091857Y-100877190D01*
X162710904Y-100877190D01*
X163615666Y-100353380D02*
X164282333Y-100353380D01*
X163853761Y-101353380D01*
%TO.C,C2*%
X170097642Y-96751166D02*
X170145261Y-96798785D01*
X170192880Y-96941642D01*
X170192880Y-97036880D01*
X170145261Y-97179738D01*
X170050023Y-97274976D01*
X169954785Y-97322595D01*
X169764309Y-97370214D01*
X169621452Y-97370214D01*
X169430976Y-97322595D01*
X169335738Y-97274976D01*
X169240500Y-97179738D01*
X169192880Y-97036880D01*
X169192880Y-96941642D01*
X169240500Y-96798785D01*
X169288119Y-96751166D01*
X169288119Y-96370214D02*
X169240500Y-96322595D01*
X169192880Y-96227357D01*
X169192880Y-95989261D01*
X169240500Y-95894023D01*
X169288119Y-95846404D01*
X169383357Y-95798785D01*
X169478595Y-95798785D01*
X169621452Y-95846404D01*
X170192880Y-96417833D01*
X170192880Y-95798785D01*
%TO.C,R3*%
X167033833Y-97926880D02*
X166700500Y-97450690D01*
X166462404Y-97926880D02*
X166462404Y-96926880D01*
X166843357Y-96926880D01*
X166938595Y-96974500D01*
X166986214Y-97022119D01*
X167033833Y-97117357D01*
X167033833Y-97260214D01*
X166986214Y-97355452D01*
X166938595Y-97403071D01*
X166843357Y-97450690D01*
X166462404Y-97450690D01*
X167367166Y-96926880D02*
X167986214Y-96926880D01*
X167652880Y-97307833D01*
X167795738Y-97307833D01*
X167890976Y-97355452D01*
X167938595Y-97403071D01*
X167986214Y-97498309D01*
X167986214Y-97736404D01*
X167938595Y-97831642D01*
X167890976Y-97879261D01*
X167795738Y-97926880D01*
X167510023Y-97926880D01*
X167414785Y-97879261D01*
X167367166Y-97831642D01*
%TO.C,R5*%
X163282333Y-97923380D02*
X162949000Y-97447190D01*
X162710904Y-97923380D02*
X162710904Y-96923380D01*
X163091857Y-96923380D01*
X163187095Y-96971000D01*
X163234714Y-97018619D01*
X163282333Y-97113857D01*
X163282333Y-97256714D01*
X163234714Y-97351952D01*
X163187095Y-97399571D01*
X163091857Y-97447190D01*
X162710904Y-97447190D01*
X164187095Y-96923380D02*
X163710904Y-96923380D01*
X163663285Y-97399571D01*
X163710904Y-97351952D01*
X163806142Y-97304333D01*
X164044238Y-97304333D01*
X164139476Y-97351952D01*
X164187095Y-97399571D01*
X164234714Y-97494809D01*
X164234714Y-97732904D01*
X164187095Y-97828142D01*
X164139476Y-97875761D01*
X164044238Y-97923380D01*
X163806142Y-97923380D01*
X163710904Y-97875761D01*
X163663285Y-97828142D01*
%TO.C,R2*%
X174399833Y-94496880D02*
X174066500Y-94020690D01*
X173828404Y-94496880D02*
X173828404Y-93496880D01*
X174209357Y-93496880D01*
X174304595Y-93544500D01*
X174352214Y-93592119D01*
X174399833Y-93687357D01*
X174399833Y-93830214D01*
X174352214Y-93925452D01*
X174304595Y-93973071D01*
X174209357Y-94020690D01*
X173828404Y-94020690D01*
X174780785Y-93592119D02*
X174828404Y-93544500D01*
X174923642Y-93496880D01*
X175161738Y-93496880D01*
X175256976Y-93544500D01*
X175304595Y-93592119D01*
X175352214Y-93687357D01*
X175352214Y-93782595D01*
X175304595Y-93925452D01*
X174733166Y-94496880D01*
X175352214Y-94496880D01*
%TO.C,R4*%
X167033833Y-103640880D02*
X166700500Y-103164690D01*
X166462404Y-103640880D02*
X166462404Y-102640880D01*
X166843357Y-102640880D01*
X166938595Y-102688500D01*
X166986214Y-102736119D01*
X167033833Y-102831357D01*
X167033833Y-102974214D01*
X166986214Y-103069452D01*
X166938595Y-103117071D01*
X166843357Y-103164690D01*
X166462404Y-103164690D01*
X167890976Y-102974214D02*
X167890976Y-103640880D01*
X167652880Y-102593261D02*
X167414785Y-103307547D01*
X168033833Y-103307547D01*
%TO.C,C4*%
X177633333Y-103989142D02*
X177585714Y-104036761D01*
X177442857Y-104084380D01*
X177347619Y-104084380D01*
X177204761Y-104036761D01*
X177109523Y-103941523D01*
X177061904Y-103846285D01*
X177014285Y-103655809D01*
X177014285Y-103512952D01*
X177061904Y-103322476D01*
X177109523Y-103227238D01*
X177204761Y-103132000D01*
X177347619Y-103084380D01*
X177442857Y-103084380D01*
X177585714Y-103132000D01*
X177633333Y-103179619D01*
X178490476Y-103417714D02*
X178490476Y-104084380D01*
X178252380Y-103036761D02*
X178014285Y-103751047D01*
X178633333Y-103751047D01*
%TO.C,BT6*%
X126490571Y-99591714D02*
X126538190Y-99448857D01*
X126585809Y-99401238D01*
X126681047Y-99353619D01*
X126823904Y-99353619D01*
X126919142Y-99401238D01*
X126966761Y-99448857D01*
X127014380Y-99544095D01*
X127014380Y-99925047D01*
X126014380Y-99925047D01*
X126014380Y-99591714D01*
X126062000Y-99496476D01*
X126109619Y-99448857D01*
X126204857Y-99401238D01*
X126300095Y-99401238D01*
X126395333Y-99448857D01*
X126442952Y-99496476D01*
X126490571Y-99591714D01*
X126490571Y-99925047D01*
X126014380Y-99067904D02*
X126014380Y-98496476D01*
X127014380Y-98782190D02*
X126014380Y-98782190D01*
X126014380Y-97734571D02*
X126014380Y-97925047D01*
X126062000Y-98020285D01*
X126109619Y-98067904D01*
X126252476Y-98163142D01*
X126442952Y-98210761D01*
X126823904Y-98210761D01*
X126919142Y-98163142D01*
X126966761Y-98115523D01*
X127014380Y-98020285D01*
X127014380Y-97829809D01*
X126966761Y-97734571D01*
X126919142Y-97686952D01*
X126823904Y-97639333D01*
X126585809Y-97639333D01*
X126490571Y-97686952D01*
X126442952Y-97734571D01*
X126395333Y-97829809D01*
X126395333Y-98020285D01*
X126442952Y-98115523D01*
X126490571Y-98163142D01*
X126585809Y-98210761D01*
%TO.C,Q1*%
X163840619Y-111028238D02*
X163793000Y-111123476D01*
X163697761Y-111218714D01*
X163554904Y-111361571D01*
X163507285Y-111456809D01*
X163507285Y-111552047D01*
X163745380Y-111504428D02*
X163697761Y-111599666D01*
X163602523Y-111694904D01*
X163412047Y-111742523D01*
X163078714Y-111742523D01*
X162888238Y-111694904D01*
X162793000Y-111599666D01*
X162745380Y-111504428D01*
X162745380Y-111313952D01*
X162793000Y-111218714D01*
X162888238Y-111123476D01*
X163078714Y-111075857D01*
X163412047Y-111075857D01*
X163602523Y-111123476D01*
X163697761Y-111218714D01*
X163745380Y-111313952D01*
X163745380Y-111504428D01*
X163745380Y-110123476D02*
X163745380Y-110694904D01*
X163745380Y-110409190D02*
X162745380Y-110409190D01*
X162888238Y-110504428D01*
X162983476Y-110599666D01*
X163031095Y-110694904D01*
%TO.C,J1*%
X174870380Y-81839333D02*
X175584666Y-81839333D01*
X175727523Y-81886952D01*
X175822761Y-81982190D01*
X175870380Y-82125047D01*
X175870380Y-82220285D01*
X175870380Y-80839333D02*
X175870380Y-81410761D01*
X175870380Y-81125047D02*
X174870380Y-81125047D01*
X175013238Y-81220285D01*
X175108476Y-81315523D01*
X175156095Y-81410761D01*
%TO.C,C3*%
X170097642Y-100307166D02*
X170145261Y-100354785D01*
X170192880Y-100497642D01*
X170192880Y-100592880D01*
X170145261Y-100735738D01*
X170050023Y-100830976D01*
X169954785Y-100878595D01*
X169764309Y-100926214D01*
X169621452Y-100926214D01*
X169430976Y-100878595D01*
X169335738Y-100830976D01*
X169240500Y-100735738D01*
X169192880Y-100592880D01*
X169192880Y-100497642D01*
X169240500Y-100354785D01*
X169288119Y-100307166D01*
X169192880Y-99973833D02*
X169192880Y-99354785D01*
X169573833Y-99688119D01*
X169573833Y-99545261D01*
X169621452Y-99450023D01*
X169669071Y-99402404D01*
X169764309Y-99354785D01*
X170002404Y-99354785D01*
X170097642Y-99402404D01*
X170145261Y-99450023D01*
X170192880Y-99545261D01*
X170192880Y-99830976D01*
X170145261Y-99926214D01*
X170097642Y-99973833D01*
%TO.C,R1*%
X181748880Y-96751166D02*
X181272690Y-97084500D01*
X181748880Y-97322595D02*
X180748880Y-97322595D01*
X180748880Y-96941642D01*
X180796500Y-96846404D01*
X180844119Y-96798785D01*
X180939357Y-96751166D01*
X181082214Y-96751166D01*
X181177452Y-96798785D01*
X181225071Y-96846404D01*
X181272690Y-96941642D01*
X181272690Y-97322595D01*
X181748880Y-95798785D02*
X181748880Y-96370214D01*
X181748880Y-96084500D02*
X180748880Y-96084500D01*
X180891738Y-96179738D01*
X180986976Y-96274976D01*
X181034595Y-96370214D01*
%TO.C,C5*%
X165486142Y-105511666D02*
X165533761Y-105559285D01*
X165581380Y-105702142D01*
X165581380Y-105797380D01*
X165533761Y-105940238D01*
X165438523Y-106035476D01*
X165343285Y-106083095D01*
X165152809Y-106130714D01*
X165009952Y-106130714D01*
X164819476Y-106083095D01*
X164724238Y-106035476D01*
X164629000Y-105940238D01*
X164581380Y-105797380D01*
X164581380Y-105702142D01*
X164629000Y-105559285D01*
X164676619Y-105511666D01*
X164581380Y-104606904D02*
X164581380Y-105083095D01*
X165057571Y-105130714D01*
X165009952Y-105083095D01*
X164962333Y-104987857D01*
X164962333Y-104749761D01*
X165009952Y-104654523D01*
X165057571Y-104606904D01*
X165152809Y-104559285D01*
X165390904Y-104559285D01*
X165486142Y-104606904D01*
X165533761Y-104654523D01*
X165581380Y-104749761D01*
X165581380Y-104987857D01*
X165533761Y-105083095D01*
X165486142Y-105130714D01*
%TO.C,BT5*%
X136326571Y-99591714D02*
X136374190Y-99448857D01*
X136421809Y-99401238D01*
X136517047Y-99353619D01*
X136659904Y-99353619D01*
X136755142Y-99401238D01*
X136802761Y-99448857D01*
X136850380Y-99544095D01*
X136850380Y-99925047D01*
X135850380Y-99925047D01*
X135850380Y-99591714D01*
X135898000Y-99496476D01*
X135945619Y-99448857D01*
X136040857Y-99401238D01*
X136136095Y-99401238D01*
X136231333Y-99448857D01*
X136278952Y-99496476D01*
X136326571Y-99591714D01*
X136326571Y-99925047D01*
X135850380Y-99067904D02*
X135850380Y-98496476D01*
X136850380Y-98782190D02*
X135850380Y-98782190D01*
X135850380Y-97686952D02*
X135850380Y-98163142D01*
X136326571Y-98210761D01*
X136278952Y-98163142D01*
X136231333Y-98067904D01*
X136231333Y-97829809D01*
X136278952Y-97734571D01*
X136326571Y-97686952D01*
X136421809Y-97639333D01*
X136659904Y-97639333D01*
X136755142Y-97686952D01*
X136802761Y-97734571D01*
X136850380Y-97829809D01*
X136850380Y-98067904D01*
X136802761Y-98163142D01*
X136755142Y-98210761D01*
%TO.C,R6*%
X162249380Y-94947166D02*
X161773190Y-95280500D01*
X162249380Y-95518595D02*
X161249380Y-95518595D01*
X161249380Y-95137642D01*
X161297000Y-95042404D01*
X161344619Y-94994785D01*
X161439857Y-94947166D01*
X161582714Y-94947166D01*
X161677952Y-94994785D01*
X161725571Y-95042404D01*
X161773190Y-95137642D01*
X161773190Y-95518595D01*
X161249380Y-94090023D02*
X161249380Y-94280500D01*
X161297000Y-94375738D01*
X161344619Y-94423357D01*
X161487476Y-94518595D01*
X161677952Y-94566214D01*
X162058904Y-94566214D01*
X162154142Y-94518595D01*
X162201761Y-94470976D01*
X162249380Y-94375738D01*
X162249380Y-94185261D01*
X162201761Y-94090023D01*
X162154142Y-94042404D01*
X162058904Y-93994785D01*
X161820809Y-93994785D01*
X161725571Y-94042404D01*
X161677952Y-94090023D01*
X161630333Y-94185261D01*
X161630333Y-94375738D01*
X161677952Y-94470976D01*
X161725571Y-94518595D01*
X161820809Y-94566214D01*
%TO.C,R8*%
X173569333Y-106290380D02*
X173236000Y-105814190D01*
X172997904Y-106290380D02*
X172997904Y-105290380D01*
X173378857Y-105290380D01*
X173474095Y-105338000D01*
X173521714Y-105385619D01*
X173569333Y-105480857D01*
X173569333Y-105623714D01*
X173521714Y-105718952D01*
X173474095Y-105766571D01*
X173378857Y-105814190D01*
X172997904Y-105814190D01*
X174140761Y-105718952D02*
X174045523Y-105671333D01*
X173997904Y-105623714D01*
X173950285Y-105528476D01*
X173950285Y-105480857D01*
X173997904Y-105385619D01*
X174045523Y-105338000D01*
X174140761Y-105290380D01*
X174331238Y-105290380D01*
X174426476Y-105338000D01*
X174474095Y-105385619D01*
X174521714Y-105480857D01*
X174521714Y-105528476D01*
X174474095Y-105623714D01*
X174426476Y-105671333D01*
X174331238Y-105718952D01*
X174140761Y-105718952D01*
X174045523Y-105766571D01*
X173997904Y-105814190D01*
X173950285Y-105909428D01*
X173950285Y-106099904D01*
X173997904Y-106195142D01*
X174045523Y-106242761D01*
X174140761Y-106290380D01*
X174331238Y-106290380D01*
X174426476Y-106242761D01*
X174474095Y-106195142D01*
X174521714Y-106099904D01*
X174521714Y-105909428D01*
X174474095Y-105814190D01*
X174426476Y-105766571D01*
X174331238Y-105718952D01*
%TO.C,U2*%
X156945380Y-102296904D02*
X157754904Y-102296904D01*
X157850142Y-102249285D01*
X157897761Y-102201666D01*
X157945380Y-102106428D01*
X157945380Y-101915952D01*
X157897761Y-101820714D01*
X157850142Y-101773095D01*
X157754904Y-101725476D01*
X156945380Y-101725476D01*
X157040619Y-101296904D02*
X156993000Y-101249285D01*
X156945380Y-101154047D01*
X156945380Y-100915952D01*
X156993000Y-100820714D01*
X157040619Y-100773095D01*
X157135857Y-100725476D01*
X157231095Y-100725476D01*
X157373952Y-100773095D01*
X157945380Y-101344523D01*
X157945380Y-100725476D01*
%TO.C,U1*%
X174820595Y-97092880D02*
X174820595Y-97902404D01*
X174868214Y-97997642D01*
X174915833Y-98045261D01*
X175011071Y-98092880D01*
X175201547Y-98092880D01*
X175296785Y-98045261D01*
X175344404Y-97997642D01*
X175392023Y-97902404D01*
X175392023Y-97092880D01*
X176392023Y-98092880D02*
X175820595Y-98092880D01*
X176106309Y-98092880D02*
X176106309Y-97092880D01*
X176011071Y-97235738D01*
X175915833Y-97330976D01*
X175820595Y-97378595D01*
D11*
%TO.C,C7*%
X160682000Y-105606252D02*
X160682000Y-105083748D01*
X162152000Y-105606252D02*
X162152000Y-105083748D01*
%TO.C,C6*%
X159580252Y-96990000D02*
X159057748Y-96990000D01*
X159580252Y-98460000D02*
X159057748Y-98460000D01*
%TO.C,C1*%
X178911500Y-100133248D02*
X178911500Y-100655752D01*
X180381500Y-100133248D02*
X180381500Y-100655752D01*
%TO.C,Q2*%
X164191000Y-110933000D02*
X164191000Y-108983000D01*
X169311000Y-110933000D02*
X169311000Y-107483000D01*
X164191000Y-110933000D02*
X164191000Y-112883000D01*
X169311000Y-110933000D02*
X169311000Y-112883000D01*
%TO.C,R7*%
X163221936Y-103286000D02*
X163676064Y-103286000D01*
X163221936Y-101816000D02*
X163676064Y-101816000D01*
%TO.C,C2*%
X170783500Y-96323248D02*
X170783500Y-96845752D01*
X172253500Y-96323248D02*
X172253500Y-96845752D01*
%TO.C,R3*%
X166973436Y-98389500D02*
X167427564Y-98389500D01*
X166973436Y-99859500D02*
X167427564Y-99859500D01*
%TO.C,R5*%
X163676064Y-99730000D02*
X163221936Y-99730000D01*
X163676064Y-98260000D02*
X163221936Y-98260000D01*
%TO.C,R2*%
X174793564Y-96303500D02*
X174339436Y-96303500D01*
X174793564Y-94833500D02*
X174339436Y-94833500D01*
%TO.C,R4*%
X166973436Y-100675500D02*
X167427564Y-100675500D01*
X166973436Y-102145500D02*
X167427564Y-102145500D01*
%TO.C,C4*%
X174813248Y-102961500D02*
X175335752Y-102961500D01*
X174813248Y-104431500D02*
X175335752Y-104431500D01*
%TO.C,BT6*%
X121062000Y-55056000D02*
X121062000Y-57556000D01*
X121062000Y-142556000D02*
X121062000Y-140056000D01*
X119812000Y-56306000D02*
X122312000Y-56306000D01*
X104622000Y-137446000D02*
X104622000Y-60166000D01*
X111622000Y-137446000D02*
X104622000Y-137446000D01*
X118502000Y-60166000D02*
X118502000Y-55806000D01*
X125502000Y-137446000D02*
X125502000Y-60166000D01*
X125502000Y-60166000D02*
X118502000Y-60166000D01*
X104622000Y-60166000D02*
X111622000Y-60166000D01*
X118502000Y-137446000D02*
X125482000Y-137446000D01*
%TO.C,Q1*%
X157333000Y-110933000D02*
X157333000Y-108983000D01*
X162453000Y-110933000D02*
X162453000Y-107483000D01*
X162453000Y-110933000D02*
X162453000Y-112883000D01*
X157333000Y-110933000D02*
X157333000Y-112883000D01*
%TO.C,J1*%
X183678000Y-85066000D02*
X183678000Y-77946000D01*
X184138000Y-85066000D02*
X184138000Y-77946000D01*
X176418000Y-85066000D02*
X184138000Y-85066000D01*
X178509000Y-78481000D02*
X178637000Y-78610000D01*
X176418000Y-85066000D02*
X176418000Y-77946000D01*
X180759000Y-80731000D02*
X180852000Y-80825000D01*
X182578000Y-85066000D02*
X182578000Y-77946000D01*
X180519000Y-80901000D02*
X180647000Y-81030000D01*
X183738000Y-85306000D02*
X184378000Y-85306000D01*
X178303000Y-78686000D02*
X178397000Y-78780000D01*
X184378000Y-85306000D02*
X184378000Y-84906000D01*
X176418000Y-77946000D02*
X184138000Y-77946000D01*
X181018000Y-84122000D02*
G75*
G03*
X181258099Y-83227326I-1440014J866003D01*
G01*
X181258000Y-83256000D02*
G75*
G03*
X181002721Y-82365736I-1679990J3D01*
G01*
X180469000Y-81831000D02*
G75*
G03*
X178687807Y-81830496I-891000J-1425003D01*
G01*
X178137999Y-82390000D02*
G75*
G03*
X178152642Y-84145894I1439999J-866000D01*
G01*
X178712000Y-84696001D02*
G75*
G03*
X180467894Y-84681358I866000J1439999D01*
G01*
X181258000Y-79756000D02*
G75*
G03*
X181258000Y-79756000I-1680000J0D01*
G01*
%TO.C,C3*%
X170783500Y-99879248D02*
X170783500Y-100401752D01*
X172253500Y-99879248D02*
X172253500Y-100401752D01*
%TO.C,R1*%
X178911500Y-96357436D02*
X178911500Y-96811564D01*
X180381500Y-96357436D02*
X180381500Y-96811564D01*
%TO.C,C5*%
X162714000Y-105083748D02*
X162714000Y-105606252D01*
X164184000Y-105083748D02*
X164184000Y-105606252D01*
%TO.C,BT5*%
X139838000Y-60166000D02*
X139838000Y-55806000D01*
X125958000Y-60166000D02*
X132958000Y-60166000D01*
X132958000Y-137446000D02*
X125958000Y-137446000D01*
X142398000Y-55056000D02*
X142398000Y-57556000D01*
X141148000Y-56306000D02*
X143648000Y-56306000D01*
X125958000Y-137446000D02*
X125958000Y-60166000D01*
X146838000Y-137446000D02*
X146838000Y-60166000D01*
X139838000Y-137446000D02*
X146818000Y-137446000D01*
X142398000Y-142556000D02*
X142398000Y-140056000D01*
X146838000Y-60166000D02*
X139838000Y-60166000D01*
%TO.C,R6*%
X159412000Y-94553436D02*
X159412000Y-95007564D01*
X160882000Y-94553436D02*
X160882000Y-95007564D01*
%TO.C,R8*%
X171558936Y-110168000D02*
X175913064Y-110168000D01*
X171558936Y-106748000D02*
X175913064Y-106748000D01*
%TO.C,U2*%
X161453000Y-101535000D02*
X161453000Y-102335000D01*
X158333000Y-101535000D02*
X158333000Y-103335000D01*
X161453000Y-101535000D02*
X161453000Y-100735000D01*
X158333000Y-101535000D02*
X158333000Y-100735000D01*
%TO.C,U1*%
X176282500Y-98490500D02*
X177232500Y-98490500D01*
X177232500Y-101590500D02*
X177232500Y-101790500D01*
X173932500Y-101790500D02*
X174882500Y-101790500D01*
X176282500Y-101790500D02*
X177232500Y-101790500D01*
X173582500Y-98490500D02*
X174882500Y-98490500D01*
X173932500Y-101790500D02*
X173932500Y-101590500D01*
X177232500Y-98690500D02*
X177232500Y-98490500D01*
%TD*%
G36*
X179101931Y-55392002D02*
G01*
X179122905Y-55408905D01*
X180049095Y-56335095D01*
X180083121Y-56397407D01*
X180086000Y-56424190D01*
X180086000Y-74893810D01*
X180065998Y-74961931D01*
X180049095Y-74982905D01*
X179122905Y-75909095D01*
X179060593Y-75943121D01*
X179033810Y-75946000D01*
X169708190Y-75946000D01*
X169640069Y-75925998D01*
X169619095Y-75909095D01*
X168692905Y-74982905D01*
X168658879Y-74920593D01*
X168656000Y-74893810D01*
X168656000Y-56424190D01*
X168676002Y-56356069D01*
X168692905Y-56335095D01*
X169619095Y-55408905D01*
X169681407Y-55374879D01*
X169708190Y-55372000D01*
X179033810Y-55372000D01*
X179101931Y-55392002D01*
G37*
M02*
