M48
; DRILL file {KiCad 6.0.9} date Wed 14 Dec 2022 10:15:20 PM EST
; FORMAT={-:-/ absolute / inch / decimal}
; #@! TF.CreationDate,2022-12-14T22:15:20-05:00
; #@! TF.GenerationSoftware,Kicad,Pcbnew,6.0.9
; #@! TF.FileFunction,Plated,1,2,PTH
FMAT,2
INCH
; #@! TA.AperFunction,Plated,PTH,ComponentDrill
T1C0.0098
; #@! TA.AperFunction,Plated,PTH,ViaDrill
T2C0.0157
; #@! TA.AperFunction,Plated,PTH,ViaDrill
T3C0.0236
; #@! TA.AperFunction,Plated,PTH,ComponentDrill
T4C0.0472
; #@! TA.AperFunction,Plated,PTH,ComponentDrill
T5C0.1260
%
G90
G05
T1
X6.893Y-3.913
X6.893Y-3.9721
X6.9127Y-3.9425
X6.9324Y-3.913
X6.9324Y-3.9721
T2
X6.223Y-4.1254
X6.2557Y-4.1848
T3
X4.53Y-5.34
X4.53Y-5.44
X4.53Y-5.54
X4.6142Y-2.2416
X4.6142Y-2.3416
X4.6142Y-2.4416
X5.6884Y-5.3516
X5.6884Y-5.44
X5.69Y-5.26
X6.12Y-4.37
X6.12Y-5.4384
X6.21Y-5.44
X6.3Y-5.4384
X6.42Y-3.6842
X6.9971Y-4.27
T4
X7.07Y-3.14
X7.07Y-3.2778
T5
X4.2Y-5.5752
X4.35Y-2.2
X7.25Y-2.2
X7.35Y-5.5752
T0
M30
