%TF.GenerationSoftware,KiCad,Pcbnew,6.0.9*%
%TF.CreationDate,2022-12-14T22:15:18-05:00*%
%TF.ProjectId,piridium-eps,70697269-6469-4756-9d2d-6570732e6b69,rev?*%
%TF.SameCoordinates,Original*%
%TF.FileFunction,Paste,Top*%
%TF.FilePolarity,Positive*%
%FSLAX46Y46*%
G04 Gerber Fmt 4.6, Leading zero omitted, Abs format (unit mm)*
G04 Created by KiCad (PCBNEW 6.0.9) date 2022-12-14 22:15:18*
%MOMM*%
%LPD*%
G01*
G04 APERTURE LIST*
G04 Aperture macros list*
%AMRoundRect*
0 Rectangle with rounded corners*
0 $1 Rounding radius*
0 $2 $3 $4 $5 $6 $7 $8 $9 X,Y pos of 4 corners*
0 Add a 4 corners polygon primitive as box body*
4,1,4,$2,$3,$4,$5,$6,$7,$8,$9,$2,$3,0*
0 Add four circle primitives for the rounded corners*
1,1,$1+$1,$2,$3*
1,1,$1+$1,$4,$5*
1,1,$1+$1,$6,$7*
1,1,$1+$1,$8,$9*
0 Add four rect primitives between the rounded corners*
20,1,$1+$1,$2,$3,$4,$5,0*
20,1,$1+$1,$4,$5,$6,$7,0*
20,1,$1+$1,$6,$7,$8,$9,0*
20,1,$1+$1,$8,$9,$2,$3,0*%
G04 Aperture macros list end*
%ADD10RoundRect,0.250000X0.475000X-0.250000X0.475000X0.250000X-0.475000X0.250000X-0.475000X-0.250000X0*%
%ADD11RoundRect,0.250000X0.250000X0.475000X-0.250000X0.475000X-0.250000X-0.475000X0.250000X-0.475000X0*%
%ADD12RoundRect,0.250000X-0.475000X0.250000X-0.475000X-0.250000X0.475000X-0.250000X0.475000X0.250000X0*%
%ADD13RoundRect,0.150000X-0.150000X0.825000X-0.150000X-0.825000X0.150000X-0.825000X0.150000X0.825000X0*%
%ADD14RoundRect,0.250000X-0.262500X-0.450000X0.262500X-0.450000X0.262500X0.450000X-0.262500X0.450000X0*%
%ADD15RoundRect,0.250000X0.262500X0.450000X-0.262500X0.450000X-0.262500X-0.450000X0.262500X-0.450000X0*%
%ADD16RoundRect,0.250000X-0.250000X-0.475000X0.250000X-0.475000X0.250000X0.475000X-0.250000X0.475000X0*%
%ADD17R,4.318000X7.340000*%
%ADD18R,6.350000X7.340000*%
%ADD19RoundRect,0.250000X-0.450000X0.262500X-0.450000X-0.262500X0.450000X-0.262500X0.450000X0.262500X0*%
%ADD20RoundRect,0.250000X-0.362500X-1.425000X0.362500X-1.425000X0.362500X1.425000X-0.362500X1.425000X0*%
%ADD21RoundRect,0.150000X0.150000X-0.512500X0.150000X0.512500X-0.150000X0.512500X-0.150000X-0.512500X0*%
%ADD22O,0.550000X0.300000*%
%ADD23R,0.200000X0.300000*%
%ADD24R,0.650000X1.000000*%
G04 APERTURE END LIST*
D10*
%TO.C,C7*%
X161417000Y-106295000D03*
X161417000Y-104395000D03*
%TD*%
D11*
%TO.C,C6*%
X160269000Y-97725000D03*
X158369000Y-97725000D03*
%TD*%
D12*
%TO.C,C1*%
X179646500Y-99444500D03*
X179646500Y-101344500D03*
%TD*%
D13*
%TO.C,Q2*%
X168656000Y-108458000D03*
X167386000Y-108458000D03*
X166116000Y-108458000D03*
X164846000Y-108458000D03*
X164846000Y-113408000D03*
X166116000Y-113408000D03*
X167386000Y-113408000D03*
X168656000Y-113408000D03*
%TD*%
D14*
%TO.C,R7*%
X162536500Y-102551000D03*
X164361500Y-102551000D03*
%TD*%
D12*
%TO.C,C2*%
X171518500Y-95634500D03*
X171518500Y-97534500D03*
%TD*%
D14*
%TO.C,R3*%
X166288000Y-99124500D03*
X168113000Y-99124500D03*
%TD*%
D15*
%TO.C,R5*%
X164361500Y-98995000D03*
X162536500Y-98995000D03*
%TD*%
%TO.C,R2*%
X175479000Y-95568500D03*
X173654000Y-95568500D03*
%TD*%
D14*
%TO.C,R4*%
X166288000Y-101410500D03*
X168113000Y-101410500D03*
%TD*%
D16*
%TO.C,C4*%
X174124500Y-103696500D03*
X176024500Y-103696500D03*
%TD*%
D17*
%TO.C,BT6*%
X116078000Y-59436000D03*
D18*
X115062000Y-138136000D03*
%TD*%
D13*
%TO.C,Q1*%
X161798000Y-108458000D03*
X160528000Y-108458000D03*
X159258000Y-108458000D03*
X157988000Y-108458000D03*
X157988000Y-113408000D03*
X159258000Y-113408000D03*
X160528000Y-113408000D03*
X161798000Y-113408000D03*
%TD*%
D12*
%TO.C,C3*%
X171518500Y-99190500D03*
X171518500Y-101090500D03*
%TD*%
D19*
%TO.C,R1*%
X179646500Y-95672000D03*
X179646500Y-97497000D03*
%TD*%
D12*
%TO.C,C5*%
X163449000Y-104395000D03*
X163449000Y-106295000D03*
%TD*%
D18*
%TO.C,BT5*%
X136398000Y-59476000D03*
X136398000Y-138136000D03*
%TD*%
D19*
%TO.C,R6*%
X160147000Y-93868000D03*
X160147000Y-95693000D03*
%TD*%
D20*
%TO.C,R8*%
X170773500Y-108458000D03*
X176698500Y-108458000D03*
%TD*%
D21*
%TO.C,U2*%
X158943000Y-102672500D03*
X159893000Y-102672500D03*
X160843000Y-102672500D03*
X160843000Y-100397500D03*
X159893000Y-100397500D03*
X158943000Y-100397500D03*
%TD*%
D22*
%TO.C,U1*%
X174032500Y-99165500D03*
D23*
X173832500Y-99165500D03*
D22*
X174032500Y-99815500D03*
D23*
X173832500Y-99815500D03*
D22*
X174032500Y-100465500D03*
D23*
X173832500Y-100465500D03*
X173832500Y-101115500D03*
D22*
X174032500Y-101115500D03*
X177132500Y-101115500D03*
D23*
X177332500Y-101115500D03*
D22*
X177132500Y-100465500D03*
D23*
X177332500Y-100465500D03*
X177332500Y-99815500D03*
D22*
X177132500Y-99815500D03*
X177132500Y-99165500D03*
D23*
X177332500Y-99165500D03*
D24*
X176032500Y-99515500D03*
X176032500Y-100765500D03*
X175132500Y-99515500D03*
X175132500Y-100765500D03*
%TD*%
M02*
