%TF.GenerationSoftware,KiCad,Pcbnew,6.0.9*%
%TF.CreationDate,2022-12-12T20:01:49-05:00*%
%TF.ProjectId,piridium-eps,70697269-6469-4756-9d2d-6570732e6b69,rev?*%
%TF.SameCoordinates,Original*%
%TF.FileFunction,Copper,L1,Top*%
%TF.FilePolarity,Positive*%
%FSLAX46Y46*%
G04 Gerber Fmt 4.6, Leading zero omitted, Abs format (unit mm)*
G04 Created by KiCad (PCBNEW 6.0.9) date 2022-12-12 20:01:49*
%MOMM*%
%LPD*%
G01*
G04 APERTURE LIST*
G04 Aperture macros list*
%AMRoundRect*
0 Rectangle with rounded corners*
0 $1 Rounding radius*
0 $2 $3 $4 $5 $6 $7 $8 $9 X,Y pos of 4 corners*
0 Add a 4 corners polygon primitive as box body*
4,1,4,$2,$3,$4,$5,$6,$7,$8,$9,$2,$3,0*
0 Add four circle primitives for the rounded corners*
1,1,$1+$1,$2,$3*
1,1,$1+$1,$4,$5*
1,1,$1+$1,$6,$7*
1,1,$1+$1,$8,$9*
0 Add four rect primitives between the rounded corners*
20,1,$1+$1,$2,$3,$4,$5,0*
20,1,$1+$1,$4,$5,$6,$7,0*
20,1,$1+$1,$6,$7,$8,$9,0*
20,1,$1+$1,$8,$9,$2,$3,0*%
G04 Aperture macros list end*
%TA.AperFunction,ComponentPad*%
%ADD10C,5.600000*%
%TD*%
%TA.AperFunction,SMDPad,CuDef*%
%ADD11RoundRect,0.250000X0.475000X-0.250000X0.475000X0.250000X-0.475000X0.250000X-0.475000X-0.250000X0*%
%TD*%
%TA.AperFunction,SMDPad,CuDef*%
%ADD12RoundRect,0.250000X0.250000X0.475000X-0.250000X0.475000X-0.250000X-0.475000X0.250000X-0.475000X0*%
%TD*%
%TA.AperFunction,SMDPad,CuDef*%
%ADD13RoundRect,0.250000X-0.475000X0.250000X-0.475000X-0.250000X0.475000X-0.250000X0.475000X0.250000X0*%
%TD*%
%TA.AperFunction,SMDPad,CuDef*%
%ADD14RoundRect,0.150000X-0.150000X0.825000X-0.150000X-0.825000X0.150000X-0.825000X0.150000X0.825000X0*%
%TD*%
%TA.AperFunction,SMDPad,CuDef*%
%ADD15RoundRect,0.250000X-0.262500X-0.450000X0.262500X-0.450000X0.262500X0.450000X-0.262500X0.450000X0*%
%TD*%
%TA.AperFunction,SMDPad,CuDef*%
%ADD16RoundRect,0.250000X0.262500X0.450000X-0.262500X0.450000X-0.262500X-0.450000X0.262500X-0.450000X0*%
%TD*%
%TA.AperFunction,SMDPad,CuDef*%
%ADD17RoundRect,0.250000X-0.250000X-0.475000X0.250000X-0.475000X0.250000X0.475000X-0.250000X0.475000X0*%
%TD*%
%TA.AperFunction,SMDPad,CuDef*%
%ADD18R,4.318000X7.340000*%
%TD*%
%TA.AperFunction,SMDPad,CuDef*%
%ADD19R,6.350000X7.340000*%
%TD*%
%TA.AperFunction,ComponentPad*%
%ADD20R,2.400000X2.400000*%
%TD*%
%TA.AperFunction,ComponentPad*%
%ADD21C,2.400000*%
%TD*%
%TA.AperFunction,SMDPad,CuDef*%
%ADD22RoundRect,0.250000X-0.450000X0.262500X-0.450000X-0.262500X0.450000X-0.262500X0.450000X0.262500X0*%
%TD*%
%TA.AperFunction,SMDPad,CuDef*%
%ADD23RoundRect,0.250000X-0.362500X-1.425000X0.362500X-1.425000X0.362500X1.425000X-0.362500X1.425000X0*%
%TD*%
%TA.AperFunction,SMDPad,CuDef*%
%ADD24RoundRect,0.150000X0.150000X-0.512500X0.150000X0.512500X-0.150000X0.512500X-0.150000X-0.512500X0*%
%TD*%
%TA.AperFunction,SMDPad,CuDef*%
%ADD25O,0.650000X0.400000*%
%TD*%
%TA.AperFunction,SMDPad,CuDef*%
%ADD26R,0.300000X0.400000*%
%TD*%
%TA.AperFunction,SMDPad,CuDef*%
%ADD27R,0.650000X1.000000*%
%TD*%
%TA.AperFunction,ComponentPad*%
%ADD28C,0.600000*%
%TD*%
%TA.AperFunction,SMDPad,CuDef*%
%ADD29R,1.650000X2.400000*%
%TD*%
%TA.AperFunction,ViaPad*%
%ADD30C,1.200000*%
%TD*%
%TA.AperFunction,ViaPad*%
%ADD31C,0.800000*%
%TD*%
%TA.AperFunction,Conductor*%
%ADD32C,0.508000*%
%TD*%
%TA.AperFunction,Conductor*%
%ADD33C,2.540000*%
%TD*%
%TA.AperFunction,Conductor*%
%ADD34C,0.762000*%
%TD*%
%TA.AperFunction,Conductor*%
%ADD35C,1.270000*%
%TD*%
%TA.AperFunction,Conductor*%
%ADD36C,0.381000*%
%TD*%
G04 APERTURE END LIST*
D10*
%TO.P,MH1,1,1*%
%TO.N,GND*%
X110490000Y-55880000D03*
%TD*%
%TO.P,MH2,1,1*%
%TO.N,GND*%
X184150000Y-55880000D03*
%TD*%
%TO.P,MH3,1,1*%
%TO.N,GND*%
X186690000Y-141610000D03*
%TD*%
%TO.P,MH4,1,1*%
%TO.N,GND*%
X106680000Y-141610000D03*
%TD*%
D11*
%TO.P,C7,1*%
%TO.N,-BATT*%
X161417000Y-106295000D03*
%TO.P,C7,2*%
%TO.N,Net-(C7-Pad2)*%
X161417000Y-104395000D03*
%TD*%
D12*
%TO.P,C6,1*%
%TO.N,Net-(C6-Pad1)*%
X160269000Y-97725000D03*
%TO.P,C6,2*%
%TO.N,-BATT*%
X158369000Y-97725000D03*
%TD*%
D13*
%TO.P,C1,1*%
%TO.N,Net-(C1-Pad1)*%
X179646500Y-99444500D03*
%TO.P,C1,2*%
%TO.N,-BATT*%
X179646500Y-101344500D03*
%TD*%
D14*
%TO.P,Q2,1,S*%
%TO.N,Net-(Q2-Pad1)*%
X168656000Y-108458000D03*
%TO.P,Q2,2,S*%
X167386000Y-108458000D03*
%TO.P,Q2,3,S*%
X166116000Y-108458000D03*
%TO.P,Q2,4,G*%
%TO.N,Net-(Q2-Pad4)*%
X164846000Y-108458000D03*
%TO.P,Q2,5,D*%
%TO.N,Net-(Q1-Pad5)*%
X164846000Y-113408000D03*
%TO.P,Q2,6,D*%
X166116000Y-113408000D03*
%TO.P,Q2,7,D*%
X167386000Y-113408000D03*
%TO.P,Q2,8,D*%
X168656000Y-113408000D03*
%TD*%
D15*
%TO.P,R7,1*%
%TO.N,Net-(C7-Pad2)*%
X162536500Y-102551000D03*
%TO.P,R7,2*%
%TO.N,GND*%
X164361500Y-102551000D03*
%TD*%
D13*
%TO.P,C2,1*%
%TO.N,Net-(C2-Pad1)*%
X171518500Y-95634500D03*
%TO.P,C2,2*%
%TO.N,Net-(C2-Pad2)*%
X171518500Y-97534500D03*
%TD*%
D15*
%TO.P,R3,1*%
%TO.N,Net-(BT1-Pad2)*%
X166288000Y-99124500D03*
%TO.P,R3,2*%
%TO.N,Net-(C2-Pad2)*%
X168113000Y-99124500D03*
%TD*%
D16*
%TO.P,R5,1*%
%TO.N,Net-(BT1-Pad2)*%
X164361500Y-98995000D03*
%TO.P,R5,2*%
%TO.N,Net-(C5-Pad1)*%
X162536500Y-98995000D03*
%TD*%
%TO.P,R2,1*%
%TO.N,+BATT*%
X175479000Y-95568500D03*
%TO.P,R2,2*%
%TO.N,Net-(C2-Pad1)*%
X173654000Y-95568500D03*
%TD*%
D15*
%TO.P,R4,1*%
%TO.N,Net-(BT1-Pad2)*%
X166288000Y-101410500D03*
%TO.P,R4,2*%
%TO.N,Net-(C3-Pad2)*%
X168113000Y-101410500D03*
%TD*%
D17*
%TO.P,C4,1*%
%TO.N,Net-(C4-Pad1)*%
X174124500Y-103696500D03*
%TO.P,C4,2*%
%TO.N,-BATT*%
X176024500Y-103696500D03*
%TD*%
D18*
%TO.P,BT6,1,+*%
%TO.N,Net-(BT1-Pad2)*%
X116078000Y-59436000D03*
D19*
%TO.P,BT6,2,-*%
%TO.N,-BATT*%
X115062000Y-138136000D03*
%TD*%
D14*
%TO.P,Q1,1,S*%
%TO.N,-BATT*%
X161798000Y-108458000D03*
%TO.P,Q1,2,S*%
X160528000Y-108458000D03*
%TO.P,Q1,3,S*%
X159258000Y-108458000D03*
%TO.P,Q1,4,G*%
%TO.N,Net-(Q1-Pad4)*%
X157988000Y-108458000D03*
%TO.P,Q1,5,D*%
%TO.N,Net-(Q1-Pad5)*%
X157988000Y-113408000D03*
%TO.P,Q1,6,D*%
X159258000Y-113408000D03*
%TO.P,Q1,7,D*%
X160528000Y-113408000D03*
%TO.P,Q1,8,D*%
X161798000Y-113408000D03*
%TD*%
D20*
%TO.P,J1,1,Pin_1*%
%TO.N,+BATT*%
X179578000Y-83256000D03*
D21*
%TO.P,J1,2,Pin_2*%
%TO.N,GND*%
X179578000Y-79756000D03*
%TD*%
D13*
%TO.P,C3,1*%
%TO.N,Net-(C2-Pad2)*%
X171518500Y-99190500D03*
%TO.P,C3,2*%
%TO.N,Net-(C3-Pad2)*%
X171518500Y-101090500D03*
%TD*%
D22*
%TO.P,R1,1*%
%TO.N,+BATT*%
X179646500Y-95672000D03*
%TO.P,R1,2*%
%TO.N,Net-(C1-Pad1)*%
X179646500Y-97497000D03*
%TD*%
D13*
%TO.P,C5,1*%
%TO.N,Net-(C5-Pad1)*%
X163449000Y-104395000D03*
%TO.P,C5,2*%
%TO.N,-BATT*%
X163449000Y-106295000D03*
%TD*%
D19*
%TO.P,BT5,1,+*%
%TO.N,+BATT*%
X136398000Y-59476000D03*
%TO.P,BT5,2,-*%
%TO.N,Net-(BT1-Pad2)*%
X136398000Y-138136000D03*
%TD*%
D22*
%TO.P,R6,1*%
%TO.N,+BATT*%
X160147000Y-93868000D03*
%TO.P,R6,2*%
%TO.N,Net-(C6-Pad1)*%
X160147000Y-95693000D03*
%TD*%
D23*
%TO.P,R8,1*%
%TO.N,Net-(Q2-Pad1)*%
X170773500Y-108458000D03*
%TO.P,R8,2*%
%TO.N,GND*%
X176698500Y-108458000D03*
%TD*%
D24*
%TO.P,U2,1,Dout*%
%TO.N,Net-(Q1-Pad4)*%
X158943000Y-102672500D03*
%TO.P,U2,2,Cout*%
%TO.N,Net-(Q2-Pad4)*%
X159893000Y-102672500D03*
%TO.P,U2,3,V-*%
%TO.N,Net-(C7-Pad2)*%
X160843000Y-102672500D03*
%TO.P,U2,4,Vc*%
%TO.N,Net-(C5-Pad1)*%
X160843000Y-100397500D03*
%TO.P,U2,5,Vdd*%
%TO.N,Net-(C6-Pad1)*%
X159893000Y-100397500D03*
%TO.P,U2,6,Vss*%
%TO.N,-BATT*%
X158943000Y-100397500D03*
%TD*%
D25*
%TO.P,U1,1*%
%TO.N,N/C*%
X174032500Y-99165500D03*
D26*
X173832500Y-99165500D03*
D25*
%TO.P,U1,2,VC1*%
%TO.N,Net-(C2-Pad2)*%
X174032500Y-99815500D03*
D26*
X173832500Y-99815500D03*
D25*
%TO.P,U1,3,VC1_CB*%
%TO.N,Net-(C3-Pad2)*%
X174032500Y-100465500D03*
D26*
X173832500Y-100465500D03*
%TO.P,U1,4,CD*%
%TO.N,Net-(C4-Pad1)*%
X173832500Y-101115500D03*
D25*
X174032500Y-101115500D03*
%TO.P,U1,5,GND*%
%TO.N,-BATT*%
X177132500Y-101115500D03*
D26*
X177332500Y-101115500D03*
D25*
%TO.P,U1,6,~{CB_EN*%
X177132500Y-100465500D03*
D26*
X177332500Y-100465500D03*
%TO.P,U1,7,VDD*%
%TO.N,Net-(C1-Pad1)*%
X177332500Y-99815500D03*
D25*
X177132500Y-99815500D03*
%TO.P,U1,8,OUT*%
%TO.N,unconnected-(U1-Pad8)*%
X177132500Y-99165500D03*
D26*
X177332500Y-99165500D03*
D27*
%TO.P,U1,9,PGND*%
%TO.N,-BATT*%
X176032500Y-99515500D03*
D28*
X176082500Y-99390500D03*
X175082500Y-99390500D03*
D29*
X175582500Y-100140500D03*
D28*
X175082500Y-100890500D03*
D27*
X176032500Y-100765500D03*
D28*
X175582500Y-100140500D03*
D27*
X175132500Y-99515500D03*
X175132500Y-100765500D03*
D28*
X176082500Y-100890500D03*
%TD*%
D30*
%TO.N,GND*%
X177727000Y-108458000D03*
%TO.N,+BATT*%
X155448000Y-138136000D03*
X160020000Y-138136000D03*
X157734000Y-138176000D03*
%TO.N,Net-(BT1-Pad2)*%
X144486000Y-138176000D03*
X144486000Y-135930000D03*
X117201000Y-62016000D03*
X144526000Y-133604000D03*
X117201000Y-59476000D03*
X163068000Y-93578000D03*
X117201000Y-56936000D03*
%TO.N,-BATT*%
X155448000Y-110998000D03*
D31*
X158064385Y-104786385D03*
X158894615Y-106295000D03*
D30*
X115062000Y-140716000D03*
X115062000Y-138176000D03*
X115062000Y-135636000D03*
%TD*%
D32*
%TO.N,GND*%
X176698500Y-108458000D02*
X173650500Y-105410000D01*
D33*
X176698500Y-108458000D02*
X177727000Y-108458000D01*
D32*
X173650500Y-105410000D02*
X167220500Y-105410000D01*
X167220500Y-105410000D02*
X164361500Y-102551000D01*
%TO.N,+BATT*%
X179578000Y-83256000D02*
X179646500Y-83324500D01*
D33*
X160020000Y-138136000D02*
X155448000Y-138136000D01*
X171394000Y-83256000D02*
X147614000Y-59476000D01*
D32*
X161490500Y-92524500D02*
X179646500Y-92524500D01*
D33*
X147614000Y-59476000D02*
X136398000Y-59476000D01*
D32*
X179646500Y-95672000D02*
X175582500Y-95672000D01*
D33*
X179578000Y-83256000D02*
X171394000Y-83256000D01*
D32*
X179646500Y-83324500D02*
X179646500Y-92524500D01*
X160147000Y-93868000D02*
X161490500Y-92524500D01*
D33*
X155448000Y-122174000D02*
X145034000Y-111760000D01*
D32*
X179646500Y-95672000D02*
X179646500Y-92524500D01*
D33*
X145034000Y-82296000D02*
X157734000Y-69596000D01*
D32*
X175582500Y-95672000D02*
X175479000Y-95568500D01*
D33*
X145034000Y-111760000D02*
X145034000Y-82296000D01*
X155448000Y-138136000D02*
X155448000Y-122174000D01*
D32*
%TO.N,Net-(BT1-Pad2)*%
X166158500Y-98995000D02*
X166288000Y-99124500D01*
D33*
X144486000Y-138176000D02*
X144486000Y-133644000D01*
D32*
X166288000Y-101410500D02*
X166288000Y-99124500D01*
D34*
X165289000Y-95799000D02*
X165289000Y-98995000D01*
D33*
X144486000Y-133644000D02*
X144526000Y-133604000D01*
X144486000Y-135930000D02*
X144486000Y-138136000D01*
D32*
X165289000Y-98995000D02*
X166158500Y-98995000D01*
D33*
X144486000Y-138136000D02*
X136398000Y-138136000D01*
D32*
X164361500Y-98995000D02*
X165289000Y-98995000D01*
D34*
X163068000Y-93578000D02*
X165289000Y-95799000D01*
%TO.N,-BATT*%
X179832000Y-104648000D02*
X175582500Y-100398500D01*
D32*
X161798000Y-106676000D02*
X161417000Y-106295000D01*
D34*
X159258000Y-110998000D02*
X178562000Y-110998000D01*
D32*
X177361500Y-101344500D02*
X177132500Y-101115500D01*
D35*
X159258000Y-108458000D02*
X161798000Y-108458000D01*
D32*
X158894615Y-106295000D02*
X161417000Y-106295000D01*
D35*
X155448000Y-110998000D02*
X159258000Y-110998000D01*
X159258000Y-110998000D02*
X159258000Y-108458000D01*
D32*
X177132500Y-101115500D02*
X177132500Y-100469500D01*
X158369000Y-97725000D02*
X158369000Y-99823500D01*
X177132500Y-101115500D02*
X176307500Y-101115500D01*
X176024500Y-100948500D02*
X176082500Y-100890500D01*
X158064385Y-101276115D02*
X158943000Y-100397500D01*
X161798000Y-108458000D02*
X161798000Y-106676000D01*
D34*
X178562000Y-110998000D02*
X179832000Y-109728000D01*
D32*
X179646500Y-101344500D02*
X177361500Y-101344500D01*
X158064385Y-104786385D02*
X158064385Y-101276115D01*
X161417000Y-106295000D02*
X163449000Y-106295000D01*
X158369000Y-99823500D02*
X158943000Y-100397500D01*
D34*
X175582500Y-100398500D02*
X175582500Y-100140500D01*
D33*
X115062000Y-138136000D02*
X115102000Y-138176000D01*
D32*
X176024500Y-103696500D02*
X176024500Y-100948500D01*
D34*
X179832000Y-109728000D02*
X179832000Y-104648000D01*
D32*
X176307500Y-101115500D02*
X176082500Y-100890500D01*
D36*
%TO.N,Net-(C1-Pad1)*%
X177332500Y-99815500D02*
X179275500Y-99815500D01*
D32*
X179646500Y-97497000D02*
X179646500Y-99444500D01*
D36*
X179275500Y-99815500D02*
X179646500Y-99444500D01*
%TO.N,Net-(C2-Pad1)*%
X171518500Y-95634500D02*
X173588000Y-95634500D01*
X173588000Y-95634500D02*
X173654000Y-95568500D01*
%TO.N,Net-(C2-Pad2)*%
X171518500Y-97534500D02*
X171518500Y-99190500D01*
X172143500Y-99815500D02*
X171518500Y-99190500D01*
X168179000Y-99190500D02*
X168113000Y-99124500D01*
X173832500Y-99815500D02*
X172143500Y-99815500D01*
X171518500Y-99190500D02*
X168179000Y-99190500D01*
%TO.N,Net-(C3-Pad2)*%
X173832500Y-100465500D02*
X172143500Y-100465500D01*
D32*
X171518500Y-101090500D02*
X168433000Y-101090500D01*
D36*
X172143500Y-100465500D02*
X171518500Y-101090500D01*
D32*
X168433000Y-101090500D02*
X168113000Y-101410500D01*
%TO.N,Net-(C4-Pad1)*%
X174124500Y-103696500D02*
X174124500Y-101480500D01*
X174124500Y-101480500D02*
X174032500Y-101388500D01*
X174032500Y-101388500D02*
X174032500Y-101119500D01*
D36*
%TO.N,Net-(C5-Pad1)*%
X162001304Y-100397500D02*
X160843000Y-100397500D01*
X163449000Y-104395000D02*
X163449000Y-101845196D01*
X163449000Y-101845196D02*
X162001304Y-100397500D01*
X162001304Y-100397500D02*
X162001304Y-99530196D01*
X162001304Y-99530196D02*
X162536500Y-98995000D01*
D32*
%TO.N,Net-(C6-Pad1)*%
X159893000Y-98101000D02*
X160269000Y-97725000D01*
X160269000Y-95815000D02*
X160147000Y-95693000D01*
X160269000Y-97725000D02*
X160269000Y-95815000D01*
X159893000Y-100397500D02*
X159893000Y-98101000D01*
D36*
%TO.N,Net-(C7-Pad2)*%
X162536500Y-102551000D02*
X160964500Y-102551000D01*
X161417000Y-103246500D02*
X160843000Y-102672500D01*
X161417000Y-104395000D02*
X161417000Y-103246500D01*
X160964500Y-102551000D02*
X160843000Y-102672500D01*
D35*
%TO.N,Net-(Q2-Pad1)*%
X166116000Y-108458000D02*
X168656000Y-108458000D01*
X168656000Y-108458000D02*
X170773500Y-108458000D01*
D36*
%TO.N,Net-(Q1-Pad4)*%
X158943000Y-102672500D02*
X158943000Y-105025000D01*
X158943000Y-105025000D02*
X157988000Y-105980000D01*
X157988000Y-105980000D02*
X157988000Y-108458000D01*
D35*
%TO.N,Net-(Q1-Pad5)*%
X168656000Y-113408000D02*
X157988000Y-113408000D01*
D36*
%TO.N,Net-(Q2-Pad4)*%
X159893000Y-104837000D02*
X159893000Y-102672500D01*
X164151500Y-105285500D02*
X160341500Y-105285500D01*
X164846000Y-105980000D02*
X164151500Y-105285500D01*
X160341500Y-105285500D02*
X159893000Y-104837000D01*
X164846000Y-108458000D02*
X164846000Y-105980000D01*
%TD*%
%TA.AperFunction,Conductor*%
%TO.N,GND*%
G36*
X126877781Y-51329662D02*
G01*
X130491876Y-53739058D01*
X130505391Y-53749454D01*
X130527951Y-53769378D01*
X130543129Y-53776504D01*
X130591874Y-53799390D01*
X130592648Y-53799757D01*
X130597874Y-53802254D01*
X130656459Y-53830248D01*
X130658205Y-53830532D01*
X130659800Y-53831281D01*
X130717357Y-53840243D01*
X130729610Y-53842151D01*
X130730455Y-53842286D01*
X130791367Y-53852195D01*
X130791369Y-53852195D01*
X130800227Y-53853636D01*
X130809133Y-53852533D01*
X130809360Y-53852505D01*
X130833987Y-53849455D01*
X130849474Y-53848500D01*
X152483668Y-53848500D01*
X152500681Y-53849654D01*
X152521602Y-53852505D01*
X152521603Y-53852505D01*
X152530497Y-53853717D01*
X152600381Y-53843223D01*
X152601163Y-53843108D01*
X152671187Y-53833080D01*
X152672798Y-53832348D01*
X152674540Y-53832086D01*
X152738819Y-53802331D01*
X152739098Y-53802202D01*
X152803782Y-53772792D01*
X152829557Y-53750583D01*
X152841907Y-53741203D01*
X156459219Y-51329662D01*
X156529111Y-51308500D01*
X186640633Y-51308500D01*
X186660018Y-51310000D01*
X186674851Y-51312310D01*
X186674855Y-51312310D01*
X186683724Y-51313691D01*
X186704183Y-51311016D01*
X186726008Y-51310072D01*
X187082937Y-51325656D01*
X187093886Y-51326614D01*
X187478379Y-51377233D01*
X187489205Y-51379142D01*
X187867822Y-51463080D01*
X187878439Y-51465925D01*
X188048702Y-51519608D01*
X188248302Y-51582542D01*
X188258615Y-51586295D01*
X188616932Y-51734715D01*
X188626876Y-51739353D01*
X188970867Y-51918423D01*
X188980387Y-51923919D01*
X189307468Y-52132292D01*
X189316472Y-52138597D01*
X189624138Y-52374678D01*
X189632558Y-52381743D01*
X189918483Y-52643744D01*
X189926256Y-52651517D01*
X190188257Y-52937442D01*
X190195322Y-52945862D01*
X190431403Y-53253528D01*
X190437708Y-53262532D01*
X190646081Y-53589613D01*
X190651576Y-53599132D01*
X190781887Y-53849455D01*
X190830643Y-53943115D01*
X190835289Y-53953077D01*
X190983702Y-54311377D01*
X190987461Y-54321706D01*
X191104075Y-54691561D01*
X191106920Y-54702178D01*
X191190858Y-55080795D01*
X191192767Y-55091621D01*
X191243386Y-55476114D01*
X191244344Y-55487063D01*
X191253796Y-55703540D01*
X191259603Y-55836552D01*
X191258223Y-55861429D01*
X191256309Y-55873724D01*
X191257473Y-55882626D01*
X191257473Y-55882628D01*
X191260436Y-55905283D01*
X191261500Y-55921621D01*
X191261500Y-79817889D01*
X191240338Y-79887781D01*
X188830942Y-83501876D01*
X188820546Y-83515391D01*
X188800622Y-83537951D01*
X188796808Y-83546075D01*
X188770610Y-83601874D01*
X188770243Y-83602648D01*
X188767489Y-83608412D01*
X188739752Y-83666459D01*
X188739468Y-83668205D01*
X188738719Y-83669800D01*
X188736477Y-83684202D01*
X188727849Y-83739610D01*
X188727714Y-83740455D01*
X188722528Y-83772337D01*
X188716364Y-83810227D01*
X188717467Y-83819133D01*
X188720545Y-83843988D01*
X188721500Y-83859474D01*
X188721500Y-113626668D01*
X188720346Y-113643681D01*
X188716283Y-113673497D01*
X188725393Y-113734163D01*
X188726773Y-113743353D01*
X188726892Y-113744163D01*
X188736920Y-113814187D01*
X188737652Y-113815798D01*
X188737914Y-113817540D01*
X188767669Y-113881819D01*
X188767798Y-113882098D01*
X188797208Y-113946782D01*
X188807545Y-113958778D01*
X188819414Y-113972553D01*
X188828797Y-113984907D01*
X191240338Y-117602219D01*
X191261500Y-117672111D01*
X191261500Y-141560633D01*
X191260000Y-141580018D01*
X191257690Y-141594851D01*
X191257690Y-141594855D01*
X191256309Y-141603724D01*
X191258984Y-141624183D01*
X191259928Y-141646012D01*
X191244344Y-142002936D01*
X191243386Y-142013886D01*
X191192767Y-142398379D01*
X191190858Y-142409205D01*
X191106920Y-142787822D01*
X191104075Y-142798439D01*
X190987461Y-143168294D01*
X190983702Y-143178623D01*
X190835289Y-143536923D01*
X190830647Y-143546876D01*
X190726886Y-143746200D01*
X190651577Y-143890867D01*
X190646081Y-143900387D01*
X190437708Y-144227468D01*
X190431403Y-144236472D01*
X190195322Y-144544138D01*
X190188257Y-144552558D01*
X189926256Y-144838483D01*
X189918483Y-144846256D01*
X189632558Y-145108257D01*
X189624138Y-145115322D01*
X189316472Y-145351403D01*
X189307468Y-145357708D01*
X188980387Y-145566081D01*
X188970868Y-145571576D01*
X188626876Y-145750647D01*
X188616932Y-145755285D01*
X188258615Y-145903705D01*
X188248302Y-145907458D01*
X188048702Y-145970392D01*
X187878439Y-146024075D01*
X187867822Y-146026920D01*
X187489205Y-146110858D01*
X187478379Y-146112767D01*
X187093886Y-146163386D01*
X187082937Y-146164344D01*
X186733446Y-146179603D01*
X186708571Y-146178223D01*
X186696276Y-146176309D01*
X186687374Y-146177473D01*
X186687372Y-146177473D01*
X186672323Y-146179441D01*
X186664714Y-146180436D01*
X186648379Y-146181500D01*
X166562111Y-146181500D01*
X166492219Y-146160338D01*
X162878124Y-143750942D01*
X162864609Y-143740546D01*
X162848778Y-143726565D01*
X162842049Y-143720622D01*
X162778097Y-143690596D01*
X162777352Y-143690243D01*
X162721215Y-143663419D01*
X162713541Y-143659752D01*
X162711795Y-143659468D01*
X162710200Y-143658719D01*
X162652643Y-143649757D01*
X162640390Y-143647849D01*
X162639545Y-143647714D01*
X162578633Y-143637805D01*
X162578631Y-143637805D01*
X162569773Y-143636364D01*
X162547504Y-143639122D01*
X162536012Y-143640545D01*
X162520526Y-143641500D01*
X130853332Y-143641500D01*
X130836319Y-143640346D01*
X130815398Y-143637495D01*
X130815397Y-143637495D01*
X130806503Y-143636283D01*
X130736619Y-143646777D01*
X130735837Y-143646892D01*
X130665813Y-143656920D01*
X130664202Y-143657652D01*
X130662460Y-143657914D01*
X130598181Y-143687669D01*
X130597902Y-143687798D01*
X130533218Y-143717208D01*
X130526421Y-143723065D01*
X130507447Y-143739414D01*
X130495093Y-143748797D01*
X126877781Y-146160338D01*
X126807889Y-146181500D01*
X106729367Y-146181500D01*
X106709982Y-146180000D01*
X106695149Y-146177690D01*
X106695145Y-146177690D01*
X106686276Y-146176309D01*
X106665817Y-146178984D01*
X106643992Y-146179928D01*
X106287063Y-146164344D01*
X106276114Y-146163386D01*
X105891621Y-146112767D01*
X105880795Y-146110858D01*
X105502178Y-146026920D01*
X105491561Y-146024075D01*
X105321298Y-145970392D01*
X105121698Y-145907458D01*
X105111385Y-145903705D01*
X104753068Y-145755285D01*
X104743124Y-145750647D01*
X104399132Y-145571576D01*
X104389613Y-145566081D01*
X104062532Y-145357708D01*
X104053528Y-145351403D01*
X103745862Y-145115322D01*
X103737442Y-145108257D01*
X103451517Y-144846256D01*
X103443744Y-144838483D01*
X103181743Y-144552558D01*
X103174678Y-144544138D01*
X102938597Y-144236472D01*
X102932292Y-144227468D01*
X102723919Y-143900387D01*
X102718423Y-143890867D01*
X102643114Y-143746200D01*
X102539353Y-143546876D01*
X102534711Y-143536923D01*
X102386298Y-143178623D01*
X102382539Y-143168294D01*
X102265925Y-142798439D01*
X102263080Y-142787822D01*
X102179142Y-142409205D01*
X102177233Y-142398379D01*
X102126614Y-142013886D01*
X102125656Y-142002936D01*
X102119159Y-141854134D01*
X111378500Y-141854134D01*
X111385255Y-141916316D01*
X111436385Y-142052705D01*
X111523739Y-142169261D01*
X111640295Y-142256615D01*
X111776684Y-142307745D01*
X111838866Y-142314500D01*
X118285134Y-142314500D01*
X118347316Y-142307745D01*
X118483705Y-142256615D01*
X118600261Y-142169261D01*
X118687615Y-142052705D01*
X118738745Y-141916316D01*
X118745500Y-141854134D01*
X132714500Y-141854134D01*
X132721255Y-141916316D01*
X132772385Y-142052705D01*
X132859739Y-142169261D01*
X132976295Y-142256615D01*
X133112684Y-142307745D01*
X133174866Y-142314500D01*
X139621134Y-142314500D01*
X139683316Y-142307745D01*
X139819705Y-142256615D01*
X139936261Y-142169261D01*
X140023615Y-142052705D01*
X140074745Y-141916316D01*
X140081500Y-141854134D01*
X140081500Y-140040500D01*
X140101502Y-139972379D01*
X140155158Y-139925886D01*
X140207500Y-139914500D01*
X144085806Y-139914500D01*
X144106059Y-139916138D01*
X144325947Y-139951949D01*
X144325948Y-139951949D01*
X144330559Y-139952700D01*
X144462719Y-139954430D01*
X144590202Y-139956099D01*
X144590205Y-139956099D01*
X144594879Y-139956160D01*
X144856808Y-139920514D01*
X144861298Y-139919205D01*
X144861304Y-139919204D01*
X144969268Y-139887735D01*
X145110590Y-139846543D01*
X145114837Y-139844585D01*
X145114840Y-139844584D01*
X145230977Y-139791044D01*
X145350652Y-139735873D01*
X145451067Y-139670038D01*
X145567805Y-139593501D01*
X145567810Y-139593497D01*
X145571718Y-139590935D01*
X145670325Y-139502925D01*
X145765441Y-139418031D01*
X145765443Y-139418029D01*
X145768933Y-139414914D01*
X145937964Y-139211676D01*
X146075099Y-138985686D01*
X146138341Y-138834871D01*
X146175514Y-138746224D01*
X146175516Y-138746219D01*
X146177323Y-138741909D01*
X146187175Y-138703119D01*
X146241240Y-138490236D01*
X146241241Y-138490233D01*
X146242392Y-138485699D01*
X146260357Y-138307285D01*
X146261362Y-138299656D01*
X146261948Y-138296056D01*
X146262700Y-138291441D01*
X146262761Y-138286766D01*
X146262965Y-138284440D01*
X146263363Y-138277440D01*
X146264183Y-138269289D01*
X146264500Y-138266144D01*
X146264500Y-138154742D01*
X146264511Y-138153093D01*
X146266099Y-138031798D01*
X146266099Y-138031795D01*
X146266160Y-138027121D01*
X146265529Y-138022486D01*
X146265244Y-138017823D01*
X146265274Y-138017821D01*
X146264500Y-138006391D01*
X146264500Y-134005994D01*
X146268937Y-133972851D01*
X146270525Y-133967029D01*
X146276720Y-133944305D01*
X146281362Y-133905090D01*
X146307241Y-133686431D01*
X146307790Y-133681795D01*
X146300720Y-133450361D01*
X146299861Y-133422253D01*
X146299861Y-133422252D01*
X146299718Y-133417575D01*
X146276006Y-133286450D01*
X146253511Y-133162049D01*
X146253510Y-133162044D01*
X146252679Y-133157450D01*
X146191831Y-132978196D01*
X146169213Y-132911566D01*
X146169212Y-132911563D01*
X146167709Y-132907136D01*
X146046673Y-132672131D01*
X145892230Y-132457596D01*
X145707774Y-132268247D01*
X145497357Y-132108241D01*
X145265601Y-131981096D01*
X145017596Y-131889602D01*
X144758792Y-131835771D01*
X144626833Y-131828278D01*
X144499550Y-131821050D01*
X144499543Y-131821050D01*
X144494874Y-131820785D01*
X144275055Y-131840984D01*
X144236297Y-131844545D01*
X144236296Y-131844545D01*
X144231640Y-131844973D01*
X143974872Y-131907803D01*
X143730212Y-132007896D01*
X143503034Y-132143053D01*
X143499420Y-132146006D01*
X143499414Y-132146010D01*
X143393251Y-132232749D01*
X143332152Y-132282669D01*
X143267647Y-132347174D01*
X143262453Y-132352082D01*
X143203067Y-132405086D01*
X143200074Y-132408685D01*
X143129205Y-132493896D01*
X143127784Y-132495575D01*
X143055380Y-132579603D01*
X143055377Y-132579607D01*
X143052332Y-132583141D01*
X143049838Y-132587094D01*
X143048413Y-132589352D01*
X143038731Y-132602678D01*
X143037029Y-132604725D01*
X143034036Y-132608324D01*
X143031613Y-132612317D01*
X142974071Y-132707142D01*
X142972914Y-132709011D01*
X142911275Y-132806704D01*
X142909392Y-132810983D01*
X142909389Y-132810989D01*
X142908322Y-132813414D01*
X142900716Y-132828027D01*
X142896901Y-132834314D01*
X142895094Y-132838622D01*
X142895094Y-132838623D01*
X142852201Y-132940910D01*
X142851333Y-132942930D01*
X142811883Y-133032588D01*
X142804811Y-133048660D01*
X142803582Y-133053169D01*
X142803580Y-133053174D01*
X142802882Y-133055735D01*
X142797517Y-133071320D01*
X142794677Y-133078091D01*
X142766217Y-133190152D01*
X142765687Y-133192166D01*
X142735281Y-133303694D01*
X142734733Y-133308325D01*
X142734730Y-133308340D01*
X142734417Y-133310987D01*
X142731415Y-133327186D01*
X142729608Y-133334301D01*
X142718027Y-133449304D01*
X142717801Y-133451372D01*
X142704210Y-133566205D01*
X142704353Y-133570876D01*
X142707441Y-133671952D01*
X142707500Y-133675800D01*
X142707500Y-136231500D01*
X142687498Y-136299621D01*
X142633842Y-136346114D01*
X142581500Y-136357500D01*
X140207500Y-136357500D01*
X140139379Y-136337498D01*
X140092886Y-136283842D01*
X140081500Y-136231500D01*
X140081500Y-134417866D01*
X140074745Y-134355684D01*
X140023615Y-134219295D01*
X139936261Y-134102739D01*
X139819705Y-134015385D01*
X139683316Y-133964255D01*
X139621134Y-133957500D01*
X133174866Y-133957500D01*
X133112684Y-133964255D01*
X132976295Y-134015385D01*
X132859739Y-134102739D01*
X132772385Y-134219295D01*
X132721255Y-134355684D01*
X132714500Y-134417866D01*
X132714500Y-141854134D01*
X118745500Y-141854134D01*
X118745500Y-134417866D01*
X118738745Y-134355684D01*
X118687615Y-134219295D01*
X118600261Y-134102739D01*
X118483705Y-134015385D01*
X118347316Y-133964255D01*
X118285134Y-133957500D01*
X111838866Y-133957500D01*
X111776684Y-133964255D01*
X111640295Y-134015385D01*
X111523739Y-134102739D01*
X111436385Y-134219295D01*
X111385255Y-134355684D01*
X111378500Y-134417866D01*
X111378500Y-141854134D01*
X102119159Y-141854134D01*
X102110561Y-141657208D01*
X102112188Y-141630805D01*
X102112769Y-141627352D01*
X102112770Y-141627345D01*
X102113576Y-141622552D01*
X102113729Y-141610000D01*
X102109773Y-141582376D01*
X102108500Y-141564514D01*
X102108500Y-126452880D01*
X104893992Y-126452880D01*
X104894355Y-126457028D01*
X104894355Y-126457032D01*
X104919487Y-126744293D01*
X104919488Y-126744301D01*
X104919852Y-126748459D01*
X104984577Y-127038021D01*
X104986019Y-127041941D01*
X104986021Y-127041947D01*
X105056619Y-127233827D01*
X105087029Y-127316480D01*
X105225410Y-127578942D01*
X105397288Y-127820797D01*
X105599642Y-128037796D01*
X105828918Y-128226125D01*
X106081088Y-128382477D01*
X106351722Y-128504105D01*
X106524390Y-128555580D01*
X106632065Y-128587679D01*
X106632067Y-128587679D01*
X106636064Y-128588871D01*
X106640184Y-128589524D01*
X106640186Y-128589524D01*
X106759106Y-128608359D01*
X106929119Y-128635286D01*
X106974146Y-128637331D01*
X107020497Y-128639436D01*
X107020516Y-128639436D01*
X107021916Y-128639500D01*
X107207264Y-128639500D01*
X107428056Y-128624835D01*
X107718910Y-128566188D01*
X107999453Y-128469590D01*
X108003196Y-128467716D01*
X108003200Y-128467714D01*
X108261012Y-128338611D01*
X108261014Y-128338610D01*
X108264756Y-128336736D01*
X108510158Y-128169961D01*
X108731346Y-127972196D01*
X108924436Y-127746914D01*
X108926711Y-127743411D01*
X109083763Y-127501572D01*
X109083765Y-127501569D01*
X109086035Y-127498073D01*
X109213304Y-127230046D01*
X109273696Y-127041947D01*
X109302726Y-126951530D01*
X109302727Y-126951524D01*
X109304006Y-126947542D01*
X109339091Y-126752548D01*
X109355809Y-126659632D01*
X109355810Y-126659627D01*
X109356548Y-126655523D01*
X109365751Y-126452880D01*
X120823992Y-126452880D01*
X120824355Y-126457028D01*
X120824355Y-126457032D01*
X120849487Y-126744293D01*
X120849488Y-126744301D01*
X120849852Y-126748459D01*
X120914577Y-127038021D01*
X120916019Y-127041941D01*
X120916021Y-127041947D01*
X120986619Y-127233827D01*
X121017029Y-127316480D01*
X121155410Y-127578942D01*
X121327288Y-127820797D01*
X121529642Y-128037796D01*
X121758918Y-128226125D01*
X122011088Y-128382477D01*
X122281722Y-128504105D01*
X122454390Y-128555580D01*
X122562065Y-128587679D01*
X122562067Y-128587679D01*
X122566064Y-128588871D01*
X122570184Y-128589524D01*
X122570186Y-128589524D01*
X122689106Y-128608359D01*
X122859119Y-128635286D01*
X122904146Y-128637331D01*
X122950497Y-128639436D01*
X122950516Y-128639436D01*
X122951916Y-128639500D01*
X123137264Y-128639500D01*
X123358056Y-128624835D01*
X123648910Y-128566188D01*
X123929453Y-128469590D01*
X123933196Y-128467716D01*
X123933200Y-128467714D01*
X124191012Y-128338611D01*
X124191014Y-128338610D01*
X124194756Y-128336736D01*
X124440158Y-128169961D01*
X124661346Y-127972196D01*
X124854436Y-127746914D01*
X124856711Y-127743411D01*
X125013763Y-127501572D01*
X125013765Y-127501569D01*
X125016035Y-127498073D01*
X125143304Y-127230046D01*
X125203696Y-127041947D01*
X125232726Y-126951530D01*
X125232727Y-126951524D01*
X125234006Y-126947542D01*
X125269091Y-126752548D01*
X125285809Y-126659632D01*
X125285810Y-126659627D01*
X125286548Y-126655523D01*
X125295751Y-126452880D01*
X126229992Y-126452880D01*
X126230355Y-126457028D01*
X126230355Y-126457032D01*
X126255487Y-126744293D01*
X126255488Y-126744301D01*
X126255852Y-126748459D01*
X126320577Y-127038021D01*
X126322019Y-127041941D01*
X126322021Y-127041947D01*
X126392619Y-127233827D01*
X126423029Y-127316480D01*
X126561410Y-127578942D01*
X126733288Y-127820797D01*
X126935642Y-128037796D01*
X127164918Y-128226125D01*
X127417088Y-128382477D01*
X127687722Y-128504105D01*
X127860390Y-128555580D01*
X127968065Y-128587679D01*
X127968067Y-128587679D01*
X127972064Y-128588871D01*
X127976184Y-128589524D01*
X127976186Y-128589524D01*
X128095106Y-128608359D01*
X128265119Y-128635286D01*
X128310146Y-128637331D01*
X128356497Y-128639436D01*
X128356516Y-128639436D01*
X128357916Y-128639500D01*
X128543264Y-128639500D01*
X128764056Y-128624835D01*
X129054910Y-128566188D01*
X129335453Y-128469590D01*
X129339196Y-128467716D01*
X129339200Y-128467714D01*
X129597012Y-128338611D01*
X129597014Y-128338610D01*
X129600756Y-128336736D01*
X129846158Y-128169961D01*
X130067346Y-127972196D01*
X130260436Y-127746914D01*
X130262711Y-127743411D01*
X130419763Y-127501572D01*
X130419765Y-127501569D01*
X130422035Y-127498073D01*
X130549304Y-127230046D01*
X130609696Y-127041947D01*
X130638726Y-126951530D01*
X130638727Y-126951524D01*
X130640006Y-126947542D01*
X130675091Y-126752548D01*
X130691809Y-126659632D01*
X130691810Y-126659627D01*
X130692548Y-126655523D01*
X130701751Y-126452880D01*
X142159992Y-126452880D01*
X142160355Y-126457028D01*
X142160355Y-126457032D01*
X142185487Y-126744293D01*
X142185488Y-126744301D01*
X142185852Y-126748459D01*
X142250577Y-127038021D01*
X142252019Y-127041941D01*
X142252021Y-127041947D01*
X142322619Y-127233827D01*
X142353029Y-127316480D01*
X142491410Y-127578942D01*
X142663288Y-127820797D01*
X142865642Y-128037796D01*
X143094918Y-128226125D01*
X143347088Y-128382477D01*
X143617722Y-128504105D01*
X143790390Y-128555580D01*
X143898065Y-128587679D01*
X143898067Y-128587679D01*
X143902064Y-128588871D01*
X143906184Y-128589524D01*
X143906186Y-128589524D01*
X144025106Y-128608359D01*
X144195119Y-128635286D01*
X144240146Y-128637331D01*
X144286497Y-128639436D01*
X144286516Y-128639436D01*
X144287916Y-128639500D01*
X144473264Y-128639500D01*
X144694056Y-128624835D01*
X144984910Y-128566188D01*
X145265453Y-128469590D01*
X145269196Y-128467716D01*
X145269200Y-128467714D01*
X145527012Y-128338611D01*
X145527014Y-128338610D01*
X145530756Y-128336736D01*
X145776158Y-128169961D01*
X145997346Y-127972196D01*
X146190436Y-127746914D01*
X146192711Y-127743411D01*
X146349763Y-127501572D01*
X146349765Y-127501569D01*
X146352035Y-127498073D01*
X146479304Y-127230046D01*
X146539696Y-127041947D01*
X146568726Y-126951530D01*
X146568727Y-126951524D01*
X146570006Y-126947542D01*
X146605091Y-126752548D01*
X146621809Y-126659632D01*
X146621810Y-126659627D01*
X146622548Y-126655523D01*
X146631751Y-126452880D01*
X147495992Y-126452880D01*
X147496355Y-126457028D01*
X147496355Y-126457032D01*
X147521487Y-126744293D01*
X147521488Y-126744301D01*
X147521852Y-126748459D01*
X147586577Y-127038021D01*
X147588019Y-127041941D01*
X147588021Y-127041947D01*
X147658619Y-127233827D01*
X147689029Y-127316480D01*
X147827410Y-127578942D01*
X147999288Y-127820797D01*
X148201642Y-128037796D01*
X148430918Y-128226125D01*
X148683088Y-128382477D01*
X148953722Y-128504105D01*
X149126390Y-128555580D01*
X149234065Y-128587679D01*
X149234067Y-128587679D01*
X149238064Y-128588871D01*
X149242184Y-128589524D01*
X149242186Y-128589524D01*
X149361106Y-128608359D01*
X149531119Y-128635286D01*
X149576146Y-128637331D01*
X149622497Y-128639436D01*
X149622516Y-128639436D01*
X149623916Y-128639500D01*
X149809264Y-128639500D01*
X150030056Y-128624835D01*
X150320910Y-128566188D01*
X150601453Y-128469590D01*
X150605196Y-128467716D01*
X150605200Y-128467714D01*
X150863012Y-128338611D01*
X150863014Y-128338610D01*
X150866756Y-128336736D01*
X151112158Y-128169961D01*
X151333346Y-127972196D01*
X151526436Y-127746914D01*
X151528711Y-127743411D01*
X151685763Y-127501572D01*
X151685765Y-127501569D01*
X151688035Y-127498073D01*
X151815304Y-127230046D01*
X151875696Y-127041947D01*
X151904726Y-126951530D01*
X151904727Y-126951524D01*
X151906006Y-126947542D01*
X151941091Y-126752548D01*
X151957809Y-126659632D01*
X151957810Y-126659627D01*
X151958548Y-126655523D01*
X151967751Y-126452880D01*
X151971819Y-126363290D01*
X151971819Y-126363285D01*
X151972008Y-126359120D01*
X151971645Y-126354968D01*
X151946513Y-126067707D01*
X151946512Y-126067699D01*
X151946148Y-126063541D01*
X151881423Y-125773979D01*
X151810773Y-125581954D01*
X151780418Y-125499452D01*
X151780416Y-125499448D01*
X151778971Y-125495520D01*
X151640590Y-125233058D01*
X151468712Y-124991203D01*
X151266358Y-124774204D01*
X151037082Y-124585875D01*
X150784912Y-124429523D01*
X150514278Y-124307895D01*
X150341610Y-124256420D01*
X150233935Y-124224321D01*
X150233933Y-124224321D01*
X150229936Y-124223129D01*
X150225816Y-124222476D01*
X150225814Y-124222476D01*
X150106894Y-124203641D01*
X149936881Y-124176714D01*
X149891854Y-124174669D01*
X149845503Y-124172564D01*
X149845484Y-124172564D01*
X149844084Y-124172500D01*
X149658736Y-124172500D01*
X149437944Y-124187165D01*
X149147090Y-124245812D01*
X148866547Y-124342410D01*
X148862804Y-124344284D01*
X148862800Y-124344286D01*
X148688179Y-124431730D01*
X148601244Y-124475264D01*
X148355842Y-124642039D01*
X148134654Y-124839804D01*
X147941564Y-125065086D01*
X147939290Y-125068588D01*
X147939289Y-125068589D01*
X147834698Y-125229646D01*
X147779965Y-125313927D01*
X147652696Y-125581954D01*
X147651417Y-125585937D01*
X147651416Y-125585940D01*
X147591044Y-125773979D01*
X147561994Y-125864458D01*
X147561253Y-125868577D01*
X147526174Y-126063541D01*
X147509452Y-126156477D01*
X147509263Y-126160644D01*
X147509262Y-126160651D01*
X147500060Y-126363290D01*
X147495992Y-126452880D01*
X146631751Y-126452880D01*
X146635819Y-126363290D01*
X146635819Y-126363285D01*
X146636008Y-126359120D01*
X146635645Y-126354968D01*
X146610513Y-126067707D01*
X146610512Y-126067699D01*
X146610148Y-126063541D01*
X146545423Y-125773979D01*
X146474773Y-125581954D01*
X146444418Y-125499452D01*
X146444416Y-125499448D01*
X146442971Y-125495520D01*
X146304590Y-125233058D01*
X146132712Y-124991203D01*
X145930358Y-124774204D01*
X145701082Y-124585875D01*
X145448912Y-124429523D01*
X145178278Y-124307895D01*
X145005610Y-124256420D01*
X144897935Y-124224321D01*
X144897933Y-124224321D01*
X144893936Y-124223129D01*
X144889816Y-124222476D01*
X144889814Y-124222476D01*
X144770894Y-124203641D01*
X144600881Y-124176714D01*
X144555854Y-124174669D01*
X144509503Y-124172564D01*
X144509484Y-124172564D01*
X144508084Y-124172500D01*
X144322736Y-124172500D01*
X144101944Y-124187165D01*
X143811090Y-124245812D01*
X143530547Y-124342410D01*
X143526804Y-124344284D01*
X143526800Y-124344286D01*
X143352179Y-124431730D01*
X143265244Y-124475264D01*
X143019842Y-124642039D01*
X142798654Y-124839804D01*
X142605564Y-125065086D01*
X142603290Y-125068588D01*
X142603289Y-125068589D01*
X142498698Y-125229646D01*
X142443965Y-125313927D01*
X142316696Y-125581954D01*
X142315417Y-125585937D01*
X142315416Y-125585940D01*
X142255044Y-125773979D01*
X142225994Y-125864458D01*
X142225253Y-125868577D01*
X142190174Y-126063541D01*
X142173452Y-126156477D01*
X142173263Y-126160644D01*
X142173262Y-126160651D01*
X142164060Y-126363290D01*
X142159992Y-126452880D01*
X130701751Y-126452880D01*
X130705819Y-126363290D01*
X130705819Y-126363285D01*
X130706008Y-126359120D01*
X130705645Y-126354968D01*
X130680513Y-126067707D01*
X130680512Y-126067699D01*
X130680148Y-126063541D01*
X130615423Y-125773979D01*
X130544773Y-125581954D01*
X130514418Y-125499452D01*
X130514416Y-125499448D01*
X130512971Y-125495520D01*
X130374590Y-125233058D01*
X130202712Y-124991203D01*
X130000358Y-124774204D01*
X129771082Y-124585875D01*
X129518912Y-124429523D01*
X129248278Y-124307895D01*
X129075610Y-124256420D01*
X128967935Y-124224321D01*
X128967933Y-124224321D01*
X128963936Y-124223129D01*
X128959816Y-124222476D01*
X128959814Y-124222476D01*
X128840894Y-124203641D01*
X128670881Y-124176714D01*
X128625854Y-124174669D01*
X128579503Y-124172564D01*
X128579484Y-124172564D01*
X128578084Y-124172500D01*
X128392736Y-124172500D01*
X128171944Y-124187165D01*
X127881090Y-124245812D01*
X127600547Y-124342410D01*
X127596804Y-124344284D01*
X127596800Y-124344286D01*
X127422179Y-124431730D01*
X127335244Y-124475264D01*
X127089842Y-124642039D01*
X126868654Y-124839804D01*
X126675564Y-125065086D01*
X126673290Y-125068588D01*
X126673289Y-125068589D01*
X126568698Y-125229646D01*
X126513965Y-125313927D01*
X126386696Y-125581954D01*
X126385417Y-125585937D01*
X126385416Y-125585940D01*
X126325044Y-125773979D01*
X126295994Y-125864458D01*
X126295253Y-125868577D01*
X126260174Y-126063541D01*
X126243452Y-126156477D01*
X126243263Y-126160644D01*
X126243262Y-126160651D01*
X126234060Y-126363290D01*
X126229992Y-126452880D01*
X125295751Y-126452880D01*
X125299819Y-126363290D01*
X125299819Y-126363285D01*
X125300008Y-126359120D01*
X125299645Y-126354968D01*
X125274513Y-126067707D01*
X125274512Y-126067699D01*
X125274148Y-126063541D01*
X125209423Y-125773979D01*
X125138773Y-125581954D01*
X125108418Y-125499452D01*
X125108416Y-125499448D01*
X125106971Y-125495520D01*
X124968590Y-125233058D01*
X124796712Y-124991203D01*
X124594358Y-124774204D01*
X124365082Y-124585875D01*
X124112912Y-124429523D01*
X123842278Y-124307895D01*
X123669610Y-124256420D01*
X123561935Y-124224321D01*
X123561933Y-124224321D01*
X123557936Y-124223129D01*
X123553816Y-124222476D01*
X123553814Y-124222476D01*
X123434894Y-124203641D01*
X123264881Y-124176714D01*
X123219854Y-124174669D01*
X123173503Y-124172564D01*
X123173484Y-124172564D01*
X123172084Y-124172500D01*
X122986736Y-124172500D01*
X122765944Y-124187165D01*
X122475090Y-124245812D01*
X122194547Y-124342410D01*
X122190804Y-124344284D01*
X122190800Y-124344286D01*
X122016179Y-124431730D01*
X121929244Y-124475264D01*
X121683842Y-124642039D01*
X121462654Y-124839804D01*
X121269564Y-125065086D01*
X121267290Y-125068588D01*
X121267289Y-125068589D01*
X121162698Y-125229646D01*
X121107965Y-125313927D01*
X120980696Y-125581954D01*
X120979417Y-125585937D01*
X120979416Y-125585940D01*
X120919044Y-125773979D01*
X120889994Y-125864458D01*
X120889253Y-125868577D01*
X120854174Y-126063541D01*
X120837452Y-126156477D01*
X120837263Y-126160644D01*
X120837262Y-126160651D01*
X120828060Y-126363290D01*
X120823992Y-126452880D01*
X109365751Y-126452880D01*
X109369819Y-126363290D01*
X109369819Y-126363285D01*
X109370008Y-126359120D01*
X109369645Y-126354968D01*
X109344513Y-126067707D01*
X109344512Y-126067699D01*
X109344148Y-126063541D01*
X109279423Y-125773979D01*
X109208773Y-125581954D01*
X109178418Y-125499452D01*
X109178416Y-125499448D01*
X109176971Y-125495520D01*
X109038590Y-125233058D01*
X108866712Y-124991203D01*
X108664358Y-124774204D01*
X108435082Y-124585875D01*
X108182912Y-124429523D01*
X107912278Y-124307895D01*
X107739610Y-124256420D01*
X107631935Y-124224321D01*
X107631933Y-124224321D01*
X107627936Y-124223129D01*
X107623816Y-124222476D01*
X107623814Y-124222476D01*
X107504894Y-124203641D01*
X107334881Y-124176714D01*
X107289854Y-124174669D01*
X107243503Y-124172564D01*
X107243484Y-124172564D01*
X107242084Y-124172500D01*
X107056736Y-124172500D01*
X106835944Y-124187165D01*
X106545090Y-124245812D01*
X106264547Y-124342410D01*
X106260804Y-124344284D01*
X106260800Y-124344286D01*
X106086179Y-124431730D01*
X105999244Y-124475264D01*
X105753842Y-124642039D01*
X105532654Y-124839804D01*
X105339564Y-125065086D01*
X105337290Y-125068588D01*
X105337289Y-125068589D01*
X105232698Y-125229646D01*
X105177965Y-125313927D01*
X105050696Y-125581954D01*
X105049417Y-125585937D01*
X105049416Y-125585940D01*
X104989044Y-125773979D01*
X104959994Y-125864458D01*
X104959253Y-125868577D01*
X104924174Y-126063541D01*
X104907452Y-126156477D01*
X104907263Y-126160644D01*
X104907262Y-126160651D01*
X104898060Y-126363290D01*
X104893992Y-126452880D01*
X102108500Y-126452880D01*
X102108500Y-117672111D01*
X102129662Y-117602219D01*
X104539058Y-113988124D01*
X104549454Y-113974609D01*
X104563435Y-113958778D01*
X104569378Y-113952049D01*
X104599404Y-113888097D01*
X104599757Y-113887352D01*
X104626581Y-113831215D01*
X104630248Y-113823541D01*
X104630532Y-113821795D01*
X104631281Y-113820200D01*
X104642151Y-113750390D01*
X104642286Y-113749545D01*
X104652195Y-113688633D01*
X104652195Y-113688631D01*
X104653636Y-113679773D01*
X104649455Y-113646012D01*
X104648500Y-113630526D01*
X104648500Y-83863332D01*
X104649654Y-83846319D01*
X104652505Y-83825398D01*
X104652505Y-83825397D01*
X104653717Y-83816503D01*
X104643223Y-83746619D01*
X104643103Y-83745799D01*
X104634281Y-83684202D01*
X104633080Y-83675813D01*
X104632348Y-83674202D01*
X104632086Y-83672460D01*
X104602331Y-83608181D01*
X104602202Y-83607902D01*
X104572792Y-83543218D01*
X104550583Y-83517443D01*
X104541203Y-83505093D01*
X102129662Y-79887781D01*
X102108500Y-79817889D01*
X102108500Y-71252880D01*
X104823992Y-71252880D01*
X104824355Y-71257028D01*
X104824355Y-71257032D01*
X104849487Y-71544293D01*
X104849488Y-71544301D01*
X104849852Y-71548459D01*
X104914577Y-71838021D01*
X104916019Y-71841941D01*
X104916021Y-71841947D01*
X105015582Y-72112548D01*
X105017029Y-72116480D01*
X105018980Y-72120180D01*
X105018982Y-72120185D01*
X105110784Y-72294302D01*
X105155410Y-72378942D01*
X105327288Y-72620797D01*
X105529642Y-72837796D01*
X105758918Y-73026125D01*
X106011088Y-73182477D01*
X106281722Y-73304105D01*
X106454390Y-73355580D01*
X106562065Y-73387679D01*
X106562067Y-73387679D01*
X106566064Y-73388871D01*
X106570184Y-73389524D01*
X106570186Y-73389524D01*
X106689106Y-73408359D01*
X106859119Y-73435286D01*
X106904146Y-73437331D01*
X106950497Y-73439436D01*
X106950516Y-73439436D01*
X106951916Y-73439500D01*
X107137264Y-73439500D01*
X107358056Y-73424835D01*
X107648910Y-73366188D01*
X107929453Y-73269590D01*
X107933196Y-73267716D01*
X107933200Y-73267714D01*
X108191012Y-73138611D01*
X108191014Y-73138610D01*
X108194756Y-73136736D01*
X108440158Y-72969961D01*
X108661346Y-72772196D01*
X108854436Y-72546914D01*
X108856711Y-72543411D01*
X109013763Y-72301572D01*
X109013765Y-72301569D01*
X109016035Y-72298073D01*
X109143304Y-72030046D01*
X109203696Y-71841947D01*
X109232726Y-71751530D01*
X109232727Y-71751524D01*
X109234006Y-71747542D01*
X109269091Y-71552548D01*
X109285809Y-71459632D01*
X109285810Y-71459627D01*
X109286548Y-71455523D01*
X109295751Y-71252880D01*
X120893992Y-71252880D01*
X120894355Y-71257028D01*
X120894355Y-71257032D01*
X120919487Y-71544293D01*
X120919488Y-71544301D01*
X120919852Y-71548459D01*
X120984577Y-71838021D01*
X120986019Y-71841941D01*
X120986021Y-71841947D01*
X121085582Y-72112548D01*
X121087029Y-72116480D01*
X121088980Y-72120180D01*
X121088982Y-72120185D01*
X121180784Y-72294302D01*
X121225410Y-72378942D01*
X121397288Y-72620797D01*
X121599642Y-72837796D01*
X121828918Y-73026125D01*
X122081088Y-73182477D01*
X122351722Y-73304105D01*
X122524390Y-73355580D01*
X122632065Y-73387679D01*
X122632067Y-73387679D01*
X122636064Y-73388871D01*
X122640184Y-73389524D01*
X122640186Y-73389524D01*
X122759106Y-73408359D01*
X122929119Y-73435286D01*
X122974146Y-73437331D01*
X123020497Y-73439436D01*
X123020516Y-73439436D01*
X123021916Y-73439500D01*
X123207264Y-73439500D01*
X123428056Y-73424835D01*
X123718910Y-73366188D01*
X123999453Y-73269590D01*
X124003196Y-73267716D01*
X124003200Y-73267714D01*
X124261012Y-73138611D01*
X124261014Y-73138610D01*
X124264756Y-73136736D01*
X124510158Y-72969961D01*
X124731346Y-72772196D01*
X124924436Y-72546914D01*
X124926711Y-72543411D01*
X125083763Y-72301572D01*
X125083765Y-72301569D01*
X125086035Y-72298073D01*
X125213304Y-72030046D01*
X125273696Y-71841947D01*
X125302726Y-71751530D01*
X125302727Y-71751524D01*
X125304006Y-71747542D01*
X125339091Y-71552548D01*
X125355809Y-71459632D01*
X125355810Y-71459627D01*
X125356548Y-71455523D01*
X125365751Y-71252880D01*
X126159992Y-71252880D01*
X126160355Y-71257028D01*
X126160355Y-71257032D01*
X126185487Y-71544293D01*
X126185488Y-71544301D01*
X126185852Y-71548459D01*
X126250577Y-71838021D01*
X126252019Y-71841941D01*
X126252021Y-71841947D01*
X126351582Y-72112548D01*
X126353029Y-72116480D01*
X126354980Y-72120180D01*
X126354982Y-72120185D01*
X126446784Y-72294302D01*
X126491410Y-72378942D01*
X126663288Y-72620797D01*
X126865642Y-72837796D01*
X127094918Y-73026125D01*
X127347088Y-73182477D01*
X127617722Y-73304105D01*
X127790390Y-73355580D01*
X127898065Y-73387679D01*
X127898067Y-73387679D01*
X127902064Y-73388871D01*
X127906184Y-73389524D01*
X127906186Y-73389524D01*
X128025106Y-73408359D01*
X128195119Y-73435286D01*
X128240146Y-73437331D01*
X128286497Y-73439436D01*
X128286516Y-73439436D01*
X128287916Y-73439500D01*
X128473264Y-73439500D01*
X128694056Y-73424835D01*
X128984910Y-73366188D01*
X129265453Y-73269590D01*
X129269196Y-73267716D01*
X129269200Y-73267714D01*
X129527012Y-73138611D01*
X129527014Y-73138610D01*
X129530756Y-73136736D01*
X129776158Y-72969961D01*
X129997346Y-72772196D01*
X130190436Y-72546914D01*
X130192711Y-72543411D01*
X130349763Y-72301572D01*
X130349765Y-72301569D01*
X130352035Y-72298073D01*
X130479304Y-72030046D01*
X130539696Y-71841947D01*
X130568726Y-71751530D01*
X130568727Y-71751524D01*
X130570006Y-71747542D01*
X130605091Y-71552548D01*
X130621809Y-71459632D01*
X130621810Y-71459627D01*
X130622548Y-71455523D01*
X130631751Y-71252880D01*
X142229992Y-71252880D01*
X142230355Y-71257028D01*
X142230355Y-71257032D01*
X142255487Y-71544293D01*
X142255488Y-71544301D01*
X142255852Y-71548459D01*
X142320577Y-71838021D01*
X142322019Y-71841941D01*
X142322021Y-71841947D01*
X142421582Y-72112548D01*
X142423029Y-72116480D01*
X142424980Y-72120180D01*
X142424982Y-72120185D01*
X142516784Y-72294302D01*
X142561410Y-72378942D01*
X142733288Y-72620797D01*
X142935642Y-72837796D01*
X143164918Y-73026125D01*
X143417088Y-73182477D01*
X143687722Y-73304105D01*
X143860390Y-73355580D01*
X143968065Y-73387679D01*
X143968067Y-73387679D01*
X143972064Y-73388871D01*
X143976184Y-73389524D01*
X143976186Y-73389524D01*
X144095106Y-73408359D01*
X144265119Y-73435286D01*
X144310146Y-73437331D01*
X144356497Y-73439436D01*
X144356516Y-73439436D01*
X144357916Y-73439500D01*
X144543264Y-73439500D01*
X144764056Y-73424835D01*
X145054910Y-73366188D01*
X145335453Y-73269590D01*
X145339196Y-73267716D01*
X145339200Y-73267714D01*
X145597012Y-73138611D01*
X145597014Y-73138610D01*
X145600756Y-73136736D01*
X145846158Y-72969961D01*
X146067346Y-72772196D01*
X146260436Y-72546914D01*
X146262711Y-72543411D01*
X146419763Y-72301572D01*
X146419765Y-72301569D01*
X146422035Y-72298073D01*
X146549304Y-72030046D01*
X146609696Y-71841947D01*
X146638726Y-71751530D01*
X146638727Y-71751524D01*
X146640006Y-71747542D01*
X146675091Y-71552548D01*
X146691809Y-71459632D01*
X146691810Y-71459627D01*
X146692548Y-71455523D01*
X146701751Y-71252880D01*
X146705819Y-71163290D01*
X146705819Y-71163285D01*
X146706008Y-71159120D01*
X146705645Y-71154968D01*
X146680513Y-70867707D01*
X146680512Y-70867699D01*
X146680148Y-70863541D01*
X146615423Y-70573979D01*
X146544773Y-70381954D01*
X146514418Y-70299452D01*
X146514416Y-70299448D01*
X146512971Y-70295520D01*
X146374590Y-70033058D01*
X146202712Y-69791203D01*
X146000358Y-69574204D01*
X145771082Y-69385875D01*
X145518912Y-69229523D01*
X145248278Y-69107895D01*
X145075610Y-69056420D01*
X144967935Y-69024321D01*
X144967933Y-69024321D01*
X144963936Y-69023129D01*
X144959816Y-69022476D01*
X144959814Y-69022476D01*
X144840894Y-69003641D01*
X144670881Y-68976714D01*
X144625854Y-68974669D01*
X144579503Y-68972564D01*
X144579484Y-68972564D01*
X144578084Y-68972500D01*
X144392736Y-68972500D01*
X144171944Y-68987165D01*
X143881090Y-69045812D01*
X143600547Y-69142410D01*
X143596804Y-69144284D01*
X143596800Y-69144286D01*
X143422179Y-69231730D01*
X143335244Y-69275264D01*
X143089842Y-69442039D01*
X142868654Y-69639804D01*
X142675564Y-69865086D01*
X142673290Y-69868588D01*
X142673289Y-69868589D01*
X142568698Y-70029646D01*
X142513965Y-70113927D01*
X142386696Y-70381954D01*
X142385417Y-70385937D01*
X142385416Y-70385940D01*
X142325044Y-70573979D01*
X142295994Y-70664458D01*
X142295253Y-70668577D01*
X142260174Y-70863541D01*
X142243452Y-70956477D01*
X142243263Y-70960644D01*
X142243262Y-70960651D01*
X142234060Y-71163290D01*
X142229992Y-71252880D01*
X130631751Y-71252880D01*
X130635819Y-71163290D01*
X130635819Y-71163285D01*
X130636008Y-71159120D01*
X130635645Y-71154968D01*
X130610513Y-70867707D01*
X130610512Y-70867699D01*
X130610148Y-70863541D01*
X130545423Y-70573979D01*
X130474773Y-70381954D01*
X130444418Y-70299452D01*
X130444416Y-70299448D01*
X130442971Y-70295520D01*
X130304590Y-70033058D01*
X130132712Y-69791203D01*
X129930358Y-69574204D01*
X129701082Y-69385875D01*
X129448912Y-69229523D01*
X129178278Y-69107895D01*
X129005610Y-69056420D01*
X128897935Y-69024321D01*
X128897933Y-69024321D01*
X128893936Y-69023129D01*
X128889816Y-69022476D01*
X128889814Y-69022476D01*
X128770894Y-69003641D01*
X128600881Y-68976714D01*
X128555854Y-68974669D01*
X128509503Y-68972564D01*
X128509484Y-68972564D01*
X128508084Y-68972500D01*
X128322736Y-68972500D01*
X128101944Y-68987165D01*
X127811090Y-69045812D01*
X127530547Y-69142410D01*
X127526804Y-69144284D01*
X127526800Y-69144286D01*
X127352179Y-69231730D01*
X127265244Y-69275264D01*
X127019842Y-69442039D01*
X126798654Y-69639804D01*
X126605564Y-69865086D01*
X126603290Y-69868588D01*
X126603289Y-69868589D01*
X126498698Y-70029646D01*
X126443965Y-70113927D01*
X126316696Y-70381954D01*
X126315417Y-70385937D01*
X126315416Y-70385940D01*
X126255044Y-70573979D01*
X126225994Y-70664458D01*
X126225253Y-70668577D01*
X126190174Y-70863541D01*
X126173452Y-70956477D01*
X126173263Y-70960644D01*
X126173262Y-70960651D01*
X126164060Y-71163290D01*
X126159992Y-71252880D01*
X125365751Y-71252880D01*
X125369819Y-71163290D01*
X125369819Y-71163285D01*
X125370008Y-71159120D01*
X125369645Y-71154968D01*
X125344513Y-70867707D01*
X125344512Y-70867699D01*
X125344148Y-70863541D01*
X125279423Y-70573979D01*
X125208773Y-70381954D01*
X125178418Y-70299452D01*
X125178416Y-70299448D01*
X125176971Y-70295520D01*
X125038590Y-70033058D01*
X124866712Y-69791203D01*
X124664358Y-69574204D01*
X124435082Y-69385875D01*
X124182912Y-69229523D01*
X123912278Y-69107895D01*
X123739610Y-69056420D01*
X123631935Y-69024321D01*
X123631933Y-69024321D01*
X123627936Y-69023129D01*
X123623816Y-69022476D01*
X123623814Y-69022476D01*
X123504894Y-69003641D01*
X123334881Y-68976714D01*
X123289854Y-68974669D01*
X123243503Y-68972564D01*
X123243484Y-68972564D01*
X123242084Y-68972500D01*
X123056736Y-68972500D01*
X122835944Y-68987165D01*
X122545090Y-69045812D01*
X122264547Y-69142410D01*
X122260804Y-69144284D01*
X122260800Y-69144286D01*
X122086179Y-69231730D01*
X121999244Y-69275264D01*
X121753842Y-69442039D01*
X121532654Y-69639804D01*
X121339564Y-69865086D01*
X121337290Y-69868588D01*
X121337289Y-69868589D01*
X121232698Y-70029646D01*
X121177965Y-70113927D01*
X121050696Y-70381954D01*
X121049417Y-70385937D01*
X121049416Y-70385940D01*
X120989044Y-70573979D01*
X120959994Y-70664458D01*
X120959253Y-70668577D01*
X120924174Y-70863541D01*
X120907452Y-70956477D01*
X120907263Y-70960644D01*
X120907262Y-70960651D01*
X120898060Y-71163290D01*
X120893992Y-71252880D01*
X109295751Y-71252880D01*
X109299819Y-71163290D01*
X109299819Y-71163285D01*
X109300008Y-71159120D01*
X109299645Y-71154968D01*
X109274513Y-70867707D01*
X109274512Y-70867699D01*
X109274148Y-70863541D01*
X109209423Y-70573979D01*
X109138773Y-70381954D01*
X109108418Y-70299452D01*
X109108416Y-70299448D01*
X109106971Y-70295520D01*
X108968590Y-70033058D01*
X108796712Y-69791203D01*
X108594358Y-69574204D01*
X108365082Y-69385875D01*
X108112912Y-69229523D01*
X107842278Y-69107895D01*
X107669610Y-69056420D01*
X107561935Y-69024321D01*
X107561933Y-69024321D01*
X107557936Y-69023129D01*
X107553816Y-69022476D01*
X107553814Y-69022476D01*
X107434894Y-69003641D01*
X107264881Y-68976714D01*
X107219854Y-68974669D01*
X107173503Y-68972564D01*
X107173484Y-68972564D01*
X107172084Y-68972500D01*
X106986736Y-68972500D01*
X106765944Y-68987165D01*
X106475090Y-69045812D01*
X106194547Y-69142410D01*
X106190804Y-69144284D01*
X106190800Y-69144286D01*
X106016179Y-69231730D01*
X105929244Y-69275264D01*
X105683842Y-69442039D01*
X105462654Y-69639804D01*
X105269564Y-69865086D01*
X105267290Y-69868588D01*
X105267289Y-69868589D01*
X105162698Y-70029646D01*
X105107965Y-70113927D01*
X104980696Y-70381954D01*
X104979417Y-70385937D01*
X104979416Y-70385940D01*
X104919044Y-70573979D01*
X104889994Y-70664458D01*
X104889253Y-70668577D01*
X104854174Y-70863541D01*
X104837452Y-70956477D01*
X104837263Y-70960644D01*
X104837262Y-70960651D01*
X104828060Y-71163290D01*
X104823992Y-71252880D01*
X102108500Y-71252880D01*
X102108500Y-62786583D01*
X105425828Y-62786583D01*
X105431935Y-63045689D01*
X105432769Y-63050394D01*
X105470575Y-63263715D01*
X105477163Y-63300890D01*
X105560473Y-63546313D01*
X105562674Y-63550549D01*
X105562676Y-63550555D01*
X105613606Y-63648598D01*
X105679947Y-63776311D01*
X105832837Y-63985590D01*
X105836209Y-63988980D01*
X105836211Y-63988982D01*
X106012248Y-64165945D01*
X106012253Y-64165949D01*
X106015622Y-64169336D01*
X106224099Y-64323319D01*
X106228337Y-64325549D01*
X106228339Y-64325550D01*
X106449232Y-64441768D01*
X106449239Y-64441771D01*
X106453468Y-64443996D01*
X106457984Y-64445555D01*
X106457990Y-64445558D01*
X106584565Y-64489264D01*
X106698451Y-64528590D01*
X106816193Y-64550093D01*
X106949441Y-64574429D01*
X106949445Y-64574429D01*
X106953412Y-64575154D01*
X107036342Y-64579500D01*
X107197903Y-64579500D01*
X107200282Y-64579319D01*
X107200283Y-64579319D01*
X107385664Y-64565218D01*
X107385669Y-64565217D01*
X107390431Y-64564855D01*
X107395084Y-64563776D01*
X107395087Y-64563776D01*
X107638251Y-64507413D01*
X107638250Y-64507413D01*
X107642915Y-64506332D01*
X107883642Y-64410292D01*
X108107072Y-64278944D01*
X108110783Y-64275923D01*
X108110787Y-64275920D01*
X108304351Y-64118334D01*
X108308063Y-64115312D01*
X108311272Y-64111767D01*
X108311277Y-64111762D01*
X108478774Y-63926713D01*
X108481990Y-63923160D01*
X108624851Y-63706910D01*
X108649013Y-63654500D01*
X108731352Y-63475892D01*
X108731353Y-63475889D01*
X108733358Y-63471540D01*
X108793148Y-63263715D01*
X108803694Y-63227058D01*
X108803695Y-63227053D01*
X108805015Y-63222465D01*
X108805809Y-63216316D01*
X108813830Y-63154134D01*
X113410500Y-63154134D01*
X113417255Y-63216316D01*
X113468385Y-63352705D01*
X113555739Y-63469261D01*
X113672295Y-63556615D01*
X113808684Y-63607745D01*
X113870866Y-63614500D01*
X118285134Y-63614500D01*
X118347316Y-63607745D01*
X118483705Y-63556615D01*
X118600261Y-63469261D01*
X118687615Y-63352705D01*
X118738745Y-63216316D01*
X118745500Y-63154134D01*
X118745500Y-62786583D01*
X121355828Y-62786583D01*
X121361935Y-63045689D01*
X121362769Y-63050394D01*
X121400575Y-63263715D01*
X121407163Y-63300890D01*
X121490473Y-63546313D01*
X121492674Y-63550549D01*
X121492676Y-63550555D01*
X121543606Y-63648598D01*
X121609947Y-63776311D01*
X121762837Y-63985590D01*
X121766209Y-63988980D01*
X121766211Y-63988982D01*
X121942248Y-64165945D01*
X121942253Y-64165949D01*
X121945622Y-64169336D01*
X122154099Y-64323319D01*
X122158337Y-64325549D01*
X122158339Y-64325550D01*
X122379232Y-64441768D01*
X122379239Y-64441771D01*
X122383468Y-64443996D01*
X122387984Y-64445555D01*
X122387990Y-64445558D01*
X122514565Y-64489264D01*
X122628451Y-64528590D01*
X122746193Y-64550093D01*
X122879441Y-64574429D01*
X122879445Y-64574429D01*
X122883412Y-64575154D01*
X122966342Y-64579500D01*
X123127903Y-64579500D01*
X123130282Y-64579319D01*
X123130283Y-64579319D01*
X123315664Y-64565218D01*
X123315669Y-64565217D01*
X123320431Y-64564855D01*
X123325084Y-64563776D01*
X123325087Y-64563776D01*
X123568251Y-64507413D01*
X123568250Y-64507413D01*
X123572915Y-64506332D01*
X123813642Y-64410292D01*
X124037072Y-64278944D01*
X124040783Y-64275923D01*
X124040787Y-64275920D01*
X124234351Y-64118334D01*
X124238063Y-64115312D01*
X124241272Y-64111767D01*
X124241277Y-64111762D01*
X124408774Y-63926713D01*
X124411990Y-63923160D01*
X124554851Y-63706910D01*
X124579013Y-63654500D01*
X124661352Y-63475892D01*
X124661353Y-63475889D01*
X124663358Y-63471540D01*
X124723148Y-63263715D01*
X124733694Y-63227058D01*
X124733695Y-63227053D01*
X124735015Y-63222465D01*
X124735809Y-63216316D01*
X124767561Y-62970154D01*
X124768172Y-62965417D01*
X124763957Y-62786583D01*
X126761828Y-62786583D01*
X126767935Y-63045689D01*
X126768769Y-63050394D01*
X126806575Y-63263715D01*
X126813163Y-63300890D01*
X126896473Y-63546313D01*
X126898674Y-63550549D01*
X126898676Y-63550555D01*
X126949606Y-63648598D01*
X127015947Y-63776311D01*
X127168837Y-63985590D01*
X127172209Y-63988980D01*
X127172211Y-63988982D01*
X127348248Y-64165945D01*
X127348253Y-64165949D01*
X127351622Y-64169336D01*
X127560099Y-64323319D01*
X127564337Y-64325549D01*
X127564339Y-64325550D01*
X127785232Y-64441768D01*
X127785239Y-64441771D01*
X127789468Y-64443996D01*
X127793984Y-64445555D01*
X127793990Y-64445558D01*
X127920565Y-64489264D01*
X128034451Y-64528590D01*
X128152193Y-64550093D01*
X128285441Y-64574429D01*
X128285445Y-64574429D01*
X128289412Y-64575154D01*
X128372342Y-64579500D01*
X128533903Y-64579500D01*
X128536282Y-64579319D01*
X128536283Y-64579319D01*
X128721664Y-64565218D01*
X128721669Y-64565217D01*
X128726431Y-64564855D01*
X128731084Y-64563776D01*
X128731087Y-64563776D01*
X128974251Y-64507413D01*
X128974250Y-64507413D01*
X128978915Y-64506332D01*
X129219642Y-64410292D01*
X129443072Y-64278944D01*
X129446783Y-64275923D01*
X129446787Y-64275920D01*
X129640351Y-64118334D01*
X129644063Y-64115312D01*
X129647272Y-64111767D01*
X129647277Y-64111762D01*
X129814774Y-63926713D01*
X129817990Y-63923160D01*
X129960851Y-63706910D01*
X129985013Y-63654500D01*
X130067352Y-63475892D01*
X130067353Y-63475889D01*
X130069358Y-63471540D01*
X130129148Y-63263715D01*
X130139694Y-63227058D01*
X130139695Y-63227053D01*
X130141015Y-63222465D01*
X130141809Y-63216316D01*
X130144670Y-63194134D01*
X132714500Y-63194134D01*
X132721255Y-63256316D01*
X132772385Y-63392705D01*
X132859739Y-63509261D01*
X132976295Y-63596615D01*
X133112684Y-63647745D01*
X133174866Y-63654500D01*
X139621134Y-63654500D01*
X139683316Y-63647745D01*
X139819705Y-63596615D01*
X139936261Y-63509261D01*
X140023615Y-63392705D01*
X140074745Y-63256316D01*
X140081500Y-63194134D01*
X140081500Y-61380500D01*
X140101502Y-61312379D01*
X140155158Y-61265886D01*
X140207500Y-61254500D01*
X143337044Y-61254500D01*
X143405165Y-61274502D01*
X143451658Y-61328158D01*
X143461762Y-61398432D01*
X143432268Y-61463012D01*
X143416596Y-61478211D01*
X143221937Y-61636688D01*
X143218728Y-61640233D01*
X143218723Y-61640238D01*
X143101021Y-61770274D01*
X143048010Y-61828840D01*
X142905149Y-62045090D01*
X142903148Y-62049430D01*
X142903146Y-62049434D01*
X142829025Y-62210215D01*
X142796642Y-62280460D01*
X142724985Y-62529535D01*
X142691828Y-62786583D01*
X142697935Y-63045689D01*
X142698769Y-63050394D01*
X142736575Y-63263715D01*
X142743163Y-63300890D01*
X142826473Y-63546313D01*
X142828674Y-63550549D01*
X142828676Y-63550555D01*
X142879606Y-63648598D01*
X142945947Y-63776311D01*
X143098837Y-63985590D01*
X143102209Y-63988980D01*
X143102211Y-63988982D01*
X143278248Y-64165945D01*
X143278253Y-64165949D01*
X143281622Y-64169336D01*
X143490099Y-64323319D01*
X143494337Y-64325549D01*
X143494339Y-64325550D01*
X143715232Y-64441768D01*
X143715239Y-64441771D01*
X143719468Y-64443996D01*
X143723984Y-64445555D01*
X143723990Y-64445558D01*
X143850565Y-64489264D01*
X143964451Y-64528590D01*
X144082193Y-64550093D01*
X144215441Y-64574429D01*
X144215445Y-64574429D01*
X144219412Y-64575154D01*
X144302342Y-64579500D01*
X144463903Y-64579500D01*
X144466282Y-64579319D01*
X144466283Y-64579319D01*
X144651664Y-64565218D01*
X144651669Y-64565217D01*
X144656431Y-64564855D01*
X144661084Y-64563776D01*
X144661087Y-64563776D01*
X144904251Y-64507413D01*
X144904250Y-64507413D01*
X144908915Y-64506332D01*
X145149642Y-64410292D01*
X145373072Y-64278944D01*
X145376783Y-64275923D01*
X145376787Y-64275920D01*
X145570351Y-64118334D01*
X145574063Y-64115312D01*
X145577272Y-64111767D01*
X145577277Y-64111762D01*
X145744774Y-63926713D01*
X145747990Y-63923160D01*
X145890851Y-63706910D01*
X145915013Y-63654500D01*
X145997352Y-63475892D01*
X145997353Y-63475889D01*
X145999358Y-63471540D01*
X146059148Y-63263715D01*
X146069694Y-63227058D01*
X146069695Y-63227053D01*
X146071015Y-63222465D01*
X146071809Y-63216316D01*
X146103561Y-62970154D01*
X146104172Y-62965417D01*
X146098065Y-62706311D01*
X146052837Y-62451110D01*
X145969527Y-62205687D01*
X145967326Y-62201451D01*
X145967324Y-62201445D01*
X145886104Y-62045090D01*
X145850053Y-61975689D01*
X145697163Y-61766410D01*
X145571651Y-61640238D01*
X145517752Y-61586055D01*
X145517747Y-61586051D01*
X145514378Y-61582664D01*
X145377888Y-61481851D01*
X145334977Y-61425290D01*
X145329457Y-61354509D01*
X145363081Y-61291979D01*
X145425173Y-61257554D01*
X145452747Y-61254500D01*
X146825131Y-61254500D01*
X146893252Y-61274502D01*
X146914226Y-61291405D01*
X155129726Y-69506905D01*
X155163752Y-69569217D01*
X155158687Y-69640032D01*
X155129726Y-69685095D01*
X143815647Y-80999174D01*
X143810453Y-81004082D01*
X143751067Y-81057086D01*
X143748074Y-81060685D01*
X143677205Y-81145896D01*
X143675784Y-81147575D01*
X143603380Y-81231603D01*
X143603377Y-81231607D01*
X143600332Y-81235141D01*
X143597838Y-81239094D01*
X143596413Y-81241352D01*
X143586731Y-81254678D01*
X143585029Y-81256725D01*
X143582036Y-81260324D01*
X143579613Y-81264317D01*
X143522071Y-81359142D01*
X143520914Y-81361011D01*
X143459275Y-81458704D01*
X143457392Y-81462983D01*
X143457389Y-81462989D01*
X143456322Y-81465414D01*
X143448716Y-81480027D01*
X143444901Y-81486314D01*
X143443094Y-81490622D01*
X143443094Y-81490623D01*
X143400201Y-81592910D01*
X143399333Y-81594930D01*
X143352811Y-81700660D01*
X143351582Y-81705169D01*
X143351580Y-81705174D01*
X143350882Y-81707735D01*
X143345517Y-81723320D01*
X143342677Y-81730091D01*
X143314217Y-81842152D01*
X143313687Y-81844166D01*
X143283281Y-81955694D01*
X143282733Y-81960325D01*
X143282730Y-81960340D01*
X143282417Y-81962987D01*
X143279415Y-81979186D01*
X143277608Y-81986301D01*
X143266027Y-82101304D01*
X143265801Y-82103372D01*
X143252210Y-82218205D01*
X143252353Y-82222876D01*
X143255441Y-82323952D01*
X143255500Y-82327800D01*
X143255500Y-111704522D01*
X143255297Y-111711665D01*
X143251050Y-111786450D01*
X143251050Y-111786457D01*
X143250785Y-111791126D01*
X143254052Y-111826680D01*
X143261350Y-111906113D01*
X143261532Y-111908303D01*
X143269755Y-112018947D01*
X143269757Y-112018961D01*
X143270103Y-112023616D01*
X143271134Y-112028172D01*
X143271134Y-112028173D01*
X143271725Y-112030786D01*
X143274302Y-112047057D01*
X143274973Y-112054360D01*
X143276085Y-112058904D01*
X143302433Y-112166582D01*
X143302937Y-112168722D01*
X143310612Y-112202640D01*
X143328443Y-112281441D01*
X143331103Y-112288283D01*
X143336057Y-112303993D01*
X143337803Y-112311128D01*
X143381555Y-112418073D01*
X143382370Y-112420114D01*
X143424251Y-112527811D01*
X143426565Y-112531860D01*
X143426571Y-112531872D01*
X143427893Y-112534184D01*
X143435116Y-112548993D01*
X143436122Y-112551453D01*
X143436125Y-112551460D01*
X143437896Y-112555788D01*
X143440290Y-112559812D01*
X143496979Y-112655097D01*
X143498085Y-112656994D01*
X143555422Y-112757313D01*
X143559966Y-112763077D01*
X143569298Y-112776655D01*
X143573053Y-112782966D01*
X143576009Y-112786584D01*
X143576016Y-112786594D01*
X143646174Y-112872462D01*
X143647551Y-112874178D01*
X143716178Y-112961232D01*
X143716183Y-112961237D01*
X143719075Y-112964906D01*
X143722477Y-112968106D01*
X143796152Y-113037413D01*
X143798914Y-113040093D01*
X153632595Y-122873774D01*
X153666621Y-122936086D01*
X153669500Y-122962869D01*
X153669500Y-138117258D01*
X153669489Y-138118907D01*
X153669031Y-138153933D01*
X153667840Y-138244879D01*
X153677817Y-138318189D01*
X153678619Y-138325813D01*
X153684103Y-138399616D01*
X153694920Y-138447418D01*
X153696876Y-138458237D01*
X153699980Y-138481042D01*
X153703486Y-138506808D01*
X153724198Y-138577865D01*
X153726115Y-138585282D01*
X153742443Y-138657441D01*
X153760206Y-138703119D01*
X153763738Y-138713524D01*
X153777457Y-138760590D01*
X153797519Y-138804106D01*
X153808435Y-138827785D01*
X153811442Y-138834871D01*
X153836554Y-138899449D01*
X153836558Y-138899457D01*
X153838251Y-138903811D01*
X153840569Y-138907867D01*
X153840573Y-138907875D01*
X153862576Y-138946372D01*
X153867607Y-138956141D01*
X153888127Y-139000652D01*
X153890694Y-139004567D01*
X153928690Y-139062520D01*
X153932711Y-139069082D01*
X153967098Y-139129247D01*
X153969422Y-139133313D01*
X153999781Y-139171824D01*
X154006183Y-139180717D01*
X154033065Y-139221718D01*
X154036177Y-139225205D01*
X154036178Y-139225206D01*
X154082327Y-139276912D01*
X154087273Y-139282807D01*
X154133075Y-139340906D01*
X154136477Y-139344106D01*
X154136484Y-139344114D01*
X154168778Y-139374494D01*
X154176446Y-139382365D01*
X154205968Y-139415441D01*
X154205977Y-139415450D01*
X154209086Y-139418933D01*
X154212680Y-139421922D01*
X154212684Y-139421926D01*
X154265961Y-139466236D01*
X154271725Y-139471336D01*
X154322199Y-139518818D01*
X154322210Y-139518827D01*
X154325615Y-139522030D01*
X154365896Y-139549974D01*
X154374645Y-139556627D01*
X154412324Y-139587964D01*
X154416317Y-139590387D01*
X154475575Y-139626346D01*
X154482028Y-139630537D01*
X154542812Y-139672704D01*
X154586781Y-139694387D01*
X154596400Y-139699665D01*
X154638314Y-139725099D01*
X154642626Y-139726907D01*
X154706550Y-139753713D01*
X154713550Y-139756904D01*
X154775690Y-139787547D01*
X154779894Y-139789620D01*
X154826586Y-139804567D01*
X154836863Y-139808358D01*
X154882091Y-139827323D01*
X154931473Y-139839864D01*
X154953787Y-139845531D01*
X154961185Y-139847652D01*
X155027197Y-139868783D01*
X155027202Y-139868784D01*
X155031653Y-139870209D01*
X155080047Y-139878091D01*
X155090787Y-139880325D01*
X155133764Y-139891240D01*
X155133767Y-139891241D01*
X155138301Y-139892392D01*
X155142957Y-139892861D01*
X155142958Y-139892861D01*
X155211921Y-139899805D01*
X155219525Y-139900805D01*
X155292559Y-139912700D01*
X155329431Y-139913183D01*
X155341563Y-139913342D01*
X155352529Y-139913964D01*
X155353189Y-139914030D01*
X155357856Y-139914500D01*
X155429258Y-139914500D01*
X155430907Y-139914511D01*
X155552202Y-139916099D01*
X155552205Y-139916099D01*
X155556879Y-139916160D01*
X155561513Y-139915529D01*
X155566177Y-139915244D01*
X155566179Y-139915274D01*
X155577609Y-139914500D01*
X160087108Y-139914500D01*
X160089433Y-139914327D01*
X160089439Y-139914327D01*
X160278964Y-139900243D01*
X160278968Y-139900242D01*
X160283616Y-139899897D01*
X160541441Y-139841557D01*
X160545795Y-139839864D01*
X160783458Y-139747442D01*
X160783460Y-139747441D01*
X160787811Y-139745749D01*
X160801667Y-139737830D01*
X160996723Y-139626346D01*
X161017313Y-139614578D01*
X161224906Y-139450925D01*
X161383056Y-139282807D01*
X161402826Y-139261791D01*
X161406030Y-139258385D01*
X161495616Y-139129247D01*
X161554042Y-139045026D01*
X161554045Y-139045021D01*
X161556704Y-139041188D01*
X161558771Y-139036997D01*
X161671555Y-138808294D01*
X161671556Y-138808291D01*
X161673620Y-138804106D01*
X161693530Y-138741909D01*
X161752786Y-138556792D01*
X161754209Y-138552347D01*
X161795362Y-138299656D01*
X161795949Y-138296053D01*
X161795949Y-138296052D01*
X161796700Y-138291441D01*
X161798959Y-138118907D01*
X161800099Y-138031798D01*
X161800099Y-138031795D01*
X161800160Y-138027121D01*
X161764514Y-137765192D01*
X161690543Y-137511410D01*
X161579873Y-137271348D01*
X161548347Y-137223263D01*
X161437501Y-137054195D01*
X161437497Y-137054190D01*
X161434935Y-137050282D01*
X161258914Y-136853067D01*
X161055676Y-136684036D01*
X160829686Y-136546901D01*
X160825377Y-136545094D01*
X160590224Y-136446486D01*
X160590219Y-136446484D01*
X160585909Y-136444677D01*
X160581377Y-136443526D01*
X160581374Y-136443525D01*
X160453879Y-136411146D01*
X160329699Y-136379608D01*
X160110144Y-136357500D01*
X157352500Y-136357500D01*
X157284379Y-136337498D01*
X157237886Y-136283842D01*
X157226500Y-136231500D01*
X157226500Y-134646583D01*
X164027828Y-134646583D01*
X164033935Y-134905689D01*
X164079163Y-135160890D01*
X164162473Y-135406313D01*
X164164674Y-135410549D01*
X164164676Y-135410555D01*
X164222210Y-135521312D01*
X164281947Y-135636311D01*
X164434837Y-135845590D01*
X164438209Y-135848980D01*
X164438211Y-135848982D01*
X164614248Y-136025945D01*
X164614253Y-136025949D01*
X164617622Y-136029336D01*
X164826099Y-136183319D01*
X164830337Y-136185549D01*
X164830339Y-136185550D01*
X165051232Y-136301768D01*
X165051239Y-136301771D01*
X165055468Y-136303996D01*
X165059984Y-136305555D01*
X165059990Y-136305558D01*
X165152489Y-136337498D01*
X165300451Y-136388590D01*
X165418193Y-136410093D01*
X165551441Y-136434429D01*
X165551445Y-136434429D01*
X165555412Y-136435154D01*
X165638342Y-136439500D01*
X165799903Y-136439500D01*
X165802282Y-136439319D01*
X165802283Y-136439319D01*
X165987664Y-136425218D01*
X165987669Y-136425217D01*
X165992431Y-136424855D01*
X165997084Y-136423776D01*
X165997087Y-136423776D01*
X166240251Y-136367413D01*
X166240250Y-136367413D01*
X166244915Y-136366332D01*
X166485642Y-136270292D01*
X166709072Y-136138944D01*
X166712783Y-136135923D01*
X166712787Y-136135920D01*
X166906351Y-135978334D01*
X166910063Y-135975312D01*
X166913272Y-135971767D01*
X166913277Y-135971762D01*
X167080774Y-135786713D01*
X167083990Y-135783160D01*
X167226851Y-135566910D01*
X167300888Y-135406313D01*
X167333352Y-135335892D01*
X167333353Y-135335889D01*
X167335358Y-135331540D01*
X167407015Y-135082465D01*
X167440172Y-134825417D01*
X167435957Y-134646583D01*
X185363828Y-134646583D01*
X185369935Y-134905689D01*
X185415163Y-135160890D01*
X185498473Y-135406313D01*
X185500674Y-135410549D01*
X185500676Y-135410555D01*
X185558210Y-135521312D01*
X185617947Y-135636311D01*
X185770837Y-135845590D01*
X185774209Y-135848980D01*
X185774211Y-135848982D01*
X185950248Y-136025945D01*
X185950253Y-136025949D01*
X185953622Y-136029336D01*
X186162099Y-136183319D01*
X186166337Y-136185549D01*
X186166339Y-136185550D01*
X186387232Y-136301768D01*
X186387239Y-136301771D01*
X186391468Y-136303996D01*
X186395984Y-136305555D01*
X186395990Y-136305558D01*
X186488489Y-136337498D01*
X186636451Y-136388590D01*
X186754193Y-136410093D01*
X186887441Y-136434429D01*
X186887445Y-136434429D01*
X186891412Y-136435154D01*
X186974342Y-136439500D01*
X187135903Y-136439500D01*
X187138282Y-136439319D01*
X187138283Y-136439319D01*
X187323664Y-136425218D01*
X187323669Y-136425217D01*
X187328431Y-136424855D01*
X187333084Y-136423776D01*
X187333087Y-136423776D01*
X187576251Y-136367413D01*
X187576250Y-136367413D01*
X187580915Y-136366332D01*
X187821642Y-136270292D01*
X188045072Y-136138944D01*
X188048783Y-136135923D01*
X188048787Y-136135920D01*
X188242351Y-135978334D01*
X188246063Y-135975312D01*
X188249272Y-135971767D01*
X188249277Y-135971762D01*
X188416774Y-135786713D01*
X188419990Y-135783160D01*
X188562851Y-135566910D01*
X188636888Y-135406313D01*
X188669352Y-135335892D01*
X188669353Y-135335889D01*
X188671358Y-135331540D01*
X188743015Y-135082465D01*
X188776172Y-134825417D01*
X188770065Y-134566311D01*
X188755331Y-134483171D01*
X188725671Y-134315814D01*
X188725670Y-134315810D01*
X188724837Y-134311110D01*
X188641527Y-134065687D01*
X188639326Y-134061451D01*
X188639324Y-134061445D01*
X188558104Y-133905090D01*
X188522053Y-133835689D01*
X188406213Y-133677124D01*
X188371986Y-133630274D01*
X188371985Y-133630273D01*
X188369163Y-133626410D01*
X188365789Y-133623018D01*
X188189752Y-133446055D01*
X188189747Y-133446051D01*
X188186378Y-133442664D01*
X188146176Y-133412970D01*
X187981754Y-133291527D01*
X187977901Y-133288681D01*
X187973661Y-133286450D01*
X187752768Y-133170232D01*
X187752761Y-133170229D01*
X187748532Y-133168004D01*
X187744016Y-133166445D01*
X187744010Y-133166442D01*
X187573148Y-133107443D01*
X187503549Y-133083410D01*
X187313276Y-133048660D01*
X187252559Y-133037571D01*
X187252555Y-133037571D01*
X187248588Y-133036846D01*
X187165658Y-133032500D01*
X187004097Y-133032500D01*
X187001718Y-133032681D01*
X187001717Y-133032681D01*
X186816336Y-133046782D01*
X186816331Y-133046783D01*
X186811569Y-133047145D01*
X186806916Y-133048224D01*
X186806913Y-133048224D01*
X186658822Y-133082550D01*
X186559085Y-133105668D01*
X186318358Y-133201708D01*
X186094928Y-133333056D01*
X186091217Y-133336077D01*
X186091213Y-133336080D01*
X185991112Y-133417575D01*
X185893937Y-133496688D01*
X185890728Y-133500233D01*
X185890723Y-133500238D01*
X185773021Y-133630274D01*
X185720010Y-133688840D01*
X185577149Y-133905090D01*
X185575148Y-133909430D01*
X185575146Y-133909434D01*
X185470648Y-134136108D01*
X185468642Y-134140460D01*
X185467318Y-134145062D01*
X185404464Y-134363540D01*
X185396985Y-134389535D01*
X185396374Y-134394270D01*
X185396373Y-134394276D01*
X185374789Y-134561606D01*
X185363828Y-134646583D01*
X167435957Y-134646583D01*
X167434065Y-134566311D01*
X167419331Y-134483171D01*
X167389671Y-134315814D01*
X167389670Y-134315810D01*
X167388837Y-134311110D01*
X167305527Y-134065687D01*
X167303326Y-134061451D01*
X167303324Y-134061445D01*
X167222104Y-133905090D01*
X167186053Y-133835689D01*
X167070213Y-133677124D01*
X167035986Y-133630274D01*
X167035985Y-133630273D01*
X167033163Y-133626410D01*
X167029789Y-133623018D01*
X166853752Y-133446055D01*
X166853747Y-133446051D01*
X166850378Y-133442664D01*
X166810176Y-133412970D01*
X166645754Y-133291527D01*
X166641901Y-133288681D01*
X166637661Y-133286450D01*
X166416768Y-133170232D01*
X166416761Y-133170229D01*
X166412532Y-133168004D01*
X166408016Y-133166445D01*
X166408010Y-133166442D01*
X166237148Y-133107443D01*
X166167549Y-133083410D01*
X165977276Y-133048660D01*
X165916559Y-133037571D01*
X165916555Y-133037571D01*
X165912588Y-133036846D01*
X165829658Y-133032500D01*
X165668097Y-133032500D01*
X165665718Y-133032681D01*
X165665717Y-133032681D01*
X165480336Y-133046782D01*
X165480331Y-133046783D01*
X165475569Y-133047145D01*
X165470916Y-133048224D01*
X165470913Y-133048224D01*
X165322822Y-133082550D01*
X165223085Y-133105668D01*
X164982358Y-133201708D01*
X164758928Y-133333056D01*
X164755217Y-133336077D01*
X164755213Y-133336080D01*
X164655112Y-133417575D01*
X164557937Y-133496688D01*
X164554728Y-133500233D01*
X164554723Y-133500238D01*
X164437021Y-133630274D01*
X164384010Y-133688840D01*
X164241149Y-133905090D01*
X164239148Y-133909430D01*
X164239146Y-133909434D01*
X164134648Y-134136108D01*
X164132642Y-134140460D01*
X164131318Y-134145062D01*
X164068464Y-134363540D01*
X164060985Y-134389535D01*
X164060374Y-134394270D01*
X164060373Y-134394276D01*
X164038789Y-134561606D01*
X164027828Y-134646583D01*
X157226500Y-134646583D01*
X157226500Y-126452880D01*
X168831992Y-126452880D01*
X168832355Y-126457028D01*
X168832355Y-126457032D01*
X168857487Y-126744293D01*
X168857488Y-126744301D01*
X168857852Y-126748459D01*
X168922577Y-127038021D01*
X168924019Y-127041941D01*
X168924021Y-127041947D01*
X168994619Y-127233827D01*
X169025029Y-127316480D01*
X169163410Y-127578942D01*
X169335288Y-127820797D01*
X169537642Y-128037796D01*
X169766918Y-128226125D01*
X170019088Y-128382477D01*
X170289722Y-128504105D01*
X170462390Y-128555580D01*
X170570065Y-128587679D01*
X170570067Y-128587679D01*
X170574064Y-128588871D01*
X170578184Y-128589524D01*
X170578186Y-128589524D01*
X170697106Y-128608359D01*
X170867119Y-128635286D01*
X170912146Y-128637331D01*
X170958497Y-128639436D01*
X170958516Y-128639436D01*
X170959916Y-128639500D01*
X171145264Y-128639500D01*
X171366056Y-128624835D01*
X171656910Y-128566188D01*
X171937453Y-128469590D01*
X171941196Y-128467716D01*
X171941200Y-128467714D01*
X172199012Y-128338611D01*
X172199014Y-128338610D01*
X172202756Y-128336736D01*
X172448158Y-128169961D01*
X172669346Y-127972196D01*
X172862436Y-127746914D01*
X172864711Y-127743411D01*
X173021763Y-127501572D01*
X173021765Y-127501569D01*
X173024035Y-127498073D01*
X173151304Y-127230046D01*
X173211696Y-127041947D01*
X173240726Y-126951530D01*
X173240727Y-126951524D01*
X173242006Y-126947542D01*
X173277091Y-126752548D01*
X173293809Y-126659632D01*
X173293810Y-126659627D01*
X173294548Y-126655523D01*
X173303751Y-126452880D01*
X173307819Y-126363290D01*
X173307819Y-126363285D01*
X173308008Y-126359120D01*
X173307645Y-126354968D01*
X173282513Y-126067707D01*
X173282512Y-126067699D01*
X173282148Y-126063541D01*
X173217423Y-125773979D01*
X173146773Y-125581954D01*
X173116418Y-125499452D01*
X173116416Y-125499448D01*
X173114971Y-125495520D01*
X172976590Y-125233058D01*
X172804712Y-124991203D01*
X172602358Y-124774204D01*
X172373082Y-124585875D01*
X172120912Y-124429523D01*
X171850278Y-124307895D01*
X171677610Y-124256420D01*
X171569935Y-124224321D01*
X171569933Y-124224321D01*
X171565936Y-124223129D01*
X171561816Y-124222476D01*
X171561814Y-124222476D01*
X171442894Y-124203641D01*
X171272881Y-124176714D01*
X171227854Y-124174669D01*
X171181503Y-124172564D01*
X171181484Y-124172564D01*
X171180084Y-124172500D01*
X170994736Y-124172500D01*
X170773944Y-124187165D01*
X170483090Y-124245812D01*
X170202547Y-124342410D01*
X170198804Y-124344284D01*
X170198800Y-124344286D01*
X170024179Y-124431730D01*
X169937244Y-124475264D01*
X169691842Y-124642039D01*
X169470654Y-124839804D01*
X169277564Y-125065086D01*
X169275290Y-125068588D01*
X169275289Y-125068589D01*
X169170698Y-125229646D01*
X169115965Y-125313927D01*
X168988696Y-125581954D01*
X168987417Y-125585937D01*
X168987416Y-125585940D01*
X168927044Y-125773979D01*
X168897994Y-125864458D01*
X168897253Y-125868577D01*
X168862174Y-126063541D01*
X168845452Y-126156477D01*
X168845263Y-126160644D01*
X168845262Y-126160651D01*
X168836060Y-126363290D01*
X168831992Y-126452880D01*
X157226500Y-126452880D01*
X157226500Y-122229478D01*
X157226703Y-122222335D01*
X157230950Y-122147550D01*
X157230950Y-122147543D01*
X157231215Y-122142874D01*
X157227720Y-122104839D01*
X157220650Y-122027887D01*
X157220468Y-122025697D01*
X157212245Y-121915053D01*
X157212243Y-121915039D01*
X157211897Y-121910384D01*
X157210275Y-121903214D01*
X157207698Y-121886942D01*
X157207455Y-121884297D01*
X157207027Y-121879640D01*
X157179567Y-121767418D01*
X157179063Y-121765278D01*
X157154588Y-121657116D01*
X157153557Y-121652559D01*
X157150897Y-121645717D01*
X157145943Y-121630007D01*
X157144197Y-121622872D01*
X157100444Y-121515925D01*
X157099630Y-121513885D01*
X157059442Y-121410543D01*
X157057749Y-121406189D01*
X157055435Y-121402140D01*
X157055429Y-121402128D01*
X157054107Y-121399816D01*
X157046884Y-121385007D01*
X157045878Y-121382547D01*
X157045875Y-121382540D01*
X157044104Y-121378212D01*
X156985020Y-121278901D01*
X156983913Y-121277003D01*
X156928902Y-121180753D01*
X156928901Y-121180752D01*
X156926578Y-121176687D01*
X156922033Y-121170922D01*
X156912701Y-121157344D01*
X156911338Y-121155053D01*
X156908947Y-121151034D01*
X156905991Y-121147416D01*
X156905984Y-121147406D01*
X156835826Y-121061538D01*
X156834449Y-121059822D01*
X156765822Y-120972768D01*
X156765817Y-120972763D01*
X156762925Y-120969094D01*
X156685848Y-120896587D01*
X156683086Y-120893907D01*
X146849405Y-111060226D01*
X146815379Y-110997914D01*
X146812500Y-110971131D01*
X146812500Y-83084869D01*
X146832502Y-83016748D01*
X146849405Y-82995774D01*
X157644905Y-72200274D01*
X157707217Y-72166248D01*
X157778032Y-72171313D01*
X157823095Y-72200274D01*
X170097174Y-84474353D01*
X170102082Y-84479547D01*
X170155086Y-84538933D01*
X170243978Y-84612863D01*
X170245477Y-84614132D01*
X170333141Y-84689669D01*
X170339368Y-84693598D01*
X170352674Y-84703266D01*
X170358324Y-84707964D01*
X170362319Y-84710388D01*
X170362327Y-84710394D01*
X170457100Y-84767905D01*
X170458968Y-84769061D01*
X170552745Y-84828229D01*
X170552754Y-84828234D01*
X170556704Y-84830726D01*
X170560982Y-84832609D01*
X170560989Y-84832612D01*
X170563427Y-84833685D01*
X170578036Y-84841289D01*
X170584314Y-84845099D01*
X170588622Y-84846905D01*
X170588621Y-84846905D01*
X170690889Y-84889790D01*
X170692909Y-84890658D01*
X170736338Y-84909767D01*
X170798660Y-84937189D01*
X170803169Y-84938418D01*
X170803174Y-84938420D01*
X170805735Y-84939118D01*
X170821320Y-84944483D01*
X170828091Y-84947323D01*
X170832619Y-84948473D01*
X170940088Y-84975767D01*
X170942207Y-84976325D01*
X171053695Y-85006720D01*
X171060995Y-85007584D01*
X171077186Y-85010585D01*
X171084301Y-85012392D01*
X171131976Y-85017192D01*
X171199215Y-85023963D01*
X171201402Y-85024202D01*
X171244950Y-85029356D01*
X171316205Y-85037790D01*
X171421965Y-85034559D01*
X171425814Y-85034500D01*
X178758000Y-85034500D01*
X178826121Y-85054502D01*
X178872614Y-85108158D01*
X178884000Y-85160500D01*
X178884000Y-91636000D01*
X178863998Y-91704121D01*
X178810342Y-91750614D01*
X178758000Y-91762000D01*
X161557876Y-91762000D01*
X161538926Y-91760567D01*
X161524527Y-91758376D01*
X161524521Y-91758376D01*
X161517292Y-91757276D01*
X161510000Y-91757869D01*
X161509997Y-91757869D01*
X161464317Y-91761585D01*
X161454102Y-91762000D01*
X161445975Y-91762000D01*
X161442339Y-91762424D01*
X161442337Y-91762424D01*
X161438885Y-91762827D01*
X161417576Y-91765311D01*
X161413256Y-91765738D01*
X161340074Y-91771691D01*
X161333112Y-91773947D01*
X161327124Y-91775143D01*
X161321167Y-91776551D01*
X161313893Y-91777399D01*
X161307011Y-91779897D01*
X161307007Y-91779898D01*
X161244893Y-91802445D01*
X161240789Y-91803855D01*
X161170925Y-91826487D01*
X161164662Y-91830287D01*
X161159120Y-91832825D01*
X161153644Y-91835567D01*
X161146759Y-91838066D01*
X161140635Y-91842081D01*
X161085368Y-91878315D01*
X161081700Y-91880630D01*
X161018919Y-91918727D01*
X161014714Y-91922441D01*
X161014711Y-91922443D01*
X161010495Y-91926167D01*
X161010469Y-91926138D01*
X161007538Y-91928738D01*
X161004184Y-91931542D01*
X160998065Y-91935554D01*
X160993033Y-91940866D01*
X160944512Y-91992086D01*
X160942134Y-91994528D01*
X160126567Y-92810095D01*
X160064255Y-92844121D01*
X160037472Y-92847000D01*
X159646600Y-92847000D01*
X159643354Y-92847337D01*
X159643350Y-92847337D01*
X159547692Y-92857262D01*
X159547688Y-92857263D01*
X159540834Y-92857974D01*
X159534298Y-92860155D01*
X159534296Y-92860155D01*
X159402194Y-92904228D01*
X159373054Y-92913950D01*
X159222652Y-93007022D01*
X159097695Y-93132197D01*
X159004885Y-93282762D01*
X158985898Y-93340006D01*
X158951435Y-93443911D01*
X158949203Y-93450639D01*
X158938500Y-93555100D01*
X158938500Y-94180900D01*
X158949474Y-94286666D01*
X158951655Y-94293202D01*
X158951655Y-94293204D01*
X158973940Y-94360000D01*
X159005450Y-94454446D01*
X159098522Y-94604848D01*
X159144134Y-94650380D01*
X159185109Y-94691284D01*
X159219188Y-94753566D01*
X159214185Y-94824386D01*
X159185264Y-94869475D01*
X159165276Y-94889498D01*
X159097695Y-94957197D01*
X159093855Y-94963427D01*
X159093854Y-94963428D01*
X159022415Y-95079324D01*
X159004885Y-95107762D01*
X158998719Y-95126352D01*
X158951612Y-95268377D01*
X158949203Y-95275639D01*
X158948503Y-95282475D01*
X158948502Y-95282478D01*
X158947360Y-95293628D01*
X158938500Y-95380100D01*
X158938500Y-96005900D01*
X158938837Y-96009146D01*
X158938837Y-96009150D01*
X158947160Y-96089361D01*
X158949474Y-96111666D01*
X159005450Y-96279446D01*
X159038900Y-96333500D01*
X159056046Y-96361208D01*
X159074884Y-96429660D01*
X159053723Y-96497430D01*
X158999282Y-96543001D01*
X158928846Y-96551905D01*
X158909235Y-96547104D01*
X158780389Y-96504368D01*
X158780387Y-96504368D01*
X158773861Y-96502203D01*
X158767025Y-96501503D01*
X158767022Y-96501502D01*
X158716365Y-96496312D01*
X158669400Y-96491500D01*
X158068600Y-96491500D01*
X158065354Y-96491837D01*
X158065350Y-96491837D01*
X157969692Y-96501762D01*
X157969688Y-96501763D01*
X157962834Y-96502474D01*
X157956298Y-96504655D01*
X157956296Y-96504655D01*
X157829062Y-96547104D01*
X157795054Y-96558450D01*
X157644652Y-96651522D01*
X157519695Y-96776697D01*
X157515855Y-96782927D01*
X157515854Y-96782928D01*
X157440280Y-96905532D01*
X157426885Y-96927262D01*
X157424581Y-96934209D01*
X157374076Y-97086478D01*
X157371203Y-97095139D01*
X157360500Y-97199600D01*
X157360500Y-98250400D01*
X157360837Y-98253646D01*
X157360837Y-98253650D01*
X157370508Y-98346852D01*
X157371474Y-98356166D01*
X157373655Y-98362702D01*
X157373655Y-98362704D01*
X157382808Y-98390139D01*
X157427450Y-98523946D01*
X157520522Y-98674348D01*
X157525704Y-98679521D01*
X157569518Y-98723259D01*
X157603597Y-98785542D01*
X157606500Y-98812432D01*
X157606500Y-99756124D01*
X157605067Y-99775074D01*
X157602876Y-99789473D01*
X157602876Y-99789479D01*
X157601776Y-99796708D01*
X157602369Y-99804000D01*
X157602369Y-99804003D01*
X157606085Y-99849683D01*
X157606500Y-99859898D01*
X157606500Y-99868025D01*
X157609811Y-99896424D01*
X157610238Y-99900744D01*
X157616191Y-99973926D01*
X157618447Y-99980888D01*
X157619643Y-99986876D01*
X157621051Y-99992833D01*
X157621899Y-100000107D01*
X157624397Y-100006989D01*
X157624398Y-100006993D01*
X157646945Y-100069107D01*
X157648355Y-100073211D01*
X157670987Y-100143075D01*
X157674787Y-100149338D01*
X157677325Y-100154880D01*
X157680067Y-100160356D01*
X157682566Y-100167241D01*
X157686581Y-100173365D01*
X157722815Y-100228632D01*
X157725130Y-100232300D01*
X157763227Y-100295081D01*
X157766941Y-100299286D01*
X157766943Y-100299289D01*
X157770667Y-100303505D01*
X157770638Y-100303530D01*
X157773238Y-100306461D01*
X157776039Y-100309811D01*
X157780054Y-100315935D01*
X157782945Y-100318674D01*
X157810748Y-100382505D01*
X157799408Y-100452590D01*
X157774829Y-100487333D01*
X157572857Y-100689305D01*
X157558444Y-100701692D01*
X157540821Y-100714661D01*
X157536077Y-100720244D01*
X157536078Y-100720244D01*
X157506406Y-100755170D01*
X157499476Y-100762686D01*
X157493732Y-100768430D01*
X157491458Y-100771304D01*
X157491452Y-100771311D01*
X157476013Y-100790826D01*
X157473222Y-100794230D01*
X157430440Y-100844587D01*
X157430437Y-100844591D01*
X157425701Y-100850166D01*
X157422373Y-100856683D01*
X157418996Y-100861747D01*
X157415769Y-100866971D01*
X157411225Y-100872715D01*
X157408126Y-100879346D01*
X157380153Y-100939197D01*
X157378222Y-100943148D01*
X157361236Y-100976413D01*
X157344842Y-101008519D01*
X157343101Y-101015634D01*
X157340964Y-101021380D01*
X157339040Y-101027163D01*
X157335941Y-101033794D01*
X157322899Y-101096500D01*
X157320993Y-101105662D01*
X157320024Y-101109944D01*
X157302581Y-101181227D01*
X157301885Y-101192445D01*
X157301846Y-101192443D01*
X157301613Y-101196344D01*
X157301224Y-101200703D01*
X157299733Y-101207871D01*
X157299931Y-101215188D01*
X157301839Y-101285692D01*
X157301885Y-101289101D01*
X157301885Y-104256314D01*
X157285004Y-104319313D01*
X157229858Y-104414829D01*
X157170843Y-104596457D01*
X157170153Y-104603018D01*
X157170153Y-104603020D01*
X157161199Y-104688218D01*
X157150881Y-104786385D01*
X157170843Y-104976313D01*
X157229858Y-105157941D01*
X157325345Y-105323329D01*
X157329763Y-105328236D01*
X157329764Y-105328237D01*
X157409085Y-105416332D01*
X157439803Y-105480339D01*
X157431038Y-105550793D01*
X157414603Y-105578389D01*
X157390394Y-105609263D01*
X157390392Y-105609266D01*
X157385708Y-105615240D01*
X157382582Y-105622164D01*
X157380744Y-105625199D01*
X157373500Y-105637898D01*
X157371812Y-105641046D01*
X157367444Y-105647261D01*
X157364684Y-105654340D01*
X157344567Y-105705939D01*
X157342022Y-105711995D01*
X157316087Y-105769435D01*
X157314702Y-105776908D01*
X157313631Y-105780326D01*
X157309646Y-105794315D01*
X157308749Y-105797807D01*
X157305988Y-105804889D01*
X157304996Y-105812422D01*
X157304996Y-105812423D01*
X157297767Y-105867330D01*
X157296735Y-105873843D01*
X157286639Y-105928318D01*
X157285255Y-105935787D01*
X157285692Y-105943367D01*
X157285692Y-105943368D01*
X157288791Y-105997112D01*
X157289000Y-106004365D01*
X157289000Y-107233230D01*
X157271453Y-107297369D01*
X157232893Y-107362571D01*
X157228855Y-107369399D01*
X157182438Y-107529169D01*
X157179500Y-107566498D01*
X157179500Y-109349502D01*
X157182438Y-109386831D01*
X157228855Y-109546601D01*
X157298500Y-109664363D01*
X157315958Y-109733177D01*
X157293441Y-109800508D01*
X157238097Y-109844978D01*
X157190045Y-109854500D01*
X155394684Y-109854500D01*
X155238721Y-109868831D01*
X155233159Y-109870400D01*
X155233157Y-109870400D01*
X155220226Y-109874047D01*
X155036451Y-109925877D01*
X154847963Y-110018829D01*
X154843337Y-110022283D01*
X154843336Y-110022284D01*
X154790925Y-110061421D01*
X154679571Y-110144573D01*
X154675657Y-110148807D01*
X154675655Y-110148809D01*
X154574145Y-110258623D01*
X154536914Y-110298899D01*
X154424769Y-110476638D01*
X154346892Y-110671837D01*
X154345767Y-110677494D01*
X154345765Y-110677500D01*
X154307019Y-110872293D01*
X154305892Y-110877960D01*
X154303141Y-111088102D01*
X154338732Y-111295228D01*
X154411472Y-111492399D01*
X154414424Y-111497360D01*
X154414424Y-111497361D01*
X154502731Y-111645790D01*
X154518926Y-111673012D01*
X154657494Y-111831019D01*
X154681963Y-111850309D01*
X154779340Y-111927074D01*
X154822537Y-111961128D01*
X154827653Y-111963819D01*
X154827655Y-111963821D01*
X154999742Y-112054360D01*
X155008527Y-112058982D01*
X155209234Y-112121304D01*
X155214969Y-112121983D01*
X155214970Y-112121983D01*
X155252620Y-112126439D01*
X155379874Y-112141500D01*
X157115105Y-112141500D01*
X157183226Y-112161502D01*
X157229719Y-112215158D01*
X157239823Y-112285432D01*
X157231464Y-112314988D01*
X157228855Y-112319399D01*
X157182438Y-112479169D01*
X157179500Y-112516498D01*
X157179500Y-112548606D01*
X157159498Y-112616727D01*
X157146025Y-112634135D01*
X157124892Y-112656997D01*
X157076914Y-112708899D01*
X156964769Y-112886638D01*
X156886892Y-113081837D01*
X156885767Y-113087494D01*
X156885765Y-113087500D01*
X156880003Y-113116469D01*
X156845892Y-113287960D01*
X156845816Y-113293735D01*
X156845816Y-113293739D01*
X156845500Y-113317898D01*
X156843141Y-113498102D01*
X156878732Y-113705228D01*
X156951472Y-113902399D01*
X156954424Y-113907360D01*
X156954424Y-113907361D01*
X156976178Y-113943925D01*
X157058926Y-114083012D01*
X157148233Y-114184848D01*
X157178109Y-114249250D01*
X157179500Y-114267923D01*
X157179500Y-114299502D01*
X157182438Y-114336831D01*
X157228855Y-114496601D01*
X157232892Y-114503427D01*
X157309509Y-114632980D01*
X157309511Y-114632983D01*
X157313547Y-114639807D01*
X157431193Y-114757453D01*
X157438017Y-114761489D01*
X157438020Y-114761491D01*
X157545589Y-114825107D01*
X157574399Y-114842145D01*
X157582010Y-114844356D01*
X157582012Y-114844357D01*
X157634231Y-114859528D01*
X157734169Y-114888562D01*
X157740574Y-114889066D01*
X157740579Y-114889067D01*
X157769042Y-114891307D01*
X157769050Y-114891307D01*
X157771498Y-114891500D01*
X158204502Y-114891500D01*
X158206950Y-114891307D01*
X158206958Y-114891307D01*
X158235421Y-114889067D01*
X158235426Y-114889066D01*
X158241831Y-114888562D01*
X158341769Y-114859528D01*
X158393988Y-114844357D01*
X158393990Y-114844356D01*
X158401601Y-114842145D01*
X158544807Y-114757453D01*
X158547489Y-114754771D01*
X158611861Y-114729498D01*
X158681484Y-114743400D01*
X158697312Y-114753572D01*
X158701193Y-114757453D01*
X158844399Y-114842145D01*
X158852010Y-114844356D01*
X158852012Y-114844357D01*
X158904231Y-114859528D01*
X159004169Y-114888562D01*
X159010574Y-114889066D01*
X159010579Y-114889067D01*
X159039042Y-114891307D01*
X159039050Y-114891307D01*
X159041498Y-114891500D01*
X159474502Y-114891500D01*
X159476950Y-114891307D01*
X159476958Y-114891307D01*
X159505421Y-114889067D01*
X159505426Y-114889066D01*
X159511831Y-114888562D01*
X159611769Y-114859528D01*
X159663988Y-114844357D01*
X159663990Y-114844356D01*
X159671601Y-114842145D01*
X159814807Y-114757453D01*
X159817489Y-114754771D01*
X159881861Y-114729498D01*
X159951484Y-114743400D01*
X159967312Y-114753572D01*
X159971193Y-114757453D01*
X160114399Y-114842145D01*
X160122010Y-114844356D01*
X160122012Y-114844357D01*
X160174231Y-114859528D01*
X160274169Y-114888562D01*
X160280574Y-114889066D01*
X160280579Y-114889067D01*
X160309042Y-114891307D01*
X160309050Y-114891307D01*
X160311498Y-114891500D01*
X160744502Y-114891500D01*
X160746950Y-114891307D01*
X160746958Y-114891307D01*
X160775421Y-114889067D01*
X160775426Y-114889066D01*
X160781831Y-114888562D01*
X160881769Y-114859528D01*
X160933988Y-114844357D01*
X160933990Y-114844356D01*
X160941601Y-114842145D01*
X161084807Y-114757453D01*
X161087489Y-114754771D01*
X161151861Y-114729498D01*
X161221484Y-114743400D01*
X161237312Y-114753572D01*
X161241193Y-114757453D01*
X161384399Y-114842145D01*
X161392010Y-114844356D01*
X161392012Y-114844357D01*
X161444231Y-114859528D01*
X161544169Y-114888562D01*
X161550574Y-114889066D01*
X161550579Y-114889067D01*
X161579042Y-114891307D01*
X161579050Y-114891307D01*
X161581498Y-114891500D01*
X162014502Y-114891500D01*
X162016950Y-114891307D01*
X162016958Y-114891307D01*
X162045421Y-114889067D01*
X162045426Y-114889066D01*
X162051831Y-114888562D01*
X162151769Y-114859528D01*
X162203988Y-114844357D01*
X162203990Y-114844356D01*
X162211601Y-114842145D01*
X162240411Y-114825107D01*
X162347980Y-114761491D01*
X162347983Y-114761489D01*
X162354807Y-114757453D01*
X162472453Y-114639807D01*
X162488094Y-114613360D01*
X162539987Y-114564908D01*
X162596547Y-114551500D01*
X164047453Y-114551500D01*
X164115574Y-114571502D01*
X164155906Y-114613360D01*
X164171547Y-114639807D01*
X164289193Y-114757453D01*
X164296017Y-114761489D01*
X164296020Y-114761491D01*
X164403589Y-114825107D01*
X164432399Y-114842145D01*
X164440010Y-114844356D01*
X164440012Y-114844357D01*
X164492231Y-114859528D01*
X164592169Y-114888562D01*
X164598574Y-114889066D01*
X164598579Y-114889067D01*
X164627042Y-114891307D01*
X164627050Y-114891307D01*
X164629498Y-114891500D01*
X165062502Y-114891500D01*
X165064950Y-114891307D01*
X165064958Y-114891307D01*
X165093421Y-114889067D01*
X165093426Y-114889066D01*
X165099831Y-114888562D01*
X165199769Y-114859528D01*
X165251988Y-114844357D01*
X165251990Y-114844356D01*
X165259601Y-114842145D01*
X165402807Y-114757453D01*
X165405489Y-114754771D01*
X165469861Y-114729498D01*
X165539484Y-114743400D01*
X165555312Y-114753572D01*
X165559193Y-114757453D01*
X165702399Y-114842145D01*
X165710010Y-114844356D01*
X165710012Y-114844357D01*
X165762231Y-114859528D01*
X165862169Y-114888562D01*
X165868574Y-114889066D01*
X165868579Y-114889067D01*
X165897042Y-114891307D01*
X165897050Y-114891307D01*
X165899498Y-114891500D01*
X166332502Y-114891500D01*
X166334950Y-114891307D01*
X166334958Y-114891307D01*
X166363421Y-114889067D01*
X166363426Y-114889066D01*
X166369831Y-114888562D01*
X166469769Y-114859528D01*
X166521988Y-114844357D01*
X166521990Y-114844356D01*
X166529601Y-114842145D01*
X166672807Y-114757453D01*
X166675489Y-114754771D01*
X166739861Y-114729498D01*
X166809484Y-114743400D01*
X166825312Y-114753572D01*
X166829193Y-114757453D01*
X166972399Y-114842145D01*
X166980010Y-114844356D01*
X166980012Y-114844357D01*
X167032231Y-114859528D01*
X167132169Y-114888562D01*
X167138574Y-114889066D01*
X167138579Y-114889067D01*
X167167042Y-114891307D01*
X167167050Y-114891307D01*
X167169498Y-114891500D01*
X167602502Y-114891500D01*
X167604950Y-114891307D01*
X167604958Y-114891307D01*
X167633421Y-114889067D01*
X167633426Y-114889066D01*
X167639831Y-114888562D01*
X167739769Y-114859528D01*
X167791988Y-114844357D01*
X167791990Y-114844356D01*
X167799601Y-114842145D01*
X167942807Y-114757453D01*
X167945489Y-114754771D01*
X168009861Y-114729498D01*
X168079484Y-114743400D01*
X168095312Y-114753572D01*
X168099193Y-114757453D01*
X168242399Y-114842145D01*
X168250010Y-114844356D01*
X168250012Y-114844357D01*
X168302231Y-114859528D01*
X168402169Y-114888562D01*
X168408574Y-114889066D01*
X168408579Y-114889067D01*
X168437042Y-114891307D01*
X168437050Y-114891307D01*
X168439498Y-114891500D01*
X168872502Y-114891500D01*
X168874950Y-114891307D01*
X168874958Y-114891307D01*
X168903421Y-114889067D01*
X168903426Y-114889066D01*
X168909831Y-114888562D01*
X169009769Y-114859528D01*
X169061988Y-114844357D01*
X169061990Y-114844356D01*
X169069601Y-114842145D01*
X169098411Y-114825107D01*
X169205980Y-114761491D01*
X169205983Y-114761489D01*
X169212807Y-114757453D01*
X169330453Y-114639807D01*
X169334489Y-114632983D01*
X169334491Y-114632980D01*
X169411108Y-114503427D01*
X169415145Y-114496601D01*
X169461562Y-114336831D01*
X169464500Y-114299502D01*
X169464500Y-114267394D01*
X169484502Y-114199273D01*
X169497975Y-114181865D01*
X169563167Y-114111341D01*
X169563169Y-114111338D01*
X169567086Y-114107101D01*
X169679231Y-113929362D01*
X169757108Y-113734163D01*
X169758233Y-113728506D01*
X169758235Y-113728500D01*
X169796981Y-113533707D01*
X169796981Y-113533705D01*
X169798108Y-113528040D01*
X169798426Y-113503800D01*
X169800783Y-113323680D01*
X169800859Y-113317898D01*
X169765268Y-113110772D01*
X169692528Y-112913601D01*
X169585074Y-112732988D01*
X169495767Y-112631152D01*
X169465891Y-112566750D01*
X169464500Y-112548077D01*
X169464500Y-112516498D01*
X169461562Y-112479169D01*
X169415145Y-112319399D01*
X169346094Y-112202640D01*
X169334491Y-112183020D01*
X169334489Y-112183017D01*
X169330453Y-112176193D01*
X169256855Y-112102595D01*
X169222829Y-112040283D01*
X169227894Y-111969468D01*
X169270441Y-111912632D01*
X169336961Y-111887821D01*
X169345950Y-111887500D01*
X178482075Y-111887500D01*
X178501786Y-111889051D01*
X178508673Y-111890142D01*
X178508675Y-111890142D01*
X178515190Y-111891174D01*
X178521778Y-111890829D01*
X178521782Y-111890829D01*
X178581999Y-111887673D01*
X178588593Y-111887500D01*
X178608620Y-111887500D01*
X178611891Y-111887156D01*
X178611895Y-111887156D01*
X178628539Y-111885407D01*
X178635113Y-111884890D01*
X178695316Y-111881735D01*
X178695318Y-111881735D01*
X178701915Y-111881389D01*
X178715028Y-111877875D01*
X178734470Y-111874272D01*
X178735712Y-111874142D01*
X178741385Y-111873546D01*
X178741389Y-111873545D01*
X178747956Y-111872855D01*
X178811581Y-111852182D01*
X178817906Y-111850309D01*
X178825359Y-111848312D01*
X178882524Y-111832994D01*
X178894616Y-111826833D01*
X178912875Y-111819270D01*
X178925785Y-111815075D01*
X178983724Y-111781624D01*
X178989520Y-111778477D01*
X179049125Y-111748107D01*
X179059670Y-111739568D01*
X179075955Y-111728375D01*
X179082002Y-111724884D01*
X179082005Y-111724881D01*
X179087715Y-111721585D01*
X179092615Y-111717173D01*
X179092619Y-111717170D01*
X179122425Y-111690331D01*
X179137432Y-111676819D01*
X179142446Y-111672537D01*
X179155441Y-111662014D01*
X179158006Y-111659937D01*
X179172153Y-111645790D01*
X179176937Y-111641249D01*
X179221766Y-111600885D01*
X179221767Y-111600883D01*
X179226669Y-111596470D01*
X179234652Y-111585482D01*
X179247489Y-111570454D01*
X180404454Y-110413489D01*
X180419482Y-110400652D01*
X180430470Y-110392669D01*
X180475249Y-110342937D01*
X180479790Y-110338153D01*
X180493937Y-110324006D01*
X180506543Y-110308439D01*
X180510827Y-110303424D01*
X180551166Y-110258623D01*
X180551167Y-110258622D01*
X180555585Y-110253715D01*
X180562374Y-110241956D01*
X180573567Y-110225671D01*
X180577948Y-110220260D01*
X180577949Y-110220259D01*
X180582106Y-110215125D01*
X180585106Y-110209238D01*
X180612478Y-110155519D01*
X180615624Y-110149724D01*
X180620591Y-110141120D01*
X180649075Y-110091785D01*
X180651117Y-110085501D01*
X180651119Y-110085496D01*
X180653269Y-110078879D01*
X180660834Y-110060615D01*
X180663994Y-110054413D01*
X180663994Y-110054412D01*
X180666994Y-110048525D01*
X180684310Y-109983899D01*
X180686181Y-109977582D01*
X180702982Y-109925877D01*
X180706855Y-109913956D01*
X180707546Y-109907386D01*
X180708275Y-109900456D01*
X180711876Y-109881023D01*
X180713679Y-109874293D01*
X180715388Y-109867915D01*
X180718889Y-109801120D01*
X180719406Y-109794546D01*
X180721156Y-109777893D01*
X180721500Y-109774620D01*
X180721500Y-109754586D01*
X180721673Y-109747992D01*
X180724829Y-109687782D01*
X180724829Y-109687777D01*
X180725174Y-109681190D01*
X180723051Y-109667785D01*
X180721500Y-109648075D01*
X180721500Y-104727925D01*
X180723051Y-104708214D01*
X180724142Y-104701327D01*
X180724142Y-104701325D01*
X180725174Y-104694810D01*
X180721673Y-104628001D01*
X180721500Y-104621407D01*
X180721500Y-104601380D01*
X180719407Y-104581461D01*
X180718890Y-104574887D01*
X180715735Y-104514684D01*
X180715735Y-104514682D01*
X180715389Y-104508085D01*
X180711875Y-104494972D01*
X180708272Y-104475529D01*
X180707546Y-104468615D01*
X180707545Y-104468611D01*
X180706855Y-104462044D01*
X180686182Y-104398418D01*
X180684309Y-104392094D01*
X180668704Y-104333859D01*
X180666994Y-104327476D01*
X180660833Y-104315384D01*
X180653269Y-104297123D01*
X180651116Y-104290497D01*
X180649075Y-104284215D01*
X180615624Y-104226276D01*
X180612477Y-104220480D01*
X180582107Y-104160875D01*
X180573568Y-104150330D01*
X180562375Y-104134045D01*
X180558884Y-104127998D01*
X180558881Y-104127995D01*
X180555585Y-104122285D01*
X180551173Y-104117385D01*
X180551170Y-104117381D01*
X180510825Y-104072575D01*
X180506537Y-104067554D01*
X180496014Y-104054559D01*
X180493937Y-104051994D01*
X180479790Y-104037847D01*
X180475249Y-104033063D01*
X180434885Y-103988234D01*
X180434883Y-103988233D01*
X180430470Y-103983331D01*
X180419482Y-103975348D01*
X180404454Y-103962511D01*
X179008266Y-102566323D01*
X178974240Y-102504011D01*
X178979305Y-102433196D01*
X179021852Y-102376360D01*
X179088372Y-102351549D01*
X179110199Y-102351884D01*
X179117889Y-102352672D01*
X179117908Y-102352673D01*
X179121100Y-102353000D01*
X180171900Y-102353000D01*
X180175146Y-102352663D01*
X180175150Y-102352663D01*
X180270808Y-102342738D01*
X180270812Y-102342737D01*
X180277666Y-102342026D01*
X180284202Y-102339845D01*
X180284204Y-102339845D01*
X180438498Y-102288368D01*
X180445446Y-102286050D01*
X180595848Y-102192978D01*
X180720805Y-102067803D01*
X180813615Y-101917238D01*
X180869297Y-101749361D01*
X180872878Y-101714416D01*
X180875389Y-101689901D01*
X180880000Y-101644900D01*
X180880000Y-101044100D01*
X180869026Y-100938334D01*
X180843475Y-100861747D01*
X180815368Y-100777502D01*
X180813050Y-100770554D01*
X180719978Y-100620152D01*
X180594803Y-100495195D01*
X180590584Y-100492594D01*
X180550083Y-100435470D01*
X180546851Y-100364547D01*
X180582476Y-100303135D01*
X180590030Y-100296578D01*
X180595848Y-100292978D01*
X180720805Y-100167803D01*
X180728771Y-100154880D01*
X180809775Y-100023468D01*
X180809776Y-100023466D01*
X180813615Y-100017238D01*
X180840064Y-99937495D01*
X180867132Y-99855889D01*
X180867132Y-99855887D01*
X180869297Y-99849361D01*
X180880000Y-99744900D01*
X180880000Y-99144100D01*
X180879663Y-99140850D01*
X180869738Y-99045192D01*
X180869737Y-99045188D01*
X180869026Y-99038334D01*
X180866302Y-99030167D01*
X180815368Y-98877502D01*
X180813050Y-98870554D01*
X180719978Y-98720152D01*
X180594803Y-98595195D01*
X180564427Y-98576471D01*
X180516934Y-98523699D01*
X180505510Y-98453627D01*
X180533784Y-98388503D01*
X180559046Y-98366575D01*
X180558888Y-98366375D01*
X180563359Y-98362831D01*
X180564238Y-98362068D01*
X180570848Y-98357978D01*
X180695805Y-98232803D01*
X180711640Y-98207114D01*
X180784775Y-98088468D01*
X180784776Y-98088466D01*
X180788615Y-98082238D01*
X180839485Y-97928868D01*
X180842132Y-97920889D01*
X180842132Y-97920887D01*
X180844297Y-97914361D01*
X180846179Y-97895998D01*
X180851676Y-97842342D01*
X180855000Y-97809900D01*
X180855000Y-97184100D01*
X180850059Y-97136478D01*
X180844738Y-97085192D01*
X180844737Y-97085188D01*
X180844026Y-97078334D01*
X180788050Y-96910554D01*
X180694978Y-96760152D01*
X180608391Y-96673716D01*
X180574312Y-96611434D01*
X180579315Y-96540614D01*
X180608236Y-96495525D01*
X180690634Y-96412983D01*
X180695805Y-96407803D01*
X180701615Y-96398378D01*
X180784775Y-96263468D01*
X180784776Y-96263466D01*
X180788615Y-96257238D01*
X180834730Y-96118204D01*
X180842132Y-96095889D01*
X180842132Y-96095887D01*
X180844297Y-96089361D01*
X180855000Y-95984900D01*
X180855000Y-95359100D01*
X180852406Y-95334100D01*
X180844738Y-95260192D01*
X180844737Y-95260188D01*
X180844026Y-95253334D01*
X180838403Y-95236478D01*
X180790368Y-95092502D01*
X180788050Y-95085554D01*
X180694978Y-94935152D01*
X180569803Y-94810195D01*
X180555709Y-94801507D01*
X180468884Y-94747987D01*
X180421390Y-94695214D01*
X180409000Y-94640727D01*
X180409000Y-92552454D01*
X180409242Y-92544652D01*
X180412614Y-92490294D01*
X180413068Y-92482984D01*
X180410820Y-92469900D01*
X180409000Y-92448564D01*
X180409000Y-85090500D01*
X180429002Y-85022379D01*
X180482658Y-84975886D01*
X180535000Y-84964500D01*
X180826134Y-84964500D01*
X180888316Y-84957745D01*
X181024705Y-84906615D01*
X181141261Y-84819261D01*
X181228615Y-84702705D01*
X181279745Y-84566316D01*
X181286500Y-84504134D01*
X181286500Y-83772337D01*
X181292498Y-83733924D01*
X181310786Y-83676792D01*
X181312209Y-83672347D01*
X181354700Y-83411441D01*
X181358160Y-83147121D01*
X181322514Y-82885192D01*
X181291534Y-82778905D01*
X181286500Y-82743646D01*
X181286500Y-82007866D01*
X181279745Y-81945684D01*
X181228615Y-81809295D01*
X181141261Y-81692739D01*
X181024705Y-81605385D01*
X180888316Y-81554255D01*
X180826134Y-81547500D01*
X180092023Y-81547500D01*
X180061008Y-81543623D01*
X179887699Y-81499608D01*
X179668144Y-81477500D01*
X172182869Y-81477500D01*
X172114748Y-81457498D01*
X172093774Y-81440595D01*
X161906059Y-71252880D01*
X163495992Y-71252880D01*
X163496355Y-71257028D01*
X163496355Y-71257032D01*
X163521487Y-71544293D01*
X163521488Y-71544301D01*
X163521852Y-71548459D01*
X163586577Y-71838021D01*
X163588019Y-71841941D01*
X163588021Y-71841947D01*
X163687582Y-72112548D01*
X163689029Y-72116480D01*
X163690980Y-72120180D01*
X163690982Y-72120185D01*
X163782784Y-72294302D01*
X163827410Y-72378942D01*
X163999288Y-72620797D01*
X164201642Y-72837796D01*
X164430918Y-73026125D01*
X164683088Y-73182477D01*
X164953722Y-73304105D01*
X165126390Y-73355580D01*
X165234065Y-73387679D01*
X165234067Y-73387679D01*
X165238064Y-73388871D01*
X165242184Y-73389524D01*
X165242186Y-73389524D01*
X165361106Y-73408359D01*
X165531119Y-73435286D01*
X165576146Y-73437331D01*
X165622497Y-73439436D01*
X165622516Y-73439436D01*
X165623916Y-73439500D01*
X165809264Y-73439500D01*
X166030056Y-73424835D01*
X166320910Y-73366188D01*
X166601453Y-73269590D01*
X166605196Y-73267716D01*
X166605200Y-73267714D01*
X166863012Y-73138611D01*
X166863014Y-73138610D01*
X166866756Y-73136736D01*
X167112158Y-72969961D01*
X167333346Y-72772196D01*
X167526436Y-72546914D01*
X167528711Y-72543411D01*
X167685763Y-72301572D01*
X167685765Y-72301569D01*
X167688035Y-72298073D01*
X167815304Y-72030046D01*
X167875696Y-71841947D01*
X167904726Y-71751530D01*
X167904727Y-71751524D01*
X167906006Y-71747542D01*
X167941091Y-71552548D01*
X167957809Y-71459632D01*
X167957810Y-71459627D01*
X167958548Y-71455523D01*
X167967751Y-71252880D01*
X184831992Y-71252880D01*
X184832355Y-71257028D01*
X184832355Y-71257032D01*
X184857487Y-71544293D01*
X184857488Y-71544301D01*
X184857852Y-71548459D01*
X184922577Y-71838021D01*
X184924019Y-71841941D01*
X184924021Y-71841947D01*
X185023582Y-72112548D01*
X185025029Y-72116480D01*
X185026980Y-72120180D01*
X185026982Y-72120185D01*
X185118784Y-72294302D01*
X185163410Y-72378942D01*
X185335288Y-72620797D01*
X185537642Y-72837796D01*
X185766918Y-73026125D01*
X186019088Y-73182477D01*
X186289722Y-73304105D01*
X186462390Y-73355580D01*
X186570065Y-73387679D01*
X186570067Y-73387679D01*
X186574064Y-73388871D01*
X186578184Y-73389524D01*
X186578186Y-73389524D01*
X186697106Y-73408359D01*
X186867119Y-73435286D01*
X186912146Y-73437331D01*
X186958497Y-73439436D01*
X186958516Y-73439436D01*
X186959916Y-73439500D01*
X187145264Y-73439500D01*
X187366056Y-73424835D01*
X187656910Y-73366188D01*
X187937453Y-73269590D01*
X187941196Y-73267716D01*
X187941200Y-73267714D01*
X188199012Y-73138611D01*
X188199014Y-73138610D01*
X188202756Y-73136736D01*
X188448158Y-72969961D01*
X188669346Y-72772196D01*
X188862436Y-72546914D01*
X188864711Y-72543411D01*
X189021763Y-72301572D01*
X189021765Y-72301569D01*
X189024035Y-72298073D01*
X189151304Y-72030046D01*
X189211696Y-71841947D01*
X189240726Y-71751530D01*
X189240727Y-71751524D01*
X189242006Y-71747542D01*
X189277091Y-71552548D01*
X189293809Y-71459632D01*
X189293810Y-71459627D01*
X189294548Y-71455523D01*
X189303751Y-71252880D01*
X189307819Y-71163290D01*
X189307819Y-71163285D01*
X189308008Y-71159120D01*
X189307645Y-71154968D01*
X189282513Y-70867707D01*
X189282512Y-70867699D01*
X189282148Y-70863541D01*
X189217423Y-70573979D01*
X189146773Y-70381954D01*
X189116418Y-70299452D01*
X189116416Y-70299448D01*
X189114971Y-70295520D01*
X188976590Y-70033058D01*
X188804712Y-69791203D01*
X188602358Y-69574204D01*
X188373082Y-69385875D01*
X188120912Y-69229523D01*
X187850278Y-69107895D01*
X187677610Y-69056420D01*
X187569935Y-69024321D01*
X187569933Y-69024321D01*
X187565936Y-69023129D01*
X187561816Y-69022476D01*
X187561814Y-69022476D01*
X187442894Y-69003641D01*
X187272881Y-68976714D01*
X187227854Y-68974669D01*
X187181503Y-68972564D01*
X187181484Y-68972564D01*
X187180084Y-68972500D01*
X186994736Y-68972500D01*
X186773944Y-68987165D01*
X186483090Y-69045812D01*
X186202547Y-69142410D01*
X186198804Y-69144284D01*
X186198800Y-69144286D01*
X186024179Y-69231730D01*
X185937244Y-69275264D01*
X185691842Y-69442039D01*
X185470654Y-69639804D01*
X185277564Y-69865086D01*
X185275290Y-69868588D01*
X185275289Y-69868589D01*
X185170698Y-70029646D01*
X185115965Y-70113927D01*
X184988696Y-70381954D01*
X184987417Y-70385937D01*
X184987416Y-70385940D01*
X184927044Y-70573979D01*
X184897994Y-70664458D01*
X184897253Y-70668577D01*
X184862174Y-70863541D01*
X184845452Y-70956477D01*
X184845263Y-70960644D01*
X184845262Y-70960651D01*
X184836060Y-71163290D01*
X184831992Y-71252880D01*
X167967751Y-71252880D01*
X167971819Y-71163290D01*
X167971819Y-71163285D01*
X167972008Y-71159120D01*
X167971645Y-71154968D01*
X167946513Y-70867707D01*
X167946512Y-70867699D01*
X167946148Y-70863541D01*
X167881423Y-70573979D01*
X167810773Y-70381954D01*
X167780418Y-70299452D01*
X167780416Y-70299448D01*
X167778971Y-70295520D01*
X167640590Y-70033058D01*
X167468712Y-69791203D01*
X167266358Y-69574204D01*
X167037082Y-69385875D01*
X166784912Y-69229523D01*
X166514278Y-69107895D01*
X166341610Y-69056420D01*
X166233935Y-69024321D01*
X166233933Y-69024321D01*
X166229936Y-69023129D01*
X166225816Y-69022476D01*
X166225814Y-69022476D01*
X166106894Y-69003641D01*
X165936881Y-68976714D01*
X165891854Y-68974669D01*
X165845503Y-68972564D01*
X165845484Y-68972564D01*
X165844084Y-68972500D01*
X165658736Y-68972500D01*
X165437944Y-68987165D01*
X165147090Y-69045812D01*
X164866547Y-69142410D01*
X164862804Y-69144284D01*
X164862800Y-69144286D01*
X164688179Y-69231730D01*
X164601244Y-69275264D01*
X164355842Y-69442039D01*
X164134654Y-69639804D01*
X163941564Y-69865086D01*
X163939290Y-69868588D01*
X163939289Y-69868589D01*
X163834698Y-70029646D01*
X163779965Y-70113927D01*
X163652696Y-70381954D01*
X163651417Y-70385937D01*
X163651416Y-70385940D01*
X163591044Y-70573979D01*
X163561994Y-70664458D01*
X163561253Y-70668577D01*
X163526174Y-70863541D01*
X163509452Y-70956477D01*
X163509263Y-70960644D01*
X163509262Y-70960651D01*
X163500060Y-71163290D01*
X163495992Y-71252880D01*
X161906059Y-71252880D01*
X159004882Y-68351703D01*
X159003723Y-68350530D01*
X158919029Y-68263589D01*
X158919027Y-68263587D01*
X158915774Y-68260248D01*
X158912064Y-68257427D01*
X158908550Y-68254318D01*
X158908570Y-68254296D01*
X158899937Y-68246758D01*
X148910826Y-58257647D01*
X148905918Y-58252453D01*
X148856031Y-58196559D01*
X148856029Y-58196557D01*
X148852914Y-58193067D01*
X148764076Y-58119181D01*
X148762425Y-58117784D01*
X148678397Y-58045380D01*
X148678393Y-58045377D01*
X148674859Y-58042332D01*
X148668648Y-58038413D01*
X148655322Y-58028731D01*
X148653275Y-58027029D01*
X148653273Y-58027027D01*
X148649676Y-58024036D01*
X148641366Y-58018993D01*
X148550858Y-57964071D01*
X148548989Y-57962914D01*
X148455249Y-57903769D01*
X148455247Y-57903768D01*
X148451296Y-57901275D01*
X148447017Y-57899392D01*
X148447011Y-57899389D01*
X148444586Y-57898322D01*
X148429973Y-57890716D01*
X148427677Y-57889323D01*
X148423686Y-57886901D01*
X148419377Y-57885094D01*
X148317090Y-57842201D01*
X148315070Y-57841333D01*
X148213622Y-57796695D01*
X148213621Y-57796694D01*
X148209340Y-57794811D01*
X148204831Y-57793582D01*
X148204826Y-57793580D01*
X148202265Y-57792882D01*
X148186680Y-57787517D01*
X148179909Y-57784677D01*
X148067848Y-57756217D01*
X148065834Y-57755687D01*
X147954306Y-57725281D01*
X147949675Y-57724733D01*
X147949660Y-57724730D01*
X147947013Y-57724417D01*
X147930814Y-57721415D01*
X147928236Y-57720760D01*
X147928233Y-57720759D01*
X147923699Y-57719608D01*
X147808696Y-57708027D01*
X147806628Y-57707801D01*
X147691795Y-57694210D01*
X147586088Y-57697440D01*
X147586048Y-57697441D01*
X147582200Y-57697500D01*
X140207500Y-57697500D01*
X140139379Y-57677498D01*
X140092886Y-57623842D01*
X140081500Y-57571500D01*
X140081500Y-55757866D01*
X140074745Y-55695684D01*
X140023615Y-55559295D01*
X139936261Y-55442739D01*
X139819705Y-55355385D01*
X139683316Y-55304255D01*
X139621134Y-55297500D01*
X133174866Y-55297500D01*
X133112684Y-55304255D01*
X132976295Y-55355385D01*
X132859739Y-55442739D01*
X132772385Y-55559295D01*
X132721255Y-55695684D01*
X132714500Y-55757866D01*
X132714500Y-63194134D01*
X130144670Y-63194134D01*
X130173561Y-62970154D01*
X130174172Y-62965417D01*
X130168065Y-62706311D01*
X130122837Y-62451110D01*
X130039527Y-62205687D01*
X130037326Y-62201451D01*
X130037324Y-62201445D01*
X129956104Y-62045090D01*
X129920053Y-61975689D01*
X129767163Y-61766410D01*
X129641651Y-61640238D01*
X129587752Y-61586055D01*
X129587747Y-61586051D01*
X129584378Y-61582664D01*
X129375901Y-61428681D01*
X129369456Y-61425290D01*
X129150768Y-61310232D01*
X129150761Y-61310229D01*
X129146532Y-61308004D01*
X129142016Y-61306445D01*
X129142010Y-61306442D01*
X129015435Y-61262736D01*
X128901549Y-61223410D01*
X128783807Y-61201907D01*
X128650559Y-61177571D01*
X128650555Y-61177571D01*
X128646588Y-61176846D01*
X128563658Y-61172500D01*
X128402097Y-61172500D01*
X128399718Y-61172681D01*
X128399717Y-61172681D01*
X128214336Y-61186782D01*
X128214331Y-61186783D01*
X128209569Y-61187145D01*
X128204916Y-61188224D01*
X128204913Y-61188224D01*
X128056822Y-61222550D01*
X127957085Y-61245668D01*
X127716358Y-61341708D01*
X127492928Y-61473056D01*
X127489217Y-61476077D01*
X127489213Y-61476080D01*
X127361791Y-61579818D01*
X127291937Y-61636688D01*
X127288728Y-61640233D01*
X127288723Y-61640238D01*
X127171021Y-61770274D01*
X127118010Y-61828840D01*
X126975149Y-62045090D01*
X126973148Y-62049430D01*
X126973146Y-62049434D01*
X126899025Y-62210215D01*
X126866642Y-62280460D01*
X126794985Y-62529535D01*
X126761828Y-62786583D01*
X124763957Y-62786583D01*
X124762065Y-62706311D01*
X124716837Y-62451110D01*
X124633527Y-62205687D01*
X124631326Y-62201451D01*
X124631324Y-62201445D01*
X124550104Y-62045090D01*
X124514053Y-61975689D01*
X124361163Y-61766410D01*
X124235651Y-61640238D01*
X124181752Y-61586055D01*
X124181747Y-61586051D01*
X124178378Y-61582664D01*
X123969901Y-61428681D01*
X123963456Y-61425290D01*
X123744768Y-61310232D01*
X123744761Y-61310229D01*
X123740532Y-61308004D01*
X123736016Y-61306445D01*
X123736010Y-61306442D01*
X123609435Y-61262736D01*
X123495549Y-61223410D01*
X123377807Y-61201907D01*
X123244559Y-61177571D01*
X123244555Y-61177571D01*
X123240588Y-61176846D01*
X123157658Y-61172500D01*
X122996097Y-61172500D01*
X122993718Y-61172681D01*
X122993717Y-61172681D01*
X122808336Y-61186782D01*
X122808331Y-61186783D01*
X122803569Y-61187145D01*
X122798916Y-61188224D01*
X122798913Y-61188224D01*
X122650822Y-61222550D01*
X122551085Y-61245668D01*
X122310358Y-61341708D01*
X122086928Y-61473056D01*
X122083217Y-61476077D01*
X122083213Y-61476080D01*
X121955791Y-61579818D01*
X121885937Y-61636688D01*
X121882728Y-61640233D01*
X121882723Y-61640238D01*
X121765021Y-61770274D01*
X121712010Y-61828840D01*
X121569149Y-62045090D01*
X121567148Y-62049430D01*
X121567146Y-62049434D01*
X121493025Y-62210215D01*
X121460642Y-62280460D01*
X121388985Y-62529535D01*
X121355828Y-62786583D01*
X118745500Y-62786583D01*
X118745500Y-55717866D01*
X118738745Y-55655684D01*
X118687615Y-55519295D01*
X118600261Y-55402739D01*
X118483705Y-55315385D01*
X118347316Y-55264255D01*
X118285134Y-55257500D01*
X113870866Y-55257500D01*
X113808684Y-55264255D01*
X113672295Y-55315385D01*
X113555739Y-55402739D01*
X113468385Y-55519295D01*
X113417255Y-55655684D01*
X113410500Y-55717866D01*
X113410500Y-63154134D01*
X108813830Y-63154134D01*
X108837561Y-62970154D01*
X108838172Y-62965417D01*
X108832065Y-62706311D01*
X108786837Y-62451110D01*
X108703527Y-62205687D01*
X108701326Y-62201451D01*
X108701324Y-62201445D01*
X108620104Y-62045090D01*
X108584053Y-61975689D01*
X108431163Y-61766410D01*
X108305651Y-61640238D01*
X108251752Y-61586055D01*
X108251747Y-61586051D01*
X108248378Y-61582664D01*
X108039901Y-61428681D01*
X108033456Y-61425290D01*
X107814768Y-61310232D01*
X107814761Y-61310229D01*
X107810532Y-61308004D01*
X107806016Y-61306445D01*
X107806010Y-61306442D01*
X107679435Y-61262736D01*
X107565549Y-61223410D01*
X107447807Y-61201907D01*
X107314559Y-61177571D01*
X107314555Y-61177571D01*
X107310588Y-61176846D01*
X107227658Y-61172500D01*
X107066097Y-61172500D01*
X107063718Y-61172681D01*
X107063717Y-61172681D01*
X106878336Y-61186782D01*
X106878331Y-61186783D01*
X106873569Y-61187145D01*
X106868916Y-61188224D01*
X106868913Y-61188224D01*
X106720822Y-61222550D01*
X106621085Y-61245668D01*
X106380358Y-61341708D01*
X106156928Y-61473056D01*
X106153217Y-61476077D01*
X106153213Y-61476080D01*
X106025791Y-61579818D01*
X105955937Y-61636688D01*
X105952728Y-61640233D01*
X105952723Y-61640238D01*
X105835021Y-61770274D01*
X105782010Y-61828840D01*
X105639149Y-62045090D01*
X105637148Y-62049430D01*
X105637146Y-62049434D01*
X105563025Y-62210215D01*
X105530642Y-62280460D01*
X105458985Y-62529535D01*
X105425828Y-62786583D01*
X102108500Y-62786583D01*
X102108500Y-55933250D01*
X102110246Y-55912345D01*
X102112770Y-55897344D01*
X102112770Y-55897341D01*
X102113576Y-55892552D01*
X102113729Y-55880000D01*
X102113039Y-55875184D01*
X102113039Y-55875178D01*
X102111387Y-55863644D01*
X102110234Y-55840284D01*
X102113684Y-55761283D01*
X102125656Y-55487063D01*
X102126614Y-55476114D01*
X102177233Y-55091621D01*
X102179142Y-55080795D01*
X102263080Y-54702178D01*
X102265925Y-54691561D01*
X102382539Y-54321706D01*
X102386298Y-54311377D01*
X102534711Y-53953077D01*
X102539357Y-53943115D01*
X102588114Y-53849455D01*
X102718424Y-53599132D01*
X102723919Y-53589613D01*
X102932292Y-53262532D01*
X102938597Y-53253528D01*
X103174678Y-52945862D01*
X103181743Y-52937442D01*
X103443744Y-52651517D01*
X103451517Y-52643744D01*
X103737442Y-52381743D01*
X103745862Y-52374678D01*
X104053528Y-52138597D01*
X104062532Y-52132292D01*
X104389613Y-51923919D01*
X104399133Y-51918423D01*
X104743124Y-51739353D01*
X104753068Y-51734715D01*
X105111385Y-51586295D01*
X105121698Y-51582542D01*
X105321298Y-51519608D01*
X105491561Y-51465925D01*
X105502178Y-51463080D01*
X105880795Y-51379142D01*
X105891621Y-51377233D01*
X106276114Y-51326614D01*
X106287063Y-51325656D01*
X106636554Y-51310397D01*
X106661429Y-51311777D01*
X106673724Y-51313691D01*
X106682626Y-51312527D01*
X106682628Y-51312527D01*
X106701399Y-51310072D01*
X106705286Y-51309564D01*
X106721621Y-51308500D01*
X126807889Y-51308500D01*
X126877781Y-51329662D01*
G37*
%TD.AperFunction*%
%TD*%
M02*
